<?xml version="1.0" encoding="utf-8"?>
<!-- Generator: Adobe Illustrator 19.0.0, SVG Export Plug-In . SVG Version: 6.00 Build 0)  -->
<svg version="1.1" id="Capa_1" xmlns="http://www.w3.org/2000/svg" xmlns:xlink="http://www.w3.org/1999/xlink" x="0px" y="0px"
	 viewBox="-64.1 540.6 248 230.8" style="enable-background:new -64.1 540.6 248 230.8;" xml:space="preserve">
<style type="text/css">
	.st0{fill:#0F1C2A;}
	.st1{fill:#BEE3EE;}
</style>
<title>analítica y ciencia de datos</title>
<g>
	<g>
		<g>
			<g>
				<path class="st0" d="M59.9,540.7c-67.9,0-123.1,51.7-123.1,115.1c0,45.7,29.6,85.6,71,104.1l-0.9-7.2
					c-37.7-18.1-63.6-54.7-63.6-96.9c0-60,52.3-108.9,116.6-108.9s116.6,48.8,116.6,108.9c0,42.2-25.9,78.8-63.6,96.9v7
					c41.4-18.6,70.1-58.2,70.1-103.9C183,592.4,127.8,540.7,59.9,540.7z"/>
			</g>
		</g>
		<g>
			<g>
				<path class="st0" d="M11,762.2L3.4,759c-43.4-19.5-67.5-58.1-67.5-102.4c0-64,55.6-116,124-116s124,52.1,124,116
					c0,44.4-26.8,84.1-69.7,103.4l-2.2,0.9V753l0.5-0.2c38.9-18.6,63.1-55.5,63.1-96.1c0-59.5-51.9-108-115.7-108
					s-115.7,48.4-115.7,108c0,40.6,24.2,77.5,63.1,96.1l0.4,0.2L11,762.2z M59.9,542.4c-67.4,0-122.2,51.3-122.2,114.2
					c0,43.1,27,83.2,69,102.7L6,754.1c-39.3-19-63.6-56.3-63.6-97.5c0-60.5,52.7-109.8,117.5-109.8S177.4,596,177.4,656.6
					c0,41.2-24.3,78.5-63.6,97.5v5c41.5-19.2,68.3-59.3,68.3-102.5C182.1,593.6,127.3,542.4,59.9,542.4z"/>
			</g>
		</g>
	</g>
	<g>
		<path class="st0" d="M-4.2,643.3c-11.4,3-22.2,8.6-31.2,16.7l0,0l0,0l0,0l0,0c-2.2,2-2.2,5.2-0.1,7.1c2.1,1.9,5.7,1.9,7.9-0.1l0,0
			c7-6.3,15.2-10.8,24-13.5"/>
	</g>
	<g>
		<path class="st0" d="M-4,663.3c-5.7,2.2-11,5.5-15.6,9.7l-0.1,0.2c-2.2,2-2.3,5.2-0.1,7.1c2.2,1.9,5.7,1.8,7.9-0.2l0.1-0.1
			c2.4-2.1,4.9-3.9,7.7-5.4"/>
	</g>
	<g>
		<path class="st0" d="M-2.2,684.3c-1.9,1-3.7,2.2-5.3,3.5l0,0l0,0c-2.3,2-2.4,5.2,0,7c1.5,1.2,3.7,1.6,5.7,1.2"/>
	</g>
	<g>
		<path class="st1" d="M116.4,657c-1.8-0.4-3.9,0.1-5.4,1.4l0,0c-1,0.9-2.1,1.7-3.3,2.4"/>
	</g>
	<g>
		<path class="st0" d="M121.8,665.1c0.8-0.6,1.6-1.2,2.3-1.9l0.1-0.1c2.2-2,2.3-5.2,0.1-7.2c-0.7-0.6-1.6-1.1-2.5-1.3"/>
	</g>
	<g>
		<path class="st0" d="M107.7,660.8c-7,4-16.5,3.2-22.6-2.3l0,0c-5.1-4.6-10.8-8.4-16.9-11.4v11.6c3.2,2,6.2,4.2,9.1,6.8l0,0l0,0
			c8.2,7.4,20.1,9.5,30.4,6.3c3.1-1,6-2.4,8.7-4.4"/>
	</g>
	<g>
		<path class="st0" d="M121.8,687.3c6.5-2.3,12.6-5.8,17.8-10.5l0.2-0.2c2.2-2,2.3-5.2,0.2-7.2c-2.1-1.9-5.7-1.9-7.9,0.1l-0.2,0.2
			c-3,2.7-6.4,5-10,6.6"/>
	</g>
	<g>
		<path class="st0" d="M116.4,679.2c-15.1,7-34.1,4.8-46.7-6.6l0,0c-0.5-0.4-0.9-0.8-1.4-1.2v13.1c14.2,9.2,32.3,11,48.1,5.6"/>
	</g>
	<g>
		<path class="st0" d="M121.8,709.8c12.3-2.8,23.9-8.6,33.6-17.3l0.2-0.2c2.2-2,2.3-5.2,0.2-7.2c-2.1-1.9-5.7-1.9-7.9,0.1l-0.2,0.2
			c-7.4,6.7-16.2,11.4-25.5,14"/>
	</g>
	<g>
		<path class="st0" d="M116.4,700.5c-15.8,4.4-33.3,3-48.1-4.4v11.1c15.1,6.1,32,7.3,47.8,3.7"/>
	</g>
	<g>
		<path class="st0" d="M56.9,592.2L3.4,620.5v20c16.7-4.3,34.8-3.3,50.8,3.2v11.1c-15.5-7.7-34.3-9-50.8-4v10.8
			c16.4-6.5,35.9-4.9,50.8,4.9v13.2c-0.5-0.4-1.1-0.9-1.6-1.4l0,0c-13.4-12-33.7-13.8-49.2-5.5v8.9c12.6-6.5,29.5-5.2,40.4,3.7
			c3.2,2.6,6.7,4.9,10.4,6.9v11.6c-6.9-3-13.3-6.8-19.1-11.5c-1.8-1.5-3.9-2.6-6.1-3.4c-4.2-1.5-8.9-1.8-13.3-0.9
			c-2.2,0.5-4.3,1.2-6.3,2.3s-3.9,2.5-6.1,3.4v-0.3V759c17,7.9,36.2,12.4,56.5,12.4c0.7,0,1.3,0,2,0V603.3l45.8,22.8v136.6
			c2.9-1.1,5.8-2.3,8.7-3.6V621.7L56.9,592.2z"/>
	</g>
</g>
</svg>
