<?xml version="1.0" encoding="utf-8"?>
<!-- Generator: Adobe Illustrator 19.0.0, SVG Export Plug-In . SVG Version: 6.00 Build 0)  -->
<svg version="1.1" id="Capa_1" xmlns="http://www.w3.org/2000/svg" xmlns:xlink="http://www.w3.org/1999/xlink" x="0px" y="0px"
	 viewBox="-273 506.3 244.9 212.7" style="enable-background:new -273 506.3 244.9 212.7;" xml:space="preserve">
<style type="text/css">
	.st0{fill:none;stroke:#11202D;stroke-width:5;stroke-miterlimit:10;}
	.st1{fill:#2F5C67;}
</style>
<title>analítica y ciencia de datos</title>
<g>
	<g>
		<path class="st0" d="M-145.7,635.9c6.3-9.6,12.5-19.2,18.9-29c-8.9-7.4-14.5-16.7-15.8-28.2c-1.3-11.5,1.9-21.9,9.2-31.4
			c-0.9-0.1-1.6-0.1-2.2-0.1c-40.3,0-80.5,0-120.8,0c-4.3,0-5.4,1.1-5.4,5.5c0,44.8,0,89.6,0,134.5c0,4.2,1.1,5.4,5.3,5.4
			c68.2,0,136.3,0,204.5,0c3.8,0,5-1.3,5-5c0-45.1,0-90.2,0-135.3c0-3.7-1.2-4.9-4.9-5c-4.7,0-9.4,0-14.1,0c-0.6,0-1.2,0.1-2.1,0.1
			c7.3,9.5,10.5,20,9.2,31.7c-1,8.7-4.6,16.3-10.4,22.9c-11.2,12.7-31.4,19.1-51.2,9.3c-6.2,9.6-12.5,19.2-18.4,28.2
			c1.2,3.4,2.7,6.3,3.3,9.4c1.1,6-2.1,11.9-7.5,14.9c-5.7,3.2-11.4,2.8-16.8-1c-5-3.5-7.3-10-5.7-15.7c0.6-2.1,0.2-3.2-1.5-4.4
			c-2.6-1.8-5.1-3.9-7.7-5.8c-0.5-0.3-1.4-0.6-1.8-0.4c-6.1,3.9-12.1,3.5-18.1-0.5c-3.4,2.6-6.8,5.2-10.1,7.9
			c-0.4,0.4-0.5,1.6-0.3,2.3c2.3,7.8-1.4,15.9-8.8,19.1c-7.3,3.2-15.8,0.3-19.8-6.6c-3.5-6.1-2.5-13.7,2.5-18.7
			c5-5,12.8-6.2,18.9-2.5c1.5,0.9,2.4,0.8,3.6-0.3c2.6-2.1,5.2-4.2,7.9-6.2c0.9-0.7,1.3-1.3,0.9-2.6c-2-6.5,0.2-13.2,5.6-17
			c5.3-3.8,12.4-3.8,17.7-0.1c5.4,3.8,7.8,10.5,5.9,17c-0.4,1.3-0.3,2,0.8,2.8c2.9,2.1,5.6,4.4,8.5,6.5c0.5,0.4,1.5,0.7,1.9,0.4
			C-155,635-150.6,634.5-145.7,635.9z"/>
		<path class="st1" d="M-143,650.4c0-4.2-3.4-7.6-7.6-7.6c-4.3,0-7.7,3.4-7.7,7.7c0,4.2,3.4,7.6,7.6,7.6
			C-146.4,658.1-143,654.7-143,650.4z"/>
		<path class="st1" d="M-177.5,623.6c0-4.2-3.4-7.6-7.6-7.6c-4.2,0-7.7,3.5-7.7,7.8c0.1,4.2,3.5,7.6,7.6,7.6
			C-180.9,631.3-177.5,627.8-177.5,623.6z"/>
		<path class="st1" d="M-211.9,650.3c-0.1-4.2-3.7-7.6-7.9-7.5c-4.1,0.1-7.5,3.6-7.5,7.7c0,4.2,3.6,7.7,7.8,7.6
			C-215.3,658-211.9,654.5-211.9,650.3z"/>
	</g>
</g>
<g>
	<g>
		<path class="st1" d="M-118.1,599h-8.6v-51.4h8.6V599z"/>
	</g>
	<path class="st1" d="M-86.8,547.6h-9.3l-17.5,51.4h9l5.1-15.5h15.8l5.3,15.5h9.2L-86.8,547.6z M-97.4,576.3l4.4-12.8
		c0.5-1.6,1-3.1,1.5-5c0.5,1.6,0.9,3.3,1.6,5.1l4.3,12.7H-97.4z"/>
</g>
<path class="st1" d="M-242.6,673.3c1.3,0,2.2,0,3.1,0c58.4,0,116.9,0,175.3,0c0.9,0,1.8,0,2.7,0.2c1.9,0.4,3,2,3,3.8
	c-0.1,1.8-1.3,3.3-3.2,3.6c-0.9,0.1-1.8,0.1-2.7,0.1c-60.2,0-120.4,0-180.5,0c-4.1,0-5.3-1.2-5.3-5.2c0-37.3,0-74.6,0-111.9
	c0-0.7,0-1.4,0.1-2.1c0.3-2,1.8-3.3,3.8-3.3c1.9,0,3.5,1.3,3.8,3.3c0.1,1,0.1,1.9,0.1,2.9c0,35.3,0,70.7,0,106
	C-242.6,671.6-242.6,672.3-242.6,673.3z"/>
</svg>
