<?xml version="1.0" encoding="utf-8"?>
<!-- Generator: Adobe Illustrator 19.0.0, SVG Export Plug-In . SVG Version: 6.00 Build 0)  -->
<svg version="1.1" id="Capa_1" xmlns="http://www.w3.org/2000/svg" xmlns:xlink="http://www.w3.org/1999/xlink" x="0px" y="0px"
	 viewBox="-102.6 310.2 614.1 511.8" style="enable-background:new -102.6 310.2 614.1 511.8;" xml:space="preserve">
<style type="text/css">
	.st0{fill:#FFFFFF;}
	.st1{fill:#0F1F2C;}
	.st2{fill:#11202D;}
	.st3{fill:none;}
</style>
<title>analítica y ciencia de datos</title>
<g id="XMLID_99_">
	<g id="XMLID_1_">
		<g id="XMLID_116_">
			<g id="XMLID_27_">
				<path class="st0" d="M446.2,727.6H337.8c-21.9,0-39.6-17.8-39.6-39.6c0-18.5,13-34.6,30.7-38.6c1.9-22.8,21.1-40.8,44.3-40.8
					c17.6,0,33.6,10.5,40.7,26.5c0.3,0,0.6,0,0.8,0c10.5,0,20.2,5,26.4,13.4h5.2c21.9,0,39.6,17.8,39.6,39.6
					S468.1,727.6,446.2,727.6z M373.2,616.5c-19.9,0-36.3,16.2-36.4,36.2c0,2-1.5,3.7-3.4,3.9c-15.5,2.2-27.1,15.6-27.1,31.3
					c0,17.4,14.2,31.6,31.6,31.6h108.4c17.4,0,31.6-14.2,31.6-31.6s-14.2-31.6-31.6-31.6h-7.3c-1.4,0-2.6-0.7-3.4-1.9
					c-4.6-7.2-12.4-11.5-20.9-11.5c-1,0-2,0.1-2.9,0.2c-1.9,0.3-3.6-0.8-4.3-2.6C402.3,626.2,388.5,616.5,373.2,616.5z"/>
			</g>
			<g id="XMLID_8_">
				<g id="XMLID_12_">
					<path class="st0" d="M492.4,707.4c-1.3,0-2.5-0.6-3.3-1.7c-1.3-1.8-0.9-4.3,0.9-5.6c8.4-5.9,13.4-15.6,13.4-25.8
						c0-17.4-14.2-31.6-31.6-31.6h-7.3c-1.4,0-2.6-0.7-3.4-1.9c-4.6-7.2-12.4-11.5-20.9-11.5c-1,0-2,0.1-2.9,0.2
						c-1.9,0.3-3.6-0.8-4.3-2.6c-5.2-14.4-19-24-34.2-24c-5.3,0-10.5,1.2-15.4,3.4c-2,0.9-4.4,0.1-5.3-1.9c-0.9-2-0.1-4.4,1.9-5.3
						c6-2.8,12.3-4.2,18.8-4.2c17.6,0,33.5,10.5,40.6,26.5c0.3,0,0.6,0,0.8,0c10.5,0,20.2,5,26.4,13.4h5.2
						c21.9,0,39.6,17.8,39.6,39.6c0,12.8-6.3,24.9-16.7,32.4C494,707.2,493.2,707.4,492.4,707.4z"/>
				</g>
			</g>
			<g id="XMLID_11_">
				<g id="XMLID_28_">
					<path class="st1" d="M359.7,716.6h-14.9v-56.8h14.9V716.6z M348.8,712.6h6.9v-48.8h-6.9V712.6z"/>
				</g>
				<g id="XMLID_33_">
					<path class="st1" d="M423.1,716.6h-14.9v-44h-15.9v-12.8h47.1v12.8h-16.2V716.6z M412.2,712.6h6.9v-44h16.2v-4.8h-39.1v4.8
						h15.9V712.6z"/>
				</g>
				<g id="XMLID_13_">
					<path class="st1" d="M384,717.3c-6.2,0-11.2-2-15-6.1c-3.7-4.1-5.6-9.4-5.6-15.8l0.1-2.8c0.4-6.1,2.5-11,6.2-14.6
						c3.8-3.7,8.5-5.4,14.4-5.4c4.1,0,7.7,0.9,10.9,2.8c3.2,1.9,5.6,4.6,7.2,7.9c1.6,3.4,2.5,7.2,2.5,11.3l-0.1,0.6
						c0,6.6-1.9,12-5.6,16C395.2,715.2,390.1,717.3,384,717.3z M384,676.6c-4.8,0-8.6,1.4-11.6,4.3c-3,2.9-4.6,6.9-5,11.9l-0.1,2.6
						c0,5.5,1.5,9.7,4.5,13.1c3,3.2,7,4.8,12,4.8c5.1,0,9-1.6,12.1-4.8c3-3.3,4.5-7.7,4.5-13.5l0.1-0.6c0-3.5-0.7-6.6-2.1-9.4
						c-1.3-2.6-3.2-4.7-5.7-6.2C390.3,677.3,387.5,676.6,384,676.6z M383.9,708.8c-3.3,0-5.8-1.3-7.6-3.8c-1.6-2.3-2.5-5.8-2.5-10.5
						c0-4.1,0.8-7.3,2.5-9.7c1.8-2.5,4.4-3.9,7.7-3.9c3.2,0,5.8,1.3,7.6,3.9c1.7,2.4,2.5,5.8,2.5,10.5c0,4.1-0.8,7.3-2.5,9.7
						C389.8,707.6,387.2,708.8,383.9,708.8z M384,685c-1.9,0-3.4,0.7-4.4,2.2c-1.2,1.6-1.8,4.2-1.8,7.4c0,4.8,0.9,7.1,1.7,8.2
						c1,1.5,2.4,2.1,4.3,2.1c2,0,3.4-0.6,4.4-2.1c1.2-1.6,1.8-4.2,1.8-7.4c0-3.8-0.6-6.5-1.8-8.2l0,0C387.2,685.7,385.9,685,384,685
						z"/>
				</g>
			</g>
		</g>
	</g>
</g>
<g>
	<g>
		<path class="st2" d="M-39.9,660.2h-9.3v-55.5h9.3V660.2z M-46.8,657.8h4.4v-50.6h-4.4V657.8z"/>
	</g>
	<g>
		<path class="st2" d="M12.9,660.2H3l-5.7-16.7h-17.1l-5.5,16.7h-9.7l18.9-55.5h10L12.9,660.2z M4.7,657.8h4.7l-17.3-50.6h-6.5
			l-17.2,50.6h4.5l5.5-16.7h20.6L4.7,657.8z M-1.5,638.2h-19.4l5.7-17c0.9-2.8,1.7-5.8,2.6-9.5l0.2-0.9h2.1l0.4,1.5
			c0.7,2.9,1.5,5.8,2.6,9.1L-1.5,638.2z M-17.5,635.7h12.6l-4.6-13.7c-0.7-1.9-1.2-3.8-1.7-5.5c-0.5,2-1.1,3.7-1.6,5.4L-17.5,635.7z
			"/>
	</g>
</g>
<g>
	<polygon class="st3" points="-9.9,631.6 -10.5,629.9 -11.1,631.6 	"/>
	<circle class="st3" cx="-58.2" cy="645.1" r="2"/>
	<path class="st3" d="M-70.9,661c-1.1,0-2,0.9-2,2c0,1.1,0.9,2,2,2c1,0,1.8-0.7,1.9-1.7c0-0.1,0-0.1,0-0.2c0-0.1,0-0.2,0.1-0.3
		C-69,661.9-69.8,661-70.9,661z"/>
	<path class="st3" d="M9.5,635.6l0.8,2.4c0.1-0.2,0.1-0.5,0.1-0.7C10.5,636.6,10.1,636,9.5,635.6z"/>
	<circle class="st3" cx="20.7" cy="637.3" r="2"/>
	<path class="st3" d="M-23.4,613.9c0,0.5,0,0.9,0.1,1.4l2.5-7.4C-22.3,609.4-23.4,611.5-23.4,613.9z"/>
	<polygon class="st3" points="-35.1,646.1 -35.1,650.3 -33.9,646.5 -34.3,646.1 	"/>
	<circle class="st3" cx="-73" cy="630.2" r="2"/>
	<polygon class="st3" points="-33.4,644 -33.1,644.3 -31.9,640.8 -32.5,640.2 -35.1,640.2 -35.1,644 	"/>
	<path class="st3" d="M-25.4,613.9c0-4,2.4-7.5,5.8-9.2l1-2.9c-5.3,1.5-9.1,6.4-9.1,12.1c0,2.8,0.9,5.4,2.5,7.5l1-2.9
		C-25,617.1-25.4,615.5-25.4,613.9z"/>
	<path class="st0" d="M36.7,726.7c-2.2-2.6-4.4-5.2-6.6-7.7c-2.4-2.7-4-5.8-4.7-9.4c-1-5-2-9.9-2.3-15c-0.2-3.2-0.1-6.4,0.4-9.5
		c1.1-7.3,3.8-14,6.9-20.6c2.4-5.1,4.5-10.3,5.6-15.9c1.2-5.6,1.6-11.3,1.1-17.1c-0.5-6.2-2.5-12-5.6-17.4
		c-3.8-6.6-8.8-12.2-14.9-16.8c-6.3-4.8-13.2-8.3-20.7-10.7c-6.3-1.9-12.7-2.9-19.3-3.1c-2.4-0.1-4.8,0-7.2,0.2
		c-1.7,0.1-3.4,0.2-5,0.5c-3.3,0.5-6.6,1-9.8,1.7c-4.7,1-9.4,2.1-13.9,4c-6.4,2.7-12,6.4-16.8,11.5c-4,4.3-6.8,9.4-9,14.8
		c-1.5,3.7-2.7,7.5-4,11.3c-0.8,2.4-1.4,4.9-0.8,7.5c0.7,2.9,0.7,5.8,0.7,8.7c0,1.4-0.3,2.5-1,3.7c-3.8,6.2-7.5,12.4-11,18.7
		c-1.2,2.1-1.7,4.4-1.1,6.9c0.6,2.6,2.4,4.1,4.6,5.4c2,1.2,4.2,1.6,6.2,2.6c0.8,0.4,1.1,0.9,0.9,1.8c-0.7,3-0.4,5.9,0.6,8.7
		c0.1,0.4,0,0.7-0.1,1c-0.8,2.6,0,4.9,1.7,6.8c1.2,1.4,1.7,3,1.7,4.7c0,1.8-0.1,3.5,0.2,5.3c0.5,4.1,2.1,7.6,6,9.6
		c2.7,1.4,5.6,1.8,8.5,1.9c2.5,0.1,5.1,0.1,7.6-0.1c2-0.2,3.9-0.3,5.9-0.6c1.3-0.2,2.7-0.3,4.1-0.2c0.7,0,1.1,0.4,1.3,1
		c0.1,0.3,0.2,0.7,0.3,1c2.2,5.9,4.4,11.8,6.3,17.8c0.8,2.7,1.4,5.5-0.1,8.2c-0.5,0.9-0.8,1.8-0.7,2.8c0.1,1.5,1,2.6,2.5,3.1
		c1.4,0.5,2.7,0.1,3.6-0.8c0.5-0.5,0.5-1.2,0.8-1.9c0.8-1.8,1.8-3.7,1.9-5.7c0.2-2.8-0.3-5.6-1.1-8.3c-2.1-6.7-4.5-13.3-7-19.8
		c-1.7-4.5-5.6-5.7-9.5-5.4c-2.2,0.2-4.5,0.4-6.7,0.7c-1.8,0.2-3.5,0.2-5.3,0.3c-2.8,0.2-5.5,0-8.1-0.6c-1.6-0.4-2.6-1.4-3-3
		c-0.5-2-0.2-4-0.3-6c-0.1-2.7-0.5-5.5-2.3-7.6c-1.2-1.4-1.1-2.3,0-3.6c1.2-1.5,0.6-3.9-1.1-4.9c-0.7-0.4-0.8-1-0.8-1.6
		c0.1-0.7,0.3-1.4,0.3-2.1c0.4-4.7-0.5-7.7-5.6-10c-1.7-0.8-3.5-1-5.1-2c-1.4-0.8-1.5-0.9-0.7-2.2c3.4-5.8,6.8-11.6,10.3-17.4
		c1.3-2.1,2.5-4.3,2.5-6.9c0.1-3.5,0.1-7.1-0.7-10.6c-0.2-1-0.3-2,0-3.1c0.7-2.1,1.3-4.3,2-6.4c1.1-3.8,2.6-7.4,4.4-10.9
		c1.9-3.8,4.4-7.2,7.6-10.1c3.6-3.3,7.8-5.8,12.3-7.6c3.7-1.5,7.6-2.4,11.5-3.3c6.3-1.4,12.7-2.3,19.3-2.2c1.4,0.1,3,0,4.6,0.1
		c4,0.3,8,0.9,11.9,2c6.1,1.7,11.8,4.3,17,7.7c7.5,4.9,13.7,11.1,17.7,19.2c2.5,5,3.8,10.4,3.9,16c0,2.3-0.2,4.6-0.4,6.9
		c-0.5,4.2-1.5,8.3-3,12.2c-1.4,3.7-3.3,7.2-4.8,10.9c-2.7,6.6-5,13.2-5.7,20.4c-0.4,4-0.4,8.1,0.1,12.1c0.5,4.4,1.5,8.8,2.4,13.2
		c0.7,3.2,1.8,6.2,3.4,9.1c1,1.8,2.4,3.1,3.7,4.6c1.9,2.3,3.8,4.5,5.8,6.7c1.3,1.4,3.7,1.4,5.1,0.2
		C37.7,730.7,37.9,728.1,36.7,726.7z"/>
	<path class="st0" d="M-23.4,613.9c0-2.4,1-4.5,2.6-6l1.1-3.2c-3.4,1.7-5.8,5.2-5.8,9.2c0,1.6,0.4,3.2,1.1,4.6l1.1-3.2
		C-23.3,614.8-23.4,614.3-23.4,613.9z"/>
	<path class="st0" d="M-27.8,613.9c0-5.7,3.9-10.6,9.1-12.1l0.4-1.1h9.3c-1.9-0.9-4-1.4-6.2-1.4c-8.1,0-14.7,6.6-14.7,14.7
		c0,3.7,1.4,7.1,3.7,9.7l0.8-2.3C-26.8,619.2-27.8,616.7-27.8,613.9z"/>
	<path class="st0" d="M-68.9,663.3c-0.1,0.9-1,1.7-1.9,1.7c-1.1,0-2-0.9-2-2c0-1.1,0.9-2,2-2c1,0,1.9,0.8,2,1.8
		c0.1-0.4,0.5-0.8,1-0.8h1c-0.4-1.8-2-3.1-3.9-3.1c-2.2,0-4,1.8-4,4c0,2.2,1.8,4,4,4c1.8,0,3.3-1.2,3.8-2.9h-0.9
		C-68.4,664.1-68.8,663.8-68.9,663.3z"/>
	<path class="st0" d="M-56.2,645.1c0-0.6,0.5-1,1-1h0.9c-0.5-1.7-2-3-3.9-3c-2.2,0-4,1.8-4,4c0,2.2,1.8,4,4,4c1.9,0,3.4-1.3,3.9-3
		h-0.9C-55.8,646.1-56.2,645.6-56.2,645.1z M-58.2,647c-1.1,0-2-0.9-2-2c0-1.1,0.9-2,2-2c1.1,0,2,0.9,2,2
		C-56.2,646.2-57.1,647-58.2,647z"/>
	<path class="st0" d="M-70.7,631.3c0-0.6,0.5-1,1-1h0.7c0,0,0,0,0-0.1c0-2.2-1.8-4-4-4c-2.2,0-4,1.8-4,4c0,2.2,1.8,4,4,4
		c1.4,0,2.7-0.8,3.4-1.9h-0.1C-70.2,632.3-70.7,631.9-70.7,631.3z M-73,632.2c-1.1,0-2-0.9-2-2c0-1.1,0.9-2,2-2s2,0.9,2,2
		C-71,631.3-71.9,632.2-73,632.2z"/>
	<path class="st0" d="M-54.3,644c0.1,0.3,0.1,0.7,0.1,1c0,0.4-0.1,0.7-0.1,1h1.7v-2H-54.3z"/>
	<path class="st0" d="M-19.5,660.9v60.4c0,0.6,0.5,1,1,1c0.6,0,1-0.5,1-1V660l-2-2l-0.7,2.2L-19.5,660.9z"/>
	<polygon class="st0" points="-34.3,646.1 -33.9,646.5 -33.1,644.3 -33.4,644 -35.1,644 -35.1,646.1 	"/>
	<path class="st0" d="M-54.3,644h-0.9c-0.6,0-1,0.5-1,1c0,0.6,0.5,1,1,1h0.9c0.1-0.3,0.1-0.7,0.1-1C-54.2,644.7-54.3,644.4-54.3,644
		z"/>
	<polygon class="st0" points="-32.5,640.2 -31.9,640.8 -31.2,638.7 -31.7,638.2 -35.1,638.2 -35.1,640.2 	"/>
	<path class="st0" d="M-13.8,659v62.3c0,0.6,0.5,1,1,1c0.6,0,1-0.5,1-1v-63.2l-5.8-5.8l-0.7,2.2L-13.8,659z"/>
	<path class="st0" d="M-52.6,630.3h-16.3c0,0.7-0.2,1.4-0.6,2h16.1l0.9,0.9L-52.6,630.3L-52.6,630.3z"/>
	<path class="st0" d="M-69.6,630.3c-0.6,0-1,0.5-1,1c0,0.6,0.5,1,1,1h0.1c0.4-0.6,0.6-1.3,0.6-2H-69.6z"/>
	<path class="st0" d="M-25.5,721c0,0.6,0.5,1,1,1c0.6,0,1-0.5,1-1v-56.7h-2V721z"/>
	<path class="st0" d="M-68.9,663.3c0-0.1,0-0.2,0-0.3c0-0.1,0-0.1,0-0.2c0,0.1-0.1,0.2-0.1,0.3C-69,663.2-68.9,663.3-68.9,663.3z"/>
	<path class="st0" d="M-67,662.1c0.1,0.3,0.1,0.6,0.1,0.9c0,0.4-0.1,0.8-0.2,1.1h14.4v-2H-67z"/>
	<path class="st0" d="M-67,662.1h-1c-0.5,0-0.9,0.3-1,0.8c0,0.1,0,0.1,0,0.2c0,0.1,0,0.2,0,0.3c0.1,0.5,0.5,0.8,1,0.8h0.9
		c0.1-0.4,0.2-0.7,0.2-1.1C-66.9,662.7-66.9,662.4-67,662.1z"/>
	<path class="st0" d="M10.5,637.3c0,0.3-0.1,0.5-0.1,0.7l0.8,2.3c0.9-0.7,1.4-1.8,1.4-3c0-2.1-1.7-3.9-3.8-4l0.8,2.3
		C10.1,636,10.5,636.6,10.5,637.3z"/>
	<path class="st0" d="M21.2,639.9v1.4c2-0.3,3.5-1.9,3.5-4c0-2.2-1.8-4-4-4c-2.2,0-4,1.8-4,4c0,1.7,1,3.1,2.5,3.7v-1.1H21.2z
		 M20.7,635.3c1.1,0,2,0.9,2,2s-0.9,2-2,2c-1.1,0-2-0.9-2-2S19.6,635.3,20.7,635.3z"/>
	<rect x="4.4" y="664.3" class="st0" width="2" height="50.9"/>
	<path class="st0" d="M21.2,648.4v-7.1c-0.2,0-0.4,0.1-0.5,0.1c-0.5,0-1-0.1-1.5-0.3v6.5l-4.2,4.2l0.7,2.2L21.2,648.4z"/>
	<path class="st0" d="M21.2,641.3v-1.4h-2v1.1c0.5,0.2,1,0.3,1.5,0.3C20.9,641.3,21.1,641.3,21.2,641.3z"/>
	<polygon class="st0" points="-4.6,660.1 -4.6,697.7 -2.5,697.7 -2.5,661 -0.9,659.3 -1.6,657.2 	"/>
</g>
<g>
	<path class="st0" d="M270.6,421.5c-5.6,0-8.1-2-11.4-4.4c-3.5-2.7-8-6-16.2-6c0,0-0.1,0-0.1,0c-2.8,0-5.2,0.4-7.3,1
		c-0.8,2-1.8,3.8-3,5.4c0.3,0.1,0.7,0.1,1,0.2l6.9,1.2l-0.1,0.3c0.8-0.1,1.6-0.2,2.5-0.2c5.6,0,8.1,2,11.4,4.4c3.5,2.7,8,6,16.2,6
		c0,0,0,0,0,0c2.2,0,4-1.8,4-4C274.6,423.3,272.8,421.5,270.6,421.5z"/>
	<path class="st0" d="M270.6,437.9c-5.6,0-8.1-2-11.4-4.4c-3.5-2.7-8-6-16.2-6c0,0-0.1,0-0.1,0c-2,0-3.8,0.2-5.4,0.5l-2.7,7.8
		l-5.4-1.4c-1-0.3-1.9-0.5-2.9-0.8c-3.1,2.3-5.7,4.2-11.1,4.2c0,0,0,0-0.1,0c-5.6,0-8.1-2-11.4-4.4c-2.7-2-5.9-4.5-11-5.5h-7.2
		c-1.2,0.7-2.1,2-2.1,3.5c0,2.2,1.8,4,4,4c5.6,0,8.1,2,11.4,4.4c3.5,2.7,8,6,16.2,6c0,0,0.1,0,0.1,0c8.2,0,12.6-3.3,16.1-5.9
		c3.3-2.4,5.8-4.4,11.4-4.4c0,0,0,0,0.1,0c5.6,0,8.1,2,11.4,4.4c3.5,2.7,8,6,16.2,6c0,0,0,0,0,0c2.2,0,4-1.8,4-4
		C274.6,439.7,272.8,437.9,270.6,437.9z"/>
	<path class="st0" d="M243.1,394.7C243,394.7,243,394.7,243.1,394.7c-1.9,0-3.5,0.2-4.9,0.4c0.1,1.1,0.1,2.2,0.1,3.3
		c0,1.7-0.1,3.3-0.3,4.9c1.4-0.4,3-0.7,5-0.7c0,0,0,0,0.1,0c5.6,0,8.1,2,11.4,4.4c3.5,2.7,8,6,16.2,6c0,0,0,0,0,0c2.2,0,4-1.8,4-4
		c0-2.2-1.8-4-4-4c-5.6,0-8.1-2-11.4-4.4C255.7,398,251.3,394.7,243.1,394.7z"/>
	<path class="st0" d="M202.7,399.6c0,4.2,1.3,7.9,3.5,10.1c1.4,1.4,3,2.1,5,2.1c4.8,0,6.9-3.7,7.9-7.1c-1.1,0.2-2.3,0.4-3.8,0.4
		c-5.6,0-8.1-2-11.4-4.4C203.6,400.2,203.2,399.9,202.7,399.6z"/>
	<path class="st0" d="M243.6,437.1c-2.2,0-4,1.8-4,4l0,21.6c-0.1,2.8-1.5,4.1-1.8,4.3c-0.8,0.6-1.5,0.9-2.4,0.9H128.3
		c-0.9,0-1.7-0.3-2.5-0.9c-0.4-0.3-1.7-1.5-1.7-4.2v-91.1c0-0.2,0-0.4-0.1-0.6l57.8-52.6l57.9,52.6c0,0.2-0.1,0.4-0.1,0.6v18.4
		c0,2.2,1.8,4,4,4s4-1.8,4-4v-11.8l13.6,12.4c0.8,0.7,1.7,1,2.7,1c1.1,0,2.2-0.4,3-1.3c1.5-1.6,1.4-4.2-0.3-5.7l-82.1-74.7
		c-1.5-1.4-3.9-1.4-5.4,0l-82.1,74.7c-1.6,1.5-1.8,4-0.3,5.7c1.5,1.6,4,1.8,5.7,0.3l13.6-12.4l0,84.5c0.1,6.1,3.4,9.3,4.8,10.4
		c2.2,1.7,4.7,2.6,7.4,2.6h107.1c2.7,0,5.2-0.9,7.4-2.6c1.4-1.1,4.7-4.3,4.8-10.5v-21.7C247.6,438.9,245.8,437.1,243.6,437.1z"/>
</g>
<g>
	<g>
		<path class="st2" d="M143.6,423.3h-8.9v-48.9h8.9V423.3z M137.7,420.3h2.9v-42.9h-2.9V420.3z"/>
	</g>
	<g>
		<path class="st2" d="M189.5,423.3H180l-4.9-14.4h-14.1l-4.8,14.4h-9.3l16.6-48.9h9.3L189.5,423.3z M182.1,420.3h3.2l-14.6-42.9h-5
			l-14.6,42.9h2.9l4.8-14.4h18.4L182.1,420.3z M177,404.3h-18l5.2-15.3c0.7-2.4,1.5-5,2.3-8.2l0.3-1.1h2.5l0.4,1.6
			c0.6,2.5,1.3,5,2.2,7.8L177,404.3z M163.2,401.3h9.6l-3.8-11.2c-0.4-1.1-0.7-2.2-1-3.3c-0.3,1.1-0.6,2.2-1,3.2L163.2,401.3z"/>
	</g>
	<g>
		<path class="st2" d="M231.9,430.4l-1.3-0.4c-6.1-1.6-12.3-3.5-17.7-5.3c-0.8-0.3-1.7-0.6-2.3-0.6c-10.8-0.4-21.7-8.2-21.7-24.7
			c0-15.1,9.4-25.7,22.9-25.7c13,0,22.1,10.2,22.1,24.7c0,9.9-3.8,17.7-10.5,21.7c3.4,0.8,6.8,1.5,9.6,2l1.7,0.3L231.9,430.4z
			 M210.6,421.1c1.1,0,2.2,0.4,3.2,0.8c4.9,1.7,10.5,3.4,16.1,4.9l0.7-2c-3.6-0.7-7.8-1.6-11.8-2.6l-1.1-0.3v-2.5l1-0.4
			c7.7-2.7,12.1-10.2,12.1-20.6c0-13-7.7-21.7-19.1-21.7c-11.9,0-19.9,9.1-19.9,22.7C191.9,413.9,201.3,420.7,210.6,421.1
			C210.6,421.1,210.6,421.1,210.6,421.1z M211.3,419.3c-4,0-7.6-1.5-10.4-4.3c-3.7-3.7-5.8-9.4-5.7-15.7c0-6.7,2-12.7,5.7-16.4
			c2.8-2.8,6.5-4.3,10.6-4.3c10.5,0,16,10.1,16,20.2C227.5,411,221,419.3,211.3,419.3z M211.5,381.5c-3.4,0-6.2,1.1-8.5,3.4
			c-3.1,3.2-4.9,8.4-4.9,14.3c0,5.5,1.7,10.5,4.8,13.6c2.3,2.3,5,3.4,8.2,3.4c9.2,0,13.3-8.8,13.3-17.6
			C224.5,390.4,220.5,381.5,211.5,381.5z"/>
	</g>
</g>
<g>
	<path class="st2" d="M134.7,501c-0.1,2.1-0.9,3.7-2.3,4.9s-3.2,1.8-5.4,1.8c-2.5,0-4.4-0.8-5.8-2.5c-1.4-1.7-2.1-3.9-2.1-6.8v-1.2
		c0-1.8,0.3-3.5,1-4.9s1.6-2.5,2.8-3.2c1.2-0.8,2.6-1.1,4.2-1.1c2.2,0,4,0.6,5.4,1.8s2.1,2.9,2.3,5h-4c-0.1-1.2-0.4-2.1-1-2.7
		c-0.6-0.6-1.5-0.8-2.7-0.8c-1.3,0-2.3,0.5-3,1.4c-0.7,0.9-1,2.4-1,4.4v1.5c0,2.1,0.3,3.6,0.9,4.5s1.6,1.4,3,1.4
		c1.2,0,2.1-0.3,2.7-0.8c0.6-0.6,0.9-1.4,1-2.6H134.7z"/>
	<path class="st2" d="M145.4,507.4c-0.2-0.3-0.3-0.8-0.4-1.3c-0.9,1-2.1,1.5-3.6,1.5c-1.4,0-2.6-0.4-3.5-1.2
		c-0.9-0.8-1.4-1.8-1.4-3.1c0-1.5,0.6-2.7,1.7-3.5c1.1-0.8,2.7-1.2,4.9-1.2h1.8v-0.8c0-0.7-0.2-1.2-0.5-1.6
		c-0.3-0.4-0.9-0.6-1.6-0.6c-0.6,0-1.1,0.2-1.5,0.5c-0.4,0.3-0.5,0.7-0.5,1.3h-3.8c0-0.8,0.3-1.6,0.8-2.3s1.2-1.3,2.2-1.7
		c0.9-0.4,2-0.6,3.1-0.6c1.8,0,3.2,0.4,4.2,1.3c1,0.9,1.5,2.1,1.5,3.7v6.2c0,1.4,0.2,2.4,0.6,3.1v0.2H145.4z M142.2,504.8
		c0.6,0,1.1-0.1,1.6-0.4c0.5-0.3,0.8-0.6,1.1-1v-2.5h-1.4c-1.9,0-2.9,0.7-3,2l0,0.2c0,0.5,0.2,0.9,0.5,1.2S141.6,504.8,142.2,504.8z
		"/>
	<path class="st2" d="M155.6,507.4h-3.8v-20.3h3.8V507.4z"/>
	<path class="st2" d="M158.7,489.5c0-0.6,0.2-1,0.6-1.4c0.4-0.4,0.9-0.6,1.6-0.6c0.7,0,1.2,0.2,1.6,0.6s0.6,0.8,0.6,1.4
		c0,0.6-0.2,1.1-0.6,1.4c-0.4,0.4-0.9,0.6-1.5,0.6s-1.2-0.2-1.5-0.6S158.7,490,158.7,489.5z M162.7,507.4h-3.8v-14.3h3.8V507.4z"/>
	<path class="st2" d="M165.3,500.2c0-2.2,0.5-4,1.5-5.3s2.4-2,4.1-2c1.4,0,2.5,0.5,3.4,1.6v-7.3h3.8v20.3h-3.4l-0.2-1.5
		c-0.9,1.2-2.2,1.8-3.7,1.8c-1.7,0-3-0.7-4-2C165.8,504.4,165.3,502.5,165.3,500.2z M169.1,500.5c0,1.3,0.2,2.4,0.7,3.1
		s1.1,1.1,2,1.1c1.2,0,2-0.5,2.5-1.5v-5.6c-0.5-1-1.3-1.5-2.5-1.5C170,496,169.1,497.5,169.1,500.5z"/>
	<path class="st2" d="M189.4,507.4c-0.2-0.3-0.3-0.8-0.4-1.3c-0.9,1-2.1,1.5-3.6,1.5c-1.4,0-2.6-0.4-3.5-1.2
		c-0.9-0.8-1.4-1.8-1.4-3.1c0-1.5,0.6-2.7,1.7-3.5c1.1-0.8,2.7-1.2,4.9-1.2h1.8v-0.8c0-0.7-0.2-1.2-0.5-1.6
		c-0.3-0.4-0.9-0.6-1.6-0.6c-0.6,0-1.1,0.2-1.5,0.5c-0.4,0.3-0.5,0.7-0.5,1.3h-3.8c0-0.8,0.3-1.6,0.8-2.3s1.2-1.3,2.2-1.7
		c0.9-0.4,2-0.6,3.1-0.6c1.8,0,3.2,0.4,4.2,1.3c1,0.9,1.5,2.1,1.5,3.7v6.2c0,1.4,0.2,2.4,0.6,3.1v0.2H189.4z M186.2,504.8
		c0.6,0,1.1-0.1,1.6-0.4c0.5-0.3,0.8-0.6,1.1-1v-2.5h-1.4c-1.9,0-2.9,0.7-3,2l0,0.2c0,0.5,0.2,0.9,0.5,1.2S185.6,504.8,186.2,504.8z
		"/>
	<path class="st2" d="M195,500.2c0-2.2,0.5-4,1.5-5.3c1-1.3,2.4-2,4.1-2c1.4,0,2.5,0.5,3.4,1.6v-7.3h3.8v20.3h-3.4l-0.2-1.5
		c-0.9,1.2-2.2,1.8-3.7,1.8c-1.7,0-3-0.7-4-2C195.5,504.4,195,502.5,195,500.2z M198.8,500.5c0,1.3,0.2,2.4,0.7,3.1s1.1,1.1,2,1.1
		c1.2,0,2-0.5,2.5-1.5v-5.6c-0.5-1-1.3-1.5-2.5-1.5C199.7,496,198.8,497.5,198.8,500.5z"/>
	<path class="st2" d="M216.9,500.2c0-2.2,0.5-4,1.5-5.3c1-1.3,2.4-2,4.1-2c1.4,0,2.5,0.5,3.4,1.6v-7.3h3.8v20.3h-3.4l-0.2-1.5
		c-0.9,1.2-2.2,1.8-3.7,1.8c-1.7,0-3-0.7-4-2C217.4,504.4,216.9,502.5,216.9,500.2z M220.7,500.5c0,1.3,0.2,2.4,0.7,3.1
		s1.1,1.1,2,1.1c1.2,0,2-0.5,2.5-1.5v-5.6c-0.5-1-1.3-1.5-2.5-1.5C221.6,496,220.7,497.5,220.7,500.5z"/>
	<path class="st2" d="M239.3,507.7c-2.1,0-3.8-0.6-5.1-1.9c-1.3-1.3-2-3-2-5.1v-0.4c0-1.4,0.3-2.7,0.8-3.8c0.6-1.1,1.3-2,2.4-2.6
		c1-0.6,2.2-0.9,3.5-0.9c2,0,3.5,0.6,4.6,1.8c1.1,1.2,1.7,3,1.7,5.2v1.6h-9.1c0.1,0.9,0.5,1.7,1.1,2.2c0.6,0.6,1.4,0.8,2.4,0.8
		c1.5,0,2.6-0.5,3.4-1.6l1.9,2.1c-0.6,0.8-1.3,1.4-2.3,1.9C241.6,507.5,240.5,507.7,239.3,507.7z M238.9,496c-0.8,0-1.4,0.3-1.8,0.8
		c-0.5,0.5-0.8,1.2-0.9,2.2h5.3v-0.3c0-0.8-0.2-1.5-0.7-2S239.7,496,238.9,496z"/>
	<path class="st2" d="M125.3,535.9h-6.9l-1.3,4h-4.2l7.1-19.2h3.7l7.2,19.2h-4.2L125.3,535.9z M119.4,532.7h4.8l-2.4-7.2
		L119.4,532.7z"/>
	<path class="st2" d="M132.3,521.9c0-0.6,0.2-1,0.6-1.4c0.4-0.4,0.9-0.6,1.6-0.6c0.7,0,1.2,0.2,1.6,0.6s0.6,0.8,0.6,1.4
		c0,0.6-0.2,1.1-0.6,1.4c-0.4,0.4-0.9,0.6-1.5,0.6s-1.2-0.2-1.5-0.6S132.3,522.4,132.3,521.9z M136.4,539.8h-3.8v-14.3h3.8V539.8z"
		/>
	<path class="st2" d="M147.5,529.1c-0.5-0.1-1-0.1-1.4-0.1c-1.4,0-2.4,0.5-2.8,1.5v9.3h-3.8v-14.3h3.6l0.1,1.7c0.8-1.3,1.8-2,3.2-2
		c0.4,0,0.8,0.1,1.2,0.2L147.5,529.1z"/>
	<path class="st2" d="M155.7,540.1c-2.1,0-3.8-0.6-5.1-1.9s-2-3-2-5.1v-0.4c0-1.4,0.3-2.7,0.8-3.8c0.6-1.1,1.3-2,2.4-2.6
		c1-0.6,2.2-0.9,3.5-0.9c2,0,3.5,0.6,4.6,1.8c1.1,1.2,1.7,3,1.7,5.2v1.6h-9.1c0.1,0.9,0.5,1.7,1.1,2.2c0.6,0.6,1.4,0.8,2.4,0.8
		c1.5,0,2.6-0.5,3.4-1.6l1.9,2.1c-0.6,0.8-1.3,1.4-2.3,1.9C157.9,539.9,156.9,540.1,155.7,540.1z M155.2,528.4
		c-0.8,0-1.4,0.3-1.8,0.8c-0.5,0.5-0.8,1.2-0.9,2.2h5.3V531c0-0.8-0.2-1.5-0.7-2C156.7,528.6,156.1,528.4,155.2,528.4z"/>
	<path class="st2" d="M174.9,539.8h-4v-19.2h4V539.8z"/>
	<path class="st2" d="M181.8,525.6l0.1,1.6c1-1.3,2.4-1.9,4.1-1.9c1.5,0,2.6,0.4,3.4,1.3c0.7,0.9,1.1,2.2,1.1,4v9.2h-3.8v-9.1
		c0-0.8-0.2-1.4-0.5-1.8c-0.4-0.4-0.9-0.5-1.8-0.5c-1.1,0-1.9,0.5-2.4,1.4v10.1h-3.8v-14.3H181.8z"/>
	<path class="st2" d="M198,522.1v3.5h2.4v2.8H198v7.1c0,0.5,0.1,0.9,0.3,1.1s0.6,0.3,1.2,0.3c0.4,0,0.8,0,1.1-0.1v2.9
		c-0.7,0.2-1.5,0.3-2.3,0.3c-2.7,0-4-1.3-4.1-4v-7.7h-2.1v-2.8h2.1v-3.5H198z"/>
	<path class="st2" d="M209.1,540.1c-2.1,0-3.8-0.6-5.1-1.9c-1.3-1.3-2-3-2-5.1v-0.4c0-1.4,0.3-2.7,0.8-3.8c0.6-1.1,1.3-2,2.4-2.6
		c1-0.6,2.2-0.9,3.5-0.9c2,0,3.5,0.6,4.6,1.8c1.1,1.2,1.7,3,1.7,5.2v1.6h-9.1c0.1,0.9,0.5,1.7,1.1,2.2c0.6,0.6,1.4,0.8,2.4,0.8
		c1.5,0,2.6-0.5,3.4-1.6l1.9,2.1c-0.6,0.8-1.3,1.4-2.3,1.9C211.4,539.9,210.3,540.1,209.1,540.1z M208.7,528.4
		c-0.8,0-1.4,0.3-1.8,0.8c-0.5,0.5-0.8,1.2-0.9,2.2h5.3V531c0-0.8-0.2-1.5-0.7-2C210.1,528.6,209.5,528.4,208.7,528.4z"/>
	<path class="st2" d="M225.2,529.1c-0.5-0.1-1-0.1-1.4-0.1c-1.4,0-2.4,0.5-2.8,1.5v9.3h-3.8v-14.3h3.6l0.1,1.7c0.8-1.3,1.8-2,3.2-2
		c0.4,0,0.8,0.1,1.2,0.2L225.2,529.1z"/>
	<path class="st2" d="M227,521.9c0-0.6,0.2-1,0.6-1.4c0.4-0.4,0.9-0.6,1.6-0.6c0.7,0,1.2,0.2,1.6,0.6c0.4,0.4,0.6,0.8,0.6,1.4
		c0,0.6-0.2,1.1-0.6,1.4c-0.4,0.4-0.9,0.6-1.5,0.6s-1.2-0.2-1.5-0.6C227.2,522.9,227,522.4,227,521.9z M231,539.8h-3.8v-14.3h3.8
		V539.8z"/>
	<path class="st2" d="M233.6,532.6c0-1.4,0.3-2.7,0.8-3.8s1.3-2,2.4-2.6c1-0.6,2.2-0.9,3.6-0.9c1.9,0,3.5,0.6,4.7,1.8
		c1.2,1.2,1.9,2.8,2,4.8l0,1c0,2.2-0.6,3.9-1.8,5.3c-1.2,1.3-2.9,2-4.9,2s-3.7-0.7-4.9-2c-1.2-1.3-1.8-3.1-1.8-5.4V532.6z
		 M237.4,532.8c0,1.4,0.3,2.4,0.8,3.1c0.5,0.7,1.2,1.1,2.2,1.1c0.9,0,1.6-0.4,2.2-1.1s0.8-1.8,0.8-3.4c0-1.3-0.3-2.4-0.8-3.1
		s-1.2-1.1-2.2-1.1c-0.9,0-1.7,0.4-2.2,1.1C237.6,530.2,237.4,531.3,237.4,532.8z"/>
	<path class="st2" d="M257.4,529.1c-0.5-0.1-1-0.1-1.4-0.1c-1.4,0-2.4,0.5-2.8,1.5v9.3h-3.8v-14.3h3.6l0.1,1.7c0.8-1.3,1.8-2,3.2-2
		c0.4,0,0.8,0.1,1.2,0.2L257.4,529.1z"/>
</g>
<g>
	<path class="st2" d="M335.4,782h-4v-19.2h4V782z"/>
	<path class="st2" d="M342.3,767.7l0.1,1.6c1-1.3,2.4-1.9,4.1-1.9c1.5,0,2.6,0.4,3.4,1.3s1.1,2.2,1.1,4v9.2h-3.8v-9.1
		c0-0.8-0.2-1.4-0.5-1.8c-0.4-0.4-0.9-0.5-1.8-0.5c-1.1,0-1.9,0.5-2.4,1.4V782h-3.8v-14.3H342.3z"/>
	<path class="st2" d="M358.5,764.2v3.5h2.4v2.8h-2.4v7.1c0,0.5,0.1,0.9,0.3,1.1s0.6,0.3,1.2,0.3c0.4,0,0.8,0,1.1-0.1v2.9
		c-0.7,0.2-1.5,0.3-2.3,0.3c-2.7,0-4-1.3-4.1-4v-7.7h-2.1v-2.8h2.1v-3.5H358.5z"/>
	<path class="st2" d="M369.6,782.3c-2.1,0-3.8-0.6-5.1-1.9c-1.3-1.3-2-3-2-5.1v-0.4c0-1.4,0.3-2.7,0.8-3.8c0.6-1.1,1.3-2,2.4-2.6
		c1-0.6,2.2-0.9,3.5-0.9c2,0,3.5,0.6,4.6,1.8c1.1,1.2,1.7,3,1.7,5.2v1.6h-9.1c0.1,0.9,0.5,1.7,1.1,2.2c0.6,0.6,1.4,0.8,2.4,0.8
		c1.5,0,2.6-0.5,3.4-1.6l1.9,2.1c-0.6,0.8-1.3,1.4-2.3,1.9C371.9,782,370.8,782.3,369.6,782.3z M369.2,770.5c-0.8,0-1.4,0.3-1.8,0.8
		c-0.5,0.5-0.8,1.2-0.9,2.2h5.3v-0.3c0-0.8-0.2-1.5-0.7-2C370.6,770.8,370,770.5,369.2,770.5z"/>
	<path class="st2" d="M385.7,771.3c-0.5-0.1-1-0.1-1.4-0.1c-1.4,0-2.4,0.5-2.8,1.5v9.3h-3.8v-14.3h3.6l0.1,1.7c0.8-1.3,1.8-2,3.2-2
		c0.4,0,0.8,0.1,1.2,0.2L385.7,771.3z"/>
	<path class="st2" d="M391,767.7l0.1,1.6c1-1.3,2.4-1.9,4.1-1.9c1.5,0,2.6,0.4,3.4,1.3s1.1,2.2,1.1,4v9.2h-3.8v-9.1
		c0-0.8-0.2-1.4-0.5-1.8c-0.4-0.4-0.9-0.5-1.8-0.5c-1.1,0-1.9,0.5-2.4,1.4V782h-3.8v-14.3H391z"/>
	<path class="st2" d="M409.2,782.3c-2.1,0-3.8-0.6-5.1-1.9c-1.3-1.3-2-3-2-5.1v-0.4c0-1.4,0.3-2.7,0.8-3.8c0.6-1.1,1.3-2,2.4-2.6
		c1-0.6,2.2-0.9,3.5-0.9c2,0,3.5,0.6,4.6,1.8c1.1,1.2,1.7,3,1.7,5.2v1.6H406c0.1,0.9,0.5,1.7,1.1,2.2c0.6,0.6,1.4,0.8,2.4,0.8
		c1.5,0,2.6-0.5,3.4-1.6l1.9,2.1c-0.6,0.8-1.3,1.4-2.3,1.9C411.4,782,410.4,782.3,409.2,782.3z M408.7,770.5c-0.8,0-1.4,0.3-1.8,0.8
		c-0.5,0.5-0.8,1.2-0.9,2.2h5.3v-0.3c0-0.8-0.2-1.5-0.7-2C410.2,770.8,409.5,770.5,408.7,770.5z"/>
	<path class="st2" d="M421.8,764.2v3.5h2.4v2.8h-2.4v7.1c0,0.5,0.1,0.9,0.3,1.1s0.6,0.3,1.2,0.3c0.4,0,0.8,0,1.1-0.1v2.9
		c-0.7,0.2-1.5,0.3-2.3,0.3c-2.7,0-4-1.3-4.1-4v-7.7h-2.1v-2.8h2.1v-3.5H421.8z"/>
	<path class="st2" d="M432.5,774.8c0-2.2,0.5-4,1.5-5.3c1-1.3,2.4-2,4.1-2c1.4,0,2.5,0.5,3.4,1.6v-7.3h3.8V782h-3.4l-0.2-1.5
		c-0.9,1.2-2.2,1.8-3.7,1.8c-1.7,0-3-0.7-4-2C433,779,432.5,777.1,432.5,774.8z M436.3,775c0,1.3,0.2,2.4,0.7,3.1s1.1,1.1,2,1.1
		c1.2,0,2-0.5,2.5-1.5v-5.6c-0.5-1-1.3-1.5-2.5-1.5C437.2,770.6,436.3,772.1,436.3,775z"/>
	<path class="st2" d="M454.8,782.3c-2.1,0-3.8-0.6-5.1-1.9c-1.3-1.3-2-3-2-5.1v-0.4c0-1.4,0.3-2.7,0.8-3.8c0.6-1.1,1.3-2,2.4-2.6
		c1-0.6,2.2-0.9,3.5-0.9c2,0,3.5,0.6,4.6,1.8c1.1,1.2,1.7,3,1.7,5.2v1.6h-9.1c0.1,0.9,0.5,1.7,1.1,2.2c0.6,0.6,1.4,0.8,2.4,0.8
		c1.5,0,2.6-0.5,3.4-1.6l1.9,2.1c-0.6,0.8-1.3,1.4-2.3,1.9C457.1,782,456,782.3,454.8,782.3z M454.4,770.5c-0.8,0-1.4,0.3-1.8,0.8
		c-0.5,0.5-0.8,1.2-0.9,2.2h5.3v-0.3c0-0.8-0.2-1.5-0.7-2C455.8,770.8,455.2,770.5,454.4,770.5z"/>
	<path class="st2" d="M342.2,814.4h-3.8v-20.3h3.8V814.4z"/>
	<path class="st2" d="M353.6,814.4c-0.2-0.3-0.3-0.8-0.4-1.3c-0.9,1-2.1,1.5-3.6,1.5c-1.4,0-2.6-0.4-3.5-1.2
		c-0.9-0.8-1.4-1.8-1.4-3.1c0-1.5,0.6-2.7,1.7-3.5c1.1-0.8,2.7-1.2,4.9-1.2h1.8v-0.8c0-0.7-0.2-1.2-0.5-1.6
		c-0.3-0.4-0.9-0.6-1.6-0.6c-0.6,0-1.1,0.2-1.5,0.5c-0.4,0.3-0.5,0.7-0.5,1.3h-3.8c0-0.8,0.3-1.6,0.8-2.3s1.2-1.3,2.2-1.7
		c0.9-0.4,2-0.6,3.1-0.6c1.8,0,3.2,0.4,4.2,1.3c1,0.9,1.5,2.1,1.5,3.7v6.2c0,1.4,0.2,2.4,0.6,3.1v0.2H353.6z M350.5,811.8
		c0.6,0,1.1-0.1,1.6-0.4c0.5-0.3,0.8-0.6,1.1-1v-2.5h-1.4c-1.9,0-2.9,0.7-3,2l0,0.2c0,0.5,0.2,0.9,0.5,1.2S349.9,811.8,350.5,811.8z
		"/>
	<path class="st2" d="M367.5,810.5c0-0.5-0.2-0.8-0.7-1.1c-0.5-0.3-1.2-0.5-2.2-0.7c-3.4-0.7-5.1-2.2-5.1-4.3c0-1.3,0.5-2.3,1.6-3.2
		c1.1-0.8,2.4-1.3,4.1-1.3c1.8,0,3.3,0.4,4.3,1.3c1.1,0.9,1.6,2,1.6,3.3h-3.8c0-0.5-0.2-1-0.5-1.4c-0.4-0.4-0.9-0.5-1.6-0.5
		c-0.6,0-1.1,0.1-1.5,0.4c-0.4,0.3-0.5,0.7-0.5,1.1c0,0.4,0.2,0.8,0.6,1c0.4,0.3,1.1,0.5,2,0.7c0.9,0.2,1.7,0.4,2.4,0.6
		c2,0.7,3,2,3,3.8c0,1.3-0.6,2.4-1.7,3.2c-1.1,0.8-2.6,1.2-4.3,1.2c-1.2,0-2.3-0.2-3.2-0.6c-0.9-0.4-1.7-1-2.2-1.8
		c-0.5-0.7-0.8-1.5-0.8-2.4h3.6c0,0.7,0.3,1.2,0.8,1.6s1.1,0.5,1.9,0.5c0.7,0,1.3-0.1,1.7-0.4C367.4,811.3,367.5,810.9,367.5,810.5z
		"/>
	<path class="st2" d="M395.7,808c-0.1,2.1-0.9,3.7-2.3,4.9c-1.4,1.2-3.2,1.8-5.4,1.8c-2.5,0-4.4-0.8-5.8-2.5
		c-1.4-1.7-2.1-3.9-2.1-6.8v-1.2c0-1.8,0.3-3.5,1-4.9c0.7-1.4,1.6-2.5,2.8-3.2c1.2-0.8,2.6-1.1,4.2-1.1c2.2,0,4,0.6,5.4,1.8
		c1.4,1.2,2.1,2.9,2.3,5h-4c-0.1-1.2-0.4-2.1-1-2.7c-0.6-0.6-1.5-0.8-2.7-0.8c-1.3,0-2.3,0.5-3,1.4c-0.7,0.9-1,2.4-1,4.4v1.5
		c0,2.1,0.3,3.6,0.9,4.5c0.6,1,1.6,1.4,3,1.4c1.2,0,2.1-0.3,2.7-0.8c0.6-0.6,0.9-1.4,1-2.6H395.7z"/>
	<path class="st2" d="M397.5,807.1c0-1.4,0.3-2.7,0.8-3.8s1.3-2,2.4-2.6c1-0.6,2.2-0.9,3.6-0.9c1.9,0,3.5,0.6,4.7,1.8
		c1.2,1.2,1.9,2.8,2,4.8l0,1c0,2.2-0.6,3.9-1.8,5.3c-1.2,1.3-2.9,2-4.9,2s-3.7-0.7-4.9-2c-1.2-1.3-1.8-3.1-1.8-5.4V807.1z
		 M401.3,807.4c0,1.4,0.3,2.4,0.8,3.1c0.5,0.7,1.2,1.1,2.2,1.1c0.9,0,1.6-0.4,2.2-1.1s0.8-1.8,0.8-3.4c0-1.3-0.3-2.4-0.8-3.1
		s-1.2-1.1-2.2-1.1c-0.9,0-1.7,0.4-2.2,1.1C401.6,804.8,401.3,805.9,401.3,807.4z"/>
	<path class="st2" d="M421.1,810.5c0-0.5-0.2-0.8-0.7-1.1c-0.5-0.3-1.2-0.5-2.2-0.7c-3.4-0.7-5.1-2.2-5.1-4.3c0-1.3,0.5-2.3,1.6-3.2
		c1.1-0.8,2.4-1.3,4.1-1.3c1.8,0,3.3,0.4,4.3,1.3c1.1,0.9,1.6,2,1.6,3.3h-3.8c0-0.5-0.2-1-0.5-1.4c-0.4-0.4-0.9-0.5-1.6-0.5
		c-0.6,0-1.1,0.1-1.5,0.4c-0.4,0.3-0.5,0.7-0.5,1.1c0,0.4,0.2,0.8,0.6,1c0.4,0.3,1.1,0.5,2,0.7c0.9,0.2,1.7,0.4,2.4,0.6
		c2,0.7,3,2,3,3.8c0,1.3-0.6,2.4-1.7,3.2c-1.1,0.8-2.6,1.2-4.3,1.2c-1.2,0-2.3-0.2-3.2-0.6c-0.9-0.4-1.7-1-2.2-1.8
		c-0.5-0.7-0.8-1.5-0.8-2.4h3.6c0,0.7,0.3,1.2,0.8,1.6s1.1,0.5,1.9,0.5c0.7,0,1.3-0.1,1.7-0.4C420.9,811.3,421.1,810.9,421.1,810.5z
		"/>
	<path class="st2" d="M435.5,814.4c-0.2-0.3-0.3-0.8-0.4-1.3c-0.9,1-2.1,1.5-3.6,1.5c-1.4,0-2.6-0.4-3.5-1.2
		c-0.9-0.8-1.4-1.8-1.4-3.1c0-1.5,0.6-2.7,1.7-3.5c1.1-0.8,2.7-1.2,4.9-1.2h1.8v-0.8c0-0.7-0.2-1.2-0.5-1.6
		c-0.3-0.4-0.9-0.6-1.6-0.6c-0.6,0-1.1,0.2-1.5,0.5c-0.4,0.3-0.5,0.7-0.5,1.3H427c0-0.8,0.3-1.6,0.8-2.3s1.2-1.3,2.2-1.7
		c0.9-0.4,2-0.6,3.1-0.6c1.8,0,3.2,0.4,4.2,1.3c1,0.9,1.5,2.1,1.5,3.7v6.2c0,1.4,0.2,2.4,0.6,3.1v0.2H435.5z M432.4,811.8
		c0.6,0,1.1-0.1,1.6-0.4c0.5-0.3,0.8-0.6,1.1-1v-2.5h-1.4c-1.9,0-2.9,0.7-3,2l0,0.2c0,0.5,0.2,0.9,0.5,1.2S431.8,811.8,432.4,811.8z
		"/>
	<path class="st2" d="M449.4,810.5c0-0.5-0.2-0.8-0.7-1.1c-0.5-0.3-1.2-0.5-2.2-0.7c-3.4-0.7-5.1-2.2-5.1-4.3c0-1.3,0.5-2.3,1.6-3.2
		c1.1-0.8,2.4-1.3,4.1-1.3c1.8,0,3.3,0.4,4.3,1.3c1.1,0.9,1.6,2,1.6,3.3h-3.8c0-0.5-0.2-1-0.5-1.4c-0.4-0.4-0.9-0.5-1.6-0.5
		c-0.6,0-1.1,0.1-1.5,0.4c-0.4,0.3-0.5,0.7-0.5,1.1c0,0.4,0.2,0.8,0.6,1c0.4,0.3,1.1,0.5,2,0.7c0.9,0.2,1.7,0.4,2.4,0.6
		c2,0.7,3,2,3,3.8c0,1.3-0.6,2.4-1.7,3.2c-1.1,0.8-2.6,1.2-4.3,1.2c-1.2,0-2.3-0.2-3.2-0.6c-0.9-0.4-1.7-1-2.2-1.8
		c-0.5-0.7-0.8-1.5-0.8-2.4h3.6c0,0.7,0.3,1.2,0.8,1.6s1.1,0.5,1.9,0.5c0.7,0,1.3-0.1,1.7-0.4C449.3,811.3,449.4,810.9,449.4,810.5z
		"/>
</g>
<g>
	<path class="st2" d="M-67.8,782h-4v-19.2h4V782z"/>
	<path class="st2" d="M-60.8,767.7l0.1,1.6c1-1.3,2.4-1.9,4.1-1.9c1.5,0,2.6,0.4,3.4,1.3s1.1,2.2,1.1,4v9.2h-3.8v-9.1
		c0-0.8-0.2-1.4-0.5-1.8c-0.4-0.4-0.9-0.5-1.8-0.5c-1.1,0-1.9,0.5-2.4,1.4V782h-3.8v-14.3H-60.8z"/>
	<path class="st2" d="M-44.7,764.2v3.5h2.4v2.8h-2.4v7.1c0,0.5,0.1,0.9,0.3,1.1s0.6,0.3,1.2,0.3c0.4,0,0.8,0,1.1-0.1v2.9
		c-0.7,0.2-1.5,0.3-2.3,0.3c-2.7,0-4-1.3-4.1-4v-7.7h-2.1v-2.8h2.1v-3.5H-44.7z"/>
	<path class="st2" d="M-33.5,782.3c-2.1,0-3.8-0.6-5.1-1.9s-2-3-2-5.1v-0.4c0-1.4,0.3-2.7,0.8-3.8c0.6-1.1,1.3-2,2.4-2.6
		c1-0.6,2.2-0.9,3.5-0.9c2,0,3.5,0.6,4.6,1.8c1.1,1.2,1.7,3,1.7,5.2v1.6h-9.1c0.1,0.9,0.5,1.7,1.1,2.2c0.6,0.6,1.4,0.8,2.4,0.8
		c1.5,0,2.6-0.5,3.4-1.6l1.9,2.1c-0.6,0.8-1.3,1.4-2.3,1.9C-31.3,782-32.3,782.3-33.5,782.3z M-34,770.5c-0.8,0-1.4,0.3-1.8,0.8
		c-0.5,0.5-0.8,1.2-0.9,2.2h5.3v-0.3c0-0.8-0.2-1.5-0.7-2C-32.5,770.8-33.2,770.5-34,770.5z"/>
	<path class="st2" d="M-21.5,782h-3.8v-20.3h3.8V782z"/>
	<path class="st2" d="M-18.4,764c0-0.6,0.2-1,0.6-1.4c0.4-0.4,0.9-0.6,1.6-0.6c0.7,0,1.2,0.2,1.6,0.6s0.6,0.8,0.6,1.4
		c0,0.6-0.2,1.1-0.6,1.4c-0.4,0.4-0.9,0.6-1.5,0.6s-1.2-0.2-1.5-0.6S-18.4,764.6-18.4,764z M-14.3,782h-3.8v-14.3h3.8V782z"/>
	<path class="st2" d="M-11.7,774.8c0-2.2,0.5-4,1.6-5.3c1-1.3,2.4-2,4.2-2c1.6,0,2.8,0.5,3.7,1.6l0.2-1.3h3.5v13.8
		c0,1.2-0.3,2.3-0.9,3.3c-0.6,0.9-1.4,1.6-2.4,2.1c-1,0.5-2.2,0.7-3.6,0.7c-1,0-2.1-0.2-3.1-0.6c-1-0.4-1.7-1-2.3-1.6l1.7-2.3
		c0.9,1.1,2.1,1.6,3.5,1.6c1,0,1.8-0.3,2.4-0.8c0.6-0.5,0.8-1.3,0.8-2.3v-0.8c-0.9,1-2,1.5-3.5,1.5c-1.7,0-3.1-0.7-4.2-2
		c-1.1-1.3-1.6-3.1-1.6-5.3V774.8z M-7.9,775c0,1.3,0.3,2.3,0.8,3c0.5,0.7,1.2,1.1,2.1,1.1c1.2,0,2-0.4,2.5-1.3v-6
		c-0.5-0.9-1.3-1.3-2.5-1.3c-0.9,0-1.6,0.4-2.2,1.1S-7.9,773.6-7.9,775z"/>
	<path class="st2" d="M10.8,782.3c-2.1,0-3.8-0.6-5.1-1.9c-1.3-1.3-2-3-2-5.1v-0.4c0-1.4,0.3-2.7,0.8-3.8c0.6-1.1,1.3-2,2.4-2.6
		c1-0.6,2.2-0.9,3.5-0.9c2,0,3.5,0.6,4.6,1.8c1.1,1.2,1.7,3,1.7,5.2v1.6H7.6c0.1,0.9,0.5,1.7,1.1,2.2c0.6,0.6,1.4,0.8,2.4,0.8
		c1.5,0,2.6-0.5,3.4-1.6l1.9,2.1c-0.6,0.8-1.3,1.4-2.3,1.9C13.1,782,12,782.3,10.8,782.3z M10.4,770.5c-0.8,0-1.4,0.3-1.8,0.8
		c-0.5,0.5-0.8,1.2-0.9,2.2h5.3v-0.3c0-0.8-0.2-1.5-0.7-2C11.8,770.8,11.2,770.5,10.4,770.5z"/>
	<path class="st2" d="M22.3,767.7l0.1,1.6c1-1.3,2.4-1.9,4.1-1.9c1.5,0,2.6,0.4,3.4,1.3s1.1,2.2,1.1,4v9.2h-3.8v-9.1
		c0-0.8-0.2-1.4-0.5-1.8c-0.4-0.4-0.9-0.5-1.8-0.5c-1.1,0-1.9,0.5-2.4,1.4V782h-3.8v-14.3H22.3z"/>
	<path class="st2" d="M39.9,779.2c0.7,0,1.3-0.2,1.7-0.6s0.7-0.9,0.7-1.5h3.6c0,1-0.3,1.9-0.8,2.7c-0.5,0.8-1.2,1.4-2.1,1.9
		c-0.9,0.4-1.9,0.7-3,0.7c-2,0-3.6-0.6-4.8-1.9c-1.2-1.3-1.8-3.1-1.8-5.4v-0.3c0-2.2,0.6-4,1.8-5.3s2.8-2,4.8-2
		c1.8,0,3.2,0.5,4.3,1.5c1.1,1,1.6,2.4,1.6,4.1h-3.6c0-0.7-0.2-1.3-0.7-1.8s-1-0.7-1.7-0.7c-0.9,0-1.6,0.3-2,1
		c-0.5,0.6-0.7,1.7-0.7,3.1v0.4c0,1.5,0.2,2.5,0.7,3.2S39,779.2,39.9,779.2z"/>
	<path class="st2" d="M48,764c0-0.6,0.2-1,0.6-1.4c0.4-0.4,0.9-0.6,1.6-0.6c0.7,0,1.2,0.2,1.6,0.6c0.4,0.4,0.6,0.8,0.6,1.4
		c0,0.6-0.2,1.1-0.6,1.4c-0.4,0.4-0.9,0.6-1.5,0.6s-1.2-0.2-1.5-0.6C48.2,765.1,48,764.6,48,764z M52,782h-3.8v-14.3H52V782z"/>
	<path class="st2" d="M63.4,782c-0.2-0.3-0.3-0.8-0.4-1.3c-0.9,1-2.1,1.5-3.6,1.5c-1.4,0-2.6-0.4-3.5-1.2c-0.9-0.8-1.4-1.8-1.4-3.1
		c0-1.5,0.6-2.7,1.7-3.5c1.1-0.8,2.7-1.2,4.9-1.2h1.8v-0.8c0-0.7-0.2-1.2-0.5-1.6c-0.3-0.4-0.9-0.6-1.6-0.6c-0.6,0-1.1,0.2-1.5,0.5
		c-0.4,0.3-0.5,0.7-0.5,1.3h-3.8c0-0.8,0.3-1.6,0.8-2.3s1.2-1.3,2.2-1.7c0.9-0.4,2-0.6,3.1-0.6c1.8,0,3.2,0.4,4.2,1.3
		c1,0.9,1.5,2.1,1.5,3.7v6.2c0,1.4,0.2,2.4,0.6,3.1v0.2H63.4z M60.3,779.4c0.6,0,1.1-0.1,1.6-0.4c0.5-0.3,0.8-0.6,1.1-1v-2.5h-1.4
		c-1.9,0-2.9,0.7-3,2l0,0.2c0,0.5,0.2,0.9,0.5,1.2S59.7,779.4,60.3,779.4z"/>
	<path class="st2" d="M-42.5,810.4h-6.9l-1.3,4H-55l7.1-19.2h3.7l7.2,19.2h-4.2L-42.5,810.4z M-48.4,807.2h4.8l-2.4-7.2L-48.4,807.2
		z"/>
	<path class="st2" d="M-27.4,803.7c-0.5-0.1-1-0.1-1.4-0.1c-1.4,0-2.4,0.5-2.8,1.5v9.3h-3.8v-14.3h3.6l0.1,1.7c0.8-1.3,1.8-2,3.2-2
		c0.4,0,0.8,0.1,1.2,0.2L-27.4,803.7z"/>
	<path class="st2" d="M-20.4,796.6v3.5h2.4v2.8h-2.4v7.1c0,0.5,0.1,0.9,0.3,1.1s0.6,0.3,1.2,0.3c0.4,0,0.8,0,1.1-0.1v2.9
		c-0.7,0.2-1.5,0.3-2.3,0.3c-2.7,0-4-1.3-4.1-4v-7.7h-2.1v-2.8h2.1v-3.5H-20.4z"/>
	<path class="st2" d="M-15.8,796.4c0-0.6,0.2-1,0.6-1.4c0.4-0.4,0.9-0.6,1.6-0.6c0.7,0,1.2,0.2,1.6,0.6s0.6,0.8,0.6,1.4
		c0,0.6-0.2,1.1-0.6,1.4c-0.4,0.4-0.9,0.6-1.5,0.6s-1.2-0.2-1.5-0.6S-15.8,797-15.8,796.4z M-11.8,814.4h-3.8v-14.3h3.8V814.4z"/>
	<path class="st2" d="M-7.6,814.4v-11.5h-2.1v-2.8h2.1v-1.2c0-1.6,0.5-2.8,1.4-3.7c0.9-0.9,2.2-1.3,3.9-1.3c0.5,0,1.2,0.1,1.9,0.3
		l0,3c-0.3-0.1-0.7-0.1-1.2-0.1c-1.4,0-2.1,0.7-2.1,2v1.1H-1v2.8h-2.8v11.5H-7.6z"/>
	<path class="st2" d="M1,796.4c0-0.6,0.2-1,0.6-1.4c0.4-0.4,0.9-0.6,1.6-0.6c0.7,0,1.2,0.2,1.6,0.6c0.4,0.4,0.6,0.8,0.6,1.4
		c0,0.6-0.2,1.1-0.6,1.4c-0.4,0.4-0.9,0.6-1.5,0.6s-1.2-0.2-1.5-0.6C1.2,797.5,1,797,1,796.4z M5,814.4H1.2v-14.3H5V814.4z"/>
	<path class="st2" d="M14.1,811.6c0.7,0,1.3-0.2,1.7-0.6c0.4-0.4,0.7-0.9,0.7-1.5h3.6c0,1-0.3,1.9-0.8,2.7c-0.5,0.8-1.2,1.4-2.1,1.9
		c-0.9,0.4-1.9,0.7-3,0.7c-2,0-3.6-0.6-4.8-1.9c-1.2-1.3-1.8-3.1-1.8-5.4v-0.3c0-2.2,0.6-4,1.8-5.3c1.2-1.3,2.8-2,4.8-2
		c1.8,0,3.2,0.5,4.3,1.5c1.1,1,1.6,2.4,1.6,4.1h-3.6c0-0.7-0.2-1.3-0.7-1.8s-1-0.7-1.7-0.7c-0.9,0-1.6,0.3-2,1
		c-0.5,0.6-0.7,1.7-0.7,3.1v0.4c0,1.5,0.2,2.5,0.7,3.2S13.2,811.6,14.1,811.6z"/>
	<path class="st2" d="M22.2,796.4c0-0.6,0.2-1,0.6-1.4c0.4-0.4,0.9-0.6,1.6-0.6c0.7,0,1.2,0.2,1.6,0.6c0.4,0.4,0.6,0.8,0.6,1.4
		c0,0.6-0.2,1.1-0.6,1.4c-0.4,0.4-0.9,0.6-1.5,0.6s-1.2-0.2-1.5-0.6C22.4,797.5,22.2,797,22.2,796.4z M26.3,814.4h-3.8v-14.3h3.8
		V814.4z"/>
	<path class="st2" d="M37.7,814.4c-0.2-0.3-0.3-0.8-0.4-1.3c-0.9,1-2.1,1.5-3.6,1.5c-1.4,0-2.6-0.4-3.5-1.2
		c-0.9-0.8-1.4-1.8-1.4-3.1c0-1.5,0.6-2.7,1.7-3.5c1.1-0.8,2.7-1.2,4.9-1.2h1.8v-0.8c0-0.7-0.2-1.2-0.5-1.6
		c-0.3-0.4-0.9-0.6-1.6-0.6c-0.6,0-1.1,0.2-1.5,0.5c-0.4,0.3-0.5,0.7-0.5,1.3h-3.8c0-0.8,0.3-1.6,0.8-2.3s1.2-1.3,2.2-1.7
		c0.9-0.4,2-0.6,3.1-0.6c1.8,0,3.2,0.4,4.2,1.3c1,0.9,1.5,2.1,1.5,3.7v6.2c0,1.4,0.2,2.4,0.6,3.1v0.2H37.7z M34.5,811.8
		c0.6,0,1.1-0.1,1.6-0.4c0.5-0.3,0.8-0.6,1.1-1v-2.5h-1.4c-1.9,0-2.9,0.7-3,2l0,0.2c0,0.5,0.2,0.9,0.5,1.2S34,811.8,34.5,811.8z"/>
	<path class="st2" d="M47.9,814.4h-3.8v-20.3h3.8V814.4z"/>
</g>
<g>
	<path class="st0" d="M181.9,692.7c-6.1,0-11.1-5-11.1-11.1s5-11.1,11.1-11.1s11.1,5,11.1,11.1S188,692.7,181.9,692.7z M181.9,676.5
		c-2.8,0-5.1,2.3-5.1,5.1s2.3,5.1,5.1,5.1s5.1-2.3,5.1-5.1S184.7,676.5,181.9,676.5z"/>
</g>
<g>
	<circle class="st0" cx="181.9" cy="681.6" r="1.1"/>
	<path class="st0" d="M196.7,678.6c0.2,1,0.3,2,0.3,3s-0.1,2-0.3,3h71v-6H196.7z"/>
	<path class="st0" d="M166.8,681.6c0-1,0.1-2,0.3-3h-71v6h71C166.9,683.6,166.8,682.6,166.8,681.6z"/>
</g>
<g>
	<path class="st0" d="M42.8,515.3c-4.3,4.3-11.4,4.3-15.7,0c-4.3-4.3-4.3-11.4,0-15.7c4.3-4.3,11.4-4.3,15.7,0
		C47.1,503.9,47.1,510.9,42.8,515.3z M31.4,503.8c-2,2-2,5.2,0,7.2s5.2,2,7.2,0c2-2,2-5.2,0-7.2C36.6,501.8,33.3,501.8,31.4,503.8z"
		/>
</g>
<g>
	<circle class="st0" cx="35" cy="507.4" r="1.1"/>
	<path class="st0" d="M43.3,494.8c0.8,0.5,1.6,1.2,2.3,1.9c0.7,0.7,1.4,1.5,1.9,2.3l50.2-50.2l-4.2-4.2L43.3,494.8z"/>
	<path class="st0" d="M24.3,518.1c-0.7-0.7-1.4-1.5-1.9-2.3L-27.8,566l4.2,4.2L26.6,520C25.8,519.5,25,518.8,24.3,518.1z"/>
</g>
<g>
	<path class="st0" d="M339.6,515.3c-4.3-4.3-4.3-11.4,0-15.7c4.3-4.3,11.4-4.3,15.7,0s4.3,11.4,0,15.7S343.9,519.6,339.6,515.3z
		 M351,503.8c-2-2-5.2-2-7.2,0c-2,2-2,5.2,0,7.2s5.2,2,7.2,0S353,505.8,351,503.8z"/>
</g>
<g>
	<circle class="st0" cx="347.4" cy="507.4" r="1.1"/>
	<path class="st0" d="M360,515.8c-0.5,0.8-1.2,1.6-1.9,2.3c-0.7,0.7-1.5,1.4-2.3,1.9l50.2,50.2l4.2-4.2L360,515.8z"/>
	<path class="st0" d="M336.7,496.7c0.7-0.7,1.5-1.4,2.3-1.9l-50.2-50.2l-4.2,4.2l50.2,50.2C335.4,498.3,336,497.5,336.7,496.7z"/>
</g>
</svg>
