<?xml version="1.0" encoding="utf-8"?>
<!-- Generator: Adobe Illustrator 19.0.0, SVG Export Plug-In . SVG Version: 6.00 Build 0)  -->
<svg version="1.1" id="Capa_1" xmlns="http://www.w3.org/2000/svg" xmlns:xlink="http://www.w3.org/1999/xlink" x="0px" y="0px"
	 viewBox="-194 483.8 294.7 258.2" style="enable-background:new -194 483.8 294.7 258.2;" xml:space="preserve">
<style type="text/css">
	.st0{fill:#11202D;}
</style>
<title>analítica y ciencia de datos</title>
<g>
	<path class="st0" d="M60,709.2L60,709.2c-0.1,11.5-9.4,20.8-20.9,20.8H-76.7c-11.5,0-20.8-9.3-20.8-20.8v-37h-12v37
		c0,18.1,14.7,32.8,32.8,32.8H39.2c18.1,0,32.8-14.7,32.8-32.8v-5.6H60V709.2z"/>
	<polygon class="st0" points="38.2,645.9 35.3,643.1 27.7,650.7 27,651.4 47.8,672.1 59.9,660 71.9,648 76.9,643.1 71.9,638.1 
		68.6,634.8 59.9,643.4 47.8,655.5 	"/>
	<path class="st0" d="M71.9,608.8L71.9,608.8c-3.8-1.7-7.8-2.8-12-3.3l-0.1,0c-2-0.3-4.1-0.4-6.2-0.4c-21.2,0-39.2,14.2-45,33.6
		c-1.1,3.8-1.8,7.8-1.9,12c0,0.5,0,0.9,0,1.4c0,11.5,4.1,22,11,30.2h0.1c4.1,5,9.3,9,15.1,11.9H33c6.3,3.1,13.3,4.8,20.8,4.8
		c2.1,0,4.2-0.2,6.2-0.4c4.2-0.6,8.1-1.7,11.9-3.3v0.1c16.9-7.1,28.7-23.8,28.8-43.3C100.7,632.6,88.8,615.9,71.9,608.8z
		 M71.9,682.3L71.9,682.3c-3.6,2.1-7.6,3.7-11.9,4.5v-0.1c-2,0.4-4.1,0.6-6.2,0.6c-5.7,0-15.7-3.6-15.7-3.6
		c-0.9-0.5-1.8-0.9-2.7-1.5h-0.1c-10.1-6.2-16.8-17.4-16.8-30.1c0-0.5,0-0.9,0-1.4h-0.1c0.2-4.2,1.1-8.3,2.6-12
		c5.3-12.8,17.9-21.9,32.6-21.9c2.1,0,4.2,0.2,6.2,0.6l0.1,0c4.3,0.8,12,4.6,12,4.6c10.2,6.2,17,17.4,17,30.1
		C88.9,664.9,82.1,676.1,71.9,682.3z"/>
	<path class="st0" d="M6.7,483.8h-51c-7.1,0-12.8,5.8-12.8,12.8v5.8v11.4v0.6v5.9c0,7,5.7,12.8,12.8,12.8h51
		c7.1,0,12.8-5.8,12.8-12.8v-5.9v-2.3v-9.7v-5.8C19.5,489.5,13.7,483.8,6.7,483.8z M7.5,502.4v9.7v2.3v5.9c0,0.5-0.4,0.8-0.8,0.8
		h-51c-0.5,0-0.8-0.4-0.8-0.8v-5.9v-0.6v-11.4v-5.8c0-0.5,0.4-0.8,0.8-0.8h51c0.5,0,0.8,0.4,0.8,0.8V502.4z"/>
	<polygon class="st0" points="-97.5,583.8 -84.5,583.8 -84.5,571.8 -97.5,571.8 -109.5,571.8 -149.5,571.8 -149.5,583.8 
		-109.5,583.8 	"/>
	<polygon class="st0" points="-97.5,664.3 -84.5,664.3 -84.5,652.3 -97.5,652.3 -109.5,652.3 -149.5,652.3 -149.5,664.3 
		-109.5,664.3 	"/>
	<polygon class="st0" points="-97.5,624 -75.5,624 -75.5,612 -97.5,612 -109.5,612 -194,612 -194,624 -109.5,624 	"/>
	<rect x="-50" y="551.1" class="st0" width="88.1" height="12"/>
	<circle class="st0" cx="-65.9" cy="557.2" r="9.5"/>
	<rect x="-50" y="594.9" class="st0" width="88.1" height="12"/>
	<circle class="st0" cx="-65.6" cy="600.9" r="9.9"/>
	<circle class="st0" cx="-65.6" cy="644.5" r="9.9"/>
	<rect x="-50" y="682.2" class="st0" width="63.9" height="12"/>
	<circle class="st0" cx="-65.6" cy="688.2" r="9.9"/>
	<path class="st0" d="M59.9,535.2v65.7h12v-65.7c0-18.1-14.7-32.8-32.8-32.8H25.3v12h13.8C50.6,514.4,59.9,523.7,59.9,535.2z"/>
	<rect x="-50" y="638.7" class="st0" width="51.1" height="12"/>
	<path class="st0" d="M-97.6,535.2c0-11.5,9.3-20.8,20.8-20.8H-63v-12h-13.8c-18.1,0-32.8,14.7-32.8,32.8v27.9h12
		C-97.6,563.1-97.6,535.2-97.6,535.2z"/>
</g>
</svg>
