<?xml version="1.0" encoding="utf-8"?>
<!-- Generator: Adobe Illustrator 19.0.0, SVG Export Plug-In . SVG Version: 6.00 Build 0)  -->
<svg version="1.1" id="Capa_1" xmlns="http://www.w3.org/2000/svg" xmlns:xlink="http://www.w3.org/1999/xlink" x="0px" y="0px"
	 viewBox="-248 483.8 294.7 258.2" style="enable-background:new -248 483.8 294.7 258.2;" xml:space="preserve">
<style type="text/css">
	.st0{fill:#11202D;}
	.st1{fill-rule:evenodd;clip-rule:evenodd;fill:#11202D;}
</style>
<title>analítica y ciencia de datos</title>
<g>
	<path class="st0" d="M-143.2,670.1c-1.4,0-2.8-0.7-3.7-2c-1.4-2-0.8-4.8,1.2-6.2c13.1-8.9,21-23.6,21-39.4c0-12.9-5.1-25-14.3-34
		c-1.8-1.7-1.8-4.5-0.1-6.3c1.7-1.7,4.5-1.8,6.3-0.1c10.9,10.7,17,25,17,40.3c0,18.8-9.3,36.2-24.9,46.8
		C-141.5,669.9-142.3,670.1-143.2,670.1z"/>
</g>
<g>
	<path class="st0" d="M-206.2,666.4c-1,0-2.1-0.4-2.9-1.1c-12.4-10.7-19.5-26.3-19.5-42.7c0-12.4,4-24.2,11.5-34.1
		c1.5-2,4.3-2.3,6.2-0.8c1.9,1.5,2.3,4.3,0.8,6.2c-6.3,8.3-9.7,18.3-9.7,28.7c0,13.8,6,26.9,16.5,36c1.9,1.6,2.1,4.4,0.5,6.3
		C-203.7,665.8-204.9,666.4-206.2,666.4z"/>
</g>
<path class="st1" d="M-71.6,710l-30.2-30.2c-2.9-3-7.2-3.7-10.9-2.3l-5.7-5.8c25.3-28.3,24.4-71.9-2.8-99.1
	c-28.1-28.1-73.9-28.1-102.1,0c-28.1,28.1-28.1,73.9,0,102.1c27.2,27.2,70.9,28.1,99.1,2.8l5.8,5.7c-1.4,3.7-0.7,8,2.3,10.9
	l30.2,30.2c4,4,10.4,4,14.4,0C-67.6,720.4-67.6,714-71.6,710z M-129.9,666.2c-23.4,23.4-61.4,23.4-84.8-0.1
	c-23.4-23.4-23.4-61.4,0-84.8c23.4-23.4,61.5-23.4,84.8,0C-106.4,604.7-106.4,642.8-129.9,666.2z"/>
<path class="st0" d="M4.7,553.9c0-30.4-24.8-55.3-55.3-55.3c-26.3,0-48.2,18.3-53.8,42.9c-4.7-1.8-10.1-3-15.4-3
	c-7,0-13.6,1.7-19.3,4.8c10.5,4.3,20.1,10.7,28.3,18.9c3.5,3.5,6.6,7.2,9.4,11c2.6-1.2,5.5-1.9,8.6-1.9H-69
	c-0.1-0.8-0.1-1.6-0.1-2.4c0-11.4,9.3-20.7,20.7-20.7c9.9,0,18.7,4.5,24.6,11.5c3.3-2.2,7.2-3.5,11.5-3.5
	c22.5,0,40.8,18.3,40.8,40.8c0,2.5-0.3,5-0.7,7.4l18.2,0c0.6-3,0.9-5.6,0.9-8.6C46.7,572.8,28.1,553.9,4.7,553.9z"/>
<path class="st0" d="M-11.4,623.1c14.1,0,26-11.9,26-26c0-14.3-11.7-26-26-26c-3.3,0-5.9,2.6-5.9,5.9c0,3.3,2.6,5.9,5.9,5.9
	c7.8,0,14.2,6.4,14.2,14.2c0,7.7-6.5,14.2-14.2,14.2h-74.8c0.6,3.9,0.8,7.9,0.9,11.8H-11.4z"/>
<path class="st0" d="M-28.2,651.5c7.8,0,14.2,6.4,14.2,14.2c0,7.8-6.4,14.2-14.2,14.2c-3.3,0-5.9,2.6-5.9,5.9c0,3.3,2.6,5.9,5.9,5.9
	c14.3,0,26-11.7,26-26s-11.7-26-26-26h-58.5c-0.7,4-1.8,7.9-3.1,11.8H-28.2z"/>
<path class="st0" d="M-47.4,598c9.6,0,17.4-7.8,17.4-17.4c0-9.6-7.8-17.4-17.4-17.4c-3.3,0-5.9,2.6-5.9,5.9s2.6,5.9,5.9,5.9
	c3.1,0,5.6,2.5,5.6,5.6c0,3.1-2.5,5.6-5.6,5.6h-44.3c-0.7,0-1.3,0.1-1.9,0.3c1.8,3.7,3.3,7.6,4.5,11.5H-47.4z"/>
</svg>
