<?xml version="1.0" encoding="utf-8"?>
<!-- Generator: Adobe Illustrator 19.0.0, SVG Export Plug-In . SVG Version: 6.00 Build 0)  -->
<svg version="1.1" id="Capa_1" xmlns="http://www.w3.org/2000/svg" xmlns:xlink="http://www.w3.org/1999/xlink" x="0px" y="0px"
	 viewBox="-248 483.8 294.7 258.2" style="enable-background:new -248 483.8 294.7 258.2;" xml:space="preserve">
<style type="text/css">
	.st0{fill:#11202D;}
</style>
<g>
	<path class="st0" d="M811.3,1571.4h51c7.1,0,12.8-5.8,12.8-12.8v-5.8h-12v5.8c0,0.5-0.4,0.8-0.8,0.8h-51c-0.5,0-0.8-0.4-0.8-0.8
		v-5.8h-12v5.8C798.5,1565.6,804.3,1571.4,811.3,1571.4z"/>
	<path class="st0" d="M810.5,1534.9c0-0.5,0.4-0.8,0.8-0.8h51c0.5,0,0.8,0.4,0.8,0.8v5.8h12v-5.8c0-7.1-5.8-12.8-12.8-12.8h-51
		c-7.1,0-12.8,5.8-12.8,12.8v5.8h12V1534.9z"/>
	<rect x="798.5" y="1540.7" class="st0" width="12" height="12"/>
	<rect x="863.2" y="1540.7" class="st0" width="12" height="12"/>
	<rect x="805.7" y="1589.4" class="st0" width="54.1" height="12"/>
	<circle class="st0" cx="789.8" cy="1595.5" r="9.5"/>
	<polygon class="st0" points="859.8,1633.2 805.7,1633.2 805.7,1645.2 869.2,1645.2 	"/>
	<circle class="st0" cx="790" cy="1639.2" r="9.9"/>
	<circle class="st0" cx="790" cy="1682.9" r="9.9"/>
	<rect x="805.7" y="1720.6" class="st0" width="88.1" height="12"/>
	<circle class="st0" cx="790" cy="1726.6" r="9.9"/>
	<path class="st0" d="M878.7,1678.6l-20.8,6.5c-2.5,0.8-5.2,0-6.9-2c-1.4-1.7-1.8-3.9-1.2-6h-44.1v12H882L878.7,1678.6z"/>
	<g>
		<path class="st0" d="M912.7,1554.4c0.8,0.3,2,0.8,2.4,0.8c0.4,0,1.6-0.5,2.4-0.8c0.9-0.4,2-0.8,3.1-1.2
			c-6-7.6-15.3-12.5-25.8-12.5H881v12h13.8c2.5,0,4.9,0.5,7.2,1.3c0.9-0.5,1.9-0.9,3-1.1C908,1552.4,910.6,1553.5,912.7,1554.4z"/>
		<path class="st0" d="M916.6,1705.7c-0.2,0-0.4,0-0.6,0c-0.2,0-0.3-0.1-0.5-0.1v36.3v3.5v2c0,11.5-9.3,20.8-20.8,20.8H778.9
			c-11.5,0-20.8-9.3-20.8-20.8v-26.9v-10.1v-137c0-11.5,9.3-20.8,20.8-20.8h13.8v-12h-13.8c-18.1,0-32.8,14.7-32.8,32.8v137v10.1
			v26.9c0,18.1,14.7,32.8,32.8,32.8h115.9c18.1,0,32.8-14.7,32.8-32.8v-2v-3.5v-49.5l-5.1,9.8
			C921.3,1704.4,919.1,1705.7,916.6,1705.7z"/>
	</g>
</g>
<path class="st0" d="M964.3,1619c0.5-2.9,3.9-5.6,3.9-8.7s-3.4-5.8-3.9-8.7c-0.5-3,1.8-6.7,0.7-9.5c-1-2.8-5.2-4.2-6.7-6.8
	c-1.5-2.6-0.6-6.9-2.6-9.2c-1.9-2.3-6.3-2.2-8.6-4.1c-2.3-1.9-2.9-6.3-5.5-7.8c-2.6-1.5-6.7,0.1-9.5-0.9c-2.8-1-4.9-4.9-7.9-5.4
	c-2.9-0.5-6.2,2.4-9.2,2.4s-6.3-2.9-9.2-2.4c-3,0.5-5.1,4.4-7.9,5.4c-2.8,1-6.9-0.6-9.5,0.9c-2.6,1.5-3.3,5.8-5.5,7.8
	c-2.3,1.9-6.7,1.8-8.6,4.1c-1.9,2.3-1.1,6.6-2.6,9.2c-1.5,2.6-5.6,4-6.7,6.8c-1,2.8,1.3,6.5,0.7,9.5c-0.5,2.9-3.9,5.6-3.9,8.7
	s3.4,5.8,3.9,8.7c0.5,3-1.8,6.7-0.7,9.5c1,2.8,5.2,4.2,6.7,6.8c1.5,2.6,0.6,6.9,2.6,9.2c1.9,2.3,6.3,2.2,8.6,4.1
	c2.3,1.9,2.9,6.3,5.5,7.8c2.6,1.5,6.7-0.1,9.5,0.9c2.8,1,4.9,4.9,7.9,5.4c2.9,0.5,6.2-2.4,9.2-2.4s6.3,2.9,9.2,2.4
	c3-0.5,5.1-4.4,7.9-5.4c2.8-1,6.9,0.6,9.5-0.9c2.6-1.5,3.3-5.8,5.5-7.8c2.3-1.9,6.7-1.8,8.6-4.1c1.9-2.3,1.1-6.6,2.6-9.2
	c1.5-2.6,5.6-4,6.7-6.8C966,1625.7,963.8,1622,964.3,1619z M915,1648.9c-21.3,0-38.6-17.3-38.6-38.6s17.3-38.6,38.6-38.6
	s38.6,17.3,38.6,38.6S936.4,1648.9,915,1648.9z"/>
<polygon class="st0" points="937.6,1592.6 933.8,1588.8 923.8,1598.8 909.9,1612.7 898.8,1601.6 895.5,1598.3 886.7,1607.1 
	886,1607.9 909.9,1631.8 923.8,1617.9 937.6,1604.1 943.3,1598.3 "/>
<g>
	<path class="st0" d="M942.5,1658.9c-2.3,1.3-4.9,1.2-7,1.1c-1.1-0.1-2.4-0.1-3,0.1c-0.6,0.2-1.5,1.1-2.3,1.8
		c-1.6,1.5-3.5,3.3-6.2,3.7c-0.4,0.1-0.9,0.1-1.3,0.1c-2.1,0-4-0.8-5.6-1.5c-0.6-0.3-1.3-0.6-1.9-0.8l-7,13.4l7.1,22.8
		c0.4,1.3,2.1,1.4,2.8,0.2l11.7-22.4c0.4-0.7,1.3-1,2-0.6l22.4,11.7c1.2,0.6,2.5-0.5,2.1-1.8l-10-32.1
		C945.4,1656.3,944.2,1657.9,942.5,1658.9z"/>
	<path class="st0" d="M904.2,1665.6c-2.7-0.5-4.6-2.3-6.2-3.7c-0.8-0.8-1.7-1.6-2.3-1.8c-0.6-0.2-1.9-0.2-3-0.1
		c-2.1,0.1-4.7,0.2-7-1.1c-2.3-1.3-3.5-3.7-4.5-5.6c-0.5-1-1.1-2.1-1.6-2.5c-0.5-0.4-1.7-0.8-2.8-1.1c-1.8-0.5-4-1.2-5.6-2.8
		l-16.6,31.6c-0.6,1.2,0.5,2.5,1.8,2.1l24.1-7.5c0.8-0.2,1.6,0.2,1.9,1l7.5,24.1c0.4,1.3,2.1,1.4,2.8,0.2l17.7-33.9
		C908.7,1665.3,906.6,1666,904.2,1665.6z"/>
</g>
<title>analítica y ciencia de datos</title>
<g>
	<path class="st0" d="M-136.1,533.4h51c7.1,0,12.8-5.8,12.8-12.8v-5.8h-12v5.8c0,0.5-0.4,0.8-0.8,0.8h-51c-0.5,0-0.8-0.4-0.8-0.8
		v-5.8h-12v5.8C-148.9,527.6-143.2,533.4-136.1,533.4z"/>
	<path class="st0" d="M-136.9,496.9c0-0.5,0.4-0.8,0.8-0.8h51c0.5,0,0.8,0.4,0.8,0.8v5.8h12v-5.8c0-7.1-5.8-12.8-12.8-12.8h-51
		c-7.1,0-12.8,5.8-12.8,12.8v5.8h12V496.9z"/>
	<rect x="-148.9" y="502.7" class="st0" width="12" height="12"/>
	<rect x="-84.3" y="502.7" class="st0" width="12" height="12"/>
	<rect x="-141.8" y="551.4" class="st0" width="54.1" height="12"/>
	<circle class="st0" cx="-157.7" cy="557.5" r="9.5"/>
	<polygon class="st0" points="-87.7,595.2 -141.8,595.2 -141.8,607.2 -78.3,607.2 	"/>
	<circle class="st0" cx="-157.4" cy="601.2" r="9.9"/>
	<circle class="st0" cx="-157.4" cy="644.9" r="9.9"/>
	<rect x="-141.8" y="682.6" class="st0" width="88.1" height="12"/>
	<circle class="st0" cx="-157.4" cy="688.6" r="9.9"/>
	<path class="st0" d="M-68.7,640.6l-20.8,6.5c-2.5,0.8-5.2,0-6.9-2c-1.4-1.7-1.8-3.9-1.2-6h-44.1v12h76.3L-68.7,640.6z"/>
	<g>
		<path class="st0" d="M-34.8,516.4c0.8,0.3,2,0.8,2.4,0.8c0.4,0,1.6-0.5,2.4-0.8c0.9-0.4,2-0.8,3.1-1.2c-6-7.6-15.3-12.5-25.8-12.5
			h-13.8v12h13.8c2.5,0,4.9,0.5,7.2,1.3c0.9-0.5,1.9-0.9,3-1.1C-39.5,514.4-36.9,515.5-34.8,516.4z"/>
		<path class="st0" d="M-30.8,667.7c-0.2,0-0.4,0-0.6,0c-0.2,0-0.3-0.1-0.5-0.1V704v3.5v2c0,11.5-9.3,20.8-20.8,20.8h-115.9
			c-11.5,0-20.8-9.3-20.8-20.8v-26.9v-10.1v-137c0-11.5,9.3-20.8,20.8-20.8h13.8v-12h-13.8c-18.1,0-32.8,14.7-32.8,32.8v137v10.1
			v26.9c0,18.1,14.7,32.8,32.8,32.8h115.9c18.1,0,32.8-14.7,32.8-32.8v-2V704v-49.5l-5.1,9.8C-26.2,666.4-28.4,667.7-30.8,667.7z"/>
	</g>
</g>
<path class="st0" d="M16.8,581c0.5-2.9,3.9-5.6,3.9-8.7s-3.4-5.8-3.9-8.7c-0.5-3,1.8-6.7,0.7-9.5c-1-2.8-5.2-4.2-6.7-6.8
	c-1.5-2.6-0.6-6.9-2.6-9.2c-1.9-2.3-6.3-2.2-8.6-4.1c-2.3-1.9-2.9-6.3-5.5-7.8c-2.6-1.5-6.7,0.1-9.5-0.9c-2.8-1-4.9-4.9-7.9-5.4
	c-2.9-0.5-6.2,2.4-9.2,2.4s-6.3-2.9-9.2-2.4c-3,0.5-5.1,4.4-7.9,5.4c-2.8,1-6.9-0.6-9.5,0.9c-2.6,1.5-3.3,5.8-5.5,7.8
	c-2.3,1.9-6.7,1.8-8.6,4.1c-1.9,2.3-1.1,6.6-2.6,9.2c-1.5,2.6-5.6,4-6.7,6.8c-1,2.8,1.3,6.5,0.7,9.5c-0.5,2.9-3.9,5.6-3.9,8.7
	s3.4,5.8,3.9,8.7c0.5,3-1.8,6.7-0.7,9.5c1,2.8,5.2,4.2,6.7,6.8c1.5,2.6,0.6,6.9,2.6,9.2c1.9,2.3,6.3,2.2,8.6,4.1
	c2.3,1.9,2.9,6.3,5.5,7.8c2.6,1.5,6.7-0.1,9.5,0.9c2.8,1,4.9,4.9,7.9,5.4c2.9,0.5,6.2-2.4,9.2-2.4s6.3,2.9,9.2,2.4
	c3-0.5,5.1-4.4,7.9-5.4c2.8-1,6.9,0.6,9.5-0.9c2.6-1.5,3.3-5.8,5.5-7.8c2.3-1.9,6.7-1.8,8.6-4.1c1.9-2.3,1.1-6.6,2.6-9.2
	c1.5-2.6,5.6-4,6.7-6.8C18.6,587.7,16.3,584,16.8,581z M-32.4,610.9c-21.3,0-38.6-17.3-38.6-38.6s17.3-38.6,38.6-38.6
	s38.6,17.3,38.6,38.6S-11.1,610.9-32.4,610.9z"/>
<polygon class="st0" points="-9.9,554.6 -13.7,550.8 -23.7,560.8 -37.6,574.7 -48.7,563.6 -51.9,560.3 -60.7,569.1 -61.5,569.9 
	-37.6,593.8 -23.7,579.9 -9.9,566.1 -4.1,560.3 "/>
<g>
	<path class="st0" d="M-5,620.9c-2.3,1.3-4.9,1.2-7,1.1c-1.1-0.1-2.4-0.1-3,0.1c-0.6,0.2-1.5,1.1-2.3,1.8c-1.6,1.5-3.5,3.3-6.2,3.7
		c-0.4,0.1-0.9,0.1-1.3,0.1c-2.1,0-4-0.8-5.6-1.5c-0.6-0.3-1.3-0.6-1.9-0.8l-7,13.4l7.1,22.8c0.4,1.3,2.1,1.4,2.8,0.2l11.7-22.4
		c0.4-0.7,1.3-1,2-0.6l22.4,11.7c1.2,0.6,2.5-0.5,2.1-1.8l-10-32.1C-2.1,618.3-3.2,619.9-5,620.9z"/>
	<path class="st0" d="M-43.2,627.6c-2.7-0.5-4.6-2.3-6.2-3.7c-0.8-0.8-1.7-1.6-2.3-1.8c-0.6-0.2-1.9-0.2-3-0.1
		c-2.1,0.1-4.7,0.2-7-1.1c-2.3-1.3-3.5-3.7-4.5-5.6c-0.5-1-1.1-2.1-1.6-2.5c-0.5-0.4-1.7-0.8-2.8-1.1c-1.8-0.5-4-1.2-5.6-2.8
		l-16.6,31.6c-0.6,1.2,0.5,2.5,1.8,2.1l24.1-7.5c0.8-0.2,1.6,0.2,1.9,1l7.5,24.1c0.4,1.3,2.1,1.4,2.8,0.2l17.7-33.9
		C-38.7,627.3-40.9,628-43.2,627.6z"/>
</g>
</svg>
