<?xml version="1.0" encoding="utf-8"?>
<!-- Generator: Adobe Illustrator 19.0.0, SVG Export Plug-In . SVG Version: 6.00 Build 0)  -->
<svg version="1.1" id="Capa_1" xmlns="http://www.w3.org/2000/svg" xmlns:xlink="http://www.w3.org/1999/xlink" x="0px" y="0px"
	 viewBox="-255.3 491.8 244.9 212.7" style="enable-background:new -255.3 491.8 244.9 212.7;" xml:space="preserve">
<style type="text/css">
	.st0{fill:none;stroke:#2F5C67;stroke-width:7;stroke-linecap:round;stroke-linejoin:round;stroke-miterlimit:10;}
	.st1{fill:#11202D;}
</style>
<title>analítica y ciencia de datos</title>
<path class="st0" d="M-147.8,610.8c-5.3,0-9.5-4.3-9.5-9.5c0-5.3,4.3-9.5,9.5-9.5l0,0c-5.3,0-9.5-4.3-9.5-9.5c0-3.2,1.6-6,4.1-7.8
	c-3.6-1.4-6.2-4.8-6.2-9c0-5.3,4.3-9.5,9.5-9.5h34.2c2.1,0,4.1,0.7,5.6,1.8c1.7-1.3,3.7-2,5.9-2h22c0-0.3-0.1-0.5-0.2-0.7
	c-1-1.5-1.6-3.3-1.6-5.3c0-0.2,0-0.4,0-0.6c-5.7-15.8-22.3-26.8-40.5-23.3c-8.5,1.7-15.2,6-21.6,12.8c-0.8-1.2-1.4-2.3-2.2-3.1
	c-18.8-18-49.5-11.5-58.8,12.8c-5.8,15.2-1.2,29.1,8.3,41.4c14,18.1,32.2,31.5,51,44.1c1,0.7,3.4,0.6,4.5-0.2
	c10.7-7,21.1-14.6,30.7-23L-147.8,610.8L-147.8,610.8L-147.8,610.8z"/>
<g>
	<path class="st1" d="M-146.4,667.9c-0.7-0.2-0.6-1.2,0.1-1.2c6,0,12.6,0.1,19-0.1c8.3-0.3,12.2-2.8,12.5-7.4
		c0.3-4.7-2.9-7.1-11.5-8.6c-10.5-1.9-21.1-3.2-31.3-6.1c-16.6-4.6-33.1-5.8-49,1c-14.3,6.1-27.8,14.2-41.5,21.6
		c-3.3,1.8-3.1,4.8-1.5,7.8c4,7.3,7.9,14.7,11.9,22c2.5,4.6,4.9,5.1,9.3,2.1c7.5-5,15.1-9.8,22.5-14.9c6.4-4.5,12.8-5.3,20.3-2.9
		c16.3,5.2,32.7,10.2,49.2,14.8c3.4,0.9,8.1,1.1,11-0.6c15.7-8.8,31-18.1,46.4-27.4c2.4-1.4,4.7-3.4,6.2-5.6c1-1.4,1-4.3,0.2-5.8
		c-0.6-1.1-3.4-2-4.9-1.7c-10.1,2.2-20.1,4.6-30.1,7.1c-1.6,0.4-3.9,1.3-4.4,2.6c-1.7,4.1-5.1,5-8.8,5.4
		C-129.8,671-138.4,669.6-146.4,667.9z"/>
</g>
<g id="XMLID_15_">
	<path class="st1" d="M-50.2,586.2h-97.6c-2.2,0-4-1.8-4-4s1.8-4,4-4h97.6c5.2,0,9.5-4.3,9.5-9.5c0-5.3-4.3-9.5-9.5-9.5
		c-2.2,0-4-1.8-4-4s1.8-4,4-4c9.6,0,17.5,7.9,17.5,17.5C-32.8,578.1-40.8,586.2-50.2,586.2z"/>
</g>
<g id="XMLID_14_">
	<path class="st1" d="M-61.6,632.3c-2.2,0-4-1.8-4-4s1.8-4,4-4c5.3,0,9.5-4.3,9.5-9.5c0-5.3-4.3-9.5-9.5-9.5h-86.2c-2.2,0-4-1.8-4-4
		s1.8-4,4-4h86.2c9.6,0,17.5,7.9,17.5,17.5C-44,624.4-51.9,632.3-61.6,632.3z"/>
</g>
<g id="XMLID_13_">
	<path class="st1" d="M-74.5,569.3h-29.8c-2.2,0-4-1.8-4-4c0-2.2,1.8-4,4-4h29.8c2.1,0,3.8-1.7,3.8-3.8c0-2.1-1.7-3.8-3.8-3.8
		c-2.2,0-4-1.8-4-4c0-2.2,1.8-4,4-4c6.5,0,11.7,5.3,11.7,11.7C-62.8,564-68.1,569.3-74.5,569.3z"/>
</g>
<g id="XMLID_12_">
	<path class="st1" d="M-115.8,569.5H-150c-2.2,0-4-1.8-4-4c0-2.2,1.8-4,4-4h34.2c2.2,0,4,1.8,4,4S-113.6,569.5-115.8,569.5z"/>
</g>
</svg>
