<?xml version="1.0" encoding="utf-8"?>
<!-- Generator: Adobe Illustrator 19.0.0, SVG Export Plug-In . SVG Version: 6.00 Build 0)  -->
<svg version="1.1" id="Capa_1" xmlns="http://www.w3.org/2000/svg" xmlns:xlink="http://www.w3.org/1999/xlink" x="0px" y="0px"
	 viewBox="-273 506.3 244.9 212.7" style="enable-background:new -273 506.3 244.9 212.7;" xml:space="preserve">
<style type="text/css">
	.st0{fill:none;}
	.st1{fill:#11202D;}
	.st2{fill:none;stroke:#2F5C67;stroke-width:4;stroke-linecap:round;stroke-linejoin:round;stroke-miterlimit:10;}
	.st3{fill:#28A9FC;}
	.st4{fill:#2F5C67;}
	.st5{fill:#FFFFFF;}
</style>
<title>analítica y ciencia de datos</title>
<g>
	<path class="st0" d="M-231.9,544.6c0.3-7.2-5.8-12.6-12.1-12.4c-6.7-0.1-11.7,5.6-12,11.6c-0.3,6.6,5.6,12.4,12.2,12.4
		C-237.4,556.2-232.1,550.7-231.9,544.6z M-243.7,551.6C-243.7,551.6-243.7,551.6-243.7,551.6c-2,0-4-0.9-5.5-2.4
		c-1.4-1.5-2.2-3.3-2.1-5.2c0.1-3.5,3.1-7.3,7.3-7.2l0.1,0l0.1,0c1.9-0.1,3.9,0.8,5.3,2.3c1.4,1.5,2.2,3.3,2.1,5.3
		C-236.6,548.2-240,551.6-243.7,551.6z"/>
	<path class="st0" d="M-207,593.7c5.5,0,9.9-4.5,9.8-9.9c0-5.7-4.9-9.8-9.8-9.8c-5,0-9.6,4.4-9.7,9.1
		C-216.9,589.1-212.4,593.7-207,593.7z M-207,578.6C-207,578.6-207,578.6-207,578.6c2.5,0,5.3,2.1,5.3,5.2c0,1.4-0.5,2.7-1.5,3.7
		c-1,1-2.3,1.6-3.7,1.6c0,0,0,0,0,0c-1.3,0-2.6-0.5-3.5-1.5c-1.1-1.1-1.6-2.7-1.6-4.4C-212,581.2-209.6,578.6-207,578.6z"/>
	<path class="st1" d="M-243.8,536.8L-243.8,536.8h-0.2c-4.2-0.1-7.1,3.7-7.3,7.2c-0.1,1.8,0.7,3.7,2.1,5.2c1.5,1.6,3.5,2.4,5.5,2.4
		c0,0,0,0,0,0c3.7,0,7.1-3.4,7.3-7.2c0.1-2-0.6-3.9-2.1-5.3C-240,537.6-241.9,536.7-243.8,536.8z"/>
	<polygon class="st0" points="-186.8,588 -186.8,588 -190,591.4 -190,591.4 	"/>
	<path class="st0" d="M-119.9,675.1c3.9,2.3,8.5,0.9,11.2-3.4c1.1-1.8,2.1-3.7,3.1-5.6h-17.6C-124.3,669.7-123,673.3-119.9,675.1z"
		/>
	<path class="st0" d="M-215.4,672.5c1.9,3.2,4.7,4.2,8.2,3.7c3.2-0.5,5.8-2.4,6.1-5.5c0.2-2.5-0.5-5.3-1.7-7.6
		c-3.6-6.8-6-13.9-6.3-21.6c-0.5-10,2.3-19.5,7.4-27.4c-1.5,0.2-3.1,0.4-4.6,0.4c-0.3,0-0.5,0-0.8,0c-1.9,0-4.3-1.2-5-4.1
		c-0.2-0.9-0.4-1.7-0.7-2.6c-0.1-0.3-0.2-0.7-0.3-1c-0.2,0.2-0.4,0.3-0.5,0.5c-0.8,0.7-1.6,1.5-2.4,2.2c-0.5,0.5-1,0.8-1.6,1.1
		C-228.5,631.1-227.4,652.1-215.4,672.5z"/>
	<path class="st0" d="M-194.7,605.2c-0.1-0.1-0.2-0.1-0.4-0.2c0,0.3,0,0.6-0.1,0.9c0,0,0,0.1,0,0.1c0.2-0.2,0.4-0.5,0.7-0.7
		C-194.5,605.3-194.6,605.3-194.7,605.2z"/>
	<path class="st0" d="M-187.3,627.6c-3.9-1.3-7.8-2.7-11.7-4c-0.5-0.2-1.2,0.5-1.9,0.7c0.4,0.6,0.6,1.5,1.1,1.7c4,1.1,8,2.1,12,3.2
		C-187.6,628.7-187.4,628.2-187.3,627.6z"/>
	<path class="st0" d="M-169.7,639.9c-3.2,2.7-3.8,6.6-2.2,10.6c1.4,3.8,4.2,6,8.3,6.4c4.4,0.4,7.8-1.4,9.8-5.2
		c0.8-1.6,1.3-3.3,1.8-5c2.7-8.7,5.4-17.5,8-26.2c-0.2-0.1-0.4-0.3-0.6-0.4C-153,626.6-161.5,633.1-169.7,639.9z"/>
	<path class="st0" d="M-144.5,603.4c0.2-0.4-0.2-1.3-0.4-1.9c-0.6,0.2-1.6,0.2-1.8,0.6c-2,3.8-3.9,7.6-5.8,11.4
		c0.5,0.3,0.9,0.5,1.4,0.8C-148.9,610.7-146.6,607.1-144.5,603.4z"/>
	<path class="st0" d="M-177.1,599.9c-0.4-0.2-1.3-0.4-1.3-0.3c-0.3,0.6-0.8,1.4-0.5,1.9c1.6,3.8,3.4,7.6,5.3,11.8
		C-172.9,610.9-175.7,600.8-177.1,599.9z"/>
	<path class="st0" d="M-195.2,655.9c-0.4,0.3-0.4,1.3-0.3,1.9c0,0.2,1.2,0.6,1.5,0.4c3.6-2.6,7.2-5.3,10.8-8c-0.3-0.5-0.6-0.9-1-1.4
		C-187.9,651.1-191.6,653.4-195.2,655.9z"/>
	<path class="st1" d="M-207,589.1C-207,589.1-207,589.1-207,589.1c1.4,0,2.7-0.6,3.7-1.6c1-1,1.5-2.3,1.5-3.7c0-3.1-2.7-5.2-5.3-5.2
		c0,0,0,0,0,0c-2.6,0-5,2.6-5,4.6c-0.1,1.7,0.5,3.2,1.6,4.4C-209.5,588.5-208.3,589.1-207,589.1z"/>
	<path class="st1" d="M-108.8,671.7c-2.7,4.3-7.2,5.7-11.2,3.4c-3.1-1.9-4.4-5.4-3.4-9h-9.3c-3.9,0-7.2-3.2-7.2-7.2
		c0-3.9,3.2-7.2,7.2-7.2h15.4c0.1-0.5,0.3-1,0.4-1.6h-15.9c-3.9,0-7.2-3.2-7.2-7.2c0-3.1,2-5.8,4.9-6.8c-3.7-0.3-6.7-3.4-6.7-7.1
		c0-3.9,3.2-7.2,7.2-7.2h15.7c-5.6-14.2-18.1-25.5-35.1-28.7c-2.8-0.5-5.6-0.6-8.4-0.8c-6.3,0-12.3,1.2-17.8,3.5
		c0.3,1.3,0.1,2.8-0.7,4.1c-1.4,2.3-3.1,4.2-4.4,5.6c-1.9,2.1-4.7,2.5-7.2,1c-0.7-0.4-1.4-0.9-2.1-1.3c-0.2,0.2-0.4,0.4-0.7,0.7
		c0,0.8-0.1,1.7-0.1,2.4c0,2.6-1.6,4.7-4.1,5.3c-0.8,0.2-1.6,0.3-2.4,0.5c-5.1,7.9-7.9,17.4-7.4,27.4c0.4,7.7,2.7,14.8,6.3,21.6
		c1.2,2.2,2,5.1,1.7,7.6c-0.3,3.2-3,5.1-6.1,5.5c-3.4,0.5-6.3-0.6-8.2-3.7c-12-20.5-13.1-41.4-2.3-61.9c-1.6,0.7-3.4,0.6-5-0.4
		c-2.2-1.4-4.1-3-5.7-4.5c-0.5-0.5-0.9-1-1.2-1.5c-5.4,10.7-8.4,22.9-8.1,35.9c0.7,40.6,34.9,73.5,76.6,73.2
		c30.7-0.2,57.6-20,68.6-47.2h-13.2C-106.6,668-107.6,669.9-108.8,671.7z M-152,646.6c-0.5,1.7-1,3.5-1.8,5
		c-2.1,3.9-5.5,5.6-9.8,5.2c-4.1-0.4-6.9-2.5-8.3-6.4c-1.5-4-1-7.9,2.2-10.6c8.2-6.8,16.8-13.3,25.2-20c0.2,0.1,0.4,0.3,0.6,0.4
		C-146.6,629.1-149.3,637.8-152,646.6z"/>
	<path class="st1" d="M-116.7,596.6c7.2,7.5,12.2,16.8,14.8,26.6c0.3,0.2,0.5,0.4,0.7,0.6c1.3-1.2,3-1.9,4.9-1.9h7.2
		c-7.6-34.3-37.2-59.2-73.3-59c-7.3-0.1-14.5,0.9-21.3,2.9c0.2,1.1,0,2.3-0.8,3.6l-0.8,1.4c-0.3,0.5-0.6,1-0.9,1.5
		c0.1,0,0.3,0,0.4,0c1,0.1,2,0.1,2.9,0.1c2.6-0.1,4.8,1.5,5.4,4.1c0.2,0.7,0.3,1.4,0.4,2C-156.4,573.5-133.4,579.2-116.7,596.6z"/>
	<path class="st2" d="M-225,566c-1.5,1.5-2.8,3.1-3.9,4.9c-0.3,0.5-0.2,0.7,0.2,1.1c1.4,1.5,2.8,3,4.2,4.5c1.1,1.1,1.7,2.1,0.9,3.6
		c-0.1,0.2-0.2,0.4-0.2,0.6c0,0.6-0.3,0.7-0.8,0.8c-2.5,0.6-5.1,1.2-7.6,1.8c-0.4,0.1-0.6,0.2-0.6,0.6c-0.1,2.3,0.2,4.5,0.8,6.6
		c0.1,0.3,0.2,0.5,0.6,0.5c1.1,0,2.2,0.2,3.3,0.2c1.5-0.1,3.1,0,4.6,0c0.3,0,0.6-0.1,0.8,0.2c0.5,0.9,0.9,1.7,1.3,2.6
		c0.1,0.1-0.3,0.5-0.4,0.7c-1.3,2.2-2.5,4.4-3.8,6.5c-0.2,0.4-0.3,0.6,0.1,1c1.6,1.5,3.2,2.9,5,4c0.4,0.3,0.7,0.2,1-0.1
		c1.8-1.7,3.7-3.4,5.5-5.1c0.5-0.4,0.8-0.8,1.5-0.4c0.5,0.3,1.1,0.3,1.7,0.4c0.5,0.1,0.8,0.3,0.9,0.9c0.6,2.5,1.3,4.9,1.9,7.4
		c0.1,0.4,0.2,0.6,0.7,0.7c2.2,0.1,4.4-0.2,6.6-0.7c0.4-0.1,0.6-0.3,0.6-0.7c0-2.2,0.3-4.5,0.1-6.7c-0.1-1.2,0.1-2.1,1.4-2.5
		c0.3-0.1,0.5-0.2,0.7-0.4c0.4-0.4,0.6-0.4,1.1-0.1c2.2,1.3,4.4,2.6,6.6,3.9c0.5,0.3,0.9,0.4,1.4-0.2c1.4-1.5,2.8-3.1,3.9-4.9
		c0.2-0.4,0.2-0.6-0.1-0.9c-1.7-1.8-3.4-3.6-5.2-5.3l0,0l0,0c0,0,0,0,0,0c-0.8-0.7-1-1.4-0.5-2.3c0.2-0.4,0.4-0.9,0.4-1.3
		c0-0.6,0.3-0.8,0.9-0.9c2.4-0.6,4.9-1.2,7.3-1.8c0.4-0.1,0.8-0.2,0.8-0.8c0-2.2-0.3-4.4-0.8-6.6c-0.1-0.4-0.2-0.6-0.7-0.5
		c-2.3,0.1-4.5-0.2-6.8-0.1c-1.3,0.1-2.2-0.2-2.5-1.6c0-0.1-0.1-0.3-0.2-0.4c-0.5-0.5-0.4-0.9-0.1-1.4c1.3-2.1,2.5-4.3,3.8-6.4
		c0.2-0.4,0.5-0.7,0-1.1c-1.5-1.5-3.1-2.9-4.9-4c-0.5-0.3-0.8-0.3-1.3,0.1c-1.6,1.5-3.2,3-4.7,4.5c-0.9,0.9-1.8,1.4-3,0.7
		c-0.2-0.1-0.5-0.2-0.8-0.2c-0.6,0.1-0.8-0.3-1-0.8c-0.6-2.4-1.2-4.9-1.9-7.3c-0.1-0.4-0.1-0.8-0.7-0.8c-2.2-0.1-4.4,0.2-6.6,0.7
		c-0.5,0.1-0.6,0.3-0.6,0.8c0,1.4,0,2.8,0,4.2c0,0.9-0.1,1.8,0,2.7c0.1,1.4,0,2.6-1.6,2.9c0,0-0.1,0-0.1,0.1c-0.7,0.9-1.4,0.5-2.1,0
		c-2-1.2-4-2.4-5.9-3.5C-224.1,565.8-224.5,565.5-225,566z M-207,574c5,0.1,9.8,4.2,9.8,9.8c0,5.4-4.4,9.9-9.8,9.9
		c-5.5,0-9.9-4.6-9.7-10.6C-216.5,578.4-211.9,574-207,574z"/>
	<polygon class="st3" points="-190,591.4 -190,591.4 -190,591.4 	"/>
	<path class="st2" d="M-234.8,567.7c1.9-0.8,3.8-1.7,5.4-2.9c0.5-0.4,0.6-0.7,0.4-1.2c-0.5-1.3-0.9-2.6-1.4-3.9
		c-0.2-0.5-0.1-0.8,0.3-1.2c1.2-1.1,2.3-2.4,3.2-3.8c0.3-0.4,0.5-0.5,1-0.4c1.5,0.3,3.1,0.6,4.6,1c0.6,0.1,1,0,1.2-0.6
		c0.8-2,1.4-4,1.8-6.1c0.1-0.3,0.1-0.5-0.3-0.6c-1.5-0.7-3-1.4-4.5-2.1c-0.5-0.2-0.7-0.5-0.7-1.1c0-1.5,0.1-3.1-0.3-4.6
		c-0.2-0.6,0-0.9,0.5-1.2c1.2-0.9,2.4-1.8,3.7-2.7c0.4-0.3,0.5-0.6,0.3-1.1c-0.8-1.9-1.6-3.7-2.9-5.3c-0.4-0.5-0.8-0.6-1.3-0.4
		c-1.3,0.4-2.7,0.8-4,1.3c-0.5,0.2-0.8,0.1-1.2-0.3c-1.1-1.2-2.3-2.3-3.7-3.2c-0.6-0.3-0.6-0.8-0.5-1.3c0.3-1.4,0.5-2.9,0.9-4.3
		c0.2-0.7,0-1-0.6-1.3c-1.9-0.8-3.8-1.3-5.8-1.7c-0.5-0.1-0.6,0-0.8,0.4c-0.8,1.4-1.5,2.9-2.3,4.3c-0.3,0.6-0.6,0.9-1.3,0.8
		c-1.5,0-3.1-0.2-4.6,0.3c-0.5,0.1-0.7,0-1-0.4c-0.9-1.3-1.9-2.5-2.9-3.8c-0.3-0.4-0.5-0.5-1-0.3c-1.9,0.8-3.8,1.7-5.5,2.9
		c-0.5,0.4-0.5,0.7-0.4,1.2c0.6,1.5,1.1,2.9,1.6,4.4c0.2,0.4,0.1,0.7-0.2,1c-1.2,1.1-2.4,2.3-3.3,3.7c-0.3,0.5-0.7,0.6-1.2,0.5
		c-1.5-0.3-3-0.6-4.5-0.9c-0.6-0.1-0.8,0-1.1,0.5c-0.9,1.8-1.3,3.8-1.8,5.8c-0.1,0.7,0,0.9,0.5,1.1c1.3,0.6,2.6,1.2,3.9,1.8
		c0.6,0.3,1.1,0.5,1,1.4c-0.1,1.5,0,3.1,0.4,4.6c0.1,0.4,0,0.8-0.4,1.1c-1.3,0.9-2.5,1.9-3.8,2.8c-0.3,0.2-0.5,0.4-0.4,0.8
		c0.8,2,1.7,4.1,3.1,5.8c0.3,0.4,0.6,0.4,1.1,0.2c1.4-0.5,2.8-1,4.2-1.6c0.5-0.2,0.9-0.1,1.3,0.3c1,1.2,2.2,2.1,3.5,3
		c0.6,0.4,0.7,0.8,0.6,1.5c-0.3,1.5-0.6,3-1,4.6c-0.1,0.2,0.1,0.4,0.4,0.6c2,1.2,4.1,1.7,6.3,2.1c0.3,0.1,0.5,0,0.6-0.3
		c0.7-1.5,1.4-3,2.1-4.5c0.2-0.5,0.5-0.7,1-0.7c1.6,0.1,3.2,0.1,4.8-0.3c0.5-0.1,0.8,0.1,1.1,0.4c0.9,1.2,1.8,2.5,2.7,3.7
		C-235.6,567.8-235.3,567.9-234.8,567.7z M-243.7,556.2c-6.6,0-12.4-5.8-12.2-12.4c0.2-6.1,5.3-11.7,12-11.6
		c6.3-0.1,12.4,5.3,12.1,12.4C-232.1,550.7-237.4,556.2-243.7,556.2z"/>
	<path class="st2" d="M-211.4,537.1c1.4,0.4,2.8,0.8,4.1,1.3c1.2,0.4,1.5,1.7,0.7,2.6c-0.9,1-1.8,2.1-2.8,3.1
		c-0.5,0.5-0.5,1-0.1,1.6c0.6,1,1.4,1.8,2.1,2.7c0.3,0.3,0.5,0.4,0.9,0.1c1.2-0.8,2.6-1.4,3.8-2.3c0.9-0.7,1.3,0.2,1.9,0.3
		c0.5,0.1,0.4,0.6,0.4,1c0.1,1.4-0.1,2.9,0.1,4.3c0.1,0.4,0.2,0.6,0.6,0.7c1.1,0.2,2.2,0.3,3.4,0.4c0.7,0.1,0.9-0.2,1.1-0.8
		c0.3-1.4,0.7-2.7,1.1-4.1c0.3-0.9,1.7-1.3,2.4-0.6c1.1,1,2.2,2,3.3,3c0.4,0.4,0.7,0.3,1.1,0.1c1-0.6,1.9-1.4,2.8-2.2
		c0.4-0.3,0.4-0.6,0.1-1c-0.8-1.3-1.6-2.6-2.3-3.9c-0.4-0.7,0.4-2.2,1.3-2.2c1.5,0,3,0.1,4.5-0.1c0.4,0,0.6-0.1,0.6-0.5
		c0.1-1.2,0.4-2.4,0.4-3.6c0-0.5-0.1-0.8-0.7-0.9c-1.3-0.3-2.6-0.7-3.9-1c-1.3-0.3-1.7-1.6-0.8-2.6c0.9-1,1.9-2,2.8-2.9
		c0.4-0.4,0.5-0.8,0.2-1.4c-0.6-0.9-1.3-1.7-1.9-2.6c-0.5-0.6-0.9-0.6-1.5-0.2c-1.1,0.7-2.2,1.4-3.4,2.1c-0.8,0.5-2-0.1-2.2-0.9
		c-0.2-0.9-0.1-1.7-0.1-2.4c0-0.8,0-1.5,0-2.2c0-0.4-0.1-0.6-0.5-0.6c-1.2-0.2-2.5-0.4-3.7-0.5c-0.6,0-0.8,0.2-0.9,0.7
		c-0.3,1.3-0.6,2.5-0.9,3.7c-0.3,1-1.8,1.4-2.5,0.7c-1-1-2.1-2-3.1-3c-0.4-0.4-0.7-0.4-1.1-0.2c-1,0.7-1.9,1.4-2.8,2.2
		c-0.4,0.3-0.5,0.6-0.2,1.1c0.8,1.2,1.6,2.6,2.3,3.9c0.4,0.6-0.4,2-1.2,2c-1.5,0-3.1,0-4.6,0c-0.3,0-0.7,0-0.8,0.5
		c-0.1,1.3-0.4,2.5-0.4,3.8C-212.1,536.8-211.9,536.9-211.4,537.1z M-195.8,530c3.8,0.1,6.1,3,6.1,6.3c0,3.6-3.2,6.3-6.3,6.1
		c-3.1,0.2-6.2-2.8-6-6C-201.8,533-199.5,530-195.8,530z"/>
	<g id="XMLID_19_">
		<path class="st4" d="M-51.3,646.4h-81.3c-1.8,0-3.3-1.5-3.3-3.3c0-1.8,1.5-3.3,3.3-3.3h81.3c4.3,0,7.9-3.6,7.9-7.9
			c0-4.4-3.6-7.9-7.9-7.9c-1.8,0-3.3-1.5-3.3-3.3c0-1.8,1.5-3.3,3.3-3.3c8,0,14.6,6.5,14.6,14.6C-36.8,639.7-43.4,646.4-51.3,646.4z
			"/>
	</g>
	<g id="XMLID_18_">
		<path class="st4" d="M-60.8,684.8c-1.8,0-3.3-1.5-3.3-3.3c0-1.8,1.5-3.3,3.3-3.3c4.4,0,7.9-3.6,7.9-7.9c0-4.4-3.6-7.9-7.9-7.9
			h-71.9c-1.8,0-3.3-1.5-3.3-3.3c0-1.8,1.5-3.3,3.3-3.3h71.9c8,0,14.6,6.5,14.6,14.6C-46.2,678.2-52.7,684.8-60.8,684.8z"/>
	</g>
	<g id="XMLID_17_">
		<path class="st4" d="M-71.5,632.3h-24.8c-1.8,0-3.3-1.5-3.3-3.3c0-1.8,1.5-3.3,3.3-3.3h24.8c1.7,0,3.1-1.4,3.1-3.1
			c0-1.7-1.4-3.1-3.1-3.1c-1.8,0-3.3-1.5-3.3-3.3s1.5-3.3,3.3-3.3c5.4,0,9.8,4.4,9.8,9.8C-61.8,627.9-66.1,632.3-71.5,632.3z"/>
	</g>
	<g id="XMLID_16_">
		<path class="st4" d="M-106,632.5h-28.5c-1.8,0-3.3-1.5-3.3-3.3c0-1.8,1.5-3.3,3.3-3.3h28.5c1.8,0,3.3,1.5,3.3,3.3
			C-102.7,631-104.1,632.5-106,632.5z"/>
	</g>
</g>
<path class="st5" d="M-200.9,624.4c0.6-0.3,1.4-0.9,1.9-0.7c3.9,1.2,7.8,2.6,11.7,4c-0.2,0.5-0.3,1.1-0.5,1.6c-4-1-8.1-2-12-3.2
	C-200.3,625.9-200.6,625-200.9,624.4z"/>
<path class="st5" d="M-194,658.2c-0.3,0.2-1.5-0.2-1.5-0.4c-0.1-0.6-0.1-1.7,0.3-1.9c3.6-2.4,7.3-4.8,11-7.1c0.3,0.5,0.6,0.9,1,1.4
	C-186.8,652.8-190.4,655.5-194,658.2z"/>
<path class="st5" d="M-146.7,602.1c0.2-0.4,1.2-0.4,1.8-0.6c0.1,0.7,0.6,1.5,0.4,1.9c-2.1,3.7-4.4,7.3-6.6,10.9
	c-0.5-0.3-0.9-0.5-1.4-0.8C-150.6,609.7-148.7,605.9-146.7,602.1z"/>
<path class="st5" d="M-173.7,613.3c-1.9-4.3-3.7-8-5.3-11.8c-0.2-0.5,0.2-1.3,0.5-1.9c0.1-0.1,1,0,1.3,0.3
	C-175.7,600.8-172.9,610.9-173.7,613.3z"/>
</svg>
