<?xml version="1.0" encoding="utf-8"?>
<!-- Generator: Adobe Illustrator 19.0.0, SVG Export Plug-In . SVG Version: 6.00 Build 0)  -->
<svg version="1.1" id="Capa_1" xmlns="http://www.w3.org/2000/svg" xmlns:xlink="http://www.w3.org/1999/xlink" x="0px" y="0px"
	 viewBox="-124 89 592.4 418.3" style="enable-background:new -124 89 592.4 418.3;" xml:space="preserve">
<style type="text/css">
	.st0{fill:none;stroke:#0F1F2C;stroke-width:4;stroke-linecap:round;stroke-miterlimit:10;}
</style>
<title>analítica y ciencia de datos</title>
<g id="XMLID_99_">
	<g id="XMLID_116_">
		<path id="XMLID_27_" class="st0" d="M236.7,407.2h-9.9c-6.9-10.9-19.1-18.2-33-18.2c-1.6,0-3.2,0.1-4.7,0.3
			c-7.7-21.2-28-36.3-51.8-36.3c-30.3,0-54.8,24.4-55,54.7c-23.5,3.3-41.6,23.5-41.6,48l0,0c0,26.8,21.7,48.5,48.5,48.5h147.5
			c26.8,0,48.5-21.7,48.5-48.5l0,0C285.2,428.9,263.5,407.2,236.7,407.2z"/>
		<g id="XMLID_8_">
			<path id="XMLID_12_" class="st0" d="M299.6,476.7c12.4-8.8,20.5-23.2,20.5-39.6l0,0c0-26.8-21.7-48.5-48.5-48.5h-9.9
				c-6.9-10.9-19.1-18.2-33-18.2c-1.6,0-3.2,0.1-4.7,0.3c-7.7-21.1-27.9-36.3-51.7-36.3c-8.3,0-16.2,1.9-23.3,5.2"/>
		</g>
		<g id="XMLID_11_">
			<path id="XMLID_28_" class="st0" d="M116.2,492.6h-14.8v-71.9h14.8V492.6z"/>
			<path id="XMLID_33_" class="st0" d="M224.5,432.7h-22v59.9h-14.8v-59.9H166v-12h58.6v12H224.5z"/>
			<path id="XMLID_13_" class="st0" d="M177.3,466c0,8.5-2.3,15.2-6.9,20.2c-4.6,4.9-10.7,7.4-18.4,7.4s-13.8-2.5-18.4-7.4
				c-4.6-5-6.9-11.5-6.9-19.7l0.1-3.7c0.5-7.6,3.1-13.6,7.6-18c4.6-4.4,10.4-6.6,17.7-6.6c5.1,0,9.5,1.1,13.4,3.4
				c3.8,2.3,6.8,5.5,8.8,9.6s3.1,8.9,3.1,14.2L177.3,466L177.3,466z M160.1,453.8c-1.9-2.7-4.6-4.1-8.1-4.1s-6.3,1.4-8.2,4.1
				s-2.9,6.6-2.9,11.6c0,5.8,1,10.1,2.9,12.7c1.9,2.7,4.6,4,8.1,4c3.6,0,6.3-1.3,8.2-4s2.9-6.6,2.9-11.6
				C163,460.7,162,456.5,160.1,453.8z"/>
		</g>
	</g>
</g>
</svg>
