<?xml version="1.0" encoding="utf-8"?>
<!-- Generator: Adobe Illustrator 19.0.0, SVG Export Plug-In . SVG Version: 6.00 Build 0)  -->
<svg version="1.1" id="Capa_1" xmlns="http://www.w3.org/2000/svg" xmlns:xlink="http://www.w3.org/1999/xlink" x="0px" y="0px"
	 viewBox="-124 89 592.4 418.3" style="enable-background:new -124 89 592.4 418.3;" xml:space="preserve">
<style type="text/css">
	.st0{fill:none;stroke:#4FA397;stroke-width:4;stroke-linecap:round;stroke-miterlimit:10;}
	.st1{enable-background:new    ;}
	.st2{fill:none;stroke:#4FA397;stroke-width:4;stroke-miterlimit:10;}
</style>
<title>analítica y ciencia de datos</title>
<g id="XMLID_99_">
	<g id="XMLID_88_">
		<circle id="XMLID_40_" class="st0" cx="-57.1" cy="258.7" r="64"/>
		<circle id="XMLID_45_" class="st0" cx="-45.9" cy="272.4" r="30.8"/>
		<circle id="XMLID_48_" class="st0" cx="-94.3" cy="241.6" r="12.3"/>
		<circle id="XMLID_49_" class="st0" cx="-39.8" cy="223.2" r="6.1"/>
		<g id="XMLID_46_" class="st1">
			<path class="st0" d="M-38.3,273.9c0,1.9-0.3,3.5-0.9,4.9c-0.6,1.4-1.5,2.5-2.7,3.3s-2.5,1.1-4,1.1s-2.8-0.4-3.9-1.1
				c-1.2-0.8-2.1-1.8-2.7-3.2c-0.6-1.4-1-3-1-4.8v-0.9c0-1.9,0.3-3.5,0.9-4.9c0.6-1.4,1.5-2.5,2.7-3.3s2.5-1.1,4-1.1s2.8,0.4,4,1.1
				c1.2,0.8,2,1.8,2.7,3.3s0.9,3.1,0.9,4.9V273.9z"/>
			<path class="st0" d="M-58.6,276.5c-0.1,0.8-0.3,1.6-0.6,2.3c-0.5,1.4-1.3,2.5-2.3,3.3s-2.1,1.1-3.4,1.1c-1.3,0-2.4-0.4-3.4-1.1
				c-1-0.8-1.8-1.8-2.3-3.2s-0.8-3-0.8-4.8v-0.9c0-1.9,0.3-3.5,0.8-4.9s1.3-2.5,2.3-3.3s2.1-1.1,3.4-1.1s2.4,0.4,3.4,1.1
				c1,0.8,1.8,1.8,2.3,3.3c0.3,0.7,0.5,1.5,0.6,2.3"/>
			<path class="st0" d="M-20,281.7h-14.3c0,0,9-9.8,10.1-12s0.4-6.8-4.2-6.8s-5.7,3.1-5.5,5.6"/>
		</g>
	</g>
	<g id="XMLID_86_">
		<circle id="XMLID_54_" class="st0" cx="183.9" cy="156.5" r="64"/>
		<path id="XMLID_70_" class="st0" d="M190.4,167.3v-40c0-5.8-4.7-10.4-10.4-10.4c-5.8,0-10.4,4.7-10.4,10.4v40
			c-4.2,3.2-6.9,8.2-6.9,13.9c0,9.6,7.8,17.4,17.4,17.4c9.6,0,17.4-7.8,17.4-17.4C197.4,175.5,194.6,170.4,190.4,167.3z"/>
		<path id="XMLID_71_" class="st0" d="M183.5,175.7v-43h-7v43c-2.2,1.2-3.7,3.6-3.7,6.3c0,4,3.2,7.2,7.2,7.2s7.2-3.2,7.2-7.2
			C187.2,179.3,185.7,176.9,183.5,175.7z"/>
		<line id="XMLID_50_" class="st2" x1="205.2" y1="124.5" x2="218.2" y2="124.5"/>
		<line id="XMLID_76_" class="st0" x1="149.6" y1="124.5" x2="162.6" y2="124.5"/>
		<line id="XMLID_77_" class="st0" x1="156.1" y1="118" x2="156.1" y2="131"/>
		<line id="XMLID_69_" class="st2" x1="205.2" y1="132.1" x2="218.2" y2="132.1"/>
		<line id="XMLID_72_" class="st2" x1="205.2" y1="139.6" x2="218.2" y2="139.6"/>
		<line id="XMLID_75_" class="st2" x1="205.2" y1="147.2" x2="218.2" y2="147.2"/>
		<line id="XMLID_74_" class="st2" x1="205.2" y1="154.7" x2="218.2" y2="154.7"/>
		<line id="XMLID_73_" class="st2" x1="205.2" y1="162.3" x2="218.2" y2="162.3"/>
	</g>
	<g id="XMLID_87_">
		<circle id="XMLID_68_" class="st0" cx="401.2" cy="253.7" r="64"/>
		<path id="XMLID_67_" class="st0" d="M439.1,252.3c0.2-1,0.3-1.9,0.3-2.9c0-7.8-6.3-14.2-14.2-14.2c0-10.3-8.4-18.7-18.7-18.7
			c-8.9,0-16.3,6.2-18.2,14.5c-1.6-0.6-3.4-1-5.2-1c-6.9,0-12.6,4.9-13.9,11.4c-5.1,1.5-9,5.7-10,11"/>
		<path id="XMLID_79_" class="st0" d="M419.4,243c3.8,0,6.8,3.1,6.8,6.8s-3.1,6.8-6.8,6.8h-49.1"/>
		<path id="XMLID_81_" class="st0" d="M413.7,279.8c3.8,0,6.8-3.1,6.8-6.8c0-3.8-3.1-6.8-6.8-6.8h-43.4"/>
		<path id="XMLID_78_" class="st0" d="M407.2,240.3c2.2,0,3.9,1.8,3.9,3.9c0,2.2-1.8,3.9-3.9,3.9h-15"/>
		<line id="XMLID_82_" class="st0" x1="386.4" y1="248.2" x2="369.2" y2="248.2"/>
	</g>
</g>
</svg>
