<?xml version="1.0" encoding="utf-8"?>
<!-- Generator: Adobe Illustrator 19.0.0, SVG Export Plug-In . SVG Version: 6.00 Build 0)  -->
<svg version="1.1" id="Capa_1" xmlns="http://www.w3.org/2000/svg" xmlns:xlink="http://www.w3.org/1999/xlink" x="0px" y="0px"
	 viewBox="-273 506.3 244.9 212.7" style="enable-background:new -273 506.3 244.9 212.7;" xml:space="preserve">
<style type="text/css">
	.st0{fill:none;stroke:#2F5C67;stroke-width:7;stroke-linecap:round;stroke-linejoin:round;stroke-miterlimit:10;}
	.st1{fill:#11202D;}
</style>
<title>analítica y ciencia de datos</title>
<path class="st0" d="M-420.8,1117.1c-5.3,0-9.5-4.3-9.5-9.5c0-5.3,4.3-9.5,9.5-9.5l0,0c-5.3,0-9.5-4.3-9.5-9.5c0-3.2,1.6-6,4.1-7.8
	c-3.6-1.4-6.2-4.8-6.2-9c0-5.3,4.3-9.5,9.5-9.5h34.2c2.1,0,4.1,0.7,5.6,1.8c1.7-1.3,3.7-2,5.9-2h22c0-0.3-0.1-0.5-0.2-0.7
	c-1-1.5-1.6-3.3-1.6-5.3c0-0.2,0-0.4,0-0.6c-5.7-15.8-22.3-26.8-40.5-23.3c-8.5,1.7-15.2,6-21.6,12.8c-0.8-1.2-1.4-2.3-2.2-3.1
	c-18.8-18-49.5-11.5-58.8,12.8c-5.8,15.2-1.2,29.1,8.3,41.4c14,18.1,32.2,31.5,51,44.1c1,0.7,3.4,0.6,4.5-0.2
	c10.7-7,21.1-14.6,30.7-23L-420.8,1117.1L-420.8,1117.1L-420.8,1117.1z"/>
<g>
	<path class="st1" d="M-419.4,1174.2c-0.7-0.2-0.6-1.2,0.1-1.2c6,0,12.6,0.1,19-0.1c8.3-0.3,12.2-2.8,12.5-7.4
		c0.3-4.7-2.9-7.1-11.5-8.6c-10.5-1.9-21.1-3.2-31.3-6.1c-16.6-4.6-33.1-5.8-49,1c-14.3,6.1-27.8,14.2-41.5,21.6
		c-3.3,1.8-3.1,4.8-1.5,7.8c4,7.3,7.9,14.7,11.9,22c2.5,4.6,4.9,5.1,9.3,2.1c7.5-5,15.1-9.8,22.5-14.9c6.4-4.5,12.8-5.3,20.3-2.9
		c16.3,5.2,32.7,10.2,49.2,14.8c3.4,0.9,8.1,1.1,11-0.6c15.7-8.8,31-18.1,46.4-27.4c2.4-1.4,4.7-3.4,6.2-5.6c1-1.4,1-4.3,0.2-5.8
		c-0.6-1.1-3.4-2-4.9-1.7c-10.1,2.2-20.1,4.6-30.1,7.1c-1.6,0.4-3.9,1.3-4.4,2.6c-1.7,4.1-5.1,5-8.8,5.4
		C-402.8,1177.3-411.4,1175.9-419.4,1174.2z"/>
</g>
<g id="XMLID_15_">
	<path class="st1" d="M-323.2,1092.5h-97.6c-2.2,0-4-1.8-4-4s1.8-4,4-4h97.6c5.2,0,9.5-4.3,9.5-9.5c0-5.3-4.3-9.5-9.5-9.5
		c-2.2,0-4-1.8-4-4s1.8-4,4-4c9.6,0,17.5,7.9,17.5,17.5C-305.8,1084.4-313.8,1092.5-323.2,1092.5z"/>
</g>
<g id="XMLID_14_">
	<path class="st1" d="M-334.6,1138.6c-2.2,0-4-1.8-4-4s1.8-4,4-4c5.3,0,9.5-4.3,9.5-9.5c0-5.3-4.3-9.5-9.5-9.5h-86.2
		c-2.2,0-4-1.8-4-4s1.8-4,4-4h86.2c9.6,0,17.5,7.9,17.5,17.5C-317,1130.7-324.9,1138.6-334.6,1138.6z"/>
</g>
<g id="XMLID_13_">
	<path class="st1" d="M-347.5,1075.6h-29.8c-2.2,0-4-1.8-4-4s1.8-4,4-4h29.8c2.1,0,3.8-1.7,3.8-3.8c0-2.1-1.7-3.8-3.8-3.8
		c-2.2,0-4-1.8-4-4s1.8-4,4-4c6.5,0,11.7,5.3,11.7,11.7C-335.8,1070.3-341.1,1075.6-347.5,1075.6z"/>
</g>
<g id="XMLID_12_">
	<path class="st1" d="M-388.8,1075.8H-423c-2.2,0-4-1.8-4-4c0-2.2,1.8-4,4-4h34.2c2.2,0,4,1.8,4,4
		C-384.8,1074-386.6,1075.8-388.8,1075.8z"/>
</g>
<path class="st0" d="M-69.1,670.8c0-5.4,0-10.5,0-15.6c0-5,0-10,0-15.2c2.8-0.1,5.3-0.1,7.8-0.4c10-1,16.6-7.7,16.7-17.7
	c0.2-22.6,0.2-45.2,0-67.8c-0.1-10.5-7.9-17.6-18.8-17.6c-38.5-0.1-77,0-115.5,0c-3.9,0-7.8-0.2-11.6,0.5c-8.1,1.5-13.6,7.5-14,15.7
	c-0.5,9.3-0.3,18.6-0.3,28c0,13.3,0,26.6,0,39.9c0,8,3.1,14.5,10.9,17.7c2.8,1.1,6,1.6,9,1.6c21.2,0.1,42.4,0,63.6,0.1
	c1.9,0,4,0.6,5.6,1.6c14.8,9.3,29.5,18.7,44.2,28C-70.9,669.9-70.2,670.2-69.1,670.8z"/>
<path class="st0" d="M-216.2,581.7c-6,0-11.8-0.5-17.4,0.1c-9.1,1.1-15.3,8-15.4,17c-0.2,19-0.2,38,0,57
	c0.1,10.5,7.6,17.3,18.8,17.7c1.8,0.1,3.5,0,5.6,0c0,10.7,0,21.2,0,32.4c4.9-3.9,9.2-7.3,13.5-10.7c8.6-6.9,17.2-13.7,25.9-20.5
	c0.9-0.7,2.2-1,3.4-1.1c15.4-0.1,30.7,0,46.1-0.1c2.4,0,5-0.2,7.3-0.8c7.6-1.8,12.8-8.2,13.2-15.9c0-0.6,0-1.5-0.3-1.7
	c-2.7-1.6-4.8-4.1-8.3-4.1c-20.1,0.1-40.3,0-60.4,0.1c-18.2,0-31.9-13.4-32-31.5c-0.1-11.8,0-23.6,0-35.4
	C-216.2,583.4-216.2,582.5-216.2,581.7z"/>
<g>
	<path class="st1" d="M-123.3,601c-0.2-0.8-0.5-1.7-0.6-2.5c-0.8-4.2-1.6-8.4-2.4-12.6c-0.7-3.6-1.4-7.1-2.1-10.7
		c-0.4-1.8-1-3.5-2-5.1c-1.8-2.6-4.9-2.8-7-0.4c-1.2,1.3-1.9,2.9-2.3,4.6c-1.1,4-2,8.1-3,12.2c-0.2,1-0.5,2-0.7,3
		c-0.2,0.8-0.6,1.1-1.5,1.1c-6.1,0-12.3,0-18.4,0c-0.8,0-1.4-0.2-1.8-0.9c-2.2-3.7-3.9-7.6-4.3-11.9c-0.5-5.3,0.7-10.2,3.7-14.6
		c4.3-6.2,10.3-9.8,17.8-10.5c9.6-0.9,17.3,2.6,22.9,10.5c0.7,1,1,1,1.7,0c3.6-5.2,8.6-8.6,14.7-10c10.6-2.5,21.4,2.1,26.8,11.1
		c1.4,2.3,2.3,4.8,2.8,7.5c0.9,4.8,0,9.3-1.9,13.6c-0.8,1.7-1.7,3.4-2.6,5c-0.4,0.8-1.1,1.1-2,1.1c-5.4,0-10.8,0-16.2,0
		c-1.3,0-1.7-0.3-2.2-1.5c-0.9-2.2-1.8-4.3-2.8-6.5c-0.4-0.8-0.9-1.6-1.5-2.3c-2-2.4-5.2-2.3-6.9,0.4c-1,1.5-1.7,3.2-2.4,4.9
		c-1.8,4.5-3.4,9.1-5.1,13.6c-0.1,0.3-0.3,0.7-0.5,1C-123.2,601-123.3,601-123.3,601z"/>
	<path class="st1" d="M-176.5,596.8c0.5,0,0.8,0,1.1,0c10.9,0,21.7,0,32.5,0c2.1,0,3.5-0.9,4.2-2.7c0.8-2.3,1.5-4.7,2.1-7.1
		c0.7-2.7,1.2-5.4,1.8-8c0.1-0.2,0.2-0.5,0.4-0.7c0.2,0.9,0.4,1.7,0.6,2.6c0.9,5.1,1.8,10.1,2.8,15.2c0.7,3.7,1.3,7.5,3,11
		c0.7,1.5,1.7,2.7,3.5,3c2,0.3,3.4-0.6,4.6-2c1.5-1.8,2.5-3.9,3.3-6.1c1.6-4.1,3-8.2,4.5-12.3c0.1-0.4,0.3-0.7,0.5-1.1
		c0.1,0,0.2,0,0.3,0c0.4,1,0.8,2,1.2,3c0.5,1.2,1.1,2.3,1.8,3.4c1.1,1.8,2.6,2.6,4.8,2.6c7.6,0,15.2,0,22.9,0c1,0,1,0,1,1
		c0,1.4,0,2.8,0,4.2c0,0.6-0.2,0.8-0.8,0.8c-3.6,0-7.2,0-10.7,0c-1.1,0-2,0.4-2.7,1.3c-7.1,8.6-15.1,16.2-23.7,23.3
		c-1.9,1.5-3.7,3-5.6,4.5c-0.8,0.6-1.3,0.6-2.1,0c-9.2-7.2-17.9-14.9-25.6-23.6c-1.5-1.6-2.9-3.3-4.3-5c-0.7-0.9-1.6-1.3-2.8-1.3
		c-3.1,0-6.2,0-9.2,0c-2-0.1-4-0.5-5.9-1.5c-1.5-0.8-2.6-2-3.2-3.6C-176.4,597.3-176.4,597.1-176.5,596.8z"/>
</g>
</svg>
