<?xml version="1.0" encoding="utf-8"?>
<!-- Generator: Adobe Illustrator 19.0.0, SVG Export Plug-In . SVG Version: 6.00 Build 0)  -->
<svg version="1.1" id="Capa_1" xmlns="http://www.w3.org/2000/svg" xmlns:xlink="http://www.w3.org/1999/xlink" x="0px" y="0px"
	 viewBox="-248 483.8 266.7 258.2" style="enable-background:new -248 483.8 266.7 258.2;" xml:space="preserve">
<style type="text/css">
	.st0{fill:#2F5C67;}
	.st1{fill:#11202D;}
	.st2{fill:#4DB9A8;}
	.st3{fill:#B4DBE5;}
	.st4{fill:#EB8426;}
	.st5{fill:#F9BD44;}
	.st6{fill:#EFEFEF;}
	.st7{fill:#FCFBFA;}
</style>
<title>analítica y ciencia de datos</title>
<g>
	<g>
		<path class="st0" d="M11.9,630.6L11.9,630.6c-10.6,0-16.1-4.2-20.9-7.8c-4.5-3.4-8.4-6.3-16.6-6.4h-0.1c-8.1,0-12,2.9-16.5,6.3
			c-4.8,3.6-10.3,7.7-20.8,7.7h-0.1c-10.6,0-16.1-4.2-20.9-7.8c-4.5-3.4-8.4-6.3-16.6-6.4c-2,0-3.6-1.6-3.6-3.6s1.6-3.6,3.6-3.6l0,0
			c10.6,0,16.1,4.2,20.9,7.8c4.5,3.4,8.4,6.3,16.6,6.4h0.1c8.1,0,12-2.9,16.5-6.3c4.9-3.6,10.4-7.7,21-7.7s16.1,4.2,20.9,7.8
			c4.5,3.4,8.4,6.3,16.6,6.4c2,0,3.6,1.6,3.6,3.6C15.5,629,13.9,630.6,11.9,630.6z"/>
	</g>
	<g>
		<path class="st0" d="M11.9,615.8L11.9,615.8c-10.6,0-16.1-4.2-20.9-7.8c-4.5-3.4-8.4-6.3-16.6-6.4c-8.2,0-12.1,2.9-16.6,6.3
			c-4.8,3.6-10.3,7.7-20.8,7.7h-0.1c-10.6,0-16.1-4.2-20.9-7.8c-4.5-3.4-8.4-6.3-16.6-6.4c-2,0-3.6-1.6-3.6-3.6s1.6-3.6,3.6-3.6l0,0
			c10.6,0,16.1,4.2,20.9,7.8c4.5,3.4,8.4,6.3,16.6,6.4h0.1c8.1,0,12-2.9,16.5-6.3c4.8-3.6,10.3-7.7,20.8-7.7h0.1
			c10.6,0,16.1,4.2,20.9,7.8c4.5,3.4,8.4,6.3,16.6,6.4c2,0,3.6,1.6,3.6,3.6C15.6,614.2,13.9,615.8,11.9,615.8z"/>
	</g>
	<g>
		<path class="st0" d="M11.8,645.5L11.8,645.5c-10.6,0-16.1-4.2-20.9-7.8c-4.5-3.4-8.4-6.3-16.6-6.4h-0.1c-8.1,0-12,2.9-16.5,6.3
			c-4.8,3.6-10.3,7.7-20.8,7.7h-0.1c-10.6,0-16.1-4.2-20.9-7.8c-4.5-3.4-8.4-6.3-16.6-6.4c-2,0-3.6-1.6-3.6-3.6s1.6-3.6,3.6-3.6l0,0
			c10.6,0,16.1,4.2,20.9,7.8c4.5,3.4,8.4,6.3,16.6,6.4h0.1c8.1,0,12-2.9,16.5-6.3c4.8-3.6,10.3-7.7,20.8-7.7h0.1
			c10.6,0,16.1,4.2,20.9,7.8c4.5,3.4,8.4,6.3,16.6,6.4c2,0,3.6,1.6,3.6,3.6C15.5,643.9,13.8,645.5,11.8,645.5z"/>
	</g>
</g>
<g>
	<path class="st0" d="M-52.4,690.6c3.3,0,6.3-1.1,9-3.1c1.7-1.3,5.7-5.2,5.8-12.7v-26.3c0.1-2.5-2.1-4.7-4.7-4.7s-4.8,2.2-4.8,4.8
		v26.1c-0.1,3.4-1.8,5-2.2,5.2c-1,0.7-1.8,1.1-2.9,1.1h-80.4c-1,3.3-2.3,6.5-3.9,9.6L-52.4,690.6L-52.4,690.6z"/>
	<path class="st0" d="M-14.5,580.4l-99.3-90.4c-1.8-1.7-4.7-1.7-6.5,0l-99.3,90.4c-1.9,1.8-2.2,4.8-0.4,6.9c1.8,1.9,4.8,2.2,6.9,0.4
		l16.5-15v29.9c1.9-0.2,3.9-0.3,5.8-0.3c1.3,0,2.6,0.1,4,0.1v-37.7c0-0.2,0-0.5-0.1-0.7l69.9-63.6l70,63.6c0,0.2-0.1,0.5-0.1,0.7
		V587c0,2.7,2.2,4.8,4.8,4.8s4.8-2.2,4.8-4.8v-14.3l16.5,15c1,0.8,2.1,1.2,3.3,1.2c1.3,0,2.7-0.5,3.6-1.6
		C-12.3,585.4-12.4,582.2-14.5,580.4z"/>
	<path class="st0" d="M-184.8,680c-0.5-0.4-2.1-1.8-2.1-5.1V625c-1.3-0.1-2.6-0.2-3.9-0.2c-2,0-3.9,0.2-5.9,0.5V675
		c0.1,7.4,4.1,11.3,5.8,12.6c2.7,2.1,5.7,3.1,9,3.1h7.5c0.1-0.1,0.2-0.2,0.3-0.3l0,0c2.8-2.8,5.1-5.9,6.8-9.3h-14.6
		C-182.9,681.1-183.9,680.7-184.8,680z"/>
</g>
<g>
	<path class="st1" d="M-115.2,728l-22.7-22.7c-2.2-2.2-5.4-2.8-8.2-1.7l-4.3-4.3c19-21.2,18.3-54-2.1-74.5
		c-21.2-21.2-55.6-21.2-76.7,0c-21.1,21.1-21.1,55.6,0,76.7c20.5,20.4,53.3,21.2,74.5,2.1l4.3,4.3c-1.1,2.8-0.5,6,1.7,8.2l22.7,22.7
		c3,3,7.8,3,10.8,0S-112.2,730.9-115.2,728z M-159,695c-17.6,17.6-46.1,17.6-63.7,0s-17.6-46.1,0-63.7c17.6-17.6,46.2-17.6,63.7,0
		C-141.4,648.9-141.4,677.4-159,695z"/>
</g>
<g>
	<path class="st1" d="M-169,696.5c-0.6,0-1.2-0.3-1.5-0.8c-0.6-0.8-0.3-2,0.5-2.5c10.3-6.9,16.4-18.5,16.4-30.9
		c0-10.1-4-19.6-11.2-26.6c-0.7-0.7-0.7-1.8,0-2.6c0.7-0.7,1.8-0.7,2.6,0c7.9,7.8,12.3,18.1,12.3,29.2c0,13.6-6.7,26.3-18,33.9
		C-168.3,696.4-168.6,696.5-169,696.5z"/>
</g>
<g>
	<path class="st1" d="M-216.3,693.7c-0.4,0-0.8-0.1-1.2-0.4c-9-7.8-14.2-19.1-14.2-30.9c0-9,2.9-17.6,8.3-24.7
		c0.6-0.8,1.7-1,2.5-0.3c0.8,0.6,1,1.7,0.3,2.5c-5,6.5-7.6,14.3-7.6,22.5c0,10.8,4.7,21.1,12.9,28.2c0.8,0.7,0.8,1.8,0.2,2.6
		C-215.3,693.4-215.8,693.7-216.3,693.7z"/>
</g>
<rect x="-496" y="1371.2" class="st1" width="56.7" height="56.7"/>
<rect x="-400.7" y="1371.2" class="st0" width="56.7" height="56.7"/>
<rect x="-310.7" y="1371.2" class="st2" width="56.7" height="56.7"/>
<rect x="-224.7" y="1371.2" class="st3" width="56.7" height="56.7"/>
<rect x="-496" y="1477.9" class="st4" width="56.7" height="56.7"/>
<rect x="-400.7" y="1477.9" class="st5" width="56.7" height="56.7"/>
<rect x="-310.7" y="1477.9" class="st6" width="56.7" height="56.7"/>
<rect x="-224.7" y="1477.9" class="st7" width="56.7" height="56.7"/>
</svg>
