<?xml version="1.0" encoding="utf-8"?>
<!-- Generator: Adobe Illustrator 19.0.0, SVG Export Plug-In . SVG Version: 6.00 Build 0)  -->
<svg version="1.1" id="Capa_1" xmlns="http://www.w3.org/2000/svg" xmlns:xlink="http://www.w3.org/1999/xlink" x="0px" y="0px"
	 viewBox="-273 506.3 244.9 212.7" style="enable-background:new -273 506.3 244.9 212.7;" xml:space="preserve">
<style type="text/css">
	.st0{fill:none;stroke:#2F5C67;stroke-width:4;stroke-linecap:round;stroke-linejoin:round;stroke-miterlimit:10;}
	.st1{fill:#11202D;}
	.st2{fill:#2F5C67;}
</style>
<title>analítica y ciencia de datos</title>
<path class="st0" d="M-79.7,691.3c-7.4,0-14.6,0-21.9,0c0-34.4,0-68.7,0-103c7.4,0,14.6,0,21.9,0C-79.7,622.7-79.7,656.9-79.7,691.3
	z"/>
<path class="st0" d="M-152,634c7.4,0,14.7,0,21.9,0c0,19.2,0,38.3,0,57.4c-7.4,0-14.6,0-21.9,0C-152,672.2-152,653.2-152,634z"/>
<path class="st0" d="M-202.2,691.4c0-9.8,0-19.4,0-28.9c7.4,0,14.7,0,21.9,0c0,9.7,0,19.3,0,28.9
	C-187.7,691.4-194.9,691.4-202.2,691.4z"/>
<circle class="st0" cx="-193" cy="612.5" r="6"/>
<circle class="st0" cx="-159" cy="624.4" r="5.9"/>
<circle class="st0" cx="-128.8" cy="602.6" r="6.9"/>
<g>
	<path class="st1" d="M-119.7,597.1c0.1-0.3,0.3-0.6,0.6-1c15.4-18.8,30.9-37.7,46.3-56.5c0.3-0.4,0.6-0.8,1.1-1.4
		c-1.7-1.4-3.5-2.8-5.3-4.3c-2.1,2.6-4.2,5.1-6.3,7.6c-13.7,16.8-27.5,33.6-41.2,50.4c-0.2,0.3-0.4,0.5-0.7,0.7
		C-122.9,593.4-120.9,595-119.7,597.1z"/>
	<path class="st1" d="M-148.7,621.3c0.2-0.2,0.4-0.4,0.7-0.6c4.3-3,8.5-6.1,12.7-9.2c0.1-0.1,0.2-0.1,0.3-0.2
		c-1.9-1.4-3.3-3.3-4-5.6c-0.2,0.1-0.3,0.3-0.5,0.4c-4.2,3-8.4,6-12.5,9.1c-0.2,0.2-0.4,0.3-0.7,0.4
		C-150.8,617-149.4,619-148.7,621.3z"/>
	<path class="st1" d="M-170.1,624.6c0.1,0.1,0.3,0.2,0.4,0.3c0-0.2,0-0.3,0-0.5c0-2.3,0.8-4.5,2-6.3c-0.2,0-0.4-0.1-0.5-0.2
		c-4.5-1.7-9-3.3-13.5-5c-0.2-0.1-0.4-0.2-0.6-0.3c-0.1,2.5-0.9,4.7-2.4,6.5c0.1,0,0.3,0.1,0.5,0.1
		C-179.5,621.2-174.8,622.8-170.1,624.6z"/>
	<path class="st1" d="M-222.6,575h-7c0,3.1,0,6.2,0,9.3h7C-222.6,581.2-222.6,578.1-222.6,575z"/>
	<path class="st1" d="M-222.6,596.8h-7c0,3.1,0,6.2,0,9.4h7C-222.6,603-222.6,599.9-222.6,596.8z"/>
	<path class="st1" d="M-222.6,532c-2.4,0-4.5,0-6.8,0c-0.1,1-0.1,1.9-0.1,2.8c0,9.2,0,18.5,0,27.7h7
		C-222.6,552.3-222.6,542.2-222.6,532z"/>
	<path class="st1" d="M-222.5,699c0-0.6-0.1-1.2-0.1-1.8c0-9.4,0-18.7,0-28.1c0-0.9,0.3-2,0.8-2.8c8.6-14.2,17.3-28.4,26-42.7
		c0.2-0.3,0.3-0.5,0.5-0.7c-2.4-0.5-4.5-1.9-6-3.7c0,0.1,0,0.2-0.1,0.3c-6.8,11.2-13.6,22.3-20.4,33.5c-0.1,0.2-0.3,0.4-0.7,0.9
		c0-11.8,0-23.5,0-35.2h-7c0,7.8,0,15.6,0,23.5c0,20.4,0,40.9,0,61.3c0,2.6,0,2.6,2.5,2.6c43.2,0,86.4,0,129.7,0
		c13.2,0,26.5,0,39.7,0c0.7,0,1.5,0,2.4,0c0-2.4,0-4.5,0-6.8C-61,699.2-218,699-222.5,699z"/>
</g>
<polygon class="st2" points="-217.9,572 -210.9,572 -210.9,565.5 -217.9,565.5 -224.4,565.5 -246.1,565.5 -246.1,572 -224.4,572 "/>
<polygon class="st2" points="-217.9,615.6 -210.9,615.6 -210.9,609.1 -217.9,609.1 -224.4,609.1 -246.1,609.1 -246.1,615.6 
	-224.4,615.6 "/>
<polygon class="st2" points="-217.9,593.8 -206,593.8 -206,587.3 -217.9,587.3 -224.4,587.3 -270.3,587.3 -270.3,593.8 
	-224.4,593.8 "/>
</svg>
