<?xml version="1.0" encoding="utf-8"?>
<!-- Generator: Adobe Illustrator 19.0.0, SVG Export Plug-In . SVG Version: 6.00 Build 0)  -->
<svg version="1.1" id="Capa_1" xmlns="http://www.w3.org/2000/svg" xmlns:xlink="http://www.w3.org/1999/xlink" x="0px" y="0px"
	 viewBox="-366.8 524.6 440 175.1" style="enable-background:new -366.8 524.6 440 175.1;" xml:space="preserve">
<style type="text/css">
	.st0{fill:#FCFBFA;}
</style>
<title>analítica y ciencia de datos</title>
<g>
	<g>
		<g>
			<path class="st0" d="M-339.9,694v5.4h-0.8v-2.2c-0.3,0.7-0.8,1.3-1.4,1.7c-0.7,0.4-1.5,0.6-2.5,0.6s-2-0.2-2.7-0.7
				c-0.8-0.5-1.4-1.1-1.8-2c-0.4-0.8-0.6-1.8-0.6-3c0-1.2,0.2-2.1,0.7-3c0.4-0.8,1.1-1.5,1.9-2c0.8-0.5,1.7-0.7,2.8-0.7
				c1.2,0,2.2,0.2,2.9,0.7c0.7,0.5,1.3,1.1,1.7,2.1l-0.9,0.5c-0.3-0.8-0.7-1.4-1.3-1.8c-0.6-0.4-1.4-0.6-2.4-0.6
				c-0.8,0-1.6,0.2-2.2,0.6c-0.7,0.4-1.2,0.9-1.5,1.7c-0.4,0.7-0.5,1.6-0.5,2.6c0,1.5,0.4,2.7,1.1,3.5c0.8,0.8,1.8,1.3,3.1,1.3
				c0.8,0,1.5-0.2,2.1-0.5c0.6-0.3,1-0.8,1.3-1.3c0.3-0.6,0.4-1.2,0.4-1.8v-0.2h-3.8v-0.8h4.4V694z"/>
		</g>
		<g>
			<path class="st0" d="M-326.7,698.6v0.8h-8.2v-11h7.9v0.8h-6.9v4.1h5.5v0.8h-5.5v4.3h7.2V698.6z"/>
		</g>
		<g>
			<path class="st0" d="M-314.2,690.8l-0.8,0.6c-0.3-0.8-0.7-1.3-1.3-1.7c-0.6-0.3-1.3-0.5-2.3-0.5s-1.8,0.2-2.4,0.6
				c-0.6,0.4-0.9,0.9-0.9,1.6c0,0.5,0.2,0.8,0.5,1.1c0.3,0.3,0.7,0.5,1.2,0.6s1.1,0.3,1.9,0.4c0.9,0.2,1.7,0.3,2.2,0.5
				c0.6,0.2,1,0.5,1.4,0.9c0.4,0.4,0.6,0.9,0.6,1.6c0,0.6-0.2,1.1-0.5,1.6c-0.4,0.5-0.9,0.8-1.5,1.1c-0.7,0.2-1.4,0.4-2.3,0.4
				c-1.2,0-2.3-0.2-3.1-0.7c-0.8-0.4-1.4-1.1-1.7-1.9l0.8-0.6c0.2,0.8,0.7,1.4,1.4,1.8s1.6,0.6,2.6,0.6s1.8-0.2,2.4-0.6
				s0.9-0.9,0.9-1.5c0-0.5-0.2-0.8-0.5-1.1c-0.3-0.3-0.7-0.5-1.2-0.6s-1.1-0.3-1.9-0.4c-0.9-0.2-1.7-0.4-2.2-0.5
				c-0.6-0.2-1-0.5-1.4-0.9s-0.6-0.9-0.6-1.6c0-0.6,0.2-1.1,0.5-1.6s0.8-0.9,1.5-1.1c0.6-0.3,1.4-0.4,2.2-0.4
				C-316.4,688.3-315,689.1-314.2,690.8z"/>
		</g>
		<g>
			<path class="st0" d="M-302,689.3h-4.2v10.1h-1v-10.1h-4.2v-0.8h9.3v0.8H-302z"/>
		</g>
		<g>
			<path class="st0" d="M-296.8,699.4h-1v-11h1V699.4z"/>
		</g>
		<g>
			<path class="st0" d="M-283.8,689c0.8,0.5,1.4,1.1,1.8,2c0.4,0.9,0.6,1.8,0.6,3c0,1.2-0.2,2.2-0.6,3c-0.4,0.8-1,1.5-1.8,2
				s-1.7,0.7-2.8,0.7c-1.1,0-2-0.2-2.8-0.7s-1.4-1.1-1.8-2c-0.4-0.8-0.6-1.8-0.6-3c0-1.2,0.2-2.1,0.6-3c0.4-0.9,1-1.5,1.8-2
				s1.7-0.7,2.8-0.7C-285.6,688.3-284.6,688.5-283.8,689z M-289.8,690.4c-0.8,0.9-1.2,2-1.2,3.5s0.4,2.7,1.2,3.5
				c0.8,0.9,1.8,1.3,3.2,1.3c1.3,0,2.4-0.4,3.2-1.3s1.2-2,1.2-3.5s-0.4-2.7-1.2-3.5c-0.8-0.9-1.8-1.3-3.2-1.3
				C-288,689.1-289,689.5-289.8,690.4z M-284.6,683.9l-1.6,2.9h-0.8l1.3-2.9H-284.6z"/>
		</g>
		<g>
			<path class="st0" d="M-267.5,699.4h-1.3l-6-8.7l-0.7-1.2l0,0l0.1,1.2v8.7h-1v-11h1.3l5.9,8.6l0.8,1.3l0,0l-0.1-1.2v-8.7h1V699.4z
				"/>
		</g>
		<g>
			<path class="st0" d="M-245.9,689.8c1,0.9,1.5,2.3,1.5,4c0,1.8-0.5,3.2-1.5,4.1c-1,1-2.4,1.4-4.2,1.4h-3.7v-11h3.7
				C-248.3,688.4-246.9,688.9-245.9,689.8z M-246.6,697.3c0.8-0.8,1.2-2,1.2-3.5s-0.4-2.6-1.2-3.4c-0.8-0.8-2-1.2-3.5-1.2h-2.8v9.3
				h2.8C-248.6,698.6-247.4,698.3-246.6,697.3z"/>
		</g>
		<g>
			<path class="st0" d="M-231.4,698.6v0.8h-8.2v-11h7.9v0.8h-6.9v4.1h5.5v0.8h-5.5v4.3h7.2V698.6z"/>
		</g>
		<g>
			<path class="st0" d="M-211.2,698.8c-0.8,0.5-1.8,0.8-3,0.8c-1,0-1.9-0.2-2.7-0.7s-1.4-1.1-1.8-2c-0.4-0.8-0.6-1.8-0.6-3
				s0.2-2.1,0.6-3c0.4-0.8,1-1.5,1.8-2s1.7-0.7,2.8-0.7c1.2,0,2.1,0.2,2.9,0.7s1.3,1.2,1.6,2.2l-0.9,0.4c-0.2-0.9-0.7-1.5-1.2-1.9
				c-0.6-0.4-1.4-0.6-2.4-0.6c-0.8,0-1.6,0.2-2.2,0.6c-0.6,0.4-1.1,0.9-1.5,1.7c-0.4,0.7-0.5,1.6-0.5,2.6s0.2,1.8,0.5,2.6
				c0.4,0.7,0.8,1.3,1.5,1.7c0.6,0.4,1.4,0.6,2.2,0.6c1,0,1.9-0.2,2.5-0.6s1.1-1,1.3-1.9l0.9,0.3
				C-209.9,697.5-210.4,698.3-211.2,698.8z"/>
		</g>
		<g>
			<path class="st0" d="M-198.7,696h-5.4l-1.4,3.4h-1l4.5-11h1.2l4.6,11h-1L-198.7,696z M-199,695.1l-2-4.7l-0.4-1.1l-0.4,1.1
				l-2,4.7H-199z"/>
		</g>
		<g>
			<path class="st0" d="M-184.3,698.6v0.8h-7.8v-11h1v10.1h6.8V698.6z"/>
		</g>
		<g>
			<path class="st0" d="M-178.6,699.4h-1v-11h1V699.4z"/>
		</g>
		<g>
			<path class="st0" d="M-165.1,689.8c1,0.9,1.5,2.3,1.5,4c0,1.8-0.5,3.2-1.5,4.1c-1,1-2.4,1.4-4.2,1.4h-3.7v-11h3.7
				C-167.5,688.4-166.1,688.9-165.1,689.8z M-165.8,697.3c0.8-0.8,1.2-2,1.2-3.5s-0.4-2.6-1.2-3.4c-0.8-0.8-2-1.2-3.5-1.2h-2.8v9.3
				h2.8C-167.7,698.6-166.6,698.3-165.8,697.3z"/>
		</g>
		<g>
			<path class="st0" d="M-152.7,696h-5.4l-1.4,3.4h-1l4.5-11h1.2l4.6,11h-1L-152.7,696z M-153,695.1l-2-4.7l-0.4-1.1l-0.4,1.1
				l-1.9,4.7H-153z"/>
		</g>
		<g>
			<path class="st0" d="M-138.1,689.8c1,0.9,1.5,2.3,1.5,4c0,1.8-0.5,3.2-1.5,4.1c-1,1-2.4,1.4-4.2,1.4h-3.7v-11h3.7
				C-140.5,688.4-139.1,688.9-138.1,689.8z M-138.9,697.3c0.8-0.8,1.2-2,1.2-3.5s-0.4-2.6-1.2-3.4c-0.8-0.8-2-1.2-3.5-1.2h-2.8v9.3
				h2.8C-140.8,698.6-139.7,698.3-138.9,697.3z"/>
		</g>
		<g>
			<path class="st0" d="M-115.8,689.8c1,0.9,1.5,2.3,1.5,4c0,1.8-0.5,3.2-1.5,4.1c-1,1-2.4,1.4-4.2,1.4h-3.7v-11h3.7
				C-118.2,688.4-116.7,688.9-115.8,689.8z M-116.5,697.3c0.8-0.8,1.2-2,1.2-3.5s-0.4-2.6-1.2-3.4c-0.8-0.8-2-1.2-3.5-1.2h-2.8v9.3
				h2.8C-118.4,698.6-117.3,698.3-116.5,697.3z"/>
		</g>
		<g>
			<path class="st0" d="M-101.2,698.6v0.8h-8.2v-11h7.9v0.8h-6.9v4.1h5.5v0.8h-5.5v4.3h7.2V698.6z"/>
		</g>
		<g>
			<path class="st0" d="M-82.3,696h-5.4l-1.4,3.4h-1l4.5-11h1.2l4.6,11h-1L-82.3,696z M-82.6,695.1l-2-4.7l-0.4-1.1l-0.4,1.1
				l-1.9,4.7H-82.6z"/>
		</g>
		<g>
			<path class="st0" d="M-74.7,699.4h-1v-11h1V699.4z"/>
		</g>
		<g>
			<path class="st0" d="M-61.5,699.4l-3.2-4.7l0,0h-3.4v4.7h-1v-11h4.4c1.2,0,2.1,0.3,2.8,0.8c0.7,0.6,1,1.3,1,2.3
				c0,0.8-0.2,1.5-0.7,2s-1.1,0.9-2,1l3.3,4.8h-1.2V699.4z M-68.1,693.9h3.4c0.9,0,1.6-0.2,2.1-0.6c0.5-0.4,0.7-1,0.7-1.7
				c0-0.7-0.2-1.3-0.7-1.7s-1.2-0.6-2.1-0.6h-3.4V693.9z"/>
		</g>
		<g>
			<path class="st0" d="M-47.7,698.6v0.8h-8.2v-11h7.9v0.8h-6.9v4.1h5.5v0.8h-5.5v4.3h7.2V698.6z"/>
		</g>
		<g>
			<path class="st0" d="M-34.1,699.4h-1v-11h1V699.4z"/>
		</g>
		<g>
			<path class="st0" d="M-19.6,699.4h-1.3l-6-8.7l-0.7-1.2l0,0l0.1,1.2v8.7h-1v-11h1.3l5.9,8.6l0.8,1.3l0,0l-0.1-1.2v-8.7h1
				L-19.6,699.4L-19.6,699.4z"/>
		</g>
		<g>
			<path class="st0" d="M-6,689.3h-4.2v10.1h-1v-10.1h-4.2v-0.8h9.3v0.8H-6z"/>
		</g>
		<g>
			<path class="st0" d="M6.3,698.6v0.8h-8.2v-11H6v0.8h-6.9v4.1h5.5v0.8h-5.5v4.3h7.2V698.6z"/>
		</g>
		<g>
			<path class="st0" d="M18.5,699.4l-3.2-4.7l0,0h-3.4v4.7h-1v-11h4.4c1.2,0,2.1,0.3,2.8,0.8c0.7,0.6,1,1.3,1,2.3
				c0,0.8-0.2,1.5-0.7,2s-1.1,0.9-2,1l3.3,4.8h-1.2V699.4z M11.8,693.9h3.4c0.9,0,1.6-0.2,2.1-0.6c0.5-0.4,0.7-1,0.7-1.7
				c0-0.7-0.2-1.3-0.7-1.7s-1.2-0.6-2.1-0.6h-3.4V693.9z"/>
		</g>
		<g>
			<path class="st0" d="M25.1,699.4h-1v-11h1V699.4z"/>
		</g>
		<g>
			<path class="st0" d="M38.1,689c0.8,0.5,1.4,1.1,1.8,2c0.4,0.9,0.6,1.8,0.6,3c0,1.2-0.2,2.2-0.6,3c-0.4,0.8-1,1.5-1.8,2
				s-1.7,0.7-2.8,0.7c-1.1,0-2-0.2-2.8-0.7s-1.4-1.1-1.8-2c-0.4-0.8-0.6-1.8-0.6-3c0-1.2,0.2-2.1,0.6-3c0.4-0.9,1-1.5,1.8-2
				s1.7-0.7,2.8-0.7C36.3,688.3,37.3,688.5,38.1,689z M32.1,690.4c-0.8,0.9-1.2,2-1.2,3.5s0.4,2.7,1.2,3.5c0.8,0.9,1.8,1.3,3.2,1.3
				s2.4-0.4,3.2-1.3c0.8-0.9,1.2-2,1.2-3.5s-0.4-2.7-1.2-3.5c-0.8-0.9-1.8-1.3-3.2-1.3S32.8,689.5,32.1,690.4z"/>
		</g>
		<g>
			<path class="st0" d="M53,699.4l-3.2-4.7l0,0h-3.4v4.7h-1v-11h4.4c1.2,0,2.1,0.3,2.8,0.8c0.7,0.6,1,1.3,1,2.3c0,0.8-0.2,1.5-0.7,2
				s-1.1,0.9-2,1l3.3,4.8H53V699.4z M46.4,693.9h3.4c0.9,0,1.6-0.2,2.1-0.6c0.5-0.4,0.7-1,0.7-1.7c0-0.7-0.2-1.3-0.7-1.7
				s-1.2-0.6-2.1-0.6h-3.4V693.9z"/>
		</g>
	</g>
	<g>
		<g>
			<g>
				<path class="st0" d="M-133,525.8v30.8h-2.7v-14.5h-19.6v14.5h-2.7v-30.8h2.7v14h19.6v-14H-133z"/>
				<path class="st0" d="M-131.8,557.8h-5.1v-14.5h-17.2v14.5h-5.1v-33.2h5.1v14h17.2v-14h5.1V557.8z M-134.5,555.4h0.4V527h-0.4
					V555.4z M-156.9,555.4h0.4V527h-0.4V555.4z"/>
			</g>
			<g>
				<path class="st0" d="M-95.2,554.3v2.4h-23v-30.8H-96v2.4h-19.5v11.6h15.4v2.4h-15.4v12.1L-95.2,554.3L-95.2,554.3z"/>
				<path class="st0" d="M-94.1,557.8h-25.4v-33.2h24.7v4.7h-19.5v9.2h15.4v4.7h-15.4v9.7h20.2V557.8z M-117,555.4h0.4V527h-0.4
					V555.4z"/>
			</g>
			<g>
				<path class="st0" d="M-65.4,547h-15.1l-4,9.6h-2.9l12.7-30.8h3.2l12.8,30.8h-2.9L-65.4,547z M-66.3,544.8l-5.5-13.1l-1.1-3.2
					l-1.2,3.2l-5.4,13.1H-66.3z"/>
				<path class="st0" d="M-56.7,557.8h-5.5l-4-9.6h-13.5l-4,9.6h-5.4l13.7-33.2h4.8L-56.7,557.8z M-60.6,555.4h0.3L-72.1,527
					l1.4,4.1l6.2,14.7h-0.1L-60.6,555.4z M-85.5,555.4h0.3l10.1-24.3l1.5-4.1h-0.2L-85.5,555.4z M-77.7,543.5h9.6l-4.8-11.6l0,0
					L-77.7,543.5z"/>
			</g>
			<g>
				<path class="st0" d="M-26.3,554.3v2.4h-21.9v-30.8h2.7v28.4L-26.3,554.3L-26.3,554.3z"/>
				<path class="st0" d="M-25.1,557.8h-24.3v-33.2h5.1v28.5h19.2L-25.1,557.8L-25.1,557.8z M-47,555.4h0.4V527H-47V555.4z"/>
			</g>
			<g>
				<path class="st0" d="M-0.2,528.3h-11.7v28.4h-2.7v-28.4h-11.8v-2.4h26.2V528.3z"/>
				<path class="st0" d="M-10.7,557.8h-5.1v-28.4h-11.8v-4.7H1v4.7h-11.7V557.8z M-13.4,555.4h0.4V527h-0.4V555.4z"/>
			</g>
			<g>
				<path class="st0" d="M35.5,525.8v30.8h-2.7v-14.5H13.2v14.5h-2.7v-30.8h2.7v14h19.6v-14H35.5z"/>
				<path class="st0" d="M36.7,557.8h-5.1v-14.5H14.4v14.5H9.2v-33.2h5.1v14h17.2v-14h5.1L36.7,557.8L36.7,557.8z M33.9,555.4h0.4
					V527h-0.4V555.4z M11.5,555.4h0.4V527h-0.4V555.4z"/>
			</g>
			<g>
				<path class="st0" d="M59.7,544.8v11.9H57v-11.9l-11.4-18.9h3.1l9.6,16.5l3.6-6l6.1-10.4h3.1L59.7,544.8z"/>
				<path class="st0" d="M60.9,557.8h-5.1v-12.7l-12.3-20.4h5.9l8.9,15.3l9-15.3h5.9l-12.3,20.4V557.8z M58.1,555.4h0.4v-11L69,527
					h-0.3l-10.4,17.6L48,527h-0.3l10.5,17.4v11H58.1z"/>
			</g>
		</g>
		<g>
			<g>
				<path class="st0" d="M-133,575.3v30.8h-2.7v-14.5h-19.6v14.5h-2.7v-30.8h2.7v14h19.6v-14H-133z"/>
				<path class="st0" d="M-131.8,607.3h-5.1v-14.5h-17.2v14.5h-5.1v-33.2h5.1v14h17.2v-14h5.1V607.3z M-134.5,604.9h0.4v-28.4h-0.4
					V604.9z M-156.9,604.9h0.4v-28.4h-0.4V604.9z"/>
			</g>
			<g>
				<path class="st0" d="M-102.8,596.5h-15.1l-4,9.6h-2.9l12.7-30.8h3.2l12.8,30.8h-2.7L-102.8,596.5z M-103.7,594.3l-5.5-13.1
					l-1.1-3.2l-1.2,3.2l-5.4,13.1H-103.7z"/>
				<path class="st0" d="M-94.1,607.3h-5.5l-4-9.6h-13.5l-4,9.6h-5.4l13.7-33.2h4.8L-94.1,607.3z M-98.1,604.9h0.3l-11.8-28.4
					l1.4,4.1l6.2,14.7h-0.1L-98.1,604.9z M-122.9,604.9h0.3l10.1-24.3l1.5-4.1h-0.1L-122.9,604.9z M-115.1,593h9.6l-4.8-11.6l0,0
					L-115.1,593z"/>
			</g>
			<g>
				<path class="st0" d="M-68.6,577.8c2,1.6,3,3.8,3,6.7c0,2.8-1,5-3,6.6s-4.7,2.4-8.1,2.4h-8.2v12.6h-2.7v-30.8h11
					C-73.3,575.3-70.6,576.1-68.6,577.8z M-70.5,589.4c1.4-1.2,2.1-2.8,2.1-4.9c0-2.2-0.7-3.8-2.1-5s-3.5-1.8-6.2-1.8h-8.2v13.4h8.2
					C-74,591.1-72,590.5-70.5,589.4z"/>
				<path class="st0" d="M-83.8,607.3h-5.1v-33.2h12.2c3.7,0,6.6,0.9,8.8,2.7c2.3,1.8,3.4,4.4,3.4,7.6c0,3.1-1.1,5.7-3.4,7.5
					c-2.2,1.8-5.2,2.7-8.8,2.7h-7.1V607.3z M-86.5,604.9h0.4v-28.4h-0.4V604.9z M-73.6,576.8c1.5,0.3,2.8,0.9,3.8,1.7
					c1.7,1.4,2.6,3.4,2.6,5.9s-0.9,4.5-2.6,5.8c-0.9,0.8-2.1,1.3-3.5,1.6c1.6-0.3,2.9-0.9,3.9-1.8c1.7-1.4,2.5-3.2,2.5-5.7
					s-0.8-4.4-2.5-5.8C-70.5,577.8-71.9,577.1-73.6,576.8z M-83.8,589.9h7.1c2.4,0,4.2-0.5,5.4-1.5c1.1-0.9,1.7-2.2,1.7-4
					c0-1.8-0.6-3.1-1.7-4.1c-1.2-1-3-1.5-5.4-1.5h-7.1V589.9z"/>
			</g>
			<g>
				<path class="st0" d="M-37.3,577.8c2,1.6,3,3.8,3,6.7c0,2.8-1,5-3,6.6s-4.7,2.4-8.1,2.4h-8.2v12.6h-2.7v-30.8h11
					C-42,575.3-39.3,576.1-37.3,577.8z M-39.2,589.4c1.4-1.2,2.1-2.8,2.1-4.9c0-2.2-0.7-3.8-2.1-5s-3.5-1.8-6.2-1.8h-8.2v13.4h8.2
					C-42.7,591.1-40.7,590.5-39.2,589.4z"/>
				<path class="st0" d="M-52.4,607.3h-5.1v-33.2h12.2c3.7,0,6.6,0.9,8.8,2.7c2.3,1.8,3.4,4.4,3.4,7.6c0,3.1-1.1,5.7-3.4,7.5
					c-2.2,1.8-5.2,2.7-8.8,2.7h-7.1V607.3z M-55.2,604.9h0.4v-28.4h-0.4V604.9z M-42.3,576.8c1.5,0.3,2.8,0.9,3.8,1.7
					c1.7,1.4,2.6,3.4,2.6,5.9s-0.9,4.5-2.6,5.8c-0.9,0.8-2.1,1.3-3.5,1.6c1.6-0.3,2.9-0.9,3.9-1.8c1.7-1.4,2.5-3.2,2.5-5.7
					s-0.8-4.4-2.5-5.8C-39.2,577.8-40.6,577.1-42.3,576.8z M-52.4,589.9h7.1c2.4,0,4.2-0.5,5.4-1.5c1.1-0.9,1.7-2.2,1.7-4
					c0-1.8-0.6-3.1-1.7-4.1c-1.2-1-3-1.5-5.4-1.5h-7.1V589.9z"/>
			</g>
			<g>
				<path class="st0" d="M-15.9,594.3v11.9h-2.7v-11.9L-30,575.3h3.1l9.6,16.5l3.6-6l6.1-10.4h3.1L-15.9,594.3z"/>
				<path class="st0" d="M-14.7,607.3h-5.1v-12.7l-12.3-20.5h5.9l8.9,15.3l9-15.3h5.9l-12.3,20.4V607.3z M-17.4,604.9h0.4v-11
					l10.5-17.4h-0.3l-10.4,17.6l-10.3-17.6h-0.3l10.5,17.4v11H-17.4z"/>
			</g>
		</g>
		<g>
			<g>
				<path class="st0" d="M-158.1,623.8h11.9c3.5,0,6.1,0.7,7.8,2.1c1.7,1.4,2.6,3.4,2.6,6c0,1.8-0.5,3.4-1.5,4.6s-2.5,2.1-4.3,2.4
					v0.1c2.2,0.3,3.9,1.1,5.1,2.4c1.2,1.3,1.8,3,1.8,5c0,2.6-1,4.7-2.9,6.1s-4.7,2.1-8.4,2.1h-11.9v-30.8H-158.1z M-146.1,638
					c5,0,7.5-2,7.5-5.9c0-1.9-0.6-3.4-1.9-4.4c-1.3-1-3.1-1.5-5.6-1.5h-9.3V638H-146.1z M-145.8,652.3c2.7,0,4.8-0.5,6.1-1.5
					c1.4-1,2.1-2.5,2.1-4.5s-0.7-3.5-2.1-4.5s-3.4-1.5-6.1-1.5h-9.5v12H-145.8z"/>
				<path class="st0" d="M-146.2,655.8h-13.1v-33.2h13.1c3.7,0,6.6,0.8,8.6,2.4c2,1.6,3,4,3,7c0,2.1-0.6,3.9-1.8,5.4
					c-0.5,0.6-1,1.1-1.7,1.5c0.9,0.5,1.7,1.1,2.4,1.8c1.4,1.6,2.1,3.5,2.1,5.8c0,3-1.1,5.4-3.4,7
					C-139.2,655-142.3,655.8-146.2,655.8z M-156.9,653.4h0.4V625h-0.4V653.4z M-137.8,642c0.9,1.1,1.4,2.6,1.4,4.3
					c0,2.4-0.9,4.2-2.5,5.4c-0.6,0.4-1.3,0.8-2.1,1.1c1-0.3,1.9-0.7,2.6-1.2c1.6-1.2,2.4-2.9,2.4-5.1c0-1.7-0.5-3.1-1.5-4.2
					C-137.6,642.1-137.7,642.1-137.8,642z M-154.1,651.1h8.3c2.4,0,4.3-0.4,5.4-1.3c1.1-0.8,1.6-1.9,1.6-3.5s-0.5-2.7-1.6-3.5
					c-1.2-0.8-3-1.3-5.4-1.3h-8.3V651.1z M-144.7,639.1c0.7,0,1.3,0.1,1.8,0.2v-0.5C-143.5,639-144.1,639.1-144.7,639.1z
					 M-154.1,636.8h8.1c5.6,0,6.3-2.5,6.3-4.7c0-1.6-0.5-2.7-1.4-3.5c-1-0.8-2.7-1.2-4.8-1.2h-8.1v9.4H-154.1z M-143.8,625.3
					c1.6,0.2,3,0.8,4,1.6c1.6,1.2,2.4,3,2.4,5.3c0,1.3-0.2,2.6-0.9,3.8l0,0c0.9-1,1.3-2.3,1.3-3.9c0-2.3-0.7-4-2.1-5.1
					C-140.2,626-141.8,625.4-143.8,625.3z"/>
			</g>
			<g>
				<path class="st0" d="M-100.7,643.3c0,3.8-1.1,6.7-3.2,8.7c-2.2,2-5.3,3-9.3,3s-7.1-1-9.3-3c-2.2-2-3.3-4.9-3.3-8.7v-19.5h2.7
					v19.1c0,3.2,0.8,5.6,2.5,7.3c1.7,1.6,4.1,2.5,7.3,2.5s5.6-0.8,7.3-2.5c1.7-1.6,2.5-4.1,2.5-7.3v-19.1h2.7L-100.7,643.3
					L-100.7,643.3z"/>
				<path class="st0" d="M-113.2,656.3c-4.3,0-7.7-1.1-10.1-3.3c-2.4-2.2-3.7-5.5-3.7-9.6v-20.6h5.1V643c0,2.8,0.7,5,2.2,6.4
					c1.4,1.4,3.6,2.1,6.5,2.1c2.8,0,5-0.7,6.4-2.1s2.1-3.6,2.1-6.4v-20.3h5.1v20.6c0,4.1-1.2,7.4-3.6,9.6
					C-105.5,655.1-108.9,656.3-113.2,656.3z M-102.2,625v17.9c0,3.5-1,6.2-2.9,8.1c-1.5,1.5-3.5,2.4-6,2.7c2.7-0.3,4.8-1.2,6.4-2.6
					c1.9-1.8,2.9-4.4,2.9-7.9v-18.3L-102.2,625L-102.2,625z M-124.6,625v18.3c0,3.5,0.9,6.1,2.9,7.9c1.6,1.4,3.7,2.3,6.4,2.6
					c-2.5-0.3-4.5-1.2-6-2.7c-1.9-1.9-2.9-4.6-2.9-8.1v-17.9L-124.6,625L-124.6,625z"/>
			</g>
			<g>
				<path class="st0" d="M-86.8,654.6h-2.7v-30.8h2.7V654.6z"/>
				<path class="st0" d="M-85.6,655.8h-5.2v-33.2h5.1v33.2H-85.6z M-88.4,653.4h0.4V625h-0.4V653.4z"/>
			</g>
			<g>
				<path class="st0" d="M-53.4,652.3v2.4h-21.9v-30.8h2.7v28.4H-53.4z"/>
				<path class="st0" d="M-52.2,655.8h-24.3v-33.2h5.1v28.5h19.2L-52.2,655.8L-52.2,655.8z M-74.1,653.4h0.4V625h-0.4V653.4z"/>
			</g>
			<g>
				<path class="st0" d="M-22,627.8c2.7,2.6,4.1,6.4,4.1,11.3c0,5.1-1.4,8.9-4.1,11.6s-6.7,4-11.9,4h-10.4v-30.8h10.5
					C-28.7,623.8-24.7,625.1-22,627.8z M-23.9,648.8c2.2-2.3,3.4-5.6,3.4-9.8c0-4.1-1.1-7.3-3.4-9.5c-2.2-2.2-5.5-3.3-9.7-3.3h-7.9
					v26h7.9C-29.4,652.3-26.2,651.1-23.9,648.8z"/>
				<path class="st0" d="M-33.8,655.8h-11.6v-33.2h11.6c5.5,0,9.7,1.4,12.7,4.2l0,0c3,2.8,4.5,6.9,4.5,12.1c0,5.4-1.5,9.6-4.5,12.4
					C-24.1,654.3-28.4,655.8-33.8,655.8z M-43.1,653.4h0.4V625h-0.4V653.4z M-29.6,625.4c2.7,0.5,4.8,1.6,6.5,3.3
					c2.5,2.4,3.7,5.9,3.7,10.4c0,4.6-1.2,8.2-3.7,10.7l0,0c-1.7,1.7-3.9,2.8-6.6,3.4c2.8-0.5,5.1-1.6,6.9-3.3
					c2.5-2.4,3.8-6,3.8-10.7c0-4.5-1.3-8-3.7-10.4C-24.5,627-26.8,625.9-29.6,625.4z M-40.3,651.1h6.7c3.9,0,6.9-1,8.9-3s3-5.1,3-9
					c0-3.8-1-6.7-3-8.7s-5-3-8.9-3h-6.7V651.1z"/>
			</g>
			<g>
				<path class="st0" d="M-5.6,654.6h-2.7v-30.8h2.7V654.6z"/>
				<path class="st0" d="M-4.4,655.8h-5.1v-33.2h5.1V655.8z M-7.1,653.4h0.4V625h-0.4V653.4z"/>
			</g>
			<g>
				<path class="st0" d="M31,654.6h-3.7l-16.8-24.5l-2.1-3.4H8.3l0.2,3.4v24.5H5.8v-30.8h3.7L26,648l2.3,3.7h0.1l-0.2-3.4v-24.5h2.7
					v30.8H31z"/>
				<path class="st0" d="M32.2,655.8h-5.5L9.8,631.1v24.7H4.7v-33.2h5.5l16.9,24.7v-24.7h5.1V655.8z M28,653.4h1.9V625h-0.3v23.3
					l0.2,4.5h-1.9l-0.4-0.6l-2.3-3.7L9,624.9H7.1v28.4h0.3v-23.2l-0.2-4.5h1.9l0.4,0.6l2.1,3.4L28,653.4z"/>
			</g>
			<g>
				<path class="st0" d="M68.4,639.4v15.2h-2.2l-0.1-6c-0.8,2.1-2.2,3.7-4,4.8s-4.2,1.7-7,1.7c-2.9,0-5.5-0.6-7.7-1.9
					c-2.2-1.3-3.9-3.1-5.1-5.5c-1.2-2.4-1.8-5.2-1.8-8.4c0-3.2,0.6-6,1.9-8.4c1.2-2.4,3-4.2,5.2-5.5c2.2-1.3,4.8-1.9,7.7-1.9
					c3.3,0,6,0.6,8.1,1.9c2.1,1.3,3.7,3.2,4.7,5.8l-2.5,1.3c-0.7-2.2-2-3.9-3.7-5c-1.8-1.1-4-1.7-6.6-1.7c-2.3,0-4.4,0.5-6.3,1.6
					c-1.8,1.1-3.3,2.6-4.3,4.7c-1,2-1.5,4.4-1.5,7.2c0,4.2,1.1,7.5,3.2,9.9c2.1,2.4,5.1,3.6,8.8,3.6c2.3,0,4.3-0.5,5.9-1.4
					c1.6-1,2.8-2.2,3.5-3.8c0.7-1.6,1.1-3.3,1.1-5.1v-0.7H54.9v-2.3h13.5V639.4z"/>
				<path class="st0" d="M55,656.3c-3.1,0-5.9-0.7-8.3-2.1s-4.2-3.4-5.5-6c-1.3-2.5-1.9-5.5-1.9-8.9c0-3.4,0.7-6.4,2-9
					c1.3-2.6,3.3-4.6,5.7-6c2.4-1.4,5.2-2.1,8.3-2.1c3.5,0,6.5,0.7,8.7,2.1c2.3,1.4,4.1,3.5,5.2,6.4l0.4,1l-4.7,2.5l-0.4-1.3
					c-0.7-1.9-1.7-3.4-3.2-4.3c-1.6-1-3.6-1.5-6-1.5c-2.1,0-4,0.5-5.7,1.5s-2.9,2.3-3.9,4.2c-0.9,1.9-1.4,4.1-1.4,6.6
					c0,3.9,1,6.9,2.9,9.1c1.9,2.1,4.5,3.2,7.9,3.2c2.1,0,3.9-0.4,5.3-1.3c1.4-0.8,2.4-1.9,3.1-3.3c0.6-1.2,0.9-2.6,1-4H53.7v-4.7
					h15.7v17.5h-4.6l-0.1-3.3c-0.7,0.7-1.4,1.3-2.3,1.9C60.6,655.6,58.1,656.3,55,656.3z M53.6,624.8c-2,0.2-3.8,0.8-5.4,1.7
					c-2,1.2-3.6,2.9-4.8,5c-1.2,2.2-1.7,4.8-1.7,7.9c0,3,0.6,5.7,1.7,7.9c1.1,2.2,2.6,3.8,4.6,5c1.7,1,3.6,1.6,5.8,1.7
					c-3.4-0.3-6.1-1.6-8.2-3.9c-2.3-2.6-3.5-6.2-3.5-10.7c0-2.9,0.6-5.5,1.7-7.7s2.7-4,4.8-5.2C50,625.5,51.7,624.9,53.6,624.8z
					 M67.2,642.8v1.8v-3.9H67v1.8c0,0.3,0,0.5,0,0.8L67.2,642.8z M57.4,624.8c2,0.2,3.7,0.8,5.2,1.7c1.6,1,2.9,2.5,3.7,4.3l0.3-0.2
					c-0.9-1.9-2.2-3.3-3.8-4.3C61.4,625.4,59.6,624.9,57.4,624.8z"/>
			</g>
		</g>
	</g>
	<g>
		<g>
			<line class="st0" x1="-193.9" y1="525.8" x2="-193.9" y2="655"/>
		</g>
		<g>
			<rect x="-195.8" y="525.8" class="st0" width="3.7" height="129.2"/>
		</g>
	</g>
	<g>
		<g>
			<g>
				<g>
					<path class="st0" d="M-297.4,526c-38,0-68.8,28.9-68.8,64.4c0,25.6,16.5,47.9,39.7,58.2l-0.5-4c-21.1-10.1-35.6-30.6-35.6-54.2
						c0-33.6,29.3-60.9,65.2-60.9c36,0,65.2,27.3,65.2,60.9c0,23.6-14.5,44.1-35.6,54.2v3.9c23.2-10.4,39.2-32.5,39.2-58.1
						C-228.6,554.9-259.5,526-297.4,526z"/>
				</g>
			</g>
			<g>
				<g>
					<path class="st0" d="M-324.8,649.9l-4.2-1.8c-24.3-10.9-37.8-32.5-37.8-57.3c0-35.8,31.1-64.9,69.3-64.9s69.3,29.1,69.3,64.9
						c0,24.8-15,47.1-39,57.8l-1.2,0.5v-4.4l0.3-0.1c21.8-10.4,35.3-31,35.3-53.7c0-33.3-29-60.4-64.7-60.4s-64.7,27.1-64.7,60.4
						c0,22.7,13.5,43.3,35.3,53.7l0.2,0.1L-324.8,649.9z M-297.4,526.9c-37.7,0-68.3,28.7-68.3,63.9c0,24.1,15.1,46.5,38.6,57.4
						l-0.4-2.9c-22-10.6-35.6-31.5-35.6-54.5c0-33.8,29.5-61.4,65.7-61.4s65.7,27.5,65.7,61.4c0,23-13.6,43.9-35.6,54.5v2.8
						c23.2-10.7,38.2-33.1,38.2-57.3C-229.1,555.6-259.8,526.9-297.4,526.9z"/>
				</g>
			</g>
		</g>
		<g>
			<path class="st0" d="M-333.3,583.3c-6.4,1.7-12.4,4.8-17.4,9.3l0,0l0,0l0,0l0,0c-1.2,1.1-1.3,2.9-0.1,4s3.2,1,4.4-0.1l0,0
				c3.9-3.5,8.5-6,13.4-7.5"/>
		</g>
		<g>
			<path class="st0" d="M-333.2,594.5c-3.2,1.3-6.1,3.1-8.7,5.4l-0.1,0.1c-1.2,1.1-1.3,2.9-0.1,4c1.2,1.1,3.2,1,4.4-0.1l0.1-0.1
				c1.3-1.2,2.8-2.2,4.3-3"/>
		</g>
		<g>
			<path class="st0" d="M-332.2,606.3c-1,0.6-2,1.2-3,2l0,0l0,0c-1.3,1.1-1.3,2.9,0,3.9c0.9,0.7,2,0.9,3.2,0.7"/>
		</g>
		<g>
			<path class="st0" d="M-265.8,591c-1-0.2-2.2,0-3,0.8l0,0c-0.6,0.5-1.2,1-1.8,1.3"/>
		</g>
		<g>
			<path class="st0" d="M-262.8,595.5c0.4-0.3,0.9-0.7,1.3-1v-0.1c1.2-1.1,1.3-2.9,0.1-4c-0.4-0.4-0.9-0.6-1.4-0.7"/>
		</g>
		<g>
			<path class="st0" d="M-270.7,593.1c-3.9,2.2-9.2,1.8-12.6-1.3l0,0c-2.9-2.6-6-4.7-9.4-6.4v6.5c1.8,1.1,3.5,2.4,5.1,3.8l0,0l0,0
				c4.6,4.2,11.2,5.3,17,3.5c1.7-0.5,3.4-1.4,4.8-2.4"/>
		</g>
		<g>
			<path class="st0" d="M-262.8,607.9c3.6-1.3,7-3.2,9.9-5.9l0.1-0.1c1.2-1.1,1.3-2.9,0.1-4c-1.2-1.1-3.2-1.1-4.4,0.1l-0.1,0.1
				c-1.7,1.5-3.6,2.8-5.6,3.7"/>
		</g>
		<g>
			<path class="st0" d="M-265.8,603.4c-8.4,3.9-19.1,2.7-26.1-3.7l0,0c-0.3-0.2-0.5-0.4-0.8-0.7v7.3c7.9,5.1,18.1,6.2,26.9,3.1"/>
		</g>
		<g>
			<path class="st0" d="M-262.8,620.6c6.9-1.6,13.4-4.8,18.8-9.7l0.1-0.1c1.2-1.1,1.3-2.9,0.1-4c-1.2-1.1-3.2-1.1-4.4,0.1l-0.1,0.1
				c-4.1,3.7-9.1,6.4-14.3,7.8"/>
		</g>
		<g>
			<path class="st0" d="M-265.8,615.4c-8.9,2.5-18.6,1.7-26.9-2.4v6.2c8.4,3.4,17.9,4.1,26.7,2.1"/>
		</g>
		<g>
			<path class="st0" d="M-299.1,554.8l-29.9,15.8v11.2c9.3-2.4,19.4-1.8,28.4,1.8v6.2c-8.7-4.3-19.2-5-28.4-2.2v6.1
				c9.2-3.6,20.1-2.7,28.4,2.7v7.4c-0.3-0.3-0.6-0.5-0.9-0.8l0,0c-7.5-6.7-18.9-7.7-27.5-3.1v5c7-3.6,16.5-2.9,22.6,2
				c1.8,1.5,3.7,2.8,5.8,3.9v6.5c-3.8-1.7-7.4-3.8-10.7-6.4c-1-0.8-2.2-1.5-3.4-1.9c-2.4-0.8-5-1-7.4-0.5c-1.2,0.3-2.4,0.7-3.5,1.3
				c-1.1,0.6-2.2,1.4-3.4,1.9v-0.2v36.6c9.5,4.4,20.2,6.9,31.6,6.9c0.4,0,0.7,0,1.1,0v-94l25.6,12.7v76.4c1.6-0.6,3.3-1.3,4.8-2
				v-76.8L-299.1,554.8z"/>
		</g>
	</g>
</g>
</svg>
