<?xml version="1.0" encoding="utf-8"?>
<!-- Generator: Adobe Illustrator 19.0.0, SVG Export Plug-In . SVG Version: 6.00 Build 0)  -->
<svg version="1.1" id="Capa_1" xmlns="http://www.w3.org/2000/svg" xmlns:xlink="http://www.w3.org/1999/xlink" x="0px" y="0px"
	 viewBox="-161.2 472.4 413 283.7" style="enable-background:new -161.2 472.4 413 283.7;" xml:space="preserve">
<style type="text/css">
	.st0{fill:#FCFBFA;}
</style>
<title>analítica y ciencia de datos</title>
<g>
	<g>
		<g>
			<g>
				<path class="st0" d="M-67.1,721.9h12.5c3.7,0,6.4,0.7,8.2,2.2s2.7,3.6,2.7,6.3c0,1.9-0.5,3.5-1.6,4.8s-2.6,2.2-4.6,2.5v0.1
					c2.3,0.3,4.1,1.1,5.3,2.5c1.2,1.4,1.8,3.1,1.8,5.2c0,2.8-1,4.9-3.1,6.4c-2,1.5-5,2.2-8.8,2.2h-12.5v-32.2H-67.1z M-54.4,736.8
					c5.2,0,7.8-2.1,7.8-6.2c0-2-0.7-3.6-2-4.6s-3.3-1.6-5.9-1.6h-9.8v12.3h9.9V736.8z M-54.2,751.8c2.8,0,5-0.5,6.4-1.6
					c1.4-1.1,2.2-2.6,2.2-4.7c0-2.1-0.7-3.6-2.2-4.7c-1.4-1.1-3.6-1.6-6.4-1.6h-10v12.6H-54.2L-54.2,751.8z"/>
				<path class="st0" d="M-54.6,755.7h-13.9v-35.2h13.9c4,0,7,0.8,9.1,2.5c2.2,1.7,3.2,4.3,3.2,7.5c0,2.3-0.7,4.2-1.9,5.8
					c-0.5,0.5-1,1-1.5,1.4c0.9,0.5,1.6,1.1,2.3,1.8c1.5,1.7,2.2,3.7,2.2,6.2c0,3.2-1.2,5.8-3.7,7.5
					C-47.2,754.8-50.5,755.7-54.6,755.7z M-62.8,750.3h8.5c2.5,0,4.4-0.4,5.6-1.3c1.1-0.8,1.6-1.9,1.6-3.5c0-1.6-0.5-2.8-1.6-3.5
					c-1.2-0.9-3.1-1.3-5.6-1.3h-8.5V750.3z M-44.2,745.5c0,1.1-0.2,2-0.5,2.9C-44.3,747.5-44.2,746.7-44.2,745.5L-44.2,745.5z
					 M-51.4,737.9C-51.4,737.9-51.3,737.9-51.4,737.9L-51.4,737.9C-51.3,737.9-51.4,737.9-51.4,737.9z M-62.8,735.3h8.3
					c5.7,0,6.4-2.5,6.4-4.7c0-1.6-0.5-2.7-1.4-3.5c-1.1-0.8-2.7-1.3-5-1.3h-8.3V735.3z M-46.4,726.2c0.8,1.2,1.2,2.6,1.2,4.3
					c0,0,0,0,0-0.1C-45.2,728.7-45.5,727.3-46.4,726.2z"/>
			</g>
			<g>
				<path class="st0" d="M-8.8,742.3c0,4-1.1,7.1-3.4,9.2c-2.3,2.1-5.5,3.2-9.8,3.2c-4.2,0-7.5-1.1-9.8-3.2
					c-2.3-2.1-3.4-5.2-3.4-9.2v-20.4h2.9V742c0,3.3,0.9,5.9,2.7,7.6s4.3,2.6,7.7,2.6c3.3,0,5.9-0.9,7.6-2.6c1.8-1.7,2.6-4.3,2.6-7.6
					v-20.1h2.9V742.3z"/>
				<path class="st0" d="M-22,756c-4.6,0-8.2-1.2-10.8-3.6c-2.6-2.4-3.9-5.8-3.9-10.2v-21.9h5.8v21.5c0,2.9,0.7,5.1,2.2,6.6
					s3.7,2.2,6.7,2.2c2.9,0,5.2-0.7,6.6-2.2c1.5-1.4,2.2-3.7,2.2-6.6v-21.5h5.8v21.9c0,4.4-1.3,7.8-3.9,10.2
					C-13.8,754.9-17.4,756-22,756z M-10.2,742c0,3.2-0.8,5.8-2.3,7.8c1.5-1.8,2.3-4.2,2.3-7.4V742z M-33.7,742v0.3
					c0,3.2,0.7,5.6,2.3,7.4C-33,747.8-33.7,745.2-33.7,742z"/>
			</g>
			<g>
				<path class="st0" d="M3.7,754.2H0.8v-32.3h2.9V754.2z"/>
				<rect x="-0.6" y="720.5" class="st0" width="5.8" height="35.2"/>
			</g>
			<g>
				<path class="st0" d="M36.8,751.8v2.5h-23V722h2.9v29.8H36.8z"/>
				<polygon class="st0" points="38.2,755.7 12.3,755.7 12.3,720.5 18.1,720.5 18.1,750.3 38.2,750.3 				"/>
			</g>
			<g>
				<path class="st0" d="M67.8,726c2.9,2.7,4.3,6.7,4.3,11.8c0,5.3-1.4,9.4-4.3,12.2s-7,4.2-12.5,4.2h-11v-32.3h11
					C60.7,721.9,64.9,723.3,67.8,726z M65.7,748.2c2.3-2.4,3.5-5.8,3.5-10.3c0-4.3-1.2-7.7-3.5-10s-5.8-3.5-10.2-3.5h-8.3v27.3h8.3
					C59.9,751.8,63.3,750.5,65.7,748.2z"/>
				<path class="st0" d="M55.3,755.7H42.9v-35.2h12.4c5.8,0,10.3,1.5,13.5,4.5s4.8,7.3,4.8,12.9c0,5.7-1.6,10.1-4.8,13.2
					C65.6,754,61.1,755.7,55.3,755.7z M48.7,750.3h6.8c4,0,7.1-1.1,9.2-3.1l1,1l-1-1c2.1-2.1,3.1-5.2,3.1-9.3c0-3.9-1-6.9-3.1-9
					c-2.1-2-5.2-3-9.2-3h-6.8L48.7,750.3L48.7,750.3z M70.7,737.8c0,1.9-0.2,3.7-0.6,5.2C70.4,741.5,70.7,739.8,70.7,737.8z
					 M70,732.5c0.4,1.6,0.7,3.3,0.7,5.3C70.7,735.9,70.4,734,70,732.5z"/>
			</g>
			<g>
				<path class="st0" d="M82.9,754.2H80v-32.3h2.9V754.2z"/>
				<rect x="78.6" y="720.5" class="st0" width="5.8" height="35.2"/>
			</g>
			<g>
				<path class="st0" d="M119.4,754.2h-3.9l-17.6-25.7l-2.2-3.6h-0.1l0.2,3.5V754H93v-32.3h3.9l17.4,25.4l2.4,3.9h0.1l-0.2-3.5
					v-25.7h2.8L119.4,754.2L119.4,754.2z"/>
				<path class="st0" d="M120.8,755.7h-6.1l-17.4-25.5v25.5h-5.7v-35.2h6.1l17.5,25.5v-25.5h5.7v35.2H120.8z M116.2,752.8h1.7v-0.2
					h-1.8L116.2,752.8z M99,727.7l0.1,0.1l4,5.8L99,727.7z M94.4,723.5h1.8l-0.1-0.2h-1.7L94.4,723.5L94.4,723.5z"/>
			</g>
			<g>
				<path class="st0" d="M156.6,738.3v15.9h-2.3l-0.1-6.3c-0.9,2.2-2.3,3.9-4.2,5c-1.9,1.2-4.4,1.8-7.4,1.8c-3.1,0-5.8-0.7-8-2
					c-2.3-1.3-4.1-3.3-5.3-5.8c-1.3-2.5-1.9-5.4-1.9-8.8c0-3.4,0.7-6.3,2-8.8s3.1-4.4,5.5-5.8c2.3-1.3,5.1-2,8.1-2
					c3.5,0,6.3,0.7,8.5,2s3.8,3.4,5,6.1l-2.6,1.4c-0.8-2.3-2.1-4-3.9-5.2s-4.2-1.8-6.9-1.8c-2.5,0-4.7,0.6-6.6,1.7
					c-1.9,1.1-3.5,2.8-4.5,4.9c-1.1,2.1-1.6,4.6-1.6,7.5c0,4.4,1.1,7.9,3.4,10.4s5.3,3.8,9.2,3.8c2.5,0,4.5-0.5,6.2-1.5
					s2.9-2.3,3.7-4c0.8-1.6,1.2-3.4,1.2-5.3v-0.7h-11.3v-2.5H156.6z"/>
				<path class="st0" d="M142.5,756c-3.3,0-6.3-0.7-8.8-2.2s-4.5-3.6-5.9-6.4c-1.3-2.7-2-5.9-2-9.5c0-3.6,0.7-6.8,2.1-9.5
					s3.5-4.9,6-6.4c2.6-1.5,5.5-2.2,8.9-2.2c3.8,0,6.9,0.7,9.3,2.2c2.5,1.5,4.3,3.8,5.6,6.8l0.5,1.2l-5.3,2.8l-0.5-1.6
					c-0.7-2-1.8-3.5-3.3-4.5c-1.6-1-3.7-1.5-6.2-1.5c-2.2,0-4.2,0.5-5.9,1.5c-1.7,1-3,2.4-4,4.3c-1,1.9-1.5,4.2-1.5,6.9
					c0,4,1,7.2,3,9.4s4.6,3.3,8.1,3.3c2.2,0,4-0.4,5.5-1.3c1.4-0.9,2.5-2,3.1-3.3c0.6-1.2,0.9-2.5,1-4h-11.3v-5.3h16.9v18.8h-5.2
					l-0.1-3.2c-0.6,0.6-1.4,1.2-2.1,1.7C148.5,755.5,145.8,756,142.5,756z M128.8,738L128.8,738L128.8,738z M128.9,735.4
					c-0.1,0.8-0.2,1.7-0.2,2.6C128.8,737.2,128.8,736.3,128.9,735.4z"/>
			</g>
		</g>
		<g>
			<g>
				<path class="st0" d="M-133.4,672.5v32.3h-2.9v-15.2h-20.5v15.2h-2.9v-32.3h2.9v14.7h20.6v-14.7H-133.4z"/>
				<path class="st0" d="M-131.9,706.3h-5.8V691h-17.7v15.2h-5.8V671h5.8v14.7h17.7V671h5.8V706.3z M-134.8,703.4V674V703.4z
					 M-158.3,703.4v-14.8V703.4z"/>
			</g>
			<g>
				<path class="st0" d="M-99.2,702.4v2.5h-24.1v-32.3h23.3v2.5h-20.4v12.2h16.2v2.5h-16.2v12.7h21.2V702.4z"/>
				<polygon class="st0" points="-97.8,706.3 -124.8,706.3 -124.8,671 -98.6,671 -98.6,676.5 -119,676.5 -119,685.8 -102.8,685.8 
					-102.8,691 -119,691 -119,700.9 -97.8,700.9 				"/>
			</g>
			<g>
				<path class="st0" d="M-73.5,694.8h-15.9l-4.2,10h-3l13.4-32.3h3.4l13.4,32.3h-3.1L-73.5,694.8z M-74.4,692.3l-5.8-13.8l-1.2-3.3
					l-1.2,3.3l-5.7,13.8H-74.4z"/>
				<path class="st0" d="M-64.1,706.3h-6.2l-4.2-10h-13.9l-4.2,10h-6.1l14.6-35.2h2.6l0.1-0.2l0.1,0.2h2.5L-64.1,706.3z
					 M-86.1,690.9h9.5l-4.8-11.4L-86.1,690.9z"/>
			</g>
			<g>
				<path class="st0" d="M-37.4,702.4v2.5h-23v-32.3h2.9v29.8H-37.4z"/>
				<polygon class="st0" points="-36,706.3 -61.9,706.3 -61.9,671 -56.1,671 -56.1,700.9 -36,700.9 				"/>
			</g>
			<g>
				<path class="st0" d="M-15,675h-12.3v29.8h-2.9V675h-12.3v-2.5H-15V675z"/>
				<path class="st0" d="M-25.9,706.3h-5.8v-29.8H-44v-5.4h30.4v5.4h-12.3L-25.9,706.3L-25.9,706.3z M-28.7,703.4V674V703.4z"/>
			</g>
			<g>
				<path class="st0" d="M17.4,672.5v32.3h-2.9v-15.2H-6.1v15.2H-9v-32.3h2.9v14.7h20.6v-14.7H17.4z"/>
				<path class="st0" d="M18.8,706.3H13V691H-4.7v15.2h-5.8V671h5.8v14.7H13V671h5.8V706.3z M15.9,703.4V674V703.4z M-7.6,703.4
					v-14.8V703.4z"/>
			</g>
			<g>
				<path class="st0" d="M37.8,692.4v12.5h-2.9v-12.5L23,672.6h3.3l10.1,17.3l3.8-6.3l6.4-11h3.2L37.8,692.4z"/>
				<polygon class="st0" points="39.2,706.3 33.5,706.3 33.5,692.8 20.4,671 27.1,671 36.3,687 45.7,671 52.3,671 39.2,692.8 				
					"/>
			</g>
		</g>
		<g>
			<g>
				<path class="st0" d="M125.6,672.5v32.3h-2.9v-15.2h-20.6v15.2h-2.8v-32.3h2.9v14.7h20.6v-14.7H125.6z"/>
				<path class="st0" d="M127.1,706.3h-5.8V691h-17.7v15.2h-5.8V671h5.8v14.7h17.7V671h5.8V706.3z M124.2,703.4V674V703.4z
					 M100.7,703.4v-14.8V703.4z"/>
			</g>
			<g>
				<path class="st0" d="M154.5,694.8h-15.9l-4.2,10h-3l13.4-32.3h3.4l13.4,32.3h-3.1L154.5,694.8z M153.5,692.3l-5.8-13.8l-1.2-3.3
					l-1.2,3.3l-5.7,13.8H153.5z"/>
				<path class="st0" d="M163.8,706.3h-6.2l-4.2-10h-13.9l-4.2,10h-6l14.6-35.2h2.6l0.1-0.2l0.1,0.2h2.5L163.8,706.3z M141.8,690.9
					h9.5l-4.8-11.4L141.8,690.9z"/>
			</g>
			<g>
				<path class="st0" d="M187.5,675c2.1,1.7,3.1,4,3.1,7c0,2.9-1,5.2-3.1,6.9s-4.9,2.5-8.5,2.5h-8.7v13.3h-2.9v-32.3h11.5
					C182.6,672.5,185.5,673.4,187.5,675z M185.5,687.3c1.5-1.2,2.3-2.9,2.3-5.2c0-2.3-0.7-4-2.3-5.2s-3.7-1.8-6.5-1.8h-8.7v14.1h8.7
					C181.9,689,184,688.5,185.5,687.3z"/>
				<path class="st0" d="M171.8,706.3H166V671h13c3.9,0,7.1,1,9.4,2.9l0,0c2.4,2,3.6,4.7,3.6,8.2c0,3.4-1.2,6.1-3.6,8
					c-2.3,1.9-5.5,2.9-9.4,2.9h-7.2V706.3z M169,703.4v-12.9V703.4z M171.8,687.7h7.2c2.5,0,4.3-0.5,5.6-1.5l0,0
					c1.2-0.9,1.7-2.3,1.7-4c0-1.8-0.6-3.2-1.7-4.1c-1.2-1-3.1-1.5-5.5-1.5h-7.2v11.1H171.8z M189.2,682L189.2,682L189.2,682z
					 M189.2,682L189.2,682L189.2,682z M189.2,682L189.2,682L189.2,682z M189.2,682L189.2,682L189.2,682z M189.2,682L189.2,682
					L189.2,682z"/>
			</g>
			<g>
				<path class="st0" d="M217.6,675c2.1,1.7,3.1,4,3.1,7c0,2.9-1,5.2-3.1,6.9s-4.9,2.5-8.5,2.5h-8.7v13.3h-2.9v-32.3H209
					C212.7,672.5,215.5,673.4,217.6,675z M215.6,687.3c1.5-1.2,2.3-2.9,2.3-5.2c0-2.3-0.7-4-2.3-5.2s-3.7-1.8-6.5-1.8h-8.7v14.1h8.7
					C211.9,689,214.1,688.5,215.6,687.3z"/>
				<path class="st0" d="M201.9,706.3h-5.8V671h13c3.9,0,7.1,1,9.4,2.9l0,0c2.4,2,3.6,4.7,3.6,8.2c0,3.4-1.2,6.1-3.6,8
					c-2.3,1.9-5.5,2.9-9.4,2.9h-7.2V706.3z M199,703.4v-12.9V703.4z M201.9,687.7h7.2c2.5,0,4.3-0.5,5.6-1.5l0,0
					c1.2-0.9,1.7-2.3,1.7-4c0-1.8-0.6-3.2-1.7-4.1c-1.2-1-3.1-1.5-5.5-1.5H202v11.1H201.9z M219.3,682L219.3,682L219.3,682z
					 M219.3,682L219.3,682L219.3,682z M219.3,682L219.3,682L219.3,682z M219.3,682L219.3,682L219.3,682z M219.3,682L219.3,682
					L219.3,682z"/>
			</g>
			<g>
				<path class="st0" d="M237.3,692.4v12.5h-2.9v-12.5l-11.9-19.8h3.3l10.1,17.3l3.8-6.3l6.4-11h3.2L237.3,692.4z"/>
				<polygon class="st0" points="238.7,706.3 232.9,706.3 232.9,692.8 219.9,671 226.6,671 235.8,687 245.2,671 251.8,671 
					238.7,692.8 				"/>
			</g>
		</g>
		<g>
			<g>
				<path class="st0" d="M83.6,699.9c0.8,0.4,1.6,0.6,2.6,0.6l-0.4,1.7c-1.1,0-2-0.2-2.9-0.7s-2-1.3-3.2-2.6c-2.2,2.2-5,3.3-8.4,3.3
					c-2.4,0-4.4-0.6-6-1.7c-1.6-1.2-2.3-2.7-2.3-4.6c0-1.8,0.5-3.3,1.6-4.5c1.1-1.3,2.8-2.5,5.3-3.8c-1.3-1.6-2.2-2.9-2.7-3.8
					c-0.5-0.9-0.7-1.9-0.7-2.9c0-1.6,0.6-3,1.7-4.1c1.1-1.1,2.7-1.6,4.6-1.6c1.8,0,3.3,0.5,4.5,1.4c1.1,0.9,1.7,2.2,1.7,3.8
					c0,1.5-0.4,2.8-1.3,4s-2.5,2.4-4.9,3.7l2.8,3.3c1.8,2.2,3.2,3.7,4.1,4.7c1.5-2.2,2.3-5.2,2.2-8.9l1.8,0.4c0,1.8-0.2,3.6-0.6,5.3
					c-0.5,1.7-1.1,3.2-2.1,4.5C81.9,698.7,82.8,699.5,83.6,699.9z M78.3,697.5c-1.3-1.4-2.7-3-4.3-4.9l-3.2-3.7
					c-2.1,1.1-3.6,2.2-4.5,3.1c-0.9,1-1.4,2.1-1.4,3.5c0,1.4,0.6,2.6,1.8,3.5c1.2,0.9,2.7,1.3,4.4,1.3
					C74.1,700.5,76.5,699.5,78.3,697.5z M69.6,678.2c-0.8,0.7-1.1,1.6-1.1,2.8c0,0.8,0.2,1.6,0.5,2.3c0.4,0.7,1.2,1.9,2.5,3.4
					c2.1-1.1,3.5-2.1,4.2-3.1c0.7-0.9,1.1-2,1.1-3.1c0-1.1-0.4-1.9-1.1-2.5c-0.7-0.6-1.7-0.9-3-0.9S70.3,677.5,69.6,678.2z"/>
				<path class="st0" d="M86.1,702.7h-0.4c-1.1,0-2.2-0.3-3.2-0.8c-0.9-0.5-1.8-1.2-3-2.3c-2.2,2.1-5,3.1-8.4,3.1
					c-2.5,0-4.6-0.6-6.3-1.8c-1.7-1.2-2.5-2.9-2.5-5c0-1.9,0.6-3.5,1.8-4.8c1-1.2,2.7-2.4,4.9-3.6c-1.1-1.4-1.9-2.5-2.4-3.4
					c-0.5-1-0.8-2-0.8-3.1c0-1.8,0.6-3.2,1.8-4.4c1.2-1.2,2.9-1.7,4.9-1.7c1.9,0,3.6,0.5,4.8,1.5c1.3,1,1.9,2.4,1.9,4.2
					c0,1.6-0.5,3-1.4,4.3c-0.8,1.1-2.4,2.3-4.5,3.5l2.4,2.9c1.5,1.8,2.8,3.3,3.6,4.2c1.2-2.1,1.8-4.8,1.7-8.1v-0.6l2.8,0.6v0.4
					c0,1.9-0.2,3.7-0.6,5.4c-0.4,1.6-1.1,3.1-1.9,4.4c1,1,1.8,1.7,2.5,2.1l0,0c0.7,0.4,1.5,0.5,2.3,0.5h0.6L86.1,702.7z M72.6,675.7
					c-1.8,0-3.2,0.5-4.3,1.5c-1,1-1.5,2.2-1.5,3.7c0,0.9,0.2,1.9,0.7,2.7c0.4,0.9,1.3,2.1,2.6,3.7l0.4,0.5l-0.5,0.3
					c-2.3,1.2-4.1,2.4-5.1,3.6s-1.5,2.5-1.5,4.2c0,1.8,0.7,3.1,2.1,4.2c1.5,1.1,3.4,1.6,5.7,1.6c3.3,0,6-1.1,8.1-3.1l0.3-0.3
					l0.3,0.3c1.2,1.2,2.3,2,3.1,2.5c0.7,0.4,1.5,0.6,2.3,0.6l0.2-0.7c-0.8-0.1-1.5-0.3-2.2-0.6c-0.8-0.4-1.8-1.3-3-2.5l-0.3-0.3
					l0.2-0.3c0.9-1.3,1.6-2.8,2-4.4c0.4-1.5,0.6-3.1,0.6-4.8l-0.8-0.2c0,3.5-0.8,6.4-2.2,8.5l-0.3,0.5l-0.4-0.4
					c-0.9-1-2.3-2.6-4.1-4.7l-3.1-3.8l0.5-0.3c2.3-1.3,3.9-2.5,4.7-3.6c0.8-1.1,1.2-2.3,1.2-3.7c0-1.5-0.5-2.6-1.5-3.4
					C75.8,676,74.4,675.7,72.6,675.7z M71.1,700.9c-1.8,0-3.4-0.5-4.7-1.4c-1.3-1-2-2.3-2-3.9c0-1.5,0.5-2.8,1.5-3.8
					c0.9-1,2.5-2.1,4.7-3.2l0.3-0.2l3.4,4c1.6,1.9,3,3.5,4.3,4.9l0.3,0.3l-0.3,0.3C76.8,699.9,74.2,700.9,71.1,700.9z M70.7,689.5
					c-1.9,1-3.3,2-4.1,2.9c-0.8,0.9-1.2,1.9-1.2,3.2c0,1.3,0.5,2.3,1.6,3.1s2.5,1.2,4.1,1.2c2.6,0,4.8-0.8,6.5-2.4
					c-1.2-1.3-2.5-2.8-4-4.6L70.7,689.5z M71.3,687.3l-0.2-0.3c-1.3-1.6-2.1-2.8-2.5-3.5c-0.4-0.8-0.6-1.6-0.6-2.5
					c0-1.3,0.4-2.3,1.3-3.1l0,0c0.8-0.8,2-1.2,3.4-1.2s2.5,0.3,3.3,1c0.9,0.7,1.3,1.7,1.3,2.9c0,1.3-0.4,2.4-1.2,3.4
					c-0.8,1-2.2,2-4.4,3.2L71.3,687.3z M69.9,678.5c-0.7,0.6-1,1.4-1,2.4c0,0.8,0.2,1.5,0.5,2.1c0.3,0.6,1,1.7,2.2,3.1
					c1.8-1,3.1-1.9,3.7-2.8c0.7-0.8,1-1.8,1-2.8c0-0.9-0.3-1.7-0.9-2.2s-1.6-0.8-2.7-0.8C71.5,677.5,70.6,677.9,69.9,678.5
					L69.9,678.5z"/>
			</g>
		</g>
	</g>
	<g>
		<g>
			<g>
				<g>
					<path class="st0" d="M45.3,472.5C-3.4,472.5-43,509.5-43,555c0,32.8,21.2,61.4,50.9,74.7l-0.7-5.2
						c-27.1-13-45.6-39.3-45.6-69.6c0-43.1,37.5-78.1,83.7-78.1c46.1,0,83.7,35.1,83.7,78.1c0,30.3-18.6,56.6-45.6,69.6v5
						c29.7-13.3,50.3-41.7,50.3-74.6C133.6,509.6,94,472.5,45.3,472.5z"/>
				</g>
			</g>
			<g>
				<g>
					<path class="st0" d="M10.2,631.5l-5.5-2.3c-31.2-14-48.4-41.7-48.4-73.5c0-45.9,39.9-83.3,89-83.3s89,37.4,89,83.3
						c0,31.8-19.2,60.4-50,74.2l-1.5,0.7v-5.7l0.4-0.2c27.9-13.4,45.3-39.8,45.3-69c0-42.7-37.3-77.5-83-77.5s-83,34.8-83,77.5
						c0,29.2,17.3,55.6,45.3,69l0.3,0.2L10.2,631.5z M45.3,473.7c-48.4,0-87.7,36.8-87.7,82c0,30.9,19.4,59.7,49.5,73.7l-0.5-3.7
						c-28.2-13.6-45.7-40.4-45.7-70c0-43.4,37.8-78.8,84.3-78.8s84.3,35.3,84.3,78.8c0,29.5-17.5,56.3-45.6,70v3.6
						c29.8-13.8,49-42.5,49-73.6C133,510.5,93.7,473.7,45.3,473.7z"/>
				</g>
			</g>
		</g>
		<g>
			<path class="st0" d="M-0.7,546.2c-8.2,2.2-15.9,6.1-22.4,12l0,0l0,0l0,0l0,0c-1.6,1.4-1.6,3.7-0.1,5.1s4.1,1.3,5.7-0.1l0,0
				c5-4.5,10.9-7.8,17.2-9.7"/>
		</g>
		<g>
			<path class="st0" d="M-0.6,560.5c-4.1,1.6-7.9,3.9-11.2,6.9l-0.1,0.1c-1.6,1.4-1.6,3.7-0.1,5.1c1.5,1.4,4.1,1.3,5.7-0.1l0.1-0.1
				c1.7-1.5,3.5-2.8,5.5-3.9"/>
		</g>
		<g>
			<path class="st0" d="M0.7,575.6c-1.3,0.7-2.6,1.5-3.8,2.5l0,0l0,0c-1.7,1.5-1.7,3.7,0,5.1c1.1,0.9,2.6,1.2,4.1,0.9"/>
		</g>
		<g>
			<path class="st0" d="M85.9,556c-1.3-0.3-2.8,0.1-3.9,1l0,0c-0.7,0.7-1.5,1.2-2.4,1.7"/>
		</g>
		<g>
			<path class="st0" d="M89.7,561.8c0.6-0.4,1.1-0.9,1.7-1.3l0.1-0.1c1.6-1.4,1.6-3.8,0.1-5.1c-0.5-0.5-1.1-0.8-1.8-0.9"/>
		</g>
		<g>
			<path class="st0" d="M79.6,558.7c-5.1,2.8-11.8,2.3-16.2-1.6l0,0c-3.7-3.3-7.8-6.1-12.1-8.2v8.3c2.3,1.4,4.5,3,6.5,4.9l0,0l0,0
				c5.9,5.3,14.4,6.8,21.8,4.5c2.2-0.7,4.3-1.8,6.2-3.1"/>
		</g>
		<g>
			<path class="st0" d="M89.7,577.7c4.7-1.6,9-4.1,12.8-7.5l0.2-0.2c1.6-1.4,1.6-3.7,0.1-5.1c-1.5-1.4-4.1-1.3-5.7,0.1l-0.2,0.2
				c-2.2,2-4.6,3.6-7.2,4.8"/>
		</g>
		<g>
			<path class="st0" d="M85.8,571.9c-10.8,5-24.5,3.5-33.5-4.7l0,0c-0.3-0.3-0.7-0.6-1-0.9v9.4c10.2,6.6,23.2,7.9,34.5,4"/>
		</g>
		<g>
			<path class="st0" d="M89.7,593.9c8.8-2,17.2-6.2,24.1-12.4l0.1-0.1c1.6-1.4,1.6-3.7,0.1-5.1c-1.5-1.4-4.1-1.3-5.7,0.1l-0.1,0.1
				c-5.3,4.8-11.6,8.2-18.3,10"/>
		</g>
		<g>
			<path class="st0" d="M85.8,587.2c-11.4,3.2-23.9,2.1-34.5-3.1v7.9c10.8,4.4,23,5.2,34.3,2.6"/>
		</g>
		<g>
			<path class="st0" d="M43.2,509.5L4.8,529.8v14.4c12-3.1,25-2.4,36.5,2.3v8c-11.1-5.5-24.6-6.5-36.5-2.9v7.8
				c11.8-4.7,25.7-3.5,36.5,3.5v9.5c-0.4-0.3-0.8-0.6-1.2-1l0,0c-9.6-8.6-24.2-9.9-35.3-3.9v6.4c9-4.6,21.1-3.8,29,2.6
				c2.3,1.9,4.8,3.6,7.4,5v8.3c-4.9-2.1-9.5-4.9-13.7-8.3c-1.3-1.1-2.8-1.9-4.4-2.4c-3-1.1-6.4-1.3-9.5-0.6
				c-1.6,0.3-3.1,0.9-4.5,1.6c-1.5,0.8-2.8,1.8-4.4,2.4v-0.2v47.1c12.2,5.7,26,8.9,40.5,8.9c0.5,0,1,0,1.4,0V517.4l32.9,16.3v98.1
				c2.1-0.8,4.2-1.7,6.2-2.6v-98.5L43.2,509.5z"/>
		</g>
	</g>
</g>
</svg>
