<?xml version="1.0" encoding="utf-8"?>
<!-- Generator: Adobe Illustrator 19.0.0, SVG Export Plug-In . SVG Version: 6.00 Build 0)  -->
<svg version="1.1" id="Capa_1" xmlns="http://www.w3.org/2000/svg" xmlns:xlink="http://www.w3.org/1999/xlink" x="0px" y="0px"
	 viewBox="-189 471.3 413 283.7" style="enable-background:new -189 471.3 413 283.7;" xml:space="preserve">
<style type="text/css">
	.st0{fill:#FCFBFA;}
</style>
<title>analítica y ciencia de datos</title>
<g>
	<path class="st0" d="M-73.5,736.6c0.5-0.4,1-0.9,1.5-1.4c1.2-1.6,1.9-3.5,1.9-5.8c0-3.2-1-5.8-3.2-7.5c-2.1-1.7-5.1-2.5-9.1-2.5
		h-13.9v35.2h13.9c4.1,0,7.4-0.8,9.7-2.5c2.5-1.7,3.7-4.3,3.7-7.5c0-2.5-0.7-4.5-2.2-6.2C-71.9,737.7-72.6,737.1-73.5,736.6z
		 M-76.5,748c-1.2,0.9-3.1,1.3-5.6,1.3h-8.5v-9.6h8.5c2.5,0,4.4,0.4,5.6,1.3c1.1,0.7,1.6,1.9,1.6,3.5S-75.4,747.2-76.5,748z
		 M-75.9,729.5c0,2.2-0.7,4.7-6.4,4.7h-8.3v-9.5h8.3c2.3,0,3.9,0.5,5,1.3C-76.4,726.8-75.9,727.9-75.9,729.5z"/>
	<path class="st0" d="M-41,740.8c0,2.9-0.7,5.2-2.2,6.6c-1.4,1.5-3.7,2.2-6.6,2.2c-3,0-5.2-0.7-6.7-2.2s-2.2-3.7-2.2-6.6v-21.5h-5.8
		v21.9c0,4.4,1.3,7.8,3.9,10.2c2.6,2.4,6.2,3.6,10.8,3.6c4.6,0,8.2-1.1,10.7-3.6c2.6-2.4,3.9-5.8,3.9-10.2v-21.9H-41V740.8z"/>
	<rect x="-28.4" y="719.5" class="st0" width="5.8" height="35.2"/>
	<polygon class="st0" points="-9.7,719.5 -15.5,719.5 -15.5,754.6 10.4,754.6 10.4,749.3 -9.7,749.3 	"/>
	<path class="st0" d="M27.5,719.4H15.1v35.2h12.4c5.8,0,10.3-1.6,13.5-4.6c3.2-3.1,4.8-7.5,4.8-13.2c0-5.6-1.6-9.9-4.8-12.9
		S33.3,719.4,27.5,719.4z M27.7,749.3h-6.8v-24.4h6.8c4,0,7.1,1,9.2,3c2.1,2.1,3.1,5.1,3.1,9c0,4.1-1,7.2-3.1,9.3
		C34.8,748.2,31.7,749.3,27.7,749.3z"/>
	<rect x="50.8" y="719.5" class="st0" width="5.8" height="35.2"/>
	<polygon class="st0" points="87.4,744.9 69.9,719.4 63.8,719.4 63.8,754.6 69.5,754.6 69.5,729.1 86.9,754.6 93,754.6 93,754.6 
		93.1,754.6 93.1,719.4 87.4,719.4 	"/>
	<path class="st0" d="M109.2,725.7c1.7-1,3.7-1.5,5.9-1.5c2.5,0,4.6,0.5,6.2,1.5c1.5,1,2.6,2.5,3.3,4.5l0.5,1.6l5.3-2.8l-0.5-1.2
		c-1.3-3-3.1-5.3-5.6-6.8c-2.4-1.5-5.5-2.2-9.3-2.2c-3.4,0-6.3,0.7-8.9,2.2c-2.5,1.5-4.6,3.7-6,6.4c-1.4,2.7-2.1,5.9-2.1,9.5
		s0.7,6.8,2,9.5c1.4,2.8,3.4,4.9,5.9,6.4s5.5,2.2,8.8,2.2s6-0.5,7.9-2c0.7-0.5,1.5-1.1,2.1-1.7l0.1,3.2h5.2v-18.8h-16.9v5.3h11.3
		c-0.1,1.5-0.4,2.8-1,4c-0.6,1.3-1.7,2.4-3.1,3.3c-1.5,0.9-3.3,1.3-5.5,1.3c-3.5,0-6.1-1.1-8.1-3.3c-2-2.2-3-5.4-3-9.4
		c0-2.7,0.5-5,1.5-6.9C106.2,728.1,107.5,726.7,109.2,725.7z"/>
	<polygon class="st0" points="-165.5,684.7 -183.2,684.7 -183.2,670 -189,670 -189,705.2 -183.2,705.2 -183.2,690 -165.5,690 
		-165.5,705.2 -159.7,705.2 -159.7,670 -165.5,670 	"/>
	<path class="st0" d="M-106.6,670h-2.5l-0.1-0.2l-0.1,0.2h-2.6l-13.7,33v-3.1h-21.2V690h16.2v-5.3h-16.2v-9.2h20.4V670h-26.2v35.2
		h26.1h0.9h5.2l4.2-10h13.9l4.2,10h6.2L-106.6,670z M-113.9,689.9l4.7-11.4l4.8,11.4H-113.9z"/>
	<polygon class="st0" points="-63.8,699.9 -83.9,699.9 -83.9,670 -89.7,670 -89.7,705.2 -63.8,705.2 	"/>
	<polygon class="st0" points="-59.5,705.2 -53.7,705.2 -53.7,675.4 -41.4,675.4 -41.4,670 -71.8,670 -71.8,675.4 -59.5,675.4 	"/>
	<polygon class="st0" points="-14.8,705.2 -9,705.2 -9,670 -14.8,670 -14.8,684.7 -32.5,684.7 -32.5,670 -38.3,670 -38.3,705.2 
		-32.5,705.2 -32.5,690 -14.8,690 	"/>
	<polygon class="st0" points="17.9,670 8.5,686 -0.7,670 -7.4,670 5.7,691.7 5.7,705.2 11.4,705.2 11.4,691.7 24.5,670 	"/>
	<polygon class="st0" points="99.3,705.2 99.3,670 93.5,670 93.5,684.7 75.8,684.7 75.8,670 70,670 70,705.2 75.8,705.2 75.8,690 
		93.5,690 93.5,705.2 	"/>
	<path class="st0" d="M118.9,670l-0.1-0.2l-0.1,0.2h-2.6l-14.6,35.2h6l4.2-10h13.9l4.2,10h6.2L121.4,670H118.9z M114,689.9l4.7-11.4
		l4.8,11.4H114z"/>
	<path class="st0" d="M160.6,672.9c-2.3-1.9-5.5-2.9-9.4-2.9h-13v35.2h5.8V692h7.2c3.9,0,7.1-1,9.4-2.9c2.4-1.9,3.6-4.6,3.6-8
		C164.2,677.6,163,674.9,160.6,672.9z M156.8,685.2c-1.3,1-3.1,1.5-5.6,1.5h-7.1v-11.1h7.2c2.4,0,4.3,0.5,5.5,1.5
		c1.1,0.9,1.7,2.3,1.7,4.1C158.5,682.9,158,684.3,156.8,685.2z"/>
	<path class="st0" d="M190.7,672.9c-2.3-1.9-5.5-2.9-9.4-2.9h-13v35.2h5.8V692h7.2c3.9,0,7.1-1,9.4-2.9c2.4-1.9,3.6-4.6,3.6-8
		C194.3,677.6,193.1,674.9,190.7,672.9z M186.9,685.2c-1.3,1-3.1,1.5-5.6,1.5h-7.1v-11.1h7.2c2.4,0,4.3,0.5,5.5,1.5
		c1.1,0.9,1.7,2.3,1.7,4.1C188.6,682.9,188.1,684.3,186.9,685.2z"/>
	<polygon class="st0" points="217.4,670 208,686 198.8,670 192.1,670 205.1,691.7 205.1,705.2 210.9,705.2 210.9,691.7 224,670 	"/>
	<path class="st0" d="M56,698.7c-0.7-0.4-1.5-1.1-2.5-2.1c0.8-1.3,1.5-2.8,1.9-4.4c0.4-1.7,0.6-3.5,0.6-5.4v-0.4l-2.8-0.6v0.6
		c0.1,3.3-0.5,6-1.7,8.1c-0.8-0.9-2.1-2.4-3.6-4.2l-2.4-2.9c2.1-1.2,3.7-2.4,4.5-3.5c0.9-1.3,1.4-2.7,1.4-4.3c0-1.8-0.6-3.2-1.9-4.2
		c-1.2-1-2.9-1.5-4.8-1.5c-2,0-3.7,0.5-4.9,1.7S38,678.2,38,680c0,1.1,0.3,2.1,0.8,3.1c0.5,0.9,1.3,2,2.4,3.4
		c-2.2,1.2-3.9,2.4-4.9,3.6c-1.2,1.3-1.8,2.9-1.8,4.8c0,2.1,0.8,3.8,2.5,5s3.8,1.8,6.3,1.8c3.4,0,6.2-1,8.4-3.1
		c1.2,1.1,2.1,1.8,3,2.3c1,0.5,2.1,0.8,3.2,0.8h0.4l0.6-2.5h-0.6C57.5,699.2,56.7,699.1,56,698.7z M42.9,688.5l2.9,3.4
		c1.5,1.8,2.8,3.3,4,4.6c-1.7,1.6-3.9,2.4-6.5,2.4c-1.6,0-3-0.4-4.1-1.2c-1.1-0.8-1.6-1.8-1.6-3.1s0.4-2.3,1.2-3.2
		S41,689.5,42.9,688.5z M43.8,685.1c-1.2-1.4-1.9-2.5-2.2-3.1c-0.3-0.6-0.5-1.3-0.5-2.1c0-1,0.3-1.8,1-2.4c0.7-0.6,1.6-1,2.8-1
		c1.1,0,2.1,0.3,2.7,0.8c0.6,0.5,0.9,1.3,0.9,2.2c0,1-0.3,2-1,2.8C46.9,683.2,45.6,684.1,43.8,685.1z"/>
	<path class="st0" d="M-23.1,628.2L-23.1,628.2c12.2,5.8,26,9,40.5,9c0.5,0,1,0,1.4,0V516.4l32.9,16.3v25
		c-5.1,2.7-11.7,2.2-16.1-1.6c-3.7-3.3-7.8-6.1-12.1-8.2v8.3c2.3,1.4,4.5,3,6.5,4.9c5.9,5.3,14.3,6.8,21.7,4.5v7.4
		c-9.4,2.1-19.9-0.1-27.2-6.8c-0.3-0.3-0.7-0.6-1-0.9v9.4c8.3,5.4,18.6,7.2,28.2,5.6v7.2c-9.6,1.3-19.5-0.2-28.2-4.4v7.9
		c8.9,3.6,18.7,4.8,28.2,3.7v36c1.1-0.4,2.2-0.9,3.3-1.3v0.2l1.5-0.7c30.8-13.8,50-42.4,50-74.2c0-45.9-39.9-83.3-89-83.3
		s-89,37.4-89,83.3C-71.5,586.5-54.3,614.2-23.1,628.2z M57.9,578.7C57.9,578.7,58,578.7,57.9,578.7l0.1-7.8c0,0-0.1,0-0.1,0v-8.4
		c0,0,0.1,0,0.1-0.1l-0.1-0.1v-7.3l0.2-0.1c-0.1,0-0.1,0-0.2,0v-25.3l-42.5-21.2L-23,528.7v14.4c12-3.1,25-2.4,36.5,2.3v8
		c-11.1-5.5-24.6-6.5-36.5-2.9v7.8c11.8-4.7,25.7-3.5,36.5,3.5v9.5c-0.4-0.3-0.8-0.6-1.2-1c-9.6-8.6-24.2-9.9-35.3-3.9v6.4
		c9-4.6,21.1-3.8,29,2.6c2.3,1.9,4.8,3.6,7.4,5v8.3c-4.9-2.1-9.5-4.9-13.7-8.3c-1.3-1.1-2.8-1.9-4.4-2.4c-3-1.1-6.4-1.3-9.5-0.6
		c-1.6,0.3-3.1,0.9-4.5,1.6c-1.5,0.8-2.8,1.8-4.4,2.4v40.7c-26.2-13.8-42.2-39.3-42.2-67.4c0-42.7,37.3-77.5,83-77.5
		s83,34.8,83,77.5c0,28.3-16.3,53.9-42.7,67.7c0,0-0.1,0-0.1,0.1v-32.5l0.1-3.7c0,0-0.1,0-0.1,0V578.7z"/>
	<path class="st0" d="M-28.5,545.2c-8.2,2.2-15.9,6.1-22.4,12c-1.6,1.4-1.6,3.7-0.1,5.1c1.5,1.4,4.1,1.3,5.7-0.1
		c5-4.5,10.9-7.8,17.2-9.7L-28.5,545.2z"/>
	<path class="st0" d="M-28.4,559.5c-4.1,1.6-7.9,3.9-11.2,6.9l-0.1,0.1c-1.6,1.4-1.6,3.7-0.1,5.1c1.5,1.4,4.1,1.3,5.7-0.1l0.1-0.1
		c1.7-1.5,3.5-2.8,5.5-3.9L-28.4,559.5z"/>
	<path class="st0" d="M-30.9,577c-1.7,1.5-1.7,3.7,0,5.1c1.1,0.9,2.6,1.2,4.1,0.9l-0.3-8.5C-28.4,575.2-29.7,576-30.9,577z"/>
	<path class="st0" d="M63.7,559.3c1.6-1.4,1.6-3.8,0.1-5.1c-0.5-0.5-1.1-0.8-1.8-0.9l-0.1,7.4c0.6-0.4,1.1-0.9,1.7-1.3L63.7,559.3z"
		/>
	<path class="st0" d="M74.9,569c1.6-1.4,1.6-3.7,0.1-5.1c-1.5-1.4-4.1-1.3-5.7,0.1l-0.2,0.2c-2.2,2-4.6,3.6-7.2,4.8v7.7
		c4.7-1.6,9-4.1,12.8-7.5L74.9,569z"/>
	<path class="st0" d="M86.1,580.4c1.6-1.4,1.6-3.7,0.1-5.1c-1.5-1.4-4.1-1.3-5.7,0.1l-0.1,0.1c-5.3,4.8-11.6,8.2-18.3,10l-0.2,7.4
		C70.7,590.9,79.1,586.7,86.1,580.4L86.1,580.4z"/>
</g>
</svg>
