<?xml version="1.0" encoding="utf-8"?>
<!-- Generator: Adobe Illustrator 19.0.0, SVG Export Plug-In . SVG Version: 6.00 Build 0)  -->
<svg version="1.1" id="Capa_1" xmlns="http://www.w3.org/2000/svg" xmlns:xlink="http://www.w3.org/1999/xlink" x="0px" y="0px"
	 viewBox="-267.3 479.3 307.7 267.7" style="enable-background:new -267.3 479.3 307.7 267.7;" xml:space="preserve">
<style type="text/css">
	.st0{fill:url(#SVGID_1_);}
	.st1{fill:url(#SVGID_2_);}
	.st2{fill:url(#SVGID_3_);}
	.st3{fill:url(#SVGID_4_);}
	.st4{fill:#4DB9A8;}
	.st5{opacity:0.51;}
	.st6{fill:#453C9E;}
	.st7{fill:url(#SVGID_5_);}
	.st8{fill:url(#SVGID_6_);}
	.st9{fill:#ADB1F2;}
	.st10{fill:#9198DB;}
	.st11{fill:url(#SVGID_7_);}
	.st12{opacity:0.11;enable-background:new    ;}
	.st13{clip-path:url(#SVGID_10_);}
	.st14{fill:url(#SVGID_12_);}
	.st15{fill:url(#SVGID_13_);}
	.st16{fill:#24126A;}
	.st17{fill:none;stroke:#4DB9A8;stroke-miterlimit:10;}
	.st18{enable-background:new    ;}
	.st19{fill:#464241;}
	.st20{fill:#C2C9CA;}
	.st21{fill:#C1C1C1;}
	.st22{fill:#2A2726;}
	.st23{fill:#11202D;}
	.st24{fill:#989898;}
	.st25{clip-path:url(#SVGID_15_);}
	.st26{fill:#D5DDDE;}
	.st27{fill:#151B1F;}
	.st28{fill:#34414C;}
	.st29{fill:#414D57;}
	.st30{fill:#293742;}
	.st31{fill:#9F9F9F;}
	.st32{clip-path:url(#SVGID_17_);}
	.st33{fill:#B4DBE5;}
	.st34{clip-path:url(#SVGID_19_);}
	.st35{clip-path:url(#SVGID_20_);}
	.st36{clip-path:url(#SVGID_21_);}
	.st37{clip-path:url(#SVGID_22_);}
	.st38{fill:#0A141D;}
</style>
<title>analítica y ciencia de datos</title>
<g>
	
		<linearGradient id="SVGID_1_" gradientUnits="userSpaceOnUse" x1="469.3954" y1="650.445" x2="578.015" y2="650.445" gradientTransform="matrix(-1 0 0 -1 397.0624 1228.6)">
		<stop  offset="0" style="stop-color:#5761D7"/>
		<stop  offset="7.257640e-002" style="stop-color:#5472D8"/>
		<stop  offset="0.2791" style="stop-color:#4E9CDB"/>
		<stop  offset="0.4801" style="stop-color:#49BDDD"/>
		<stop  offset="0.6715" style="stop-color:#45D5DF"/>
		<stop  offset="0.8493" style="stop-color:#43E3E0"/>
		<stop  offset="1" style="stop-color:#42E8E0"/>
	</linearGradient>
	<path class="st0" d="M-73.1,609.8l-107.6-62.3c-0.3-0.1-0.3-0.4-0.2-0.7c0.1-0.3,0.4-0.4,0.7-0.2l107.6,62.3
		c0.3,0.1,0.3,0.4,0.2,0.7c-0.1,0.2-0.3,0.3-0.5,0.3C-73,609.9-73.1,609.9-73.1,609.8z"/>
	<g>
		<g>
			<g>
				<g>
					
						<linearGradient id="SVGID_2_" gradientUnits="userSpaceOnUse" x1="389.8552" y1="547.1431" x2="601.5552" y2="547.1431" gradientTransform="matrix(-1 0 0 -1 397.0624 1228.6)">
						<stop  offset="0" style="stop-color:#42E8E0"/>
						<stop  offset="0.1507" style="stop-color:#43E3E0"/>
						<stop  offset="0.3285" style="stop-color:#45D5DF"/>
						<stop  offset="0.5199" style="stop-color:#49BDDD"/>
						<stop  offset="0.7209" style="stop-color:#4E9CDB"/>
						<stop  offset="0.9274" style="stop-color:#5472D8"/>
						<stop  offset="1" style="stop-color:#5761D7"/>
					</linearGradient>
					<path class="st1" d="M-77.8,741.5L-203.4,669c-0.7-0.4-1.1-1.1-1.1-1.9c0-0.8,0.4-1.5,1.1-1.9l78-45.1l0.3-0.1L6.1,695.7
						c0.7,0.4,1.1,1.1,1.1,1.9c0,0.8-0.4,1.5-1.1,1.9l-72.7,42c-1.7,1-3.7,1.5-5.6,1.5C-74.1,743-76.1,742.5-77.8,741.5z
						 M-202.9,666.1c-0.4,0.2-0.6,0.6-0.6,1s0.2,0.8,0.6,1l125.6,72.5c3.2,1.8,7.1,1.8,10.2,0l72.7-42c0.4-0.2,0.6-0.6,0.6-1
						s-0.2-0.8-0.6-1l-130.7-75.4L-202.9,666.1z"/>
				</g>
				<g>
					<g>
						
							<linearGradient id="SVGID_3_" gradientUnits="userSpaceOnUse" x1="360.8272" y1="649.4999" x2="522.2859" y2="649.4999" gradientTransform="matrix(-1 0 0 -1 397.0624 1228.6)">
							<stop  offset="0" style="stop-color:#C0BFF6"/>
							<stop  offset="0.2938" style="stop-color:#C5C4F7"/>
							<stop  offset="0.6399" style="stop-color:#D3D2F9"/>
							<stop  offset="1" style="stop-color:#E9E9FD"/>
						</linearGradient>
						<path class="st2" d="M-123.5,592.8l139,80.2h-0.1l0.4,1.9l2.1-1.2l0,0c0.3-0.2,0.6-0.6,0.7-1.1L36.2,568
							c0.2-1.2-0.7-2.9-1.8-3.6l-139.8-80.7c-0.6-0.4-1.2-0.4-1.6-0.1l0,0l-2.1,1.2l1.4,0.6l-17.5,103.8
							C-125.4,590.4-124.6,592.1-123.5,592.8z"/>
						
							<linearGradient id="SVGID_4_" gradientUnits="userSpaceOnUse" x1="360.7847" y1="608.0431" x2="388.5222" y2="608.0431" gradientTransform="matrix(-1 0 0 -1 397.0624 1228.6)">
							<stop  offset="0" style="stop-color:#5761D7"/>
							<stop  offset="0.1779" style="stop-color:#5C66D9"/>
							<stop  offset="0.3876" style="stop-color:#6A73DF"/>
							<stop  offset="0.6134" style="stop-color:#8289E8"/>
							<stop  offset="0.849" style="stop-color:#A3A7F5"/>
							<stop  offset="1" style="stop-color:#BCBEFF"/>
						</linearGradient>
						<path class="st3" d="M8.5,668.9l7,4.1h-0.1l0.4,1.9l2.1-1.2l0,0c0.3-0.2,0.6-0.6,0.7-1.1L36.2,568c0.1-0.5,0-1.1-0.3-1.7
							l-2.3,1L8.5,668.9z"/>
						<path class="st4" d="M-127.4,590.5l17.6-104.6c0.2-1.2,1.1-1.5,2.2-0.9l139.8,80.7c1.1,0.7,2,2.4,1.8,3.6L16.4,673.8
							c-0.2,1.2-1.1,1.5-2.2,0.9L-125.6,594C-126.8,593.3-127.6,591.6-127.4,590.5z"/>
						<g class="st5">
							<polygon class="st6" points="-122.4,590.2 12.3,668 29,569.5 -105.8,491.7 							"/>
						</g>
					</g>
					<g>
						
							<linearGradient id="SVGID_5_" gradientUnits="userSpaceOnUse" x1="382.4552" y1="561.443" x2="610.5552" y2="561.443" gradientTransform="matrix(-1 0 0 -1 397.0624 1228.6)">
							<stop  offset="0" style="stop-color:#5761D7"/>
							<stop  offset="0.1779" style="stop-color:#5C66D9"/>
							<stop  offset="0.3876" style="stop-color:#6A73DF"/>
							<stop  offset="0.6134" style="stop-color:#8289E8"/>
							<stop  offset="0.849" style="stop-color:#A3A7F5"/>
							<stop  offset="1" style="stop-color:#BCBEFF"/>
						</linearGradient>
						<path class="st7" d="M-210.8,651.6L-210.8,651.6c0.1,0.4,0.5,0.8,1.1,1.2l135.1,78c1.5,0.8,3.7,0.9,5,0.2L11,684.5
							c0.4-0.3,0.7-0.6,0.8-0.9l0,0l2.8-7.3c0,0-5.7,2.8-7,3.5l-132-76.2c-1.5-0.8-3.7-0.9-5-0.2l-76.5,44.2l-7.6-4L-210.8,651.6z"
							/>
						
							<linearGradient id="SVGID_6_" gradientUnits="userSpaceOnUse" x1="459.0856" y1="569.093" x2="687.3431" y2="569.093" gradientTransform="matrix(-1 0 0 -1 397.0624 1228.6)">
							<stop  offset="0" style="stop-color:#C0BFF6"/>
							<stop  offset="0.2938" style="stop-color:#C5C4F7"/>
							<stop  offset="0.6399" style="stop-color:#D3D2F9"/>
							<stop  offset="1" style="stop-color:#E9E9FD"/>
						</linearGradient>
						<path class="st8" d="M-212.7,641.9l82.6-47.7c1.3-0.8,3.6-0.7,5.1,0.2l138.4,79.8c1.5,0.9,1.7,2.2,0.4,3l-82.6,47.7
							c-1.3,0.8-3.6,0.7-5.1-0.2l-138.4-79.9C-213.9,643.9-214,642.6-212.7,641.9z"/>
						<path class="st9" d="M-7.7,674.3l-41,23.7c-0.8,0.4-1.7,0.4-2.5,0l-115-66.4c-0.6-0.3-0.6-1.2,0-1.5l41-23.7
							c0.8-0.4,1.7-0.4,2.5,0l115,66.4C-7.2,673.1-7.2,674-7.7,674.3z"/>
						<path class="st10" d="M-7.6,672.8l-115-66.4c-0.8-0.4-1.7-0.4-2.5,0l-41,23.7c-0.6,0.3-0.6,1.2,0,1.5l0.4,0.2l40.5-23.5
							c0.8-0.4,1.7-0.4,2.5,0l114.6,66.2l0.4-0.2C-7.2,674-7.2,673.1-7.6,672.8z"/>
						<g>
							<polygon class="st4" points="-123.9,609.8 -24,667.5 -28.4,670.1 -128.3,612.4 							"/>
							<polygon class="st4" points="-134.8,616.1 -41.1,670.2 -45.5,672.8 -139.2,618.7 							"/>
							<polygon class="st4" points="-141.9,620.2 -31.5,683.9 -36,686.5 -146.3,622.8 							"/>
							<polygon class="st4" points="-149,624.3 -38.6,688 -43.1,690.6 -153.4,626.9 							"/>
							<polygon class="st4" points="-156.1,628.4 -45.7,692.1 -50.2,694.7 -160.5,630.9 							"/>
							<polygon class="st4" points="-17.9,671 -13.5,673.5 -17.9,676.1 -22.4,673.5 							"/>
							<polygon class="st4" points="-33.6,674.5 -24.4,679.8 -28.8,682.4 -38.1,677.1 							"/>
						</g>
						
							<linearGradient id="SVGID_7_" gradientUnits="userSpaceOnUse" x1="497.7552" y1="556.143" x2="556.1552" y2="556.143" gradientTransform="matrix(-1 0 0 -1 397.0624 1228.6)">
							<stop  offset="0" style="stop-color:#C0BFF6"/>
							<stop  offset="0.2938" style="stop-color:#C5C4F7"/>
							<stop  offset="0.6399" style="stop-color:#D3D2F9"/>
							<stop  offset="1" style="stop-color:#E9E9FD"/>
						</linearGradient>
						<path class="st11" d="M-122.8,688.8l21.2-12.2c1.2-0.7,1.2-1.8,0-2.5l-31-17.9c-1.2-0.7-3.2-0.7-4.4,0l-21.2,12.2
							c-1.2,0.7-1.2,1.8,0,2.5l31,17.9C-126,689.5-124,689.5-122.8,688.8z"/>
						<path class="st10" d="M-100.8,675.9c0.3-0.6,0-1.3-0.8-1.8l-31-17.9c-1.2-0.7-3.2-0.7-4.4,0l-21.2,12.1
							c-0.9,0.5-1.1,1.2-0.8,1.8c0.2-0.2,0.4-0.5,0.8-0.7l21.2-12.2c1.2-0.7,3.2-0.7,4.4,0l31,17.9
							C-101.2,675.3-101,675.6-100.8,675.9z"/>
					</g>
				</g>
				<g class="st12">
					<g>
						<defs>
							<polygon id="SVGID_8_" points="-122.4,590.2 12.3,668 29,569.5 -105.8,491.7 							"/>
						</defs>
						<clipPath id="SVGID_10_">
							<use xlink:href="#SVGID_8_"  style="overflow:visible;"/>
						</clipPath>
						<g class="st13">
							
								<linearGradient id="SVGID_12_" gradientUnits="userSpaceOnUse" x1="371.8728" y1="619.743" x2="600.0968" y2="619.743" gradientTransform="matrix(-1 0 0 -1 397.0624 1228.6)">
								<stop  offset="0" style="stop-color:#C0BFF6"/>
								<stop  offset="0.2938" style="stop-color:#C5C4F7"/>
								<stop  offset="0.6399" style="stop-color:#D3D2F9"/>
								<stop  offset="1" style="stop-color:#E9E9FD"/>
							</linearGradient>
							<path class="st14" d="M-125.5,591.2l82.6-47.7c1.3-0.8,3.6-0.7,5.1,0.2l138.4,79.9c1.5,0.9,1.7,2.2,0.4,3l-82.6,47.7
								c-1.3,0.8-3.6,0.7-5.1-0.2l-138.4-79.9C-126.6,593.3-126.8,592-125.5,591.2z"/>
							
								<linearGradient id="SVGID_13_" gradientUnits="userSpaceOnUse" x1="356.8552" y1="636.4431" x2="415.2552" y2="636.4431" gradientTransform="matrix(-1 0 0 -1 397.0624 1228.6)">
								<stop  offset="0" style="stop-color:#C0BFF6"/>
								<stop  offset="0.2938" style="stop-color:#C5C4F7"/>
								<stop  offset="0.6399" style="stop-color:#D3D2F9"/>
								<stop  offset="1" style="stop-color:#E9E9FD"/>
							</linearGradient>
							<path class="st15" d="M18.1,608.5l21.2-12.2c1.2-0.7,1.2-1.8,0-2.5l-31-17.9c-1.2-0.7-3.2-0.7-4.4,0l-21.2,12.2
								c-1.2,0.7-1.2,1.8,0,2.5l31,17.9C14.9,609.2,16.9,609.2,18.1,608.5z"/>
							<path class="st10" d="M40.1,595.5c0.3-0.6,0-1.3-0.8-1.8l-31-17.9c-1.2-0.7-3.2-0.7-4.4,0L-17.3,588
								c-0.9,0.5-1.1,1.2-0.8,1.8c0.2-0.2,0.4-0.5,0.8-0.7l21.2-12.2c1.2-0.7,3.2-0.7,4.4,0l31,17.9C39.7,595,39.9,595.3,40.1,595.5
								z"/>
							<g>
								<path class="st9" d="M52.9,638l-41,23.7c-0.8,0.4-1.7,0.4-2.5,0l-115-66.4c-0.6-0.3-0.6-1.2,0-1.5l41-23.7
									c0.8-0.4,1.7-0.4,2.5,0l115,66.4C53.5,636.9,53.5,637.7,52.9,638z"/>
								<path class="st10" d="M53,636.5l-115-66.4c-0.8-0.4-1.7-0.4-2.5,0l-41,23.7c-0.6,0.3-0.6,1.2,0,1.5l0.4,0.2l40.5-23.5
									c0.8-0.4,1.7-0.4,2.5,0l114.6,66.2l0.4-0.2C53.5,637.7,53.5,636.9,53,636.5z"/>
								<g>
									<polygon class="st16" points="-98.8,594.5 1.4,652.3 5.4,650 -94.8,592.2 									"/>
									<polygon class="st16" points="-88.2,588.4 7,643.4 11,641.1 -84.3,586.1 									"/>
									<polygon class="st16" points="14.1,647.5 23,652.6 27,650.3 18.1,645.2 									"/>
									<polygon class="st16" points="6.3,655.1 12.5,658.7 16.4,656.4 10.2,652.8 									"/>
									<polygon class="st16" points="-81.6,584.6 29.6,648.8 33.6,646.5 -77.6,582.3 									"/>
									<polygon class="st16" points="-75,580.8 36.3,645 40.2,642.7 -71,578.5 									"/>
									<polygon class="st16" points="-68.4,576.9 42.9,641.2 46.8,638.9 -64.4,574.6 									"/>
								</g>
							</g>
						</g>
					</g>
				</g>
			</g>
		</g>
	</g>
</g>
<polyline class="st17" points="364.6,360.6 364.6,405.9 480.6,437.3 480.6,422.6 "/>
<g>
	<g>
		<g class="st18">
			<g>
				<polygon class="st19" points="500.7,449.2 463.3,441.1 465.6,435.3 503,443.4 				"/>
			</g>
			<path class="st20" d="M530.5,423.7C530.5,423.7,530.5,423.7,530.5,423.7c0-0.2,0-0.3,0-0.4c0-0.1,0-0.1,0-0.2c0,0,0,0,0,0
				c0-0.2,0-0.3,0-0.5c0,0,0,0,0-0.1c0,0,0,0,0-0.1c0-0.1-0.1-0.3-0.1-0.4c0,0,0-0.1,0-0.1c0-0.1-0.1-0.3-0.1-0.4c0,0,0-0.1,0-0.1
				c-0.1-0.1-0.1-0.3-0.2-0.4l-16.9-33l-37.4-8.1l16.9,33c0.1,0.1,0.1,0.3,0.2,0.4c0,0,0,0.1,0,0.1c0,0.1,0.1,0.2,0.1,0.4
				c0,0,0,0.1,0,0.1c0,0.2,0.1,0.3,0.1,0.5c0,0,0,0,0,0.1c0,0.2,0,0.3,0.1,0.5c0,0.1,0,0.1,0,0.2c0,0.1,0,0.3,0,0.4
				c0,0.1,0,0.1,0,0.2c0,0.1,0,0.3,0,0.4c0,0.1,0,0.1,0,0.2c0,0.2,0,0.4-0.1,0.6c0,0,0,0,0,0.1c0,0.2-0.1,0.4-0.1,0.6
				c0,0.1-0.1,0.2-0.1,0.3c-0.1,0.2-0.1,0.3-0.2,0.5c0,0,0,0,0,0.1c0,0.1-0.1,0.2-0.1,0.3c0,0,0,0,0,0c0,0.1-0.1,0.2-0.1,0.3
				c0,0,0,0.1,0,0.1c0,0.1-0.1,0.1-0.1,0.2c0,0,0,0.1-0.1,0.1c0,0.1-0.1,0.1-0.1,0.2c0,0,0,0.1-0.1,0.1c0,0.1-0.1,0.1-0.1,0.2
				c0,0,0,0.1-0.1,0.1c0,0.1-0.1,0.1-0.1,0.2c0,0,0,0.1-0.1,0.1c0,0.1-0.1,0.1-0.1,0.2c0,0,0,0,0,0.1c-0.1,0.1-0.1,0.1-0.2,0.2
				c0,0,0,0,0,0c0,0-0.1,0.1-0.1,0.1c0,0,0,0-0.1,0.1c0,0-0.1,0.1-0.1,0.1c0,0,0,0-0.1,0.1c-0.1,0.1-0.2,0.1-0.3,0.2
				c0,0-0.1,0.1-0.1,0.1l-24.8,14l37.4,8.1l24.8-14c0,0,0,0,0,0c0,0,0.1-0.1,0.1-0.1c0.1-0.1,0.2-0.1,0.3-0.2c0,0,0,0,0,0
				c0,0,0,0,0,0c0,0,0.1-0.1,0.1-0.1c0,0,0,0,0.1-0.1c0,0,0.1-0.1,0.1-0.1c0,0,0,0,0,0c0.1-0.1,0.1-0.1,0.2-0.2c0,0,0,0,0-0.1
				c0-0.1,0.1-0.1,0.1-0.2c0,0,0-0.1,0.1-0.1c0-0.1,0.1-0.1,0.1-0.2c0,0,0-0.1,0.1-0.1c0-0.1,0.1-0.1,0.1-0.2c0,0,0-0.1,0.1-0.1
				c0-0.1,0.1-0.1,0.1-0.2c0,0,0-0.1,0.1-0.1c0-0.1,0.1-0.1,0.1-0.2c0,0,0,0,0-0.1c0,0,0,0,0,0c0-0.1,0.1-0.2,0.1-0.3c0,0,0,0,0,0
				c0-0.1,0.1-0.2,0.1-0.3c0,0,0,0,0,0c0,0,0,0,0,0c0.1-0.2,0.1-0.3,0.2-0.5c0,0,0,0,0,0c0-0.1,0.1-0.2,0.1-0.3c0-0.1,0-0.1,0-0.2
				c0-0.1,0.1-0.3,0.1-0.4c0,0,0,0,0-0.1c0,0,0,0,0,0c0-0.2,0.1-0.3,0.1-0.5c0,0,0-0.1,0-0.1c0-0.1,0-0.1,0-0.2c0-0.1,0-0.1,0-0.2
				c0-0.1,0-0.1,0-0.2C530.5,423.9,530.5,423.8,530.5,423.7z"/>
			<g>
				<polygon class="st21" points="513.1,388.1 475.7,380 477.7,375.4 515.1,383.5 				"/>
			</g>
			<g>
				<path class="st22" d="M515.1,383.5l16.9,33c1.3,2.5,1.5,6.1,0.5,9.7c-0.9,3.5-2.7,6.3-4.8,7.6c-0.1,0.1-0.2,0.1-0.3,0.2
					l-26.7,15.2l2.3-5.8l24.8-14c0,0,0.1-0.1,0.1-0.1c1-0.6,1.9-2,2.3-3.6c0.4-1.7,0.4-3.5-0.3-4.6l-16.9-33L515.1,383.5z"/>
			</g>
		</g>
	</g>
	<g>
		<g class="st18">
			<g>
				<path class="st22" d="M573.9,428.3c0,0,0-0.1,0-0.1c0,0,0,0,0,0l-3.3,0.9c0,0.1,0,0.2,0,0.2c0,0,0,0,0,0c0,0.1,0,0.1,0,0.2
					c0,0,0,0,0,0c0,0.1,0,0.1,0,0.2c0,0,0,0,0,0c0,0.1,0,0.1,0,0.2c0,0,0,0,0,0c0,0.1,0,0.1-0.1,0.2c0,0,0,0,0,0
					c0,0.1,0,0.1-0.1,0.2c0,0,0,0,0,0c0,0,0,0.1-0.1,0.1c0,0,0,0,0,0c0,0,0,0.1-0.1,0.1c0,0,0,0,0,0c0,0-0.1,0.1-0.1,0.1
					c0,0,0,0,0,0c0,0,0,0,0,0c0,0.1-0.1,0.1-0.1,0.2c0,0,0,0,0,0c0,0-0.1,0.1-0.1,0.1c0,0,0,0,0,0c-0.1,0.1-0.1,0.1-0.2,0.1
					c0,0,0,0,0,0c-0.1,0-0.1,0.1-0.2,0.1c0,0,0,0-0.1,0c-0.1,0-0.1,0.1-0.2,0.1l3.3-0.9c0.1,0,0.1,0,0.2-0.1c0,0,0,0,0.1,0
					c0.1,0,0.1-0.1,0.2-0.1c0,0,0,0,0,0c0.1,0,0.1-0.1,0.2-0.1c0,0,0,0,0,0c0,0,0.1-0.1,0.1-0.1c0,0,0,0,0,0c0,0,0,0,0,0
					c0-0.1,0.1-0.1,0.1-0.2c0,0,0,0,0,0c0,0,0,0,0,0c0,0,0,0,0,0c0,0,0.1-0.1,0.1-0.1c0,0,0,0,0,0c0,0,0,0,0,0c0,0,0-0.1,0.1-0.1
					c0,0,0,0,0,0c0,0,0,0,0,0c0,0,0,0,0-0.1c0,0,0-0.1,0-0.1c0,0,0,0,0,0c0,0,0,0,0,0c0,0,0-0.1,0-0.1c0,0,0,0,0,0c0,0,0,0,0,0
					c0,0,0,0,0-0.1c0,0,0-0.1,0-0.1c0,0,0,0,0,0c0,0,0,0,0,0c0,0,0-0.1,0-0.1c0,0,0-0.1,0-0.1c0,0,0,0,0,0c0,0,0,0,0,0
					c0,0,0-0.1,0-0.1c0,0,0,0,0-0.1c0,0,0,0,0,0c0,0,0,0,0,0c0,0,0-0.1,0-0.1c0,0,0,0,0,0C573.9,428.3,573.9,428.3,573.9,428.3
					C573.9,428.3,573.9,428.3,573.9,428.3z"/>
				<path class="st23" d="M569.2,308.3c0,0.1,0,0.2,0,0.3c0,0,0,0,0,0c0,0.1,0,0.2,0,0.3l1.4,120.1l3.3-0.9L572.5,308
					c0,0,0-0.1,0-0.1c0-0.1,0-0.1,0-0.2c0,0,0,0,0,0c0,0,0,0,0,0c0,0,0-0.1,0-0.1c0-0.1,0-0.1,0-0.2c0,0,0,0,0,0c0,0,0,0,0,0
					c0-0.1,0-0.1,0-0.2c0,0,0-0.1,0-0.1c0,0,0,0,0-0.1c0,0,0,0,0,0c0,0,0-0.1,0-0.1c0,0,0-0.1,0-0.1c0,0,0,0,0,0c0,0,0,0,0,0
					c0-0.1-0.1-0.3-0.1-0.4c0,0,0,0,0-0.1c-0.1-0.1-0.1-0.3-0.2-0.4c0,0,0,0,0,0c0,0,0,0,0-0.1c0-0.1-0.1-0.1-0.1-0.1c0,0,0,0,0-0.1
					c0,0,0-0.1-0.1-0.1c0,0,0-0.1-0.1-0.1c0,0,0,0,0,0c0-0.1-0.1-0.1-0.1-0.2c0,0,0,0,0,0c0,0,0,0,0,0c0,0-0.1-0.1-0.1-0.1
					c0,0-0.1,0-0.1-0.1c0,0,0,0,0,0c0,0,0,0,0,0c0,0-0.1-0.1-0.1-0.1c0,0,0,0-0.1-0.1c0,0,0,0,0,0c0,0,0,0,0,0c0,0-0.1-0.1-0.1-0.1
					c0,0-0.1,0-0.1-0.1c0,0,0,0,0,0c0,0,0,0,0,0c0,0-0.1,0-0.1-0.1c0,0-0.1,0-0.1-0.1c0,0,0,0,0,0c0,0,0,0,0,0c0,0,0,0-0.1,0
					c0,0-0.1,0-0.1,0c0,0,0,0,0,0c0,0,0,0,0,0c0,0,0,0,0,0c0,0-0.1,0-0.1,0c0,0-0.1,0-0.1,0L431,272.1c0,0,0,0,0,0c0,0-0.1,0-0.1,0
					c0,0,0,0-0.1,0c0,0,0,0,0,0c0,0,0,0,0,0c0,0-0.1,0-0.1,0c0,0,0,0,0,0c0,0,0,0,0,0c0,0,0,0-0.1,0c0,0-0.1,0-0.1,0c0,0,0,0-0.1,0
					c0,0,0,0,0,0c-0.1,0-0.1,0-0.2,0c0,0,0,0,0,0l-3.3,0.9c0.1,0,0.1,0,0.2,0c0,0,0,0,0.1,0c0,0,0.1,0,0.1,0c0,0,0,0,0,0
					c0.1,0,0.1,0,0.2,0c0,0,0,0,0,0c0.1,0,0.1,0,0.2,0l139.1,32.1c0.1,0,0.2,0,0.2,0.1c0,0,0,0,0,0c0.1,0,0.1,0.1,0.2,0.1
					c0,0,0,0,0,0c0.1,0,0.2,0.1,0.2,0.1c0,0,0,0,0,0c0.1,0,0.1,0.1,0.2,0.2c0,0,0,0,0,0c0.1,0.1,0.1,0.1,0.2,0.2c0,0,0,0,0,0
					c0.1,0.1,0.1,0.1,0.2,0.2c0,0,0,0,0,0c0.1,0.1,0.1,0.1,0.2,0.2c0,0,0,0.1,0.1,0.1c0,0,0.1,0.1,0.1,0.1c0,0,0.1,0.1,0.1,0.1
					c0,0,0,0.1,0.1,0.1c0.1,0.1,0.1,0.3,0.2,0.4c0,0,0,0,0,0.1c0.1,0.1,0.1,0.3,0.1,0.4c0,0,0,0,0,0.1c0,0,0,0.1,0,0.1
					c0,0.1,0,0.1,0,0.2c0,0,0,0,0,0.1C569.1,308.1,569.2,308.2,569.2,308.3C569.2,308.2,569.2,308.3,569.2,308.3z"/>
			</g>
			<g>
				<path class="st24" d="M566.8,305.1c1.3,0.3,2.4,2,2.5,3.8l1.4,120.1c0,1.8-1,3-2.4,2.7l-139.1-32.1c-1.3-0.3-2.4-2-2.5-3.8
					l-1.4-120.1c0-1.8,1-3,2.4-2.7L566.8,305.1z"/>
				<g class="st18">
					<defs>
						<path id="SVGID_14_" class="st18" d="M566.8,305.1c1.3,0.3,2.4,2,2.5,3.8l1.4,120.1c0,1.8-1,3-2.4,2.7l-139.1-32.1
							c-1.3-0.3-2.4-2-2.5-3.8l-1.4-120.1c0-1.8,1-3,2.4-2.7L566.8,305.1z"/>
					</defs>
					<clipPath id="SVGID_15_">
						<use xlink:href="#SVGID_14_"  style="overflow:visible;"/>
					</clipPath>
					<g class="st25">
						<path class="st26" d="M491.8,402.8l0-2.3l12.7,2.9l0,2.3L491.8,402.8 M533.1,304.3l30.5,7l1.2,96.2l-132.5-30.6l-1.2-96.2
							l11.6,2.7l3.3,0.8l6.5,1.5l42.5,9.8l6.1,1.4l11.8,2.7l8.4,1.9L533.1,304.3 M566.8,305.1L427.7,273c-1.3-0.3-2.4,0.9-2.4,2.7
							l1.4,120.1c0,1.8,1.1,3.5,2.5,3.8l139.1,32.1c1.3,0.3,2.4-0.9,2.4-2.7l-1.4-120.1C569.2,307.1,568.1,305.4,566.8,305.1"/>
						<polyline class="st23" points="563.6,311.3 533.1,304.3 489.6,390.2 477.8,387.5 521.3,301.6 512.9,299.7 469.4,385.5 
							457.7,382.8 501.2,296.9 495,295.5 451.5,381.4 432.2,376.9 431.6,327 452.6,285.7 446,284.2 431.5,313 431.4,305.8 
							442.7,283.4 431.1,280.8 432.2,376.9 564.7,407.5 563.6,311.3 						"/>
						<polyline class="st27" points="504.4,403.4 491.7,400.5 491.8,402.8 504.5,405.7 504.4,403.4 						"/>
						<polyline class="st28" points="495,295.5 452.6,285.7 431.6,327 432.2,376.9 451.5,381.4 495,295.5 						"/>
						<polyline class="st29" points="446,284.2 442.7,283.4 431.4,305.8 431.5,313 446,284.2 						"/>
						<polyline class="st30" points="512.9,299.7 501.2,296.9 457.7,382.8 469.4,385.5 512.9,299.7 						"/>
						<polyline class="st30" points="533.1,304.3 521.3,301.6 477.8,387.5 489.6,390.2 533.1,304.3 						"/>
					</g>
				</g>
			</g>
		</g>
	</g>
	<g>
		<g>
			<path class="st23" d="M466.1,368.4L466,371l1.8,0.4c0.1,0,0.1,0,0.1,0c0,0,0,0,0.1,0c0,0,0,0,0.1,0c0,0,0,0,0.1,0
				c0,0,0.1,0,0.1,0c0,0,0,0,0,0c0,0,0,0,0,0c0,0,0.1,0,0.1,0c0,0,0,0,0,0c0,0,0,0,0,0c0,0,0,0,0.1,0c0,0,0,0,0.1,0l1.8-0.4
				c0,0-0.1,0-0.1,0c0,0,0,0,0,0c-0.1,0-0.1,0-0.2,0c0,0,0,0,0,0c0,0-0.1,0-0.2,0c0,0,0,0-0.1,0c-0.1,0-0.1,0-0.2,0l-1.8-0.4
				l0.1-2.6L466.1,368.4z"/>
			<path class="st23" d="M485.5,370.2l-1.3-0.3l-1.6,0.3l0-0.7l-1.3-0.3l-1.5,0.3l0-0.7l-1.3-0.3l-1.8,0.4l1.3,0.3l-0.2,5.8
				l-0.6,0.1c0,0.1,0,0.2,0,0.3c0,0,0,0,0,0c0,0.1,0,0.2,0,0.3c0,0,0,0,0,0.1c0,0.1,0,0.2,0,0.2c0,0,0,0,0,0c0,0.1,0,0.2-0.1,0.2
				c0,0,0,0,0,0c0,0.1,0,0.2-0.1,0.2c0,0,0,0,0,0c0,0,0,0.1,0,0.1c0,0,0,0-0.1,0c0,0,0,0,0,0c-0.1,0-0.1,0-0.2,0c0,0,0,0-0.1,0
				c-0.1,0-0.1,0-0.2,0c-0.1,0-0.2,0-0.2-0.1c0,0,0,0,0,0c-0.1,0-0.1,0-0.2-0.1c0,0,0,0,0,0c-0.1,0-0.1-0.1-0.2-0.1c0,0,0,0,0,0
				c-0.1,0-0.1-0.1-0.2-0.1c0,0,0,0,0,0c-0.1,0-0.1-0.1-0.2-0.1c0,0,0,0,0,0c-0.1,0-0.1-0.1-0.2-0.1c0,0,0,0,0,0
				c0,0-0.1-0.1-0.1-0.1c0,0,0,0,0,0c0-0.1-0.1-0.1-0.1-0.2c0-0.1-0.1-0.1-0.1-0.2c-0.1-0.1-0.1-0.2-0.1-0.3c0,0,0-0.1,0-0.1
				c0-0.1,0-0.1,0-0.2c0,0,0-0.1,0-0.1c0,0,0-0.1,0-0.1c0-0.1,0-0.1,0-0.2c0,0,0,0,0-0.1c0-0.1,0-0.1,0-0.2c0,0,0,0,0,0
				c0-0.1,0-0.2,0-0.2c0,0,0-0.1,0-0.1c0-0.1,0-0.2,0-0.2l0.2-6l-1.3-0.3l-1.8,0.4l1.3,0.3l-0.2,5.8l-0.4,0.1c0,0,0-0.1,0-0.1
				c0,0,0,0,0,0c0,0,0,0,0-0.1c0,0,0,0,0-0.1c0,0,0-0.1,0-0.1c0,0,0,0,0-0.1c0,0,0,0,0,0c0-0.1,0-0.1,0-0.2c0,0,0,0,0,0c0,0,0,0,0,0
				c0,0,0,0,0,0c0-0.1,0-0.2-0.1-0.2c0,0,0,0,0,0c0,0,0,0,0-0.1c0,0,0-0.1-0.1-0.1c0,0,0-0.1,0-0.1c0,0,0-0.1-0.1-0.1c0,0,0,0,0-0.1
				c0,0,0-0.1,0-0.1c0,0-0.1-0.1-0.1-0.1c0,0,0,0,0,0c0-0.1-0.1-0.1-0.1-0.2c0,0,0,0,0,0c0,0-0.1-0.1-0.1-0.1c0,0,0,0,0,0
				c0,0,0,0,0,0c0,0-0.1-0.1-0.1-0.1c0,0,0,0,0,0c0.1-0.1,0.2-0.2,0.3-0.3c0,0,0,0,0-0.1c0,0,0,0,0-0.1c0,0,0,0,0-0.1c0,0,0,0,0,0
				c0,0,0-0.1,0.1-0.1c0,0,0,0,0,0c0,0,0-0.1,0.1-0.1c0,0,0,0,0,0c0,0,0,0,0,0c0,0,0,0,0,0c0,0,0-0.1,0-0.1c0,0,0,0,0,0c0,0,0,0,0,0
				c0,0,0,0,0-0.1c0,0,0-0.1,0-0.1c0,0,0,0,0,0c0,0,0,0,0,0c0,0,0-0.1,0-0.1c0,0,0-0.1,0-0.1c0,0,0,0,0,0c0,0,0,0,0,0
				c0,0,0-0.1,0-0.1c0,0,0-0.1,0-0.1c0,0,0,0,0,0c0,0,0,0,0,0c0,0,0-0.1,0-0.1c0,0,0,0,0-0.1c0,0,0-0.1,0-0.1c0-0.1,0-0.1,0-0.2
				c0,0,0,0,0,0c0,0,0,0,0,0c0-0.1,0-0.1,0-0.2c0,0,0-0.1,0-0.1c0,0,0,0,0-0.1c0,0,0,0,0,0c0-0.1,0-0.1,0-0.2c0,0,0,0,0,0
				c0,0,0,0,0-0.1c0,0,0-0.1,0-0.1c0,0,0,0,0-0.1c0-0.1,0-0.1,0-0.2c0,0,0-0.1,0-0.1c0,0,0,0,0-0.1c0,0,0-0.1,0-0.1
				c0-0.1,0-0.1-0.1-0.2c0,0,0-0.1,0-0.1c0,0,0,0,0,0c0,0,0-0.1-0.1-0.1c0,0,0-0.1-0.1-0.1c0,0,0,0,0,0c0,0-0.1-0.1-0.1-0.1
				c0,0,0,0,0,0c0,0,0,0,0,0c0,0-0.1-0.1-0.1-0.1c0,0,0,0,0,0c0,0,0,0,0,0c0,0,0,0,0,0c0,0-0.1-0.1-0.1-0.1c0,0,0,0,0,0c0,0,0,0,0,0
				c0,0,0,0,0,0c0,0-0.1-0.1-0.1-0.1c0,0,0,0,0,0c0,0,0,0,0,0c0,0,0,0,0,0c0,0-0.1-0.1-0.1-0.1c0,0,0,0,0,0c0,0,0,0,0,0
				c0,0,0,0-0.1,0c0,0-0.1,0-0.1-0.1c0,0,0,0,0,0c0,0,0,0,0,0c0,0-0.1,0-0.1,0c0,0-0.1,0-0.1,0c0,0,0,0-0.1,0c0,0,0,0,0,0
				c-0.1,0-0.1,0-0.2-0.1c0,0,0,0,0,0c0,0-0.1,0-0.1,0c-0.1,0-0.1,0-0.2,0c0,0,0,0-0.1,0l-3-0.6l-1.8,0.4l3,0.6c0.1,0,0.2,0,0.2,0.1
				c0,0,0.1,0,0.1,0c0.1,0,0.2,0.1,0.3,0.1c0,0,0,0,0.1,0c0.1,0,0.1,0.1,0.2,0.1c0,0,0,0,0,0c0.1,0,0.2,0.1,0.2,0.1c0,0,0,0,0,0
				c0.1,0,0.1,0.1,0.2,0.1c0,0,0,0,0,0c0.1,0,0.1,0.1,0.2,0.1c0,0,0,0,0,0c0.1,0.1,0.1,0.1,0.2,0.2c0,0,0,0,0,0
				c0.1,0.1,0.1,0.1,0.2,0.2c0,0.1,0.1,0.1,0.1,0.2c0,0,0.1,0.1,0.1,0.1c0,0,0,0.1,0.1,0.1c0,0,0,0.1,0,0.1c0,0.1,0,0.1,0.1,0.2
				c0,0,0,0,0,0l-0.6,0.1c0,0.1,0.1,0.2,0.1,0.3c0,0,0,0.1,0,0.1c0,0.1,0,0.1,0.1,0.2c0,0,0,0,0,0c0,0.1,0,0.2,0,0.3c0,0,0,0,0,0
				c0,0.1,0,0.2,0,0.3l0.6-0.1c0,0.1,0,0.2,0,0.3c0,0.1,0,0.2,0,0.2c0,0,0,0,0,0c0,0.1,0,0.1,0,0.2c0,0,0,0,0,0c0,0.1,0,0.1,0,0.2
				c0,0,0,0,0,0c0,0.1,0,0.1,0,0.2c0,0,0,0,0,0c0,0.1,0,0.1-0.1,0.2c0,0,0,0,0,0c0,0.1,0,0.1-0.1,0.2c0,0,0,0,0,0
				c0,0-0.1,0.1-0.1,0.1c0,0,0,0,0,0.1c0,0,0,0.1-0.1,0.1c-0.1,0.1-0.2,0.2-0.3,0.3c0,0,0.1,0.1,0.1,0.1c0,0,0,0,0,0
				c0,0,0.1,0.1,0.1,0.1c0,0.1,0.1,0.1,0.1,0.2c0,0,0.1,0.1,0.1,0.1c0,0,0.1,0.1,0.1,0.1c0,0,0,0.1,0.1,0.1c0,0,0,0.1,0,0.1
				c0,0,0,0.1,0.1,0.1c0,0,0,0.1,0,0.1c0,0.1,0,0.2,0.1,0.2c0,0,0,0,0,0c0,0,0,0,0,0c0,0.1,0,0.1,0,0.2c0,0,0,0,0,0.1
				c0,0.1,0,0.1,0,0.2c0,0,0,0,0,0.1c0,0.1,0,0.1,0,0.2l-0.6,0.1c0,0.1,0,0.1,0,0.2c0,0,0,0,0,0c0,0.1,0,0.1,0,0.2c0,0,0,0,0,0
				c0,0,0,0,0,0.1c0,0,0,0,0,0c0,0-0.1,0-0.1,0c-0.1,0-0.1,0-0.2,0l-1.8-0.4l0.1-2.7l-1.8,0.4l-0.1,2.7l1.8,0.4c0.1,0,0.1,0,0.2,0
				c0,0,0,0,0,0c0,0,0.1,0,0.1,0c0,0,0,0,0.1,0c0,0,0.1,0,0.1,0c0,0,0,0,0.1,0c0,0,0,0,0,0c0.1,0,0.1,0,0.1,0c0,0,0,0,0,0
				c0,0,0,0,0,0c0,0,0.1,0,0.1,0c0,0,0.1,0,0.1,0c0,0,0,0,0,0l1.3-0.3c0,0,0,0,0,0c0,0.1,0,0.1,0,0.2h0l0,0l0.7-0.2
				c0,0.1,0,0.1,0,0.2c0,0,0,0,0,0c0,0.1,0,0.2-0.1,0.3c0,0,0,0,0,0c0,0.1-0.1,0.2-0.1,0.2c0,0,0,0,0,0c0,0.1-0.1,0.1-0.1,0.2
				c0,0,0,0,0,0c0,0.1-0.1,0.1-0.1,0.2c0,0,0,0,0,0c0,0-0.1,0.1-0.1,0.1c0,0,0,0-0.1,0c-0.1,0-0.1,0.1-0.2,0.1
				c-0.2,0.1-0.4,0.2-0.7,0.3l1.8-0.4c0.3-0.1,0.5-0.2,0.7-0.3c0.1,0,0.1-0.1,0.2-0.1c0,0,0,0,0.1,0c0,0,0,0,0.1-0.1c0,0,0,0,0-0.1
				c0,0,0,0,0,0c0,0,0,0,0,0c0,0,0.1-0.1,0.1-0.1c0,0,0,0,0,0c0,0,0,0,0,0c0,0,0,0,0,0c0,0,0-0.1,0.1-0.1c0,0,0,0,0-0.1c0,0,0,0,0,0
				c0,0,0,0,0,0c0,0,0-0.1,0-0.1c0,0,0-0.1,0-0.1c0,0,0,0,0,0c0,0,0,0,0,0c0,0,0,0,0,0c0,0,0,0,0,0.1c0,0,0,0,0,0.1c0,0,0,0,0,0
				c0,0,0,0,0,0.1c0,0,0,0.1,0,0.1c0,0,0,0,0,0.1c0,0.1,0,0.1,0.1,0.2c0,0,0,0,0,0.1c0,0,0,0,0,0c0,0,0,0.1,0,0.1c0,0,0,0.1,0.1,0.1
				c0,0,0,0.1,0,0.1c0,0,0,0.1,0,0.1c0,0,0,0.1,0,0.1c0,0,0,0,0,0l0.6-0.1c0,0,0,0.1,0.1,0.1c0,0,0,0,0,0c0,0,0,0,0,0
				c0,0,0,0,0.1,0.1c0,0,0,0.1,0.1,0.1c0,0,0,0,0,0c0,0,0,0,0,0c0,0,0,0,0.1,0.1c0,0,0,0,0.1,0.1c0,0,0,0,0,0c0,0,0,0,0,0
				c0,0,0,0,0.1,0c0,0,0.1,0,0.1,0.1c0,0,0,0,0,0c0,0,0,0,0,0c0,0,0,0,0,0c0,0,0.1,0,0.1,0.1c0,0,0,0,0,0c0,0,0,0,0,0c0,0,0,0,0,0
				c0,0,0.1,0,0.1,0c0,0,0,0,0,0c0,0,0,0,0,0c0,0,0,0,0.1,0c0,0,0.1,0,0.1,0c0,0,0,0,0,0c0,0,0,0,0,0c0.1,0,0.1,0,0.2,0c0,0,0,0,0,0
				c0,0,0.1,0,0.1,0c0,0,0,0,0.1,0c0,0,0,0,0.1,0c0,0,0,0,0,0c0,0,0.1,0,0.1,0c0,0,0,0,0,0c0,0,0,0,0,0c0.1,0,0.1,0,0.2,0
				c0,0,0,0,0,0c0,0,0,0,0.1,0c0,0,0,0,0.1,0c0,0,0.1,0,0.1,0c0,0,0,0,0,0l1.5-0.3c0,0,0,0,0,0.1c0,0,0,0,0,0c0,0.1-0.1,0.1-0.1,0.2
				c0,0,0,0,0,0c0,0.1-0.1,0.1-0.1,0.2l0.9-0.2c0,0.1-0.1,0.2-0.1,0.2c0,0,0,0,0,0c0,0.1-0.1,0.2-0.1,0.3c0,0,0,0,0,0
				c0,0.1-0.1,0.1-0.2,0.2c0,0,0,0-0.1,0.1c-0.1,0.1-0.1,0.1-0.2,0.2c-0.3,0.3-0.6,0.5-1,0.5l1.8-0.4c0.4-0.1,0.7-0.3,1-0.5
				c0,0,0.1-0.1,0.1-0.1c0,0,0-0.1,0.1-0.1c0,0,0,0,0.1-0.1c0,0,0,0,0,0c0,0,0.1-0.1,0.1-0.2c0,0,0,0,0,0c0,0,0,0,0,0
				c0,0,0-0.1,0.1-0.1c0,0,0.1-0.1,0.1-0.1c0,0,0,0,0,0c0,0,0,0,0,0c0,0,0-0.1,0-0.1c0,0,0-0.1,0.1-0.1c0,0,0,0,0-0.1c0,0,0,0,0,0
				c0,0,0,0,0-0.1c0-0.1,0-0.1,0-0.2c0,0,0-0.1,0-0.1c0,0,0,0,0,0c0,0,0,0,0,0c0-0.1,0-0.1,0-0.2c0,0,0-0.1,0-0.1c0,0,0,0,0,0
				c0,0,0,0,0,0c0-0.1,0-0.1,0-0.2c0,0,0-0.1,0-0.1c0,0,0,0,0-0.1c0,0,0,0,0,0c0-0.1,0-0.2,0-0.3c0,0,0-0.1,0-0.1l0.2-5.3l0.9,0.2
				l-0.3,9.8l1.8-0.4l0.3-9l1,0.2l-0.3,8.3l4.4,0.9l0,1.5l1.8-0.4l0-1.5l-4.4-0.9L485.5,370.2z"/>
			<path class="st23" d="M494.4,380.3C494.3,380.3,494.3,380.3,494.4,380.3c-0.2,0-0.2,0-0.3,0c0,0,0,0,0,0c-0.1,0-0.2,0-0.3,0
				c0,0,0,0-0.1,0c-0.1,0-0.2,0-0.3,0l-1.5-0.3l0.2-6.8l-1.8,0.4l-0.2,6.8l1.5,0.3c0.1,0,0.1,0,0.2,0c0,0,0.1,0,0.1,0c0,0,0,0,0.1,0
				c0,0,0,0,0,0c0.1,0,0.1,0,0.2,0c0,0,0,0,0,0c0,0,0,0,0,0c0.1,0,0.1,0,0.2,0c0,0,0,0,0,0c0,0,0.1,0,0.1,0c0,0,0.1,0,0.1,0
				c0,0,0.1,0,0.1,0l1.8-0.4C494.5,380.3,494.4,380.3,494.4,380.3z"/>
			<path class="st23" d="M497.5,377C497.5,377,497.5,377,497.5,377c0-0.1,0-0.3,0-0.4c0,0,0-0.1,0-0.1c0,0,0-0.1,0-0.1
				c0,0,0-0.1,0-0.1c0-0.1,0-0.2,0-0.2c0,0,0-0.1,0-0.1c0,0,0,0,0,0c0-0.1,0-0.3-0.1-0.4c0,0,0,0,0,0c0-0.2-0.1-0.3-0.1-0.5
				c0,0,0,0,0,0c0-0.1-0.1-0.3-0.2-0.4c0,0,0,0,0-0.1c0-0.1-0.1-0.2-0.1-0.3c0,0,0,0,0,0c-0.1-0.1-0.2-0.3-0.2-0.4c0,0,0,0,0,0
				c-0.1-0.1-0.1-0.2-0.2-0.3c0,0,0,0,0-0.1c0,0,0,0-0.1-0.1c0,0,0-0.1-0.1-0.1c-0.1-0.1-0.1-0.1-0.2-0.2c0,0,0,0,0,0c0,0,0,0,0,0
				c0,0-0.1-0.1-0.1-0.1c-0.1,0-0.1-0.1-0.2-0.1c0,0,0,0,0,0c0,0,0,0,0,0c0,0-0.1-0.1-0.1-0.1c-0.1,0-0.1-0.1-0.2-0.1c0,0,0,0,0,0
				c0,0,0,0,0,0c0,0-0.1,0-0.1-0.1c-0.1,0-0.1-0.1-0.2-0.1c0,0,0,0,0,0c0,0,0,0,0,0c0,0-0.1,0-0.1-0.1c-0.1,0-0.1-0.1-0.2-0.1
				c0,0,0,0,0,0c0,0,0,0,0,0c-0.1,0-0.1,0-0.2-0.1c-0.1,0-0.1,0-0.2-0.1c0,0,0,0-0.1,0c0,0,0,0,0,0c-0.1,0-0.2-0.1-0.3-0.1
				c0,0-0.1,0-0.1,0l-2.7-0.6l-1.8,0.4l2.7,0.6c0.1,0,0.3,0.1,0.4,0.1c0,0,0,0,0.1,0c0.1,0,0.2,0.1,0.4,0.1c0,0,0,0,0,0
				c0.1,0.1,0.2,0.1,0.4,0.2c0,0,0,0,0,0c0.1,0.1,0.2,0.1,0.3,0.2c0,0,0,0,0,0c0.1,0.1,0.2,0.1,0.3,0.2c0,0,0,0,0,0
				c0.1,0.1,0.2,0.2,0.3,0.3c0,0,0,0,0,0c0.1,0.1,0.2,0.2,0.3,0.3c0,0,0,0,0.1,0.1c0.1,0.1,0.2,0.2,0.2,0.3c0.1,0.1,0.2,0.3,0.2,0.4
				c0.1,0.1,0.1,0.2,0.2,0.3c0,0,0,0,0,0.1c0.1,0.1,0.1,0.3,0.2,0.4c0.1,0.2,0.1,0.3,0.1,0.5c0,0.1,0.1,0.3,0.1,0.4c0,0,0,0.1,0,0.1
				c0,0.1,0,0.3,0,0.4c0,0,0,0.1,0,0.1c0,0.2,0,0.3,0,0.5c0,0,0,0,0,0.1c0,0.2,0,0.3,0,0.5c0,0.2,0,0.4,0,0.6c0,0,0,0,0,0.1
				c0,0.2,0,0.3-0.1,0.5c0,0,0,0,0,0c0,0.2-0.1,0.3-0.1,0.5c0,0,0,0,0,0c0,0.2-0.1,0.3-0.1,0.4c0,0,0,0,0,0c0,0.1-0.1,0.3-0.1,0.4
				c0,0,0,0,0,0c-0.1,0.1-0.1,0.2-0.2,0.3c0,0,0,0,0,0c-0.1,0.1-0.1,0.2-0.2,0.3c0,0,0,0,0,0c-0.1,0.1-0.2,0.2-0.2,0.3
				c-0.4,0.3-0.8,0.6-1.3,0.7l1.8-0.4c0.5-0.1,0.9-0.3,1.3-0.7c0,0,0.1-0.1,0.1-0.1c0.1-0.1,0.1-0.1,0.2-0.2c0,0,0,0,0,0
				c0,0,0,0,0,0c0-0.1,0.1-0.1,0.1-0.2c0,0,0-0.1,0.1-0.1c0,0,0,0,0,0c0,0,0,0,0,0c0-0.1,0.1-0.1,0.1-0.2c0,0,0-0.1,0-0.1
				c0,0,0,0,0,0c0,0,0,0,0,0c0-0.1,0.1-0.1,0.1-0.2c0,0,0-0.1,0.1-0.1c0,0,0,0,0,0c0,0,0,0,0,0c0-0.1,0-0.1,0.1-0.2
				c0-0.1,0-0.1,0.1-0.2c0,0,0,0,0,0c0,0,0,0,0,0c0-0.1,0-0.2,0.1-0.2c0-0.1,0-0.2,0-0.3c0,0,0,0,0,0c0,0,0,0,0,0c0-0.1,0-0.2,0-0.3
				c0-0.1,0-0.1,0-0.2c0,0,0,0,0-0.1c0,0,0,0,0,0c0-0.1,0-0.2,0-0.4c0-0.1,0-0.1,0-0.2c0-0.1,0-0.2,0-0.2
				C497.5,377.3,497.5,377.2,497.5,377C497.5,377.1,497.5,377.1,497.5,377z"/>
			<path class="st23" d="M513,384.4C513,384.4,513,384.4,513,384.4c-0.1,0-0.2,0-0.2,0c0,0,0,0,0,0c-0.1,0-0.1,0-0.2,0
				c0,0,0,0-0.1,0c-0.1,0-0.1,0-0.2,0c-0.1,0-0.2,0-0.3-0.1c0,0,0,0,0,0c-0.1,0-0.2-0.1-0.2-0.1c0,0,0,0,0,0c-0.1,0-0.1-0.1-0.2-0.1
				c0,0,0,0,0,0c-0.1,0-0.1-0.1-0.2-0.1c0,0,0,0,0,0c-0.1,0-0.1-0.1-0.2-0.2c0,0,0,0,0,0c-0.1-0.1-0.1-0.1-0.2-0.2c0,0,0,0,0,0
				c0-0.1-0.1-0.1-0.1-0.2c0,0,0,0,0-0.1c-0.1-0.1-0.1-0.1-0.1-0.2c0-0.1-0.1-0.1-0.1-0.2c0,0,0-0.1-0.1-0.1c0-0.1,0-0.1-0.1-0.2
				c0,0,0-0.1,0-0.1c0,0,0-0.1,0-0.1c0-0.1-0.1-0.2-0.1-0.3c0,0,0-0.1,0-0.2c0,0,0-0.1,0-0.1c0-0.1,0-0.1,0-0.2c0,0,0-0.1,0-0.1
				c0-0.1,0-0.2,0-0.3c0,0,0,0,0,0c0-0.1,0-0.2,0-0.4c0,0,0-0.1,0-0.1c0-0.1,0-0.2,0-0.3c0-0.2,0-0.4,0-0.5c0,0,0,0,0,0
				c0-0.2,0-0.3,0.1-0.5c0,0,0,0,0,0c0-0.1,0.1-0.3,0.1-0.4c0,0,0,0,0,0c0-0.1,0.1-0.3,0.2-0.4c0,0,0-0.1,0.1-0.1c0,0,0,0,0,0
				c0,0,0.1-0.1,0.1-0.1c0,0,0,0,0,0c0,0,0,0,0,0c0,0,0.1-0.1,0.1-0.1c0,0,0,0,0,0c0,0,0.1-0.1,0.1-0.1c0,0,0,0,0,0
				c0.1-0.1,0.1-0.1,0.2-0.2c0,0,0,0,0,0c0.1-0.1,0.2-0.1,0.2-0.1c0.1-0.1,0.3-0.1,0.4-0.2l-1.8,0.4c-0.1,0-0.3,0.1-0.4,0.2
				c-0.1,0-0.2,0.1-0.2,0.1c0,0,0,0,0,0c-0.1,0.1-0.1,0.1-0.2,0.2c0,0,0,0,0,0c0,0,0,0,0,0c0,0-0.1,0.1-0.1,0.1c0,0,0,0,0,0
				c0,0,0,0,0,0c0,0-0.1,0.1-0.1,0.1c0,0,0,0,0,0c0,0,0,0,0,0c0,0,0,0,0,0c0,0-0.1,0.1-0.1,0.1c0,0,0,0,0,0c0,0,0,0,0,0
				c0,0,0,0.1-0.1,0.1c0,0,0,0,0,0c0,0,0,0.1-0.1,0.1c0,0,0,0.1-0.1,0.1c0,0,0,0.1,0,0.1c0,0,0,0,0,0c0,0,0,0,0,0c0,0,0,0.1,0,0.1
				c0,0.1,0,0.1,0,0.2c0,0,0,0.1,0,0.1c0,0,0,0,0,0c0,0,0,0,0,0l-0.6,0.1l0.2-4.9l-1.2-0.3l-1.8,0.4l1.2,0.3l-0.2,5.2l-3-6.7
				l-1.3-0.3l-1.6,0.4l0-0.7l-1.3-0.3l-1.8,0.4l1.3,0.3l-0.3,9.8l1.8-0.4l0.3-9l1.1,0.2l0.2,0.4l-0.9,0.2l0,0.1l0.4,0.1l0.6-0.1
				l0.8,1.8l-1.3,0.3l-0.2,7.1l1.8-0.4l0.2-5.8l2,4.3l1.3-0.3l-0.1,1.9l-1.1,0.2l0,0.1l0.4,0.1l0.7-0.1l0,1.1l1.8-0.4l0.1-4.2
				l0.5-0.1c0,0.1,0,0.1,0,0.2c0,0,0,0.1,0,0.1c0,0.1,0,0.1,0,0.2c0,0,0,0.1,0,0.1c0,0,0,0.1,0,0.1c0,0,0,0,0,0.1c0,0.1,0,0.2,0,0.3
				c0,0,0,0,0,0c0,0,0,0,0,0c0,0.1,0,0.2,0,0.3c0,0,0,0,0,0.1c0,0,0,0.1,0,0.1c0,0,0,0.1,0,0.1c0,0,0,0.1,0,0.1c0,0,0,0.1,0,0.1
				c0,0,0,0.1,0,0.1c0,0,0,0,0,0.1c0,0.1,0,0.2,0.1,0.3c0,0,0,0.1,0,0.1c0,0,0,0,0,0.1c0,0,0,0.1,0,0.1c0,0.1,0,0.1,0.1,0.2
				c0,0,0,0.1,0.1,0.1c0,0,0,0.1,0,0.1c0,0,0,0.1,0.1,0.1c0,0.1,0.1,0.1,0.1,0.2c0,0,0,0,0,0c0,0,0,0,0,0.1c0,0,0,0.1,0.1,0.1
				c0,0,0,0,0.1,0.1c0,0,0,0,0,0c0,0,0,0,0,0c0,0,0.1,0.1,0.1,0.1c0,0,0,0,0,0c0,0,0,0,0,0c0,0,0,0,0,0c0,0,0.1,0.1,0.1,0.1
				c0,0,0,0,0.1,0.1c0,0,0,0,0,0c0,0,0,0,0,0c0,0,0.1,0,0.1,0.1c0,0,0.1,0,0.1,0.1c0,0,0,0,0,0c0,0,0,0,0,0c0,0,0.1,0,0.1,0
				c0,0,0.1,0,0.1,0.1c0,0,0,0,0,0c0,0,0,0,0,0c0,0,0,0,0.1,0c0,0,0.1,0,0.1,0c0,0,0,0,0,0c0,0,0,0,0,0c0,0,0,0,0.1,0
				c0.1,0,0.1,0,0.2,0c0,0,0,0,0,0c0,0,0.1,0,0.1,0c0,0,0,0,0.1,0c0,0,0,0,0.1,0c0,0,0,0,0,0c0,0,0.1,0,0.1,0c0,0,0,0,0,0
				c0,0,0,0,0,0c0.1,0,0.1,0,0.1,0c0,0,0,0,0,0c0,0,0,0,0.1,0c0,0,0,0,0.1,0c0,0,0.1,0,0.1,0l1.8-0.4
				C513.1,384.4,513.1,384.4,513,384.4z"/>
			<path class="st23" d="M510.2,380.8l3.7,0.8l-0.1,3.8l-1.2,0.3c-0.1,0.1-0.3,0.3-0.5,0.4c-0.2,0.1-0.3,0.2-0.5,0.2l1.8-0.4
				c0.1,0,0.2-0.1,0.3-0.1l0,1l1.8-0.4l0.2-5.2l-3.7-0.8L510.2,380.8z"/>
			<path class="st23" d="M515.7,378.7C515.7,378.6,515.7,378.6,515.7,378.7C515.7,378.6,515.7,378.6,515.7,378.7
				c-0.1-0.2-0.1-0.3-0.2-0.4c0,0,0-0.1,0-0.1c-0.1-0.1-0.1-0.3-0.2-0.4c0,0,0,0,0,0c0,0,0,0,0,0c-0.1-0.1-0.1-0.2-0.2-0.4
				c0,0,0,0,0,0c0,0,0,0,0,0c0,0-0.1-0.1-0.1-0.1c0,0,0,0-0.1-0.1c0,0,0,0,0-0.1c0,0,0,0-0.1-0.1c0,0,0,0,0,0c0,0-0.1-0.1-0.1-0.1
				c0,0,0,0,0,0c0,0-0.1-0.1-0.1-0.1c0,0,0,0,0,0c0,0,0,0,0,0c0,0,0,0-0.1-0.1c0,0-0.1-0.1-0.1-0.1c0,0,0,0,0,0c0,0,0,0,0,0
				c0,0-0.1-0.1-0.1-0.1c0,0,0,0-0.1,0c0,0,0,0,0,0c0,0,0,0,0,0c0,0-0.1-0.1-0.2-0.1c0,0,0,0,0,0c0,0,0,0,0,0c0,0-0.1,0-0.1,0
				c0,0-0.1,0-0.1,0c0,0,0,0-0.1,0c0,0,0,0,0,0c-0.1,0-0.1-0.1-0.2-0.1c0,0,0,0,0,0c0,0,0,0,0,0c-0.1,0-0.1,0-0.2-0.1c0,0,0,0,0,0
				c0,0-0.1,0-0.1,0c0,0-0.1,0-0.1,0c0,0,0,0-0.1,0c-0.1,0-0.1,0-0.2,0c0,0-0.1,0-0.1,0c0,0-0.1,0-0.1,0c0,0,0,0-0.1,0
				c-0.1,0-0.2,0-0.2,0c0,0,0,0,0,0c0,0,0,0,0,0c-0.1,0-0.1,0-0.2,0c0,0,0,0-0.1,0c0,0-0.1,0-0.1,0c0,0-0.1,0-0.1,0
				c-0.1,0-0.1,0-0.2,0l-1.8,0.4c0.1,0,0.2,0,0.3,0c0,0,0.1,0,0.1,0c0.1,0,0.2,0,0.2,0c0,0,0,0,0,0c0.1,0,0.2,0,0.3,0
				c0,0,0.1,0,0.1,0c0.1,0,0.2,0,0.3,0.1c0.1,0,0.1,0,0.2,0c0,0,0.1,0,0.1,0c0.1,0,0.2,0,0.2,0.1c0,0,0,0,0,0c0.1,0,0.2,0.1,0.2,0.1
				c0,0,0,0,0.1,0c0.1,0,0.1,0.1,0.2,0.1c0,0,0,0,0,0c0.1,0,0.1,0.1,0.2,0.1c0,0,0,0,0,0c0.1,0,0.1,0.1,0.2,0.1c0,0,0,0,0,0
				c0.1,0,0.1,0.1,0.2,0.2c0,0,0,0,0,0c0.1,0.1,0.1,0.1,0.2,0.2c0.1,0.1,0.1,0.1,0.2,0.2c0,0,0,0,0.1,0.1c0,0,0.1,0.1,0.1,0.1
				c0,0,0.1,0.1,0.1,0.1c0,0,0,0.1,0.1,0.1c0.1,0.1,0.1,0.2,0.2,0.4c0,0,0,0,0,0c0.1,0.1,0.1,0.2,0.2,0.4c0,0,0,0.1,0,0.1
				c0,0.1,0.1,0.2,0.1,0.4c0,0,0,0,0,0.1c0,0.1,0.1,0.2,0.1,0.3l0.1,0.4l-1.2,0.5l1.8-0.4l1.2-0.5l-0.1-0.4
				C515.8,378.9,515.7,378.8,515.7,378.7z"/>
			<polygon class="st23" points="446.1,358.6 448,358.2 448.1,354 446.3,354.4 			"/>
			<polygon class="st23" points="459.5,356.4 459.6,354.9 456.1,354.2 456.1,351.6 454.3,352 454.2,354.6 457.8,355.4 457.7,356.8 
							"/>
			<polygon class="st23" points="458.8,351.4 458.7,353 460.6,352.5 460.6,351 454.9,349.8 453.4,350.2 453.4,349.5 452.1,349.2 
				450.3,349.6 451.6,349.9 451.5,353.2 448.2,352.5 448.3,348.4 447,348.1 445.2,348.6 446.5,348.8 446.3,352.9 450.2,353.7 
				451.4,353.5 451.3,359.7 453.1,359.3 453.4,350.3 			"/>
			<polygon class="st23" points="460.5,359.6 460.5,359.4 455.9,358.4 456,355.7 454.2,356.1 454.1,358.8 458.7,359.8 458.7,360.7 
				458.5,361.3 458.7,361.3 460,361 459.8,361.5 461.6,361.1 462.6,358.5 460.8,358.9 			"/>
			<path class="st23" d="M466,362.9l1.8-0.4l-2.9-10.5l-0.5-0.1l0-0.1l-0.1,0l-0.5-0.1l-1.8,0.4l0.6,0.1l0,0l0,0l0.5,0.1l0.5,2
				l-1.2,0.3l-1.1,3l2.1,0.4l1.2-0.3L466,362.9z M463.2,357.1l0.7-1.9l0.6,2.2L463.2,357.1z"/>
			<polygon class="st23" points="467.8,361.7 472.1,362.7 472.1,364.2 473.9,363.8 474,362.2 469.6,361.3 469.9,353 468.6,352.7 
				466.8,353.1 468,353.4 			"/>
			<polygon class="st23" points="476.1,364.2 476.4,355.9 474.5,356.3 474.3,364.6 			"/>
			<polygon class="st23" points="477.2,356.9 479,356.5 479.1,355.8 479.2,355.8 479.1,359.9 482.9,360.7 484.2,360.4 484,366.7 
				485.8,366.3 486.1,357.3 488,362.1 489.7,361.7 488.5,363.9 488.4,367.6 490.3,367.2 490.4,363.5 493.4,358 492,357.7 
				490.1,358.1 491.6,358.4 489.8,361.6 487.9,356.8 486.5,356.5 486.1,356.6 486.1,356.5 484.9,356.2 483,356.6 484.3,356.9 
				484.2,360.2 480.9,359.5 481,355.4 479.8,355.1 479.1,355.3 479.1,355 472.5,353.6 470.6,354 477.3,355.4 			"/>
			<polygon class="st23" points="478.9,365.6 480.7,365.2 480.8,361 479,361.4 			"/>
			<polygon class="st23" points="502.4,370.6 504.2,370.2 504.4,366 502.5,366.4 			"/>
			<polygon class="st23" points="502.6,364.9 506.4,365.7 507.7,365.4 507.5,371.7 509.3,371.3 509.6,361.5 508.4,361.2 
				506.6,361.6 507.8,361.9 507.7,365.2 504.4,364.5 504.5,360.4 503.3,360.1 501.4,360.5 502.7,360.8 			"/>
			<polygon class="st23" points="511.1,371.7 512.1,369.1 510.3,369.5 509.3,372.1 			"/>
			<path class="st23" d="M517.2,372.7l-2.8-10.3l-0.5-0.1l0-0.1l-0.1,0l-0.5-0.1l-1.8,0.4l0.6,0.1l0,0l0,0l0.5,0.1l0.5,2l-1.2,0.3
				l-1.1,3l2.1,0.4l1.2-0.3l1.4,5.1l1.8-0.4l0,0.8l1.8-0.4l0.1-3.7l-1.8,0.4L517.2,372.7z M512.7,367.7l0.7-1.9l0.6,2.2L512.7,367.7
				z"/>
			<path class="st23" d="M521.4,368.5C521.4,368.5,521.4,368.5,521.4,368.5c-0.1,0-0.2,0-0.2,0c0,0,0,0,0,0c-0.1,0-0.1,0-0.2,0
				c0,0,0,0-0.1,0c-0.1,0-0.1,0-0.2,0l-1.5-0.3l0.1-3.1l-1.8,0.4l-0.1,3.1l1.5,0.3c0,0,0.1,0,0.1,0c0,0,0,0,0.1,0c0,0,0,0,0.1,0
				c0,0,0,0,0.1,0c0,0,0.1,0,0.1,0c0,0,0,0,0,0c0,0,0,0,0,0c0,0,0.1,0,0.1,0c0,0,0,0,0,0c0,0,0,0,0,0c0,0,0,0,0.1,0c0,0,0.1,0,0.1,0
				l1.8-0.4C521.5,368.5,521.5,368.5,521.4,368.5z"/>
			<polygon class="st23" points="523.8,375.1 525.6,374.7 525.7,371.1 523.9,371.5 			"/>
			<path class="st23" d="M528,369.9C528,369.9,528,369.9,528,369.9c-0.1,0-0.2,0-0.2,0c0,0,0,0,0,0c-0.1,0-0.1,0-0.2,0
				c0,0,0,0-0.1,0c-0.1,0-0.1,0-0.2,0l-1.5-0.3l0.1-3.1l-1.8,0.4l-0.1,3.1l1.5,0.3c0,0,0.1,0,0.1,0c0,0,0,0,0.1,0c0,0,0,0,0.1,0
				c0,0,0,0,0.1,0c0,0,0.1,0,0.1,0c0,0,0,0,0,0c0,0,0,0,0,0c0,0,0.1,0,0.1,0c0,0,0,0,0,0c0,0,0,0,0,0c0,0,0,0,0.1,0c0,0,0.1,0,0.1,0
				l1.8-0.4C528.1,369.9,528,369.9,528,369.9z"/>
			<path class="st23" d="M535.3,366.9l-1.8,0.4l1.4,0.3l-1.8,3.2l-1.8-4.8l-1.5-0.3l-0.9,0.2c0,0-0.1,0-0.1-0.1c0,0,0,0,0,0
				c0,0,0,0,0,0c0,0-0.1-0.1-0.1-0.1c0,0,0,0-0.1,0c0,0,0,0,0,0c0,0,0,0,0,0c0,0-0.1-0.1-0.1-0.1c0,0,0,0-0.1,0c0,0,0,0,0,0
				c0,0,0,0,0,0c-0.1,0-0.1,0-0.2-0.1c0,0,0,0,0,0c0,0,0,0,0,0c0,0-0.1,0-0.1,0c0,0-0.1,0-0.1,0c0,0,0,0,0,0c0,0,0,0,0,0
				c-0.1,0-0.1,0-0.2-0.1c0,0,0,0-0.1,0l-2.8-0.6l-1.8,0.4c0,0-0.1-0.1-0.1-0.1c0,0,0,0,0,0c0,0,0,0,0,0c0,0-0.1-0.1-0.1-0.1
				c0,0-0.1-0.1-0.1-0.1c0,0,0,0,0,0c0,0,0,0,0,0c0,0-0.1-0.1-0.1-0.1c0,0-0.1,0-0.1-0.1c0,0,0,0,0,0c0,0,0,0,0,0
				c0,0-0.1-0.1-0.1-0.1c0,0,0,0-0.1,0c0,0,0,0,0,0c0,0,0,0,0,0c0,0-0.1-0.1-0.1-0.1c0,0,0,0-0.1,0c0,0,0,0,0,0c0,0,0,0,0,0
				c-0.1,0-0.1,0-0.2-0.1c0,0,0,0,0,0c0,0,0,0,0,0c0,0-0.1,0-0.1,0c0,0-0.1,0-0.1,0c0,0,0,0,0,0c0,0,0,0,0,0c-0.1,0-0.1,0-0.2-0.1
				c0,0,0,0-0.1,0l-2.8-0.6l-1.8,0.4l2.8,0.6c0.1,0,0.2,0,0.3,0.1c0,0,0,0,0,0c0.1,0,0.2,0.1,0.2,0.1c0,0,0,0,0,0
				c0.1,0,0.2,0.1,0.2,0.1c0,0,0,0,0,0c0.1,0,0.2,0.1,0.2,0.1c0,0,0,0,0,0c0.1,0,0.1,0.1,0.2,0.1c0,0,0,0,0,0
				c0.1,0.1,0.1,0.1,0.2,0.2c0,0,0,0,0,0c0.1,0.1,0.1,0.1,0.2,0.2c0,0,0,0,0,0c0.1,0.1,0.1,0.1,0.2,0.2c0,0.1,0.1,0.1,0.1,0.2
				c0,0.1,0.1,0.1,0.1,0.2c0,0,0,0.1,0.1,0.1c0,0,0,0.1,0,0.1c0,0.1,0.1,0.1,0.1,0.2c0,0,0,0.1,0,0.1c0,0.1,0,0.1,0.1,0.2
				c0,0.1,0,0.1,0.1,0.2c0,0.1,0,0.1,0,0.2c0,0,0,0.1,0,0.1c0,0.1,0,0.2,0,0.3c0,0,0,0,0,0c0,0.1,0,0.2,0,0.3c0,0,0,0,0,0
				c0,0.1,0,0.2,0,0.3c0,0.1,0,0.2,0,0.3c0,0,0,0,0,0c0,0.1,0,0.2,0,0.3c0,0,0,0,0,0c0,0.1,0,0.2-0.1,0.3c0,0,0,0,0,0
				c0,0.1-0.1,0.2-0.1,0.2c0,0,0,0,0,0c0,0.1-0.1,0.2-0.1,0.2c0,0,0,0,0,0c0,0.1-0.1,0.1-0.1,0.2c0,0,0,0,0,0c0,0.1-0.1,0.1-0.1,0.2
				c-0.1,0.1-0.1,0.1-0.2,0.2c-0.2,0.2-0.5,0.3-0.8,0.4l1.8-0.4c0.3-0.1,0.6-0.2,0.8-0.4c0.1-0.1,0.1-0.1,0.2-0.2c0,0,0,0,0,0
				c0,0,0.1-0.1,0.1-0.1c0,0,0,0,0,0c0,0,0,0,0,0c0,0,0-0.1,0.1-0.1c0,0,0-0.1,0.1-0.1c0,0,0,0,0,0c0,0,0,0,0,0c0,0,0-0.1,0.1-0.1
				c0,0,0-0.1,0-0.1c0,0,0,0,0,0c0,0,0,0,0,0c0,0,0,0,0-0.1c0,0,0-0.1,0-0.1c0,0,0-0.1,0-0.1c0,0,0,0,0,0c0,0,0,0,0,0
				c0,0,0-0.1,0-0.1c0,0,0-0.1,0-0.1c0,0,0,0,0,0c0,0,0,0,0,0c0,0,0-0.1,0-0.1c0,0,0-0.1,0-0.1c0,0,0,0,0-0.1c0,0,0,0,0,0
				c0,0,0,0,0-0.1c0-0.1,0-0.1,0-0.2c0,0,0,0,0-0.1c0,0,0-0.1,0-0.1c0-0.1,0-0.1,0-0.2c0,0,0,0,0,0c0,0,0,0,0,0c0,0,0-0.1,0-0.1
				c0-0.1,0-0.1,0-0.2c0,0,0,0,0,0c0,0,0,0,0,0c0-0.1,0-0.1,0-0.2c0,0,0,0,0-0.1c0,0,0-0.1,0-0.1c0,0,0-0.1,0-0.1c0,0,0-0.1,0-0.1
				c0-0.1,0-0.1-0.1-0.2c0,0,0,0,0-0.1c0,0,0-0.1,0-0.1c0,0,0-0.1,0-0.1c0-0.1,0-0.1-0.1-0.2c0,0,0-0.1,0-0.1c0,0,0,0,0,0
				c0,0,0,0,0-0.1c0-0.1-0.1-0.1-0.1-0.2c0,0,0,0,0,0c0,0-0.1-0.1-0.1-0.1c0,0,0,0,0,0l2.7,0.6c0.1,0,0.2,0,0.3,0.1c0,0,0,0,0,0
				c0.1,0,0.2,0.1,0.2,0.1c0,0,0,0,0,0c0.1,0,0.2,0.1,0.2,0.1c0,0,0,0,0,0c0.1,0,0.2,0.1,0.2,0.1c0,0,0,0,0,0c0.1,0,0.1,0.1,0.2,0.1
				c0,0,0,0,0,0c0.1,0.1,0.1,0.1,0.2,0.2c0,0,0,0,0,0c0.1,0.1,0.1,0.1,0.2,0.2c0,0,0,0,0,0c0.1,0.1,0.1,0.1,0.2,0.2
				c0,0.1,0.1,0.1,0.1,0.2c0,0.1,0.1,0.1,0.1,0.2c0,0,0,0.1,0.1,0.1c0,0,0,0.1,0,0.1c0,0.1,0.1,0.1,0.1,0.2c0,0,0,0.1,0,0.1
				c0,0.1,0,0.1,0.1,0.2c0,0.1,0,0.1,0.1,0.2c0,0.1,0,0.1,0,0.2c0,0,0,0.1,0,0.1c0,0.1,0,0.2,0,0.3c0,0,0,0,0,0c0,0.1,0,0.2,0,0.3
				c0,0,0,0,0,0c0,0.1,0,0.2,0,0.3c0,0.1,0,0.2,0,0.3c0,0,0,0,0,0c0,0.1,0,0.2,0,0.3c0,0,0,0,0,0c0,0.1,0,0.2-0.1,0.3c0,0,0,0,0,0
				c0,0.1-0.1,0.2-0.1,0.2c0,0,0,0,0,0c0,0.1-0.1,0.2-0.1,0.2c0,0,0,0,0,0c0,0.1-0.1,0.1-0.1,0.2c0,0,0,0,0,0c0,0.1-0.1,0.1-0.1,0.2
				c-0.1,0.1-0.1,0.1-0.2,0.2c-0.2,0.2-0.5,0.3-0.8,0.4l1.8-0.4c0.3-0.1,0.6-0.2,0.8-0.4c0.1-0.1,0.1-0.1,0.2-0.2c0,0,0,0,0,0
				c0,0,0.1-0.1,0.1-0.1c0,0,0,0,0,0c0,0,0,0,0,0c0,0,0-0.1,0.1-0.1c0,0,0-0.1,0.1-0.1c0,0,0,0,0,0c0,0,0,0,0,0c0,0,0-0.1,0.1-0.1
				c0,0,0-0.1,0-0.1c0,0,0,0,0,0c0,0,0,0,0,0c0,0,0,0,0-0.1c0,0,0-0.1,0-0.1c0,0,0-0.1,0-0.1c0,0,0,0,0,0c0,0,0,0,0,0
				c0,0,0-0.1,0-0.1c0,0,0-0.1,0-0.1c0,0,0,0,0,0c0,0,0,0,0,0c0,0,0-0.1,0-0.1c0,0,0-0.1,0-0.1c0,0,0,0,0,0c0,0,0,0,0,0
				c0,0,0,0,0-0.1c0-0.1,0-0.1,0-0.2c0,0,0,0,0-0.1c0,0,0-0.1,0-0.1c0-0.1,0-0.1,0-0.2c0,0,0,0,0,0c0,0,0,0,0,0c0,0,0-0.1,0-0.1
				l1.1,2.9l1.8-0.4l-1.2,2.1l-0.1,3.8l1.8-0.4l0.1-3.8l3-5.5L535.3,366.9z"/>
			<path class="st23" d="M493.8,366C493.8,366,493.8,366,493.8,366C493.8,366.1,493.8,366.1,493.8,366c0,0.1,0,0.1,0,0.2
				c0,0,0,0,0,0c0,0,0,0,0,0c0,0,0,0,0,0c0,0,0,0.1,0,0.1c0,0,0,0,0,0c0,0,0,0,0,0c0,0,0,0,0,0.1c0,0,0,0.1,0,0.1c0,0,0,0,0,0
				c0,0,0,0,0,0c0,0.1,0.1,0.2,0.1,0.2c0,0,0,0,0,0c0,0,0,0,0,0c0,0.1,0.1,0.1,0.1,0.2c0,0,0,0,0,0c0,0,0.1,0.1,0.1,0.1c0,0,0,0,0,0
				c0,0,0,0,0,0c0,0,0.1,0.1,0.1,0.1c0,0,0,0,0,0c0,0,0,0,0,0c0,0,0,0,0.1,0.1c0,0,0,0,0,0c0,0,0,0,0,0c0,0,0,0,0,0
				c0,0,0.1,0,0.1,0.1c0,0,0,0,0,0c0,0,0,0,0,0c0,0,0,0,0,0c0,0,0.1,0,0.1,0.1c0,0,0,0,0,0c0,0,0,0,0,0c0,0,0,0,0,0c0,0,0.1,0,0.1,0
				c0,0,0,0,0,0c0,0,0,0,0,0c0,0,0.1,0,0.1,0c0,0,0,0,0.1,0c0,0,0,0,0,0c0,0,0,0,0,0c0,0,0.1,0,0.1,0c0,0,0,0,0,0c0,0,0,0,0,0
				c0,0,0.1,0,0.1,0c0,0,0,0,0,0c0,0,0.1,0,0.1,0c0,0,0.1,0,0.1,0c0,0,0,0,0,0c0,0,0,0,0,0c0.1,0,0.1,0,0.2,0c0,0,0,0,0,0
				c0,0,0,0,0,0c0,0,0.1,0,0.1,0c0,0,0,0,0,0c0,0,0.1,0,0.1,0c0,0,0,0,0.1,0c0,0,0.1,0,0.1,0c0,0,0,0,0,0l0.9-0.2
				c-0.3,0.3-0.6,0.4-0.9,0.5l1.3-0.3c0,0,0,0,0,0c0,0,0,0,0,0c0,0,0,0,0,0c0,0.1,0.1,0.1,0.1,0.2c0,0,0,0,0,0c0,0,0,0,0,0
				c0,0,0.1,0.1,0.1,0.1c0,0,0,0,0,0c0,0,0,0,0,0c0,0,0,0,0,0c0,0,0,0,0,0c0,0,0,0,0,0c0,0,0,0,0,0c0,0,0,0,0,0c0,0,0,0,0,0
				c0,0,0,0,0,0c0,0,0,0,0,0c0,0,0,0,0,0c0,0,0,0,0,0c0,0,0,0,0,0c0,0,0,0,0,0c0,0,0,0,0,0c0,0,0,0,0,0c0,0,0,0,0,0c0,0,0,0,0,0
				c0,0,0,0,0,0l0.2-0.1l-0.1,0.4l1.8-0.4l0.2-0.7l-0.1,0c0,0-0.1,0-0.1,0c0,0,0,0,0,0c0,0-0.1,0-0.1,0c0,0,0,0,0,0
				c0,0-0.1,0-0.1-0.1c0,0,0,0,0,0c0,0-0.1-0.1-0.1-0.1c0,0-0.1-0.1-0.1-0.1c0,0,0,0,0,0c0,0-0.1-0.1-0.1-0.1c0,0,0,0,0,0
				c0-0.1-0.1-0.1-0.1-0.2c0-0.1-0.1-0.1-0.2-0.2c0,0,0,0,0,0c0-0.1,0.1-0.1,0.1-0.2c0,0,0,0,0,0c0,0,0,0,0,0c0-0.1,0.1-0.1,0.1-0.2
				c0,0,0,0,0-0.1c0,0,0,0,0-0.1c0,0,0,0,0-0.1c0-0.1,0-0.1,0.1-0.2c0,0,0,0,0,0c0,0,0,0,0,0c0,0,0-0.1,0-0.1c0-0.1,0-0.1,0-0.2
				c0,0,0,0,0,0c0-0.1,0-0.1,0-0.2c0,0,0-0.1,0-0.1c0,0,0-0.1,0-0.1c0,0,0,0,0,0c0-0.1,0-0.2,0-0.3c0,0,0,0,0,0c0,0,0,0,0,0
				c0-0.1,0-0.2,0-0.3c0,0,0,0,0,0c0,0,0-0.1,0-0.1c0-0.1,0-0.1,0-0.2c0,0,0-0.1,0-0.1l0-0.1l-0.6-0.3l-1.5,0.3l-0.1-0.3
				c0.1,0,0.2-0.1,0.2-0.1c0,0,0,0,0,0c0.1,0,0.1-0.1,0.2-0.1c0,0,0,0,0,0c0.1,0,0.1-0.1,0.2-0.1c0,0,0,0,0,0c0.1,0,0.1-0.1,0.1-0.1
				c0,0,0,0,0,0c0,0,0,0,0,0c0,0,0,0,0-0.1c0,0,0,0,0,0c0,0,0,0,0-0.1c0,0,0-0.1,0.1-0.1c0,0,0-0.1,0.1-0.1c0,0,0,0,0,0c0,0,0,0,0,0
				c0,0,0,0,0-0.1c0,0,0-0.1,0-0.1c0,0,0-0.1,0-0.1c0,0,0,0,0,0c0,0,0,0,0,0c0,0,0,0,0,0c0,0,0-0.1,0-0.1c0,0,0-0.1,0-0.1
				c0,0,0-0.1,0-0.1c0,0,0,0,0,0c0,0,0,0,0,0c0,0,0-0.1,0-0.1c0,0,0-0.1,0-0.1c0,0,0-0.1,0-0.1c0,0,0,0,0,0c0,0,0,0,0-0.1
				c0,0,0-0.1,0-0.1c0,0,0,0,0,0c0,0,0,0,0,0c0,0,0-0.1,0-0.1c0,0,0-0.1,0-0.1c0,0,0,0,0,0c0,0,0,0,0,0c0,0,0-0.1,0-0.1c0,0,0,0,0,0
				c0,0,0,0,0,0c0,0,0,0,0,0c0,0,0,0,0,0c0,0,0-0.1,0-0.1c0,0,0,0,0,0c0,0,0,0,0,0c0-0.1-0.1-0.1-0.1-0.2c0,0,0,0,0,0c0,0,0,0,0,0
				c0,0,0-0.1-0.1-0.1c0,0,0,0,0,0c0,0,0-0.1-0.1-0.1c0,0,0,0,0,0c0,0,0,0,0,0c0,0,0-0.1-0.1-0.1c0,0,0,0-0.1-0.1c0,0,0,0-0.1-0.1
				c0,0,0,0,0,0c0,0,0,0,0,0c0,0,0,0-0.1-0.1c0,0,0,0-0.1,0c0,0,0,0-0.1,0c0,0,0,0,0,0c0,0,0,0,0,0c0,0,0,0,0,0c0,0,0,0-0.1,0
				c0,0-0.1,0-0.1,0c0,0-0.1,0-0.1,0c0,0,0,0,0,0c0,0,0,0,0,0c0,0,0,0-0.1,0c0,0-0.1,0-0.1,0c0,0-0.1,0-0.1,0c0,0,0,0,0,0
				c0,0-0.1,0-0.1,0c0,0,0,0,0,0c0,0,0,0,0,0c0,0,0,0,0,0c0,0-0.1,0-0.1,0c0,0,0,0,0,0c0,0,0,0,0,0c0,0-0.1,0-0.1,0c0,0,0,0,0,0
				c0,0,0,0,0,0c0,0,0,0-0.1,0c0,0,0,0-0.1,0l-1.8,0.4c0,0,0.1,0,0.1,0c0,0,0,0,0,0c0,0,0.1,0,0.1,0c0,0,0,0,0,0c0,0,0.1,0,0.1,0
				c0,0,0,0,0,0c0,0,0.1,0,0.1,0c0.1,0,0.1,0,0.2,0.1l-0.7,0.2c-0.2,0-0.3,0.1-0.4,0.2c0,0,0,0,0,0c0,0-0.1,0.1-0.1,0.1
				c0,0,0,0-0.1,0.1c0,0,0,0,0,0c0,0,0,0,0,0c0,0,0,0,0,0c0,0,0,0,0,0.1c0,0,0,0,0,0.1c0,0,0,0,0,0.1c0,0,0,0,0,0c0,0,0,0,0,0.1
				c0,0,0,0,0,0.1c0,0,0,0,0,0.1c0,0,0,0,0,0.1c0,0,0,0,0,0c0,0,0,0,0,0c0,0,0,0,0,0c0,0,0,0,0,0.1c0,0,0,0,0,0.1c0,0,0,0.1,0,0.1
				c0,0,0,0,0,0c0,0,0,0,0,0.1c0,0,0,0.1,0,0.1c0,0,0,0,0,0c0,0,0,0,0,0c0,0,0,0,0,0c0,0,0,0.1,0,0.1c0,0,0,0,0,0.1c0,0,0,0,0,0
				c0,0,0,0,0,0c0,0,0,0.1,0,0.1c0,0,0,0,0,0c0,0,0,0,0,0.1c0,0,0,0,0,0.1c0,0,0,0.1,0,0.1c0,0,0,0.1,0,0.1c0,0,0,0.1,0,0.1
				c0,0,0,0.1,0,0.1c0,0,0,0.1,0.1,0.2c0,0,0,0.1,0,0.1c0,0.1,0.1,0.1,0.1,0.2c0,0,0,0.1,0,0.1c0.1,0.1,0.1,0.2,0.2,0.3l0.1,0.2
				l-0.1,0.1c-0.1,0-0.2,0.1-0.3,0.1c0,0,0,0,0,0c-0.1,0-0.2,0.1-0.3,0.1c0,0,0,0,0,0c-0.1,0-0.1,0.1-0.2,0.2c0,0,0,0,0,0
				c-0.1,0.1-0.1,0.1-0.2,0.2c0,0,0,0,0,0c0,0-0.1,0.1-0.1,0.1c0,0,0,0,0,0c0,0-0.1,0.1-0.1,0.1c0,0,0,0.1-0.1,0.1c0,0,0,0,0,0
				c0,0,0,0,0,0c0,0,0,0,0,0.1c0,0,0,0,0,0.1c0,0,0,0,0,0.1c0,0,0,0,0,0.1c0,0,0,0,0,0c0,0,0,0,0,0c0,0,0,0,0,0.1c0,0,0,0,0,0.1
				c0,0,0,0,0,0.1c0,0,0,0,0,0.1c0,0,0,0,0,0c0,0,0,0,0,0c0,0,0,0.1,0,0.1c0,0,0,0.1,0,0.1c0,0,0,0.1,0,0.1c0,0,0,0,0,0
				c0,0,0,0,0,0.1C493.8,365.9,493.8,366,493.8,366C493.8,366,493.8,366,493.8,366z M497,366.9C497,366.9,497,366.9,497,366.9
				C497,366.9,497,366.9,497,366.9c-0.1,0-0.2-0.1-0.3-0.1c0,0,0,0,0,0c-0.1,0-0.1-0.1-0.2-0.1c0,0,0,0,0,0
				c-0.1-0.1-0.1-0.1-0.2-0.2c-0.1-0.1-0.1-0.1-0.1-0.2c0,0,0,0,0,0c0-0.1-0.1-0.1-0.1-0.2c0,0,0,0,0,0c0-0.1,0-0.2-0.1-0.2
				c0,0,0,0,0,0c0-0.1,0-0.2,0-0.3c0-0.1,0-0.2,0-0.3c0,0,0,0,0,0c0,0,0,0,0,0l0.1,0.2C496.5,365.9,496.8,366.4,497,366.9z
				 M498.2,364.4L498.2,364.4l-0.1-0.1L498.2,364.4z"/>
		</g>
		<g>
			<polygon class="st23" points="483,329 481.2,329.4 481.2,331.8 483,331.4 			"/>
			<path class="st23" d="M481,325.1l-0.1,2.2c-0.4,0.2-0.8,0.5-1.2,0.8l0,0c-0.1,0.1-0.2,0.1-0.3,0.2l1.8-0.4c0.1,0,0.2-0.1,0.3-0.2
				l0,0c0.2-0.2,0.4-0.3,0.6-0.5c0.2-0.1,0.4-0.3,0.6-0.4h0h0l0.1-2l1.2-0.3c0.1,0,0.3-0.1,0.4-0.1l-1.6,0.4l0-0.2L481,325.1z"/>
			<path class="st22" d="M484.3,328.6c0.1,0,0.3-0.1,0.4-0.1l0,0c0,0,0,0,0,0l-1.8,0.4c-0.3,0.1-0.5,0.1-0.8,0.2l1.8-0.4
				C484,328.6,484.2,328.6,484.3,328.6z"/>
			<path class="st23" d="M507.8,335.1C507.8,335.1,507.8,335,507.8,335.1c0-0.1,0-0.1,0-0.1c0,0,0,0,0,0c0,0,0,0,0,0c0,0,0,0,0-0.1
				c0,0,0-0.1,0-0.1c0,0,0,0,0,0c0,0,0,0,0,0c0,0,0,0,0,0c0,0,0,0,0-0.1c0,0,0-0.1,0-0.1c0,0,0,0,0,0c0,0,0-0.1-0.1-0.1c0,0,0,0,0,0
				c0,0,0,0,0-0.1c0,0,0,0,0,0c0,0,0,0,0,0c0,0,0,0,0,0c0,0,0,0,0,0c0,0,0,0,0,0c0,0,0,0,0,0c0,0,0,0,0,0c0,0,0,0,0,0c0,0,0,0,0,0
				c0,0,0,0,0,0c0,0,0,0,0,0c0,0,0,0,0,0c0,0,0,0,0,0c0,0,0,0,0,0c0,0,0,0,0,0c0,0,0,0,0,0c0,0,0,0,0,0c0,0,0,0,0,0c0,0,0,0,0,0
				c0,0,0,0,0,0c0,0,0,0,0,0c0,0,0,0-0.1,0c0,0,0,0-0.1,0c0,0,0,0,0,0c0,0,0,0,0,0c0,0,0,0,0,0c0,0,0,0-0.1,0c0,0,0,0,0,0l-1.8,0.4
				c0.1,0,0.1,0,0.2,0c0,0,0,0,0,0c0.1,0,0.1,0,0.2,0c0.1,0,0.1,0,0.2,0.1c0,0,0,0,0,0c0.1,0,0.1,0,0.1,0.1c0,0,0,0,0,0
				c0,0,0.1,0.1,0.1,0.1c0,0,0,0,0,0c0,0,0.1,0.1,0.1,0.1c0,0,0.1,0.1,0.1,0.2c0,0,0,0.1,0,0.1c0,0,0,0.1,0,0.1c0,0,0,0,0,0
				c0,0.1,0,0.1,0,0.2c0,0,0,0,0,0c0,0.1,0,0.1,0,0.2c0,0,0,0,0,0c0,0.1,0,0.1,0,0.2c0,0,0,0,0,0c0,0.1,0,0.1-0.1,0.2c0,0,0,0,0,0
				c0,0.1-0.1,0.1-0.1,0.2c0,0,0,0,0,0c0,0-0.1,0.1-0.1,0.1l0,0c-1.2,1.1-2.6,1.8-4.1,2.2l1.8-0.4c1.5-0.3,2.9-1.1,4.1-2.2l0,0
				c0,0,0,0,0.1-0.1c0,0,0,0,0.1-0.1c0,0,0,0,0,0c0,0,0,0,0,0c0,0,0,0,0,0c0,0,0,0,0,0c0,0,0,0,0,0c0,0,0,0,0,0c0,0,0,0,0,0
				c0,0,0,0,0,0c0,0,0,0,0,0c0,0,0,0,0,0c0,0,0,0,0,0c0,0,0,0,0,0c0,0,0,0,0,0c0,0,0,0,0,0c0,0,0,0,0,0c0,0,0,0,0,0c0,0,0,0,0,0
				c0,0,0,0,0,0C507.8,335.2,507.8,335.2,507.8,335.1C507.8,335.2,507.8,335.2,507.8,335.1C507.8,335.2,507.8,335.2,507.8,335.1
				C507.8,335.2,507.8,335.1,507.8,335.1C507.8,335.1,507.8,335.1,507.8,335.1z"/>
			<path class="st23" d="M512.2,327.9C512.2,327.8,512.2,327.8,512.2,327.9c0-0.1,0-0.1,0-0.2c0-0.3,0-0.6-0.1-0.9
				c0-0.1,0-0.1,0-0.2c0-0.1,0-0.1,0-0.2c0-0.1,0-0.2,0-0.3c0-0.2,0-0.3-0.1-0.5c0-0.1,0-0.2,0-0.2c0,0,0-0.1,0-0.1
				c0-0.1,0-0.3-0.1-0.4c0-0.1,0-0.2,0-0.3c0-0.2-0.1-0.5-0.1-0.7c0,0,0-0.1,0-0.1c0,0,0,0,0,0c0,0,0-0.1,0-0.1
				c0-0.3-0.1-0.5-0.1-0.8c0-0.1,0-0.2-0.1-0.3c0-0.2-0.1-0.4-0.1-0.6c0,0,0-0.1,0-0.1c0-0.1-0.1-0.2-0.1-0.3c0-0.1-0.1-0.2-0.1-0.3
				c0-0.2-0.1-0.3-0.1-0.5c0-0.1-0.1-0.2-0.1-0.3c0-0.2-0.1-0.3-0.1-0.5c0-0.1-0.1-0.2-0.1-0.3c-0.1-0.2-0.1-0.4-0.2-0.7
				c0,0,0-0.1,0-0.1c0,0,0,0,0,0c0,0,0,0,0,0c-0.1-0.3-0.2-0.6-0.4-1c0-0.1-0.1-0.2-0.1-0.3c-0.1-0.3-0.2-0.6-0.3-0.8
				c0,0,0-0.1-0.1-0.1c-0.1-0.3-0.3-0.6-0.4-0.9c0-0.1-0.1-0.2-0.1-0.2c-0.1-0.3-0.2-0.5-0.4-0.8c0,0,0-0.1-0.1-0.1c0,0,0,0,0-0.1
				c-0.1-0.1-0.1-0.3-0.2-0.4c-0.1-0.1-0.1-0.2-0.2-0.3c-0.1-0.1-0.1-0.2-0.2-0.4c-0.1-0.1-0.1-0.2-0.2-0.3
				c-0.1-0.1-0.2-0.2-0.2-0.4c-0.1-0.1-0.1-0.2-0.2-0.3c-0.1-0.1-0.2-0.2-0.2-0.4c-0.1-0.1-0.1-0.2-0.2-0.3c0,0,0,0,0,0
				c-0.2-0.3-0.3-0.5-0.5-0.7c0-0.1-0.1-0.1-0.1-0.2c-0.1-0.2-0.3-0.4-0.4-0.5c0,0-0.1-0.1-0.1-0.1c0-0.1-0.1-0.1-0.1-0.2
				c-0.1-0.1-0.2-0.2-0.3-0.3c-0.1-0.1-0.2-0.2-0.2-0.3c-0.1-0.1-0.2-0.2-0.3-0.3c0-0.1-0.1-0.1-0.1-0.2c0,0-0.1-0.1-0.1-0.1
				c-0.1-0.1-0.1-0.2-0.2-0.2c-0.1-0.1-0.2-0.2-0.3-0.3c-0.1-0.1-0.2-0.2-0.2-0.2c0,0-0.1-0.1-0.1-0.1c-0.1-0.1-0.1-0.1-0.2-0.2
				c-0.1-0.1-0.1-0.1-0.2-0.2c-0.1-0.1-0.2-0.2-0.4-0.3c-0.1,0-0.1-0.1-0.2-0.1c0,0,0,0,0,0c0,0,0,0-0.1-0.1
				c-0.1-0.1-0.3-0.3-0.4-0.4l0,0c-0.1-0.1-0.2-0.1-0.3-0.2c0,0-0.1-0.1-0.1-0.1c0,0-0.1-0.1-0.1-0.1c-0.2-0.2-0.4-0.3-0.7-0.5
				c0,0-0.1-0.1-0.1-0.1c0,0,0,0,0,0c-0.3-0.2-0.5-0.4-0.8-0.6c0,0,0,0,0,0c-0.1,0-0.1-0.1-0.2-0.1c-0.2-0.1-0.4-0.3-0.6-0.4
				c0,0-0.1,0-0.1-0.1c-0.1,0-0.1-0.1-0.2-0.1c-0.2-0.1-0.3-0.2-0.5-0.3c-0.1,0-0.1-0.1-0.2-0.1c-0.1,0-0.1-0.1-0.2-0.1
				c-0.2-0.1-0.3-0.2-0.5-0.3c-0.1,0-0.1-0.1-0.2-0.1c0,0-0.1,0-0.1-0.1c-0.2-0.1-0.4-0.2-0.6-0.2c-0.1,0-0.1-0.1-0.2-0.1
				c0,0,0,0-0.1,0c0,0-0.1,0-0.1,0c-0.3-0.1-0.5-0.2-0.8-0.3c0,0,0,0,0,0c-0.2-0.1-0.4-0.1-0.6-0.2c-0.1,0-0.1,0-0.2,0
				c-0.1,0-0.1,0-0.2-0.1c-0.1,0-0.3-0.1-0.4-0.1c0,0,0,0,0,0c-0.2,0-0.3-0.1-0.5-0.1c-0.1,0-0.2,0-0.2-0.1
				c-0.3-0.1-0.5-0.1-0.8-0.2c0,0,0,0,0,0c0,0,0,0-0.1,0c-0.2,0-0.5-0.1-0.7-0.1c-0.1,0-0.1,0-0.2,0c0,0-0.1,0-0.1,0
				c-0.2,0-0.4,0-0.6,0c0,0-0.1,0-0.1,0c-0.1,0-0.3,0-0.4,0c-0.1,0-0.2,0-0.2,0c-0.1,0-0.2,0-0.2,0c-0.2,0-0.4,0-0.6,0
				c-0.1,0-0.1,0-0.2,0c0,0,0,0,0,0c-0.2,0-0.5,0-0.7,0.1c0,0,0,0-0.1,0c-0.2,0-0.4,0.1-0.6,0.1c0,0,0,0-0.1,0c0,0-0.1,0-0.1,0
				c-0.2,0-0.5,0.1-0.7,0.1l-1.8,0.4c0.2-0.1,0.5-0.1,0.7-0.1c0,0,0.1,0,0.1,0c0.2,0,0.5-0.1,0.7-0.1c0,0,0,0,0.1,0
				c0.3,0,0.5,0,0.8-0.1c0.1,0,0.1,0,0.2,0c0.2,0,0.4,0,0.6,0c0.1,0,0.2,0,0.2,0c0.2,0,0.3,0,0.5,0c-0.1,0-0.3,0-0.4,0
				c0,0,0,0-0.1,0c-0.2,0-0.4,0.1-0.6,0.1c0,0,0,0,0,0c-0.3,0-0.6,0.1-0.8,0.2c0,0,0,0,0,0l0,0c0,0,0,0,0,0l0,0c0,0,0,0,0,0
				l-1.8,0.4c-0.2,0-0.4,0.1-0.6,0.2c-0.1,0-0.1,0-0.2,0.1c-0.1,0-0.3,0.1-0.4,0.1c-0.1,0-0.1,0-0.2,0.1c-0.1,0-0.3,0.1-0.4,0.2
				c-0.1,0-0.1,0-0.2,0.1c-0.2,0.1-0.4,0.2-0.6,0.2c0,0,0,0,0,0c-0.2,0.1-0.4,0.2-0.5,0.3c-0.1,0-0.1,0.1-0.2,0.1
				c-0.1,0.1-0.3,0.1-0.4,0.2c-0.1,0-0.1,0.1-0.2,0.1c-0.1,0.1-0.3,0.2-0.4,0.2c-0.1,0-0.1,0.1-0.2,0.1c-0.2,0.1-0.4,0.2-0.5,0.4
				c0,0,0,0-0.1,0c-0.2,0.1-0.3,0.2-0.5,0.3c-0.1,0-0.1,0.1-0.2,0.1c-0.1,0.1-0.2,0.2-0.4,0.3c-0.1,0-0.1,0.1-0.2,0.1
				c-0.1,0.1-0.2,0.2-0.4,0.3c0,0-0.1,0.1-0.1,0.1c-0.2,0.1-0.3,0.3-0.5,0.5c0,0,0,0-0.1,0.1c-0.1,0.1-0.2,0.2-0.3,0.3
				c0,0,0,0-0.1,0.1c-0.2,0.2-0.4,0.4-0.5,0.6c0,0,0,0,0,0c-0.2,0.2-0.4,0.4-0.5,0.7c0,0,0,0,0,0.1c-0.1,0.1-0.1,0.2-0.2,0.3
				c-0.1,0.1-0.1,0.2-0.2,0.2c-0.1,0.1-0.2,0.3-0.3,0.4c0,0.1-0.1,0.1-0.1,0.2c0,0,0,0,0,0c-0.1,0.2-0.2,0.4-0.4,0.6
				c0,0.1-0.1,0.1-0.1,0.2c-0.1,0.1-0.1,0.2-0.2,0.3c0,0,0,0.1,0,0.1c-0.2,0.3-0.3,0.6-0.5,0.9c0,0,0,0,0,0c0,0,0,0.1-0.1,0.1
				c-0.1,0.2-0.2,0.5-0.3,0.7c0,0,0,0.1-0.1,0.1c0,0.1,0,0.1-0.1,0.2c-0.1,0.2-0.2,0.4-0.2,0.6c0,0.1-0.1,0.1-0.1,0.2
				c0,0,0,0.1,0,0.1c-0.1,0.2-0.1,0.4-0.2,0.6c0,0.1,0,0.1-0.1,0.2c0,0,0,0,0,0c-0.1,0.3-0.2,0.5-0.2,0.8c0,0,0,0,0,0.1c0,0,0,0,0,0
				c-0.1,0.3-0.2,0.6-0.2,0.9c0,0,0,0,0,0c0,0.1,0,0.2-0.1,0.3c0,0.2-0.1,0.4-0.1,0.6c0,0,0,0,0,0.1c0,0.1,0,0.2-0.1,0.3
				c0,0.2-0.1,0.4-0.1,0.5c0,0,0,0.1,0,0.1c0,0.1,0,0.2,0,0.3c0,0.2-0.1,0.3-0.1,0.5c0,0,0,0.1,0,0.1c0,0.1,0,0.2,0,0.3
				c0,0.2,0,0.4-0.1,0.5c0,0.1,0,0.1,0,0.2c0,0.1,0,0.1,0,0.2c0,0.2,0,0.4,0,0.6c0,0.1,0,0.2,0,0.2c0,0.1,0,0.3,0,0.4
				c0,0.2,0,0.4,0,0.6c0,0,0,0,0,0.1c0,0.3,0,0.6,0,1c0,0,0,0,0,0.1c0,0,0,0.1,0,0.1c0,0.3,0,0.6,0,0.9c0,0.1,0,0.1,0,0.2
				c0,0.1,0,0.1,0,0.2c0,0.1,0,0.2,0,0.3c0,0.2,0,0.3,0,0.5c0,0.1,0,0.2,0,0.2c0,0,0,0.1,0,0.1c0,0.1,0,0.2,0,0.4c0,0.1,0,0.2,0,0.3
				c0,0.2,0.1,0.3,0.1,0.5c0,0.1,0,0.2,0,0.3c0,0,0,0,0,0c0,0.1,0,0.1,0,0.2c0,0.2,0.1,0.4,0.1,0.6c0,0.1,0,0.2,0.1,0.3
				c0,0.2,0.1,0.4,0.1,0.5c0,0,0,0.1,0,0.1c0,0.1,0,0.2,0.1,0.3c0,0.1,0.1,0.2,0.1,0.3c0,0.1,0.1,0.3,0.1,0.4c0,0.1,0.1,0.2,0.1,0.3
				c0,0.2,0.1,0.3,0.1,0.5c0,0.1,0.1,0.2,0.1,0.3c0.1,0.2,0.1,0.4,0.2,0.5c0,0.1,0,0.1,0.1,0.2c0,0,0,0,0,0c0,0,0,0,0,0.1
				c0.1,0.3,0.2,0.6,0.4,1c0,0.1,0.1,0.2,0.1,0.2c0.1,0.3,0.3,0.7,0.4,1c0,0,0,0.1,0.1,0.1c0.1,0.3,0.3,0.6,0.4,0.9
				c0,0.1,0.1,0.1,0.1,0.2c0.2,0.3,0.3,0.6,0.5,0.9c0,0,0,0,0,0.1c0,0.1,0.1,0.2,0.2,0.3c0.1,0.1,0.1,0.2,0.2,0.3
				c0.1,0.1,0.1,0.2,0.2,0.3c0.1,0.1,0.1,0.2,0.2,0.3c0.1,0.1,0.1,0.2,0.2,0.3c0.1,0.1,0.1,0.2,0.2,0.3c0.1,0.1,0.1,0.2,0.2,0.3
				c0.1,0.1,0.1,0.2,0.2,0.3c0,0,0,0,0,0.1c0,0,0.1,0.1,0.1,0.1c0.1,0.2,0.3,0.4,0.4,0.6c0.1,0.1,0.1,0.2,0.2,0.2
				c0.1,0.2,0.3,0.4,0.4,0.6c0,0,0.1,0.1,0.1,0.1c0,0,0,0,0,0.1c0.1,0.1,0.2,0.2,0.3,0.4c0.1,0.1,0.1,0.2,0.2,0.3
				c0.1,0.1,0.2,0.2,0.3,0.4c0.1,0.1,0.1,0.1,0.2,0.2c0,0,0,0,0,0c0.1,0.1,0.1,0.1,0.2,0.2c0.1,0.1,0.2,0.2,0.3,0.3
				c0.1,0.1,0.1,0.1,0.2,0.2c0.1,0.1,0.2,0.2,0.2,0.2c0,0,0,0,0.1,0.1c0.1,0.1,0.1,0.1,0.2,0.2c0.1,0.1,0.2,0.2,0.3,0.3
				c0.1,0.1,0.1,0.1,0.2,0.2c0.1,0,0.1,0.1,0.2,0.1c0.1,0.1,0.2,0.2,0.3,0.3c0,0,0,0,0,0l0,0l0,0l0,0.3l1.8-0.4l0-0.3l0,0l0,0l0-1
				l0-0.4c-0.2-0.2-0.5-0.5-0.7-0.7c-0.1-0.1-0.1-0.1-0.2-0.2c-0.1-0.1-0.1-0.2-0.2-0.2c-0.1-0.1-0.2-0.2-0.3-0.3
				c-0.1-0.1-0.1-0.2-0.2-0.2c-0.1-0.1-0.2-0.2-0.2-0.3c-0.1-0.1-0.2-0.2-0.3-0.3c-0.1-0.1-0.1-0.2-0.2-0.3
				c-0.1-0.1-0.2-0.2-0.3-0.3c-0.1-0.1-0.1-0.2-0.2-0.2c-0.2-0.2-0.3-0.4-0.5-0.6c0,0,0,0,0-0.1c-0.2-0.2-0.3-0.5-0.5-0.7
				c-0.1-0.1-0.1-0.2-0.2-0.3c-0.1-0.1-0.1-0.2-0.2-0.3c-0.1-0.1-0.1-0.2-0.2-0.3c-0.1-0.1-0.1-0.2-0.2-0.3
				c-0.1-0.1-0.1-0.2-0.2-0.3c-0.1-0.1-0.1-0.2-0.2-0.3c-0.1-0.1-0.1-0.2-0.2-0.3c-0.1-0.1-0.1-0.2-0.2-0.3c0-0.1-0.1-0.2-0.1-0.2
				c-0.1-0.3-0.3-0.5-0.4-0.8c0,0,0-0.1-0.1-0.1c-0.1-0.3-0.3-0.6-0.4-0.9c0-0.1-0.1-0.1-0.1-0.2c-0.1-0.3-0.2-0.5-0.3-0.8
				c0,0,0-0.1,0-0.1c-0.1-0.3-0.2-0.6-0.3-0.9c0-0.1-0.1-0.2-0.1-0.3c0-0.1-0.1-0.2-0.1-0.3c0-0.1-0.1-0.2-0.1-0.4
				c0-0.1-0.1-0.2-0.1-0.3c0-0.1-0.1-0.3-0.1-0.4c0-0.1-0.1-0.2-0.1-0.3c0-0.1-0.1-0.3-0.1-0.4c0-0.1-0.1-0.2-0.1-0.3
				c0-0.1,0-0.2-0.1-0.3c0-0.2-0.1-0.3-0.1-0.5c0-0.1,0-0.2-0.1-0.3c0-0.2-0.1-0.3-0.1-0.5c0-0.1,0-0.2-0.1-0.3c0-0.1,0-0.2-0.1-0.3
				c0-0.1,0-0.3-0.1-0.4c0-0.1,0-0.2,0-0.3c0-0.1,0-0.3,0-0.4c0-0.1,0-0.2,0-0.3c0-0.2,0-0.3,0-0.5c0-0.1,0-0.1,0-0.2
				c0-0.1,0-0.1,0-0.2c0-0.3,0-0.6,0-0.9c0-0.1,0-0.1,0-0.2c0-0.3,0-0.6,0-0.9c0-0.2,0-0.4,0-0.7c0-0.2,0-0.4,0-0.6
				c0-0.2,0-0.4,0-0.5c0-0.1,0-0.3,0-0.4c0-0.2,0-0.3,0.1-0.5c0-0.1,0-0.3,0-0.4c0-0.2,0-0.3,0.1-0.5c0-0.1,0-0.2,0.1-0.4
				c0-0.2,0.1-0.3,0.1-0.5c0-0.1,0-0.2,0.1-0.3c0-0.2,0.1-0.3,0.1-0.5c0-0.1,0-0.2,0.1-0.3c0.1-0.2,0.1-0.5,0.2-0.7c0,0,0-0.1,0-0.1
				c0.1-0.3,0.2-0.5,0.2-0.8c0-0.1,0-0.1,0.1-0.2c0.1-0.2,0.1-0.4,0.2-0.6c0-0.1,0.1-0.2,0.1-0.3c0.1-0.2,0.1-0.4,0.2-0.5
				c0-0.1,0.1-0.2,0.1-0.3c0.1-0.2,0.2-0.4,0.3-0.6c0-0.1,0.1-0.1,0.1-0.2c0.1-0.3,0.3-0.6,0.4-0.8c0.1-0.1,0.2-0.3,0.2-0.4
				c0,0,0-0.1,0.1-0.1c0.1-0.2,0.2-0.4,0.3-0.6c0-0.1,0.1-0.2,0.2-0.2c0.1-0.1,0.2-0.2,0.2-0.3c0.1-0.1,0.1-0.2,0.2-0.2
				c0.1-0.1,0.2-0.2,0.2-0.3c0.2-0.2,0.3-0.4,0.5-0.6c0,0,0,0,0,0c0.2-0.2,0.3-0.4,0.5-0.6c0.1-0.1,0.3-0.3,0.4-0.4c0,0,0,0,0,0
				c0.1-0.1,0.3-0.3,0.5-0.4c0,0,0.1-0.1,0.1-0.1c0.1-0.1,0.2-0.2,0.3-0.3c0.1,0,0.1-0.1,0.2-0.1c0.1-0.1,0.2-0.2,0.3-0.3
				c0.1,0,0.1-0.1,0.2-0.1c0.2-0.1,0.3-0.2,0.5-0.3c0,0,0,0,0,0c0.2-0.1,0.3-0.2,0.5-0.3c0.1,0,0.1-0.1,0.2-0.1
				c0.1-0.1,0.2-0.1,0.4-0.2c0.1,0,0.1-0.1,0.2-0.1c0.1-0.1,0.3-0.1,0.4-0.2c0.1,0,0.1-0.1,0.2-0.1c0.2-0.1,0.4-0.2,0.5-0.3
				c0,0,0,0,0,0c0.2-0.1,0.4-0.2,0.6-0.2c0.1,0,0.1,0,0.2-0.1c0.1,0,0.3-0.1,0.4-0.1c0.1,0,0.1,0,0.2-0.1c0.1,0,0.3-0.1,0.4-0.1
				c0.1,0,0.1,0,0.2-0.1c0.2-0.1,0.4-0.1,0.6-0.1c0,0,0,0,0,0l0,0c0,0,0,0,0,0l-1.8,0.4c-0.2,0-0.4,0.1-0.6,0.1
				c-0.1,0-0.1,0-0.2,0.1c-0.1,0-0.3,0.1-0.4,0.1c-0.1,0-0.1,0-0.2,0.1c-0.1,0-0.3,0.1-0.4,0.1c-0.1,0-0.1,0-0.2,0.1c0,0,0,0,0,0
				c0,0,0,0,0,0c0.1,0,0.2-0.1,0.3-0.1c0.1,0,0.1-0.1,0.2-0.1c0.1,0,0.2-0.1,0.3-0.1c0.1,0,0.2-0.1,0.2-0.1c0.1,0,0.2-0.1,0.3-0.1
				c0.1,0,0.2-0.1,0.2-0.1c0.1,0,0.2-0.1,0.3-0.1c0.1,0,0.1-0.1,0.2-0.1c0.1,0,0.2-0.1,0.3-0.1c0.1,0,0.1,0,0.2-0.1
				c0.1,0,0.1,0,0.2-0.1c0.2,0,0.3,0,0.5-0.1c0,0,0,0,0.1,0c0.2,0,0.5,0,0.7-0.1c0.1,0,0.1,0,0.2,0c0.2,0,0.4,0,0.6,0
				c0.1,0,0.2,0,0.2,0c0.2,0,0.4,0,0.6,0c0,0,0.1,0,0.1,0c0.2,0,0.5,0,0.7,0.1c0,0,0.1,0,0.1,0c0.2,0,0.4,0.1,0.7,0.1c0,0,0,0,0.1,0
				c0.3,0,0.5,0.1,0.8,0.1c0.1,0,0.3,0.1,0.4,0.1c0.1,0,0.1,0,0.2,0.1c0.1,0,0.2,0.1,0.3,0.1c0.1,0,0.1,0,0.2,0.1c0,0,0.1,0,0.1,0
				c0.3,0.1,0.5,0.2,0.8,0.3c0,0,0,0,0,0c0.3,0.1,0.5,0.2,0.8,0.3c0,0,0.1,0,0.1,0.1c0.2,0.1,0.5,0.2,0.7,0.3
				c0.1,0.1,0.2,0.1,0.4,0.2c0.2,0.1,0.4,0.2,0.6,0.3c0.2,0.1,0.3,0.2,0.5,0.3c0.1,0.1,0.2,0.1,0.3,0.2c0.3,0.2,0.5,0.3,0.8,0.5
				c0,0,0,0,0,0c0.3,0.2,0.5,0.4,0.8,0.5c0.1,0.1,0.2,0.1,0.2,0.2c0.2,0.1,0.4,0.3,0.6,0.4c0.1,0.1,0.2,0.1,0.3,0.2
				c0.2,0.2,0.4,0.3,0.6,0.5c0.1,0.1,0.2,0.2,0.3,0.2c0.1,0,0.1,0.1,0.2,0.1c0.2,0.2,0.3,0.3,0.5,0.5c0,0,0.1,0.1,0.1,0.1
				c0.2,0.2,0.4,0.4,0.6,0.6c0,0.1,0.1,0.1,0.1,0.2c0.1,0.1,0.3,0.3,0.4,0.4c0.1,0.1,0.1,0.2,0.2,0.3c0.1,0.1,0.2,0.3,0.3,0.4
				c0.1,0.1,0.1,0.2,0.2,0.3c0.1,0.1,0.2,0.2,0.3,0.3c0.1,0.1,0.2,0.3,0.3,0.4c0.1,0.1,0.2,0.2,0.2,0.3c0.1,0.1,0.2,0.3,0.3,0.4
				c0.1,0.1,0.2,0.3,0.3,0.4c0.1,0.1,0.1,0.2,0.2,0.3c0.1,0.2,0.2,0.4,0.3,0.5c0,0.1,0.1,0.1,0.1,0.2c0.1,0.2,0.3,0.5,0.4,0.7
				c0,0.1,0.1,0.1,0.1,0.2c0.1,0.2,0.2,0.4,0.3,0.6c0.1,0.2,0.2,0.5,0.4,0.7c0,0.1,0.1,0.1,0.1,0.2c0.1,0.3,0.3,0.6,0.4,0.9
				c0,0.1,0.1,0.2,0.1,0.3c0.1,0.2,0.2,0.5,0.3,0.7c0,0.1,0.1,0.2,0.1,0.4c0.1,0.2,0.2,0.4,0.2,0.6c0.1,0.2,0.1,0.3,0.2,0.5
				c0,0.1,0.1,0.2,0.1,0.2c0.1,0.3,0.2,0.5,0.2,0.8c0,0,0,0.1,0,0.1c0.1,0.2,0.1,0.5,0.2,0.7c0,0.1,0,0.2,0.1,0.3
				c0,0.2,0.1,0.4,0.1,0.6c0,0.1,0.1,0.3,0.1,0.4c0,0.2,0.1,0.4,0.1,0.5c0,0.1,0,0.3,0.1,0.4c0,0.3,0.1,0.5,0.1,0.8c0,0,0,0,0,0
				c0,0.3,0.1,0.6,0.1,0.9c0,0.1,0,0.1,0,0.2c0,0.3,0.1,0.5,0.1,0.8c0,0,0,0.1,0,0.1c0,0.1,0,0.1,0,0.2c0,0.3,0,0.6,0,0.9
				c0,0.1,0,0.3,0,0.4c0,0.2,0,0.4,0,0.6c0,0.3,0,0.5,0,0.8c0,0.2,0,0.4,0,0.5c0,0.2,0,0.5,0,0.7c0,0.1,0,0.1,0,0.2
				c0,0.3-0.1,0.6-0.1,0.8c0,0.1,0,0.1,0,0.2c0,0.2-0.1,0.4-0.1,0.7c0,0.1,0,0.2,0,0.3c0,0.2-0.1,0.4-0.1,0.6c0,0.1,0,0.2-0.1,0.3
				c0,0.2-0.1,0.4-0.1,0.6c0,0.1,0,0.1,0,0.2c-0.1,0.3-0.1,0.5-0.2,0.8c0,0.1,0,0.1-0.1,0.2c-0.1,0.2-0.1,0.4-0.2,0.6
				c0,0.1-0.1,0.2-0.1,0.2c-0.1,0.2-0.1,0.4-0.2,0.6c0,0,0,0.1-0.1,0.1c-0.1,0.3-0.2,0.5-0.3,0.8c0,0.1-0.1,0.1-0.1,0.2
				c-0.1,0.2-0.2,0.5-0.3,0.7c0,0,0,0.1-0.1,0.1c-0.1,0.3-0.3,0.6-0.4,0.8c0,0.1-0.1,0.2-0.1,0.3c0,0.1-0.1,0.2-0.1,0.2
				c-0.1,0.1-0.1,0.2-0.2,0.3c0,0.1-0.1,0.1-0.1,0.2c-0.1,0.1-0.1,0.2-0.2,0.3c-0.1,0.1-0.1,0.2-0.2,0.3c-0.1,0.1-0.1,0.2-0.2,0.2
				c-0.1,0.1-0.1,0.2-0.2,0.3c0,0.1-0.1,0.1-0.2,0.2c-0.1,0.2-0.2,0.3-0.4,0.5c0,0-0.1,0.1-0.1,0.1c-0.2,0.2-0.3,0.4-0.5,0.6
				c0,0-0.1,0.1-0.1,0.1c-0.1,0.1-0.2,0.3-0.4,0.4c-0.1,0.1-0.1,0.1-0.2,0.2c-0.1,0.1-0.2,0.2-0.3,0.3c-0.1,0.1-0.1,0.1-0.2,0.2
				c-0.1,0.1-0.3,0.2-0.4,0.3c-0.1,0-0.1,0.1-0.2,0.1c-0.2,0.1-0.4,0.3-0.6,0.4c0,0-0.1,0-0.1,0.1c-0.2,0.1-0.3,0.2-0.5,0.3
				c0,0-0.1,0.1-0.1,0.1l-0.1,0l0.3-8.9l0,0l0-0.8l1.5-0.3c-0.1,0-0.3,0.1-0.4,0.1c-0.1,0-0.1,0-0.2,0c0,0,0,0,0,0l-0.9,0.2l0-0.2
				c0,0,0,0,0,0l0,0l0.1-2.1l0,0c0,0,0,0,0,0l0-0.2l0.9-0.2c1-0.2,2-0.7,2.8-1.5l0,0c0,0,0,0,0.1,0c0,0,0,0,0.1-0.1c0,0,0,0,0,0
				c0,0,0,0,0,0c0,0,0,0,0,0c0,0,0,0,0,0c0,0,0,0,0,0c0,0,0,0,0,0c0,0,0,0,0,0c0,0,0,0,0,0c0,0,0,0,0,0c0,0,0,0,0,0c0,0,0,0,0,0
				c0,0,0,0,0,0c0,0,0,0,0,0c0,0,0,0,0,0c0,0,0,0,0,0c0,0,0,0,0,0c0,0,0,0,0,0c0,0,0,0,0,0c0,0,0,0,0,0c0,0,0,0,0,0c0,0,0,0,0,0
				c0,0,0,0,0,0c0,0,0,0,0,0c0,0,0,0,0-0.1c0,0,0,0,0-0.1c0,0,0,0,0,0c0,0,0,0,0,0c0,0,0,0,0-0.1c0,0,0-0.1,0-0.1c0,0,0,0,0,0
				c0,0,0,0,0,0c0,0,0,0,0,0c0,0,0,0,0-0.1c0,0,0-0.1,0-0.1c0,0,0,0,0,0c0,0,0-0.1-0.1-0.1c0,0,0,0,0,0c0,0,0,0,0-0.1c0,0,0,0,0,0
				c0,0,0,0,0,0c0,0,0,0,0,0c0,0,0,0,0,0c0,0,0,0,0,0c0,0,0,0,0,0c0,0,0,0,0,0c0,0,0,0,0,0c0,0,0,0,0,0c0,0,0,0,0,0c0,0,0,0,0,0
				c0,0,0,0,0,0c0,0,0,0,0,0c0,0,0,0,0,0c0,0,0,0,0,0c0,0,0,0,0,0c0,0,0,0,0,0c0,0,0,0,0,0c0,0,0,0,0,0c0,0,0,0,0,0c0,0,0,0,0,0
				c0,0,0,0-0.1,0c0,0,0,0-0.1,0c0,0,0,0,0,0c0,0,0,0,0,0c0,0,0,0,0,0c0,0,0,0-0.1,0c0,0,0,0,0,0l-1.8,0.4c0.1,0,0.1,0,0.2,0
				c0,0,0,0,0,0c0.1,0,0.1,0,0.2,0c0.1,0,0.1,0,0.2,0.1c0,0,0,0,0,0c0.1,0,0.1,0,0.1,0.1c0,0,0,0,0,0c0,0,0.1,0.1,0.1,0.1
				c0,0,0,0,0,0c0,0,0.1,0.1,0.1,0.1c0,0,0.1,0.1,0.1,0.2c0,0,0,0.1,0,0.1c0,0,0,0.1,0,0.1c0,0,0,0,0,0c0,0.1,0,0.1,0,0.2
				c0,0,0,0,0,0c0,0.1,0,0.1,0,0.2c0,0,0,0,0,0c0,0.1,0,0.1,0,0.2c0,0,0,0,0,0c0,0.1,0,0.1-0.1,0.2c0,0,0,0,0,0
				c0,0.1-0.1,0.1-0.1,0.2c0,0,0,0,0,0c0,0-0.1,0.1-0.1,0.1l0,0c-0.6,0.5-1.2,0.9-1.9,1.2l0.1-1.9l0,0l0.1-2.3c0,0,0,0,0,0l0,0
				l0-0.1l0.9-0.2c0.1-0.1,0.2-0.2,0.4-0.3l0,0c0,0,0,0,0,0c0,0,0,0,0-0.1c0,0,0,0,0,0c0,0,0,0,0,0c0,0,0,0,0,0c0,0,0,0,0,0
				c0,0,0,0,0,0c0,0,0,0,0,0c0,0,0,0,0,0c0,0,0,0,0,0c0,0,0,0,0,0c0,0,0,0,0,0c0,0,0,0,0,0c0,0,0,0,0,0c0,0,0,0,0,0c0,0,0,0,0,0
				c0,0,0,0,0,0c0,0,0,0,0,0c0,0,0,0,0,0c0,0,0,0,0,0c0,0,0,0,0,0c0,0,0,0,0,0c0,0,0,0,0,0c0,0,0,0,0,0c0,0,0,0,0,0c0,0,0,0,0-0.1
				c0,0,0,0,0-0.1c0,0,0,0,0,0c0,0,0,0,0,0c0,0,0,0,0-0.1c0,0,0-0.1,0-0.1c0,0,0,0,0,0c0,0,0,0,0,0c0,0,0,0,0,0c0,0,0,0,0-0.1
				c0,0,0,0,0-0.1c0,0,0,0,0,0c0,0,0-0.1-0.1-0.1c0,0,0,0,0,0c0,0,0,0,0,0c0,0,0,0,0-0.1c0,0,0,0,0,0c0,0,0,0,0,0c0,0,0,0,0,0
				c0,0,0,0,0,0c0,0,0,0,0,0c0,0,0,0,0,0c0,0,0,0,0,0c0,0,0,0,0,0c0,0,0,0,0,0c0,0,0,0,0,0c0,0,0,0,0,0c0,0,0,0,0,0c0,0,0,0,0,0
				c0,0,0,0,0,0c0,0,0,0,0,0c0,0,0,0,0,0c0,0,0,0,0,0h0l0,0l-0.9,0.2l0.2-7l-9-7.9l-1.8,0.4l2.3,2l-1.6,0.4l-0.3,9.2
				c0,0,0,0-0.1-0.1c-0.1-0.1-0.2-0.1-0.3-0.2c0,0-0.1-0.1-0.1-0.1c0,0,0,0,0,0c-0.2-0.1-0.3-0.2-0.5-0.3c0,0,0,0,0,0
				c0,0-0.1-0.1-0.1-0.1c-0.1-0.1-0.2-0.1-0.3-0.2c0,0-0.1,0-0.1-0.1c-0.1,0-0.1-0.1-0.2-0.1c-0.1,0-0.1-0.1-0.2-0.1
				c-0.1,0-0.1-0.1-0.2-0.1c-0.1,0-0.1-0.1-0.2-0.1c0,0-0.1,0-0.1,0c-0.1,0-0.2-0.1-0.3-0.1c0,0-0.1,0-0.1-0.1c0,0,0,0,0,0
				c-0.2-0.1-0.3-0.1-0.5-0.2c0,0,0,0,0,0c0,0-0.1,0-0.1,0c-0.1,0-0.2-0.1-0.4-0.1c0,0-0.1,0-0.1,0c-0.1,0-0.3-0.1-0.4-0.1
				c0,0,0,0,0,0c0,0,0,0,0,0c-0.2,0-0.3,0-0.5-0.1c0,0,0,0-0.1,0c0,0,0,0-0.1,0c-0.2,0-0.4,0-0.5,0c0,0,0,0,0,0c-0.1,0-0.2,0-0.4,0
				c0,0-0.1,0-0.1,0c-0.1,0-0.1,0-0.2,0c0,0,0,0-0.1,0c-0.1,0-0.1,0-0.2,0c-0.1,0-0.1,0-0.2,0c-0.1,0-0.1,0-0.2,0c0,0-0.1,0-0.1,0
				c0,0-0.1,0-0.1,0c0,0,0,0,0,0l-1.1,0.2l0-2c-0.1,0-0.2,0-0.2,0c0,0,0,0-0.1,0c-0.2,0-0.4,0.1-0.5,0.1l-1.8,0.4
				c0.2,0,0.4-0.1,0.5-0.1c0.1,0,0.2,0,0.3,0l0,2l-0.3,0.1c-1.3,0.3-2.5,0.9-3.5,1.8c0,0-0.1,0.1-0.2,0.1c-0.1,0-0.1,0-0.2,0.1h0
				c0,0,0,0,0,0l1.8-0.4c0.1,0,0.2-0.1,0.3-0.2c1-0.9,2.1-1.5,3.3-1.8l0.4-0.1c0,0,0.1,0,0.1,0c0.1,0,0.1,0,0.2,0c0.1,0,0.2,0,0.3,0
				c0,0,0.1,0,0.1,0c0.1,0,0.2,0,0.4,0c0.2,0,0.4,0,0.5,0c0,0,0.1,0,0.1,0c0.2,0,0.3,0,0.5,0.1c0,0,0,0,0.1,0c0.1,0,0.3,0,0.4,0.1
				c0.2,0,0.3,0.1,0.5,0.1c0,0,0.1,0,0.1,0c0.2,0.1,0.4,0.1,0.6,0.2c0,0,0.1,0,0.1,0.1c0.1,0.1,0.3,0.1,0.4,0.2
				c0.1,0,0.1,0.1,0.2,0.1c0.1,0.1,0.3,0.1,0.4,0.2c0.1,0,0.1,0.1,0.2,0.1c0.1,0.1,0.3,0.1,0.4,0.2c0,0,0.1,0,0.1,0.1
				c0.2,0.1,0.4,0.2,0.5,0.3c0,0,0.1,0.1,0.1,0.1c0.1,0.1,0.3,0.2,0.4,0.3c0.1,0,0.1,0.1,0.2,0.1c0.1,0.1,0.3,0.2,0.4,0.4l1.2-0.3
				l-0.1,4c-0.1-0.1-0.1-0.2-0.2-0.2c0,0,0,0,0-0.1c0,0,0,0,0,0c-0.1-0.1-0.2-0.2-0.3-0.3c0,0,0,0,0,0c0,0,0,0,0,0
				c-0.1-0.1-0.2-0.2-0.3-0.3c0,0,0,0,0,0c0,0-0.1,0-0.1-0.1c-0.1-0.1-0.1-0.1-0.2-0.2c0,0,0,0,0,0c0,0-0.1,0-0.1-0.1
				c-0.1,0-0.1-0.1-0.2-0.1c0,0,0,0,0,0c0,0-0.1,0-0.1-0.1c-0.1,0-0.1-0.1-0.2-0.1c0,0,0,0,0,0c0,0-0.1,0-0.1-0.1
				c-0.1,0-0.1-0.1-0.2-0.1c0,0,0,0-0.1,0c0,0-0.1,0-0.1,0c-0.1,0-0.1-0.1-0.2-0.1c0,0,0,0-0.1,0c0,0-0.1,0-0.1,0
				c-0.1,0-0.1-0.1-0.2-0.1c0,0,0,0-0.1,0c0,0-0.1,0-0.1,0c-0.1,0-0.1,0-0.2-0.1c0,0,0,0-0.1,0c0,0,0,0-0.1,0c-0.1,0-0.1,0-0.2-0.1
				c0,0-0.1,0-0.1,0c0,0,0,0-0.1,0c-0.1,0-0.1,0-0.2-0.1c0,0-0.1,0-0.1,0c0,0,0,0-0.1,0c-0.1,0-0.1,0-0.2,0c0,0-0.1,0-0.1,0
				c0,0-0.1,0-0.1,0c-0.1,0-0.2,0-0.3-0.1c0,0,0,0,0,0c-0.1,0-0.2,0-0.3,0c0,0,0,0,0,0c0,0,0,0-0.1,0c-0.1,0-0.2,0-0.3,0
				c0,0,0,0-0.1,0c0,0,0,0,0,0c-0.1,0-0.2,0-0.4,0c0,0,0,0,0,0c0,0,0,0,0,0c-0.1,0-0.3,0-0.4,0c0,0,0,0,0,0c0,0,0,0,0,0
				c-0.1,0-0.2,0-0.3,0.1c0,0,0,0,0,0l-1.8,0.4c0.1,0,0.2,0,0.3-0.1c0,0,0,0,0,0c0.1,0,0.3,0,0.4,0c0,0,0,0,0,0c0.1,0,0.2,0,0.4,0
				c0,0,0.1,0,0.1,0c0.1,0,0.2,0,0.3,0c0,0,0.1,0,0.1,0c0.1,0,0.2,0,0.3,0c0.1,0,0.2,0,0.3,0.1c0.1,0,0.1,0,0.2,0c0.1,0,0.1,0,0.2,0
				c0,0,0.1,0,0.1,0c0.1,0,0.1,0,0.2,0.1c0,0,0.1,0,0.1,0c0.1,0,0.1,0,0.2,0.1c0,0,0.1,0,0.1,0.1c0.1,0,0.1,0,0.2,0.1
				c0,0,0.1,0,0.1,0.1c0.1,0,0.1,0.1,0.2,0.1c0,0,0.1,0,0.1,0.1c0.1,0,0.1,0.1,0.2,0.1c0,0,0.1,0.1,0.1,0.1c0.1,0,0.1,0.1,0.2,0.1
				c0,0,0.1,0.1,0.1,0.1c0.1,0,0.1,0.1,0.2,0.1c0,0,0.1,0.1,0.1,0.1c0.1,0,0.1,0.1,0.2,0.1c0,0,0.1,0.1,0.1,0.1
				c0.1,0.1,0.1,0.1,0.2,0.2c0,0,0.1,0.1,0.1,0.1c0.1,0.1,0.2,0.2,0.3,0.3c0,0,0,0,0,0c0.1,0.1,0.2,0.2,0.3,0.3c0,0,0.1,0.1,0.1,0.1
				c0.1,0.1,0.2,0.2,0.2,0.3c0,0,0.1,0.1,0.1,0.1c0.1,0.1,0.2,0.2,0.3,0.4c0,0,0,0,0,0.1c0,0,0,0.1,0.1,0.1c0,0,0,0,0.1,0.1
				c0,0,0,0,0,0c0,0,0.1,0.1,0.1,0.1l1.2-0.3l-0.1,4.2c-0.1-0.1-0.1-0.1-0.2-0.2c0,0-0.1-0.1-0.1-0.1c-0.2-0.1-0.3-0.3-0.5-0.5
				c0,0-0.1-0.1-0.1-0.1c-0.2-0.2-0.4-0.4-0.6-0.6c0,0-0.1-0.1-0.1-0.1c-0.1-0.1-0.1-0.1-0.2-0.2c-0.1-0.1-0.1-0.1-0.2-0.2
				c-0.1-0.1-0.1-0.1-0.2-0.2c-0.1-0.1-0.2-0.2-0.2-0.3c0,0,0-0.1-0.1-0.1c0-0.1-0.1-0.1-0.1-0.2c0,0,0,0,0,0c0,0,0,0,0,0
				c0,0-0.1-0.1-0.1-0.1c0,0-0.1,0-0.1-0.1c0,0,0,0,0,0c0,0,0,0,0,0c0,0-0.1-0.1-0.1-0.1c0,0,0,0-0.1-0.1c0,0,0,0,0,0c0,0,0,0,0,0
				c0,0-0.1-0.1-0.1-0.1c0,0-0.1,0-0.1-0.1c0,0,0,0-0.1,0c0,0-0.1-0.1-0.2-0.1c0,0,0,0-0.1,0c0,0,0,0,0,0c0,0,0,0,0,0
				c-0.1,0-0.1-0.1-0.2-0.1c0,0,0,0-0.1,0c0,0,0,0,0,0c0,0,0,0-0.1,0c-0.1,0-0.1,0-0.2-0.1c0,0,0,0-0.1,0c0,0,0,0,0,0c0,0,0,0-0.1,0
				c-0.1,0-0.1,0-0.2,0c0,0,0,0,0,0c0,0-0.1,0-0.1,0c0,0,0,0,0,0c0,0-0.1,0-0.1,0c0,0,0,0-0.1,0c0,0,0,0,0,0c0,0-0.1,0-0.1,0
				c0,0,0,0-0.1,0c0,0,0,0,0,0c0,0-0.1,0-0.1,0c0,0,0,0-0.1,0c0,0,0,0-0.1,0c0,0,0,0-0.1,0c0,0-0.1,0-0.1,0c0,0-0.1,0-0.1,0
				c0,0,0,0,0,0c-0.1,0-0.1,0-0.2,0l-1.8,0.4c0.1,0,0.1,0,0.2,0c0,0,0.1,0,0.1,0c0.1,0,0.1,0,0.2,0c0,0,0.1,0,0.1,0c0,0,0.1,0,0.1,0
				c0,0,0.1,0,0.1,0c0,0,0.1,0,0.1,0c0,0,0.1,0,0.1,0c0,0,0.1,0,0.1,0c0.1,0,0.1,0,0.2,0c0.1,0,0.2,0,0.3,0.1c0,0,0,0,0,0
				c0.1,0,0.2,0.1,0.3,0.1c0,0,0,0,0,0c0.1,0,0.2,0.1,0.3,0.1c0,0,0,0,0,0c0.1,0.1,0.2,0.1,0.3,0.2c0.1,0.1,0.2,0.1,0.2,0.2
				c0,0,0,0,0,0c0.1,0.1,0.1,0.1,0.2,0.2c0,0,0,0,0,0c0.1,0.1,0.1,0.1,0.2,0.2c0,0,0,0,0,0c0.1,0.1,0.1,0.2,0.2,0.3
				c0,0.1,0.1,0.1,0.1,0.2c0,0,0.1,0.1,0.1,0.1c0.1,0.1,0.1,0.1,0.2,0.2c0.1,0.1,0.1,0.1,0.2,0.2c0.1,0.1,0.1,0.1,0.2,0.2
				c0,0,0.1,0.1,0.1,0.1c0,0,0,0,0.1,0.1c0.2,0.2,0.4,0.4,0.6,0.6c0,0,0,0,0,0c0,0,0,0,0.1,0.1c0.2,0.2,0.3,0.3,0.5,0.5
				c0,0,0,0,0.1,0.1c0,0,0,0,0,0c0.2,0.1,0.3,0.3,0.5,0.4c0,0,0,0,0,0c0.1,0.1,0.2,0.1,0.3,0.2c0,0,0,0,0,0l1.2-0.3l-0.4,14l1.8-0.4
				l0.4-13.9c0.1,0.1,0.1,0.1,0.2,0.1c0,0,0.1,0.1,0.1,0.1c0,0,0,0,0,0c0.1,0.1,0.3,0.2,0.5,0.3c0,0,0,0,0,0c0,0,0.1,0,0.1,0.1
				c0.1,0.1,0.2,0.1,0.3,0.2c0,0,0.1,0,0.1,0.1c0.1,0,0.1,0.1,0.2,0.1c0.1,0,0.1,0.1,0.2,0.1c0.1,0,0.1,0.1,0.2,0.1
				c0.1,0,0.1,0.1,0.2,0.1c0,0,0.1,0,0.1,0c0.1,0,0.2,0.1,0.3,0.1c0,0,0.1,0,0.1,0.1c0,0,0,0,0,0c0.2,0.1,0.3,0.1,0.5,0.2
				c0,0,0,0,0,0c0,0,0.1,0,0.1,0c0.1,0,0.2,0.1,0.4,0.1c0,0,0.1,0,0.1,0c0.1,0,0.3,0.1,0.4,0.1c0,0,0,0,0,0c0,0,0,0,0,0
				c0.1,0,0.3,0,0.4,0.1c0,0,0,0,0.1,0c0,0,0,0,0.1,0c0.2,0,0.3,0,0.5,0l-0.1,2l1.4-0.3l-0.3,8.3l0,0c0,0,0,0,0,0c0,0,0,0,0,0h0l0,0
				l1.3-0.3c0,0,0,0-0.1,0c-0.1,0.1-0.3,0.2-0.4,0.2c-0.1,0-0.1,0.1-0.2,0.1c-0.2,0.1-0.4,0.2-0.6,0.3l1.8-0.4
				c0.2-0.1,0.4-0.2,0.6-0.3c0.1,0,0.1-0.1,0.2-0.1c0.1-0.1,0.3-0.1,0.4-0.2c0.1,0,0.1-0.1,0.2-0.1c0.1-0.1,0.3-0.2,0.4-0.2
				c0.1,0,0.1-0.1,0.2-0.1c0.2-0.1,0.3-0.2,0.5-0.3c0,0,0.1,0,0.1-0.1c0.1-0.1,0.2-0.1,0.3-0.2c0,0-0.1,0.1-0.1,0.1
				c-0.1,0.1-0.2,0.2-0.3,0.3c-0.1,0.1-0.2,0.2-0.4,0.3c-0.1,0.1-0.2,0.2-0.3,0.2c-0.1,0.1-0.3,0.2-0.4,0.3
				c-0.1,0.1-0.2,0.2-0.3,0.2c-0.1,0.1-0.3,0.2-0.4,0.3c-0.1,0.1-0.2,0.1-0.3,0.2c-0.1,0.1-0.3,0.2-0.4,0.3l0-0.5l-1.8,0.4l0,1
				l0,0.2c-0.2,0.1-0.4,0.1-0.6,0.2c-0.2,0.1-0.5,0.2-0.7,0.2v0v0l1.8-0.4c0.1,0,0.2-0.1,0.3-0.1l0.4-0.1l0.3-0.1c0,0,0.1,0,0.1,0
				c0,0,0,0,0,0c0.1,0,0.2-0.1,0.2-0.1c0.1-0.1,0.3-0.1,0.4-0.2c0.1,0,0.1,0,0.2-0.1c0.3-0.1,0.5-0.2,0.7-0.3c0.1,0,0.1-0.1,0.2-0.1
				c0.2-0.1,0.4-0.2,0.6-0.3c0.1,0,0.1-0.1,0.2-0.1c0.2-0.1,0.5-0.3,0.7-0.4c0,0,0,0,0,0c0.2-0.1,0.4-0.3,0.6-0.5
				c0.1,0,0.1-0.1,0.2-0.1c0.2-0.1,0.3-0.3,0.5-0.4c0,0,0.1-0.1,0.1-0.1c0.2-0.2,0.4-0.4,0.6-0.5c0,0,0.1-0.1,0.1-0.1
				c0.2-0.2,0.3-0.3,0.5-0.5c0,0,0.1-0.1,0.1-0.1c0,0,0-0.1,0.1-0.1c0.1-0.2,0.3-0.3,0.4-0.5c0,0,0.1-0.1,0.1-0.1
				c0.2-0.2,0.3-0.4,0.5-0.6c0,0,0,0,0,0c0.1-0.1,0.1-0.1,0.2-0.2c0.1-0.1,0.1-0.2,0.2-0.3c0.1-0.1,0.1-0.2,0.2-0.3
				c0.1-0.1,0.1-0.2,0.2-0.3c0,0,0,0,0-0.1c0.1-0.1,0.1-0.2,0.2-0.3c0-0.1,0.1-0.1,0.1-0.2c0.1-0.2,0.2-0.3,0.3-0.5c0,0,0,0,0-0.1
				c0,0,0,0,0,0c0,0,0,0,0,0c0.2-0.3,0.3-0.6,0.5-0.9c0,0,0-0.1,0.1-0.1c0,0,0-0.1,0-0.1c0.1-0.3,0.3-0.6,0.4-0.8c0,0,0,0,0,0
				c0,0,0,0,0-0.1c0.1-0.2,0.2-0.5,0.3-0.8c0,0,0-0.1,0-0.1c0,0,0-0.1,0.1-0.1c0.1-0.2,0.1-0.4,0.2-0.6c0-0.1,0-0.1,0.1-0.2
				c0,0,0-0.1,0-0.1c0.1-0.3,0.2-0.5,0.3-0.8c0,0,0,0,0,0c0,0,0,0,0-0.1c0.1-0.3,0.1-0.5,0.2-0.8c0,0,0-0.1,0-0.1c0-0.1,0-0.1,0-0.2
				c0-0.2,0.1-0.4,0.1-0.6c0-0.1,0-0.1,0-0.2c0-0.1,0-0.1,0-0.2c0-0.2,0.1-0.4,0.1-0.6c0-0.1,0-0.1,0-0.2c0,0,0-0.1,0-0.1
				c0-0.3,0.1-0.5,0.1-0.8c0,0,0-0.1,0-0.1c0,0,0,0,0,0c0-0.3,0.1-0.6,0.1-0.9c0,0,0,0,0-0.1c0-0.1,0-0.1,0-0.2c0-0.2,0-0.5,0-0.7
				c0-0.1,0-0.1,0-0.2c0-0.1,0-0.3,0-0.4c0-0.2,0-0.5,0-0.7c0,0,0,0,0-0.1C512.2,328.5,512.2,328.2,512.2,327.9z M492.7,303.3
				c-0.2,0-0.5-0.1-0.7-0.1c0,0-0.1,0-0.1,0c0,0-0.1,0-0.1,0c-0.2,0-0.4,0-0.6,0c0,0-0.1,0-0.1,0c-0.1,0-0.2,0-0.4,0
				c-0.1,0-0.1,0-0.2,0c-0.1,0-0.2,0-0.2,0c-0.2,0-0.4,0-0.6,0c-0.1,0-0.1,0-0.2,0c0,0,0,0,0,0c-0.2,0-0.5,0-0.7,0.1c0,0,0,0-0.1,0
				c-0.2,0-0.4,0-0.6,0.1c0,0,0,0,0,0c-0.3,0-0.5,0.1-0.8,0.2l-1.8,0.4c0,0,0.1,0,0.1,0l-0.1,0c0,0,0,0,0,0l0,0
				c-0.2,0-0.4,0.1-0.5,0.1c-0.1,0-0.1,0-0.2,0.1c-0.1,0-0.2,0.1-0.4,0.1c-0.1,0-0.1,0-0.2,0.1c-0.1,0-0.2,0.1-0.3,0.1
				c-0.1,0-0.1,0.1-0.2,0.1c-0.1,0-0.2,0.1-0.3,0.1c-0.1,0-0.2,0.1-0.2,0.1c-0.1,0-0.2,0.1-0.3,0.1c-0.1,0-0.2,0.1-0.2,0.1
				c-0.1,0-0.2,0.1-0.3,0.1c-0.1,0-0.2,0.1-0.2,0.1c-0.1,0-0.2,0.1-0.3,0.1c-0.1,0-0.1,0.1-0.2,0.1c-0.1,0.1-0.2,0.1-0.3,0.2
				c-0.1,0-0.1,0.1-0.2,0.1c-0.1,0.1-0.2,0.1-0.3,0.2c-0.1,0-0.1,0.1-0.2,0.1c-0.1,0.1-0.2,0.1-0.3,0.2c-0.1,0-0.1,0.1-0.2,0.1
				c-0.1,0-0.1,0.1-0.2,0.1c0.1-0.1,0.2-0.2,0.3-0.2c0,0,0.1-0.1,0.1-0.1c0.1-0.1,0.2-0.2,0.4-0.3c0.1,0,0.1-0.1,0.2-0.1
				c0.1-0.1,0.2-0.2,0.4-0.3c0.1,0,0.1-0.1,0.2-0.1c0.2-0.1,0.3-0.2,0.5-0.3c0,0,0,0,0.1,0c0.2-0.1,0.4-0.2,0.5-0.4
				c0.1,0,0.1-0.1,0.2-0.1c0.1-0.1,0.3-0.2,0.4-0.2c0.1,0,0.1-0.1,0.2-0.1c0.1-0.1,0.3-0.1,0.4-0.2c0.1,0,0.1-0.1,0.2-0.1
				c0.2-0.1,0.4-0.2,0.5-0.3c0,0,0,0,0,0c0.2-0.1,0.4-0.2,0.6-0.2c0.1,0,0.1,0,0.2-0.1c0.1-0.1,0.3-0.1,0.4-0.2c0.1,0,0.1,0,0.2-0.1
				c0.1,0,0.2-0.1,0.4-0.1c0.2,0,0.4-0.1,0.6-0.1c0,0,0,0,0.1,0c0.3,0,0.5,0,0.8-0.1c0.1,0,0.1,0,0.2,0c0.2,0,0.4,0,0.6,0
				c0.1,0,0.2,0,0.2,0c0.2,0,0.4,0,0.6,0c0,0,0.1,0,0.1,0c0.2,0,0.5,0,0.7,0.1c0.1,0,0.1,0,0.2,0c0.2,0,0.5,0.1,0.7,0.1
				c0,0,0,0,0.1,0c0.3,0,0.6,0.1,0.8,0.2c0.1,0,0.2,0.1,0.4,0.1c0.1,0,0.2,0,0.2,0.1c0.1,0,0.2,0,0.2,0.1c0.1,0,0.2,0,0.2,0.1
				c0.1,0,0.1,0,0.2,0.1c0.2,0,0.3,0.1,0.5,0.2C493.2,303.4,493,303.4,492.7,303.3C492.7,303.4,492.7,303.4,492.7,303.3
				C492.7,303.4,492.7,303.3,492.7,303.3z M493.2,325c0.2,0.2,0.3,0.4,0.5,0.6c0,0,0.1,0.1,0.1,0.1c0.1,0.1,0.1,0.2,0.2,0.2
				c0,0.1,0.1,0.1,0.1,0.2c0.1,0.1,0.1,0.2,0.2,0.2c0,0,0,0,0,0.1c0.2,0.2,0.4,0.5,0.5,0.7c0,0.1,0.1,0.1,0.1,0.2c0,0,0,0,0.1,0.1
				c0,0,0,0,0.1,0.1c0,0,0,0,0,0c0,0.1,0.1,0.1,0.1,0.2c0,0,0,0,0,0c0,0,0,0,0,0c0,0,0.1,0.1,0.1,0.1c0,0,0.1,0.1,0.1,0.1
				c0,0,0,0,0,0c0,0,0,0,0,0c0,0,0.1,0.1,0.1,0.1c0,0,0.1,0,0.1,0.1c0,0,0,0,0,0c0,0,0,0,0,0c0,0,0.1,0.1,0.1,0.1c0,0,0,0,0.1,0
				c0,0,0,0,0,0c0,0,0,0,0,0c0,0,0.1,0,0.1,0.1c0,0,0,0,0.1,0c0,0,0,0,0,0c0,0,0,0,0,0c0,0,0.1,0,0.1,0.1c0,0,0,0,0,0c0,0,0,0,0,0
				c0,0,0,0,0.1,0c0.1,0,0.1,0,0.2,0c0,0,0,0,0,0c0,0,0.1,0,0.1,0c0,0,0.1,0,0.1,0c0,0,0,0,0,0c0,0,0,0,0,0c0.1,0,0.1,0,0.2,0
				c0,0,0,0,0,0c0,0,0,0,0.1,0c0,0,0.1,0,0.1,0c0,0,0,0,0.1,0c0,0,0.1,0,0.1,0c0,0,0,0,0.1,0c0,0,0.1,0,0.1,0c0,0,0,0,0,0l0.5-0.1
				l-0.1,2.1l1.4-0.3l-0.1,2c0,0-0.1,0-0.1,0c-0.1,0-0.1,0-0.2,0c-0.1,0-0.1,0-0.2,0c-0.1,0-0.1,0-0.2,0c-0.1,0-0.2,0-0.3-0.1
				c-0.1,0-0.1,0-0.2,0c-0.1,0-0.1,0-0.2,0c0,0-0.1,0-0.1,0c-0.1,0-0.1,0-0.2-0.1c0,0-0.1,0-0.1,0c-0.1,0-0.1,0-0.2-0.1
				c0,0-0.1,0-0.1-0.1c-0.1,0-0.1,0-0.2-0.1c0,0-0.1,0-0.1-0.1c-0.1,0-0.1-0.1-0.2-0.1c0,0-0.1,0-0.1-0.1c-0.1,0-0.1-0.1-0.2-0.1
				c0,0-0.1-0.1-0.1-0.1c0,0-0.1-0.1-0.1-0.1c0,0-0.1-0.1-0.1-0.1c-0.1,0-0.1-0.1-0.1-0.1c0,0-0.1-0.1-0.1-0.1
				c-0.1,0-0.1-0.1-0.2-0.1c0,0-0.1-0.1-0.1-0.1c-0.1,0-0.1-0.1-0.2-0.1c0,0-0.1-0.1-0.1-0.1c-0.1-0.1-0.2-0.2-0.2-0.2c0,0,0,0,0,0
				c-0.1-0.1-0.2-0.2-0.3-0.3c0,0,0-0.1-0.1-0.1c-0.1-0.1-0.2-0.2-0.2-0.3c0,0-0.1-0.1-0.1-0.1c-0.1-0.1-0.2-0.2-0.3-0.4
				c0,0,0,0,0,0c0,0-0.1-0.1-0.1-0.1c0,0-0.1-0.1-0.1-0.1l-1,0.2L493.2,325C493.2,325,493.2,325,493.2,325z M493,330.1
				C493,330.2,493,330.2,493,330.1c0.1,0.1,0.1,0.1,0.1,0.1c0,0,0,0,0,0c0.1,0.1,0.2,0.2,0.3,0.3c0,0,0,0,0,0c0,0,0,0,0,0
				c0.1,0.1,0.2,0.2,0.2,0.2c0,0,0,0,0,0c0,0,0.1,0,0.1,0.1c0.1,0,0.1,0.1,0.2,0.1c0,0,0,0,0,0c0,0,0.1,0,0.1,0.1
				c0.1,0,0.1,0.1,0.2,0.1c0,0,0,0,0,0c0,0,0.1,0,0.1,0.1c0,0,0.1,0.1,0.1,0.1c0,0,0,0,0,0c0,0,0.1,0,0.1,0.1c0,0,0.1,0.1,0.1,0.1
				c0,0,0,0,0.1,0c0,0,0.1,0,0.1,0c0,0,0.1,0.1,0.2,0.1c0,0,0,0,0.1,0c0,0,0.1,0,0.1,0c0.1,0,0.1,0.1,0.2,0.1c0,0,0,0,0.1,0
				c0,0,0.1,0,0.1,0c0.1,0,0.1,0,0.2,0.1c0,0,0,0,0.1,0c0,0,0,0,0.1,0c0.1,0,0.1,0,0.2,0.1c0,0,0,0,0.1,0c0,0,0,0,0.1,0
				c0.1,0,0.1,0,0.2,0.1c0,0,0.1,0,0.1,0c0,0,0,0,0.1,0c0.1,0,0.1,0,0.2,0c0,0,0.1,0,0.1,0c0,0,0.1,0,0.1,0c0.1,0,0.2,0,0.3,0.1
				c0,0,0,0,0.1,0c0.1,0,0.1,0,0.2,0c0,0,0.1,0,0.1,0c0,0,0,0,0.1,0c0.1,0,0.1,0,0.2,0c0,0,0.1,0,0.1,0c0,0,0,0,0,0
				c0.1,0,0.2,0,0.3,0c0,0,0.1,0,0.1,0c0,0,0,0,0.1,0l-0.1,2l1.4-0.3l0,0.1l0,0v0l-0.1,1.7c0,0-0.1,0-0.1,0c-0.1,0-0.3,0-0.4-0.1
				c0,0,0,0-0.1,0c-0.1,0-0.3,0-0.4-0.1c-0.2,0-0.3-0.1-0.5-0.1c0,0-0.1,0-0.1,0c-0.2-0.1-0.4-0.1-0.6-0.2c0,0-0.1,0-0.1-0.1
				c-0.1-0.1-0.3-0.1-0.4-0.2c-0.1,0-0.1-0.1-0.2-0.1c-0.1-0.1-0.2-0.1-0.4-0.2c-0.1,0-0.1-0.1-0.2-0.1c-0.1-0.1-0.3-0.1-0.4-0.2
				c0,0-0.1,0-0.1-0.1c-0.2-0.1-0.3-0.2-0.5-0.3c0,0-0.1-0.1-0.1-0.1c-0.1-0.1-0.3-0.2-0.4-0.3c-0.1,0-0.1-0.1-0.2-0.1
				c-0.1-0.1-0.3-0.2-0.4-0.3l-1,0.2L493,330.1z M500,320.8l-0.2,7l0,0.2l-0.5,0.1c0,0,0,0,0,0c-0.1,0-0.2,0-0.2,0c0,0,0,0,0,0
				c-0.1,0-0.2,0-0.2,0c-0.1,0-0.2,0-0.2-0.1c0,0,0,0,0,0c-0.1,0-0.2-0.1-0.2-0.1c0,0,0,0,0,0c-0.1,0-0.2-0.1-0.2-0.1c0,0,0,0,0,0
				c-0.1,0-0.2-0.1-0.2-0.1c0,0,0,0,0,0c-0.1-0.1-0.2-0.1-0.2-0.2c0,0,0,0,0,0c-0.1-0.1-0.1-0.1-0.2-0.2c0,0,0,0,0,0
				c-0.1-0.1-0.1-0.1-0.2-0.2c0,0,0,0-0.1-0.1c-0.1-0.1-0.1-0.1-0.2-0.2c-0.2-0.2-0.4-0.5-0.5-0.7c0,0,0,0,0,0c0,0,0,0,0,0
				c-0.1-0.1-0.1-0.2-0.2-0.2c0-0.1-0.1-0.1-0.1-0.2c-0.1-0.1-0.1-0.2-0.2-0.2c0,0-0.1-0.1-0.1-0.1c0,0,0,0,0,0
				c-0.2-0.2-0.3-0.4-0.5-0.5c0,0,0,0-0.1-0.1c0,0,0,0,0,0c-0.1-0.1-0.3-0.3-0.5-0.4c0,0,0,0,0,0c-0.1-0.1-0.2-0.1-0.3-0.2l-1,0.2
				l0.3-9L500,320.8z"/>
		</g>
		<g>
			<path class="st31" d="M470.2,373.1c0.3,0.5,0.4,1.1,0.4,1.8c0,0.9-0.3,1.6-0.9,1.9c-0.5,0.3-1.2,0.4-2.1,0.3l-3-0.6l0.3-9.8
				l3,0.6c0.9,0.2,1.5,0.5,2,1.1c0.5,0.6,0.7,1.3,0.6,2.2c0,0.6-0.2,1.1-0.5,1.5c-0.1,0.1-0.2,0.2-0.3,0.3
				C469.9,372.6,470,372.8,470.2,373.1z M469,375.5c0.2-0.2,0.4-0.5,0.4-0.9c0-0.4-0.1-0.8-0.3-1c-0.3-0.3-0.7-0.5-1.2-0.6l-1.8-0.4
				l-0.1,2.7l1.8,0.4C468.3,375.7,468.7,375.7,469,375.5 M466.1,368.4L466,371l1.8,0.4c1.2,0.3,1.4-0.4,1.4-1c0-0.4-0.1-0.8-0.3-1
				c-0.2-0.3-0.6-0.5-1.1-0.6L466.1,368.4 M469.9,370.5c0-0.5,0-0.9-0.2-1.2C469.8,369.6,469.9,370,469.9,370.5
				C469.9,370.5,469.9,370.5,469.9,370.5 M469.8,375.5c0.1-0.2,0.1-0.5,0.1-0.8C470,375,469.9,375.3,469.8,375.5"/>
		</g>
		<g>
			<path class="st31" d="M476.9,369.1l1.3,0.3l-0.2,6.1c0,1.2-0.3,2.1-0.9,2.7c-0.6,0.6-1.4,0.7-2.4,0.5c-1-0.2-1.8-0.7-2.3-1.5
				c-0.5-0.8-0.8-1.8-0.8-3l0.2-6.1l1.3,0.3l-0.2,6c0,0.8,0.1,1.5,0.4,1.9c0.3,0.5,0.8,0.8,1.4,0.9c0.6,0.1,1.1,0,1.5-0.3
				c0.3-0.3,0.5-0.9,0.5-1.7L476.9,369.1z M477.4,375.4l0-0.1c0,0.9-0.2,1.6-0.6,2.1C477.2,376.9,477.3,376.3,477.4,375.4
				 M472.3,374.3c0,0.9,0.1,1.6,0.4,2.2C472.4,375.9,472.2,375.1,472.3,374.3L472.3,374.3"/>
		</g>
		<g>
			<polygon class="st31" points="480.9,370 480.6,379.8 479.3,379.6 479.6,369.8 			"/>
		</g>
		<g>
			<polygon class="st31" points="483.7,370.6 483.5,378.9 487.8,379.9 487.8,381.4 482.1,380.2 482.5,370.3 			"/>
		</g>
		<g>
			<path class="st31" d="M494.7,374.2c0.7,1,1,2.3,0.9,3.8c0,1.6-0.4,2.7-1.2,3.5c-0.7,0.7-1.7,0.9-3,0.7l-2.7-0.6l0.3-9.8l2.7,0.6
				C493.1,372.6,494,373.2,494.7,374.2z M493.6,380.2c0.5-0.5,0.7-1.3,0.8-2.5c0-1.1-0.2-2-0.6-2.7c-0.4-0.7-1.1-1.1-2-1.3l-1.5-0.3
				l-0.2,6.8l1.5,0.3C492.4,380.8,493.1,380.7,493.6,380.2"/>
		</g>
		<g>
			<polygon class="st23" points="498.1,373.7 497.8,383.5 496.5,383.2 496.9,373.4 			"/>
		</g>
		<g>
			<path class="st31" d="M504.8,375.1l1.2,0.3l-0.3,9.8l-1.3-0.3l-3.6-7.9l-0.2,7.1l-1.2-0.3l0.3-9.8l1.3,0.3l3.6,7.9L504.8,375.1z
				 M500.3,375l0.4,0.1l0-0.1L500.3,375L500.3,375 M505.1,384.2L505.1,384.2l-0.4-0.1l0,0.1L505.1,384.2"/>
		</g>
		<g>
			<path class="st31" d="M510.2,382.3l0-1.5l3.7,0.8l-0.2,5.2l-1.1-0.2l0-0.9c-0.1,0.1-0.3,0.3-0.5,0.4c-0.4,0.3-1,0.3-1.7,0.2
				c-0.7-0.2-1.4-0.5-1.9-1c-0.5-0.5-0.9-1.2-1.2-2.1c-0.3-0.8-0.4-1.7-0.4-2.7c0-1,0.2-1.9,0.5-2.6c0.3-0.7,0.8-1.2,1.4-1.5
				c0.6-0.3,1.2-0.4,2-0.2c0.8,0.2,1.5,0.5,2,1c0.5,0.5,0.9,1.3,1.2,2.2l0.1,0.4l-1.2,0.5l-0.1-0.5c-0.1-0.6-0.4-1.1-0.7-1.4
				c-0.3-0.4-0.8-0.6-1.3-0.7c-0.5-0.1-0.9-0.1-1.3,0.1c-0.4,0.2-0.7,0.5-0.9,1c-0.2,0.5-0.4,1.1-0.4,1.9c0,1.1,0.2,2.1,0.6,2.8
				c0.4,0.7,1,1.1,1.7,1.3c0.5,0.1,0.9,0.1,1.2-0.1c0.3-0.2,0.6-0.4,0.7-0.8c0.1-0.3,0.2-0.7,0.3-1.1L510.2,382.3z M507.6,380.6
				c0-0.2,0-0.5,0.1-0.7C507.6,380.1,507.6,380.4,507.6,380.6"/>
		</g>
		<g>
			<polygon class="st31" points="450.3,349.6 451.6,349.9 451.3,359.7 450,359.5 450.1,355.2 446.3,354.4 446.1,358.6 444.9,358.4 
				445.2,348.6 446.5,348.8 446.3,352.9 450.2,353.7 			"/>
		</g>
		<g>
			<polygon class="st31" points="458.8,351.4 458.7,353 454.3,352 454.2,354.6 457.8,355.4 457.7,356.8 454.2,356.1 454.1,358.8 
				458.7,359.8 458.7,360.7 458.5,361.3 458.7,361.3 452.8,360.1 453.1,350.2 			"/>
		</g>
		<g>
			<path class="st31" d="M463.1,352.4l2.9,10.5l-1.3-0.3l-0.8-3l-3-0.6l-1,2.6l-1.1-0.2l-0.2,0l0.2-0.6l3.3-8.6l0.6,0.1l0-0.1l0,0.1
				L463.1,352.4z M461.3,357.5l2.1,0.4l-0.9-3.4L461.3,357.5"/>
		</g>
		<g>
			<polygon class="st31" points="468,353.4 467.8,361.7 472.1,362.7 472.1,364.2 466.5,363 466.8,353.1 			"/>
		</g>
		<g>
			<polygon class="st31" points="470.6,354 477.3,355.4 477.2,356.9 474.5,356.3 474.3,364.6 473,364.4 473.3,356 470.6,355.5 			
				"/>
		</g>
		<g>
			<polygon class="st31" points="483,356.6 484.3,356.9 484,366.7 482.7,366.4 482.9,362.2 479,361.4 478.9,365.6 477.6,365.3 
				477.9,355.5 479.2,355.8 479.1,359.9 482.9,360.7 			"/>
		</g>
		<g>
			<polygon class="st31" points="491.6,358.4 488.5,363.9 488.4,367.6 487.2,367.4 487.3,363.6 484.6,356.9 486.1,357.2 488,362.1 
				490.1,358.1 			"/>
		</g>
		<g>
			<polygon class="st31" points="506.6,361.6 507.8,361.9 507.5,371.7 506.2,371.4 506.4,367.2 502.5,366.4 502.4,370.6 
				501.1,370.3 501.4,360.5 502.7,360.8 502.6,364.9 506.4,365.7 			"/>
		</g>
		<g>
			<path class="st31" d="M512.6,362.9l2.9,10.5l-1.3-0.3l-0.8-3l-3-0.6l-1,2.6l-1.3-0.3l3.5-9.1l0.6,0.1l0-0.1l0,0.1L512.6,362.9z
				 M510.8,368.1l2.1,0.4l-0.9-3.4L510.8,368.1"/>
		</g>
		<g>
			<path class="st31" d="M521.1,365.5c0.5,0.7,0.7,1.5,0.7,2.5c0,0.9-0.3,1.6-0.9,2.1c-0.5,0.4-1.2,0.6-2.1,0.4l-1.6-0.3l-0.1,3.7
				l-1.3-0.3l0.3-9.8l2.8,0.6C519.9,364.4,520.6,364.9,521.1,365.5z M520.2,368.7c0.3-0.2,0.4-0.6,0.4-1c0-0.5-0.1-0.9-0.3-1.2
				c-0.3-0.3-0.7-0.6-1.2-0.7l-1.6-0.3l-0.1,3.1l1.5,0.3C519.5,369,519.9,369,520.2,368.7"/>
		</g>
		<g>
			<path class="st31" d="M527.6,366.9c0.5,0.7,0.7,1.5,0.7,2.5c0,0.9-0.3,1.6-0.9,2.1c-0.5,0.4-1.2,0.6-2.1,0.4l-1.6-0.3l-0.1,3.7
				l-1.3-0.3l0.3-9.8l2.8,0.6C526.5,365.8,527.2,366.3,527.6,366.9z M526.7,370.1c0.3-0.2,0.4-0.6,0.4-1c0-0.5-0.1-0.9-0.3-1.2
				c-0.3-0.3-0.7-0.6-1.2-0.7l-1.6-0.3l-0.1,3.1l1.5,0.3C526,370.4,526.4,370.3,526.7,370.1"/>
		</g>
		<g>
			<polygon class="st31" points="534.9,367.6 531.9,373.1 531.7,376.8 530.5,376.6 530.6,372.8 528,366.2 529.4,366.5 531.3,371.3 
				533.5,367.3 			"/>
		</g>
		<g>
			<path class="st31" d="M498.7,368.1l0.1,0l-0.2,0.7l-0.1,0c-0.2-0.1-0.5-0.2-0.7-0.4c-0.2-0.2-0.4-0.4-0.6-0.8
				c-0.5,0.5-1.1,0.6-1.9,0.5c-0.5-0.1-1-0.4-1.4-0.8c-0.4-0.4-0.5-0.9-0.5-1.5c0-0.5,0.2-0.9,0.4-1.3c0.2-0.3,0.6-0.5,1.1-0.8
				c-0.2-0.4-0.4-0.8-0.5-1.1c-0.1-0.3-0.2-0.6-0.1-0.9c0-0.5,0.2-0.9,0.4-1.1c0.3-0.3,0.6-0.3,1.1-0.2c0.4,0.1,0.8,0.3,1,0.6
				c0.3,0.3,0.4,0.8,0.4,1.3c0,0.4-0.1,0.8-0.3,1.1c-0.2,0.3-0.5,0.5-1,0.8l0.5,0.9c0.3,0.6,0.6,1,0.7,1.3c0.3-0.5,0.4-1.3,0.4-2.2
				l0-0.2l0.6,0.3l0,0.1c0,0.5-0.1,1-0.2,1.5c-0.1,0.4-0.3,0.8-0.5,1.1c0.2,0.3,0.4,0.6,0.5,0.7C498.3,368,498.5,368.1,498.7,368.1z
				 M498.5,368.5l0-0.2c-0.2-0.1-0.3-0.2-0.5-0.3c-0.2-0.1-0.4-0.4-0.6-0.8l-0.1-0.1l0-0.1c0.2-0.3,0.4-0.7,0.5-1.1
				c0.1-0.4,0.2-0.8,0.2-1.3l-0.2-0.1c0,1-0.2,1.7-0.6,2.3l-0.1,0.1l-0.1-0.1c-0.2-0.3-0.5-0.8-0.8-1.5l-0.6-1.2l0.1-0.1
				c0.5-0.3,0.9-0.5,1.1-0.8c0.2-0.3,0.3-0.6,0.3-1c0-0.4-0.1-0.7-0.3-1c-0.2-0.3-0.5-0.5-0.9-0.6c-0.4-0.1-0.7,0-0.9,0.2
				c-0.2,0.2-0.3,0.5-0.4,1c0,0.3,0,0.5,0.1,0.8c0.1,0.3,0.3,0.6,0.5,1.2l0.1,0.2l-0.1,0.1c-0.5,0.2-0.9,0.5-1.1,0.8
				c-0.2,0.3-0.3,0.6-0.4,1.1c0,0.5,0.1,0.9,0.4,1.3c0.3,0.4,0.7,0.6,1.2,0.7c0.7,0.2,1.3,0,1.8-0.5l0.1-0.1l0.1,0.1
				c0.3,0.4,0.5,0.7,0.7,0.8C498.1,368.3,498.3,368.4,498.5,368.5"/>
		</g>
		<g>
			<path class="st31" d="M498,368c0.2,0.1,0.3,0.2,0.5,0.3l0,0.2c-0.2,0-0.3-0.1-0.5-0.3c-0.2-0.2-0.4-0.5-0.7-0.8l-0.1-0.1
				l-0.1,0.1c-0.5,0.5-1.1,0.6-1.8,0.5c-0.5-0.1-0.9-0.3-1.2-0.7c-0.3-0.4-0.4-0.8-0.4-1.3c0-0.5,0.1-0.8,0.4-1.1
				c0.2-0.3,0.6-0.5,1.1-0.8l0.1-0.1l-0.1-0.2c-0.3-0.5-0.5-0.9-0.5-1.2c-0.1-0.2-0.1-0.5-0.1-0.8c0-0.4,0.1-0.7,0.4-1
				c0.2-0.2,0.6-0.3,0.9-0.2c0.4,0.1,0.7,0.3,0.9,0.6c0.2,0.3,0.3,0.6,0.3,1c0,0.4-0.1,0.7-0.3,1c-0.2,0.3-0.5,0.5-1.1,0.8l-0.1,0.1
				l0.6,1.2c0.4,0.7,0.7,1.2,0.8,1.5l0.1,0.1l0.1-0.1c0.3-0.5,0.5-1.3,0.6-2.3l0.2,0.1c0,0.5-0.1,0.9-0.2,1.3
				c-0.1,0.4-0.3,0.8-0.5,1.1l0,0.1l0.1,0.1C497.7,367.6,497.9,367.9,498,368z M497,367.1L497,367.1l0-0.2c-0.3-0.5-0.6-1-0.9-1.6
				l-0.7-1.3l-0.1,0c-0.5,0.2-0.8,0.4-1,0.7c-0.2,0.2-0.3,0.6-0.4,1c0,0.4,0.1,0.8,0.4,1.2c0.3,0.3,0.6,0.5,1,0.6
				C496.1,367.7,496.6,367.6,497,367.1 M495,362.6c0.1,0.2,0.2,0.6,0.5,1.1l0,0.1l0.1,0c0.5-0.2,0.8-0.4,1-0.7
				c0.2-0.2,0.3-0.5,0.3-0.9c0-0.3-0.1-0.6-0.3-0.9c-0.2-0.2-0.4-0.4-0.7-0.4c-0.3-0.1-0.6,0-0.7,0.2c-0.2,0.2-0.3,0.4-0.3,0.8
				C494.9,362.2,494.9,362.4,495,362.6"/>
		</g>
		<g>
			<path class="st31" d="M496.2,365.4c0.3,0.6,0.6,1.1,0.9,1.6l0.1,0.1l-0.1,0.1c-0.4,0.5-1,0.6-1.7,0.5c-0.4-0.1-0.7-0.3-1-0.6
				c-0.3-0.3-0.4-0.7-0.4-1.2c0-0.4,0.1-0.8,0.4-1c0.2-0.2,0.6-0.5,1-0.7l0.1,0L496.2,365.4z M495.4,367.3c0.6,0.1,1.1,0,1.4-0.4
				c-0.3-0.4-0.5-0.9-0.8-1.5l-0.6-1.1c-0.4,0.2-0.7,0.4-0.9,0.6c-0.2,0.2-0.3,0.5-0.3,0.8c0,0.4,0.1,0.7,0.3,0.9
				C494.8,367.1,495.1,367.3,495.4,367.3"/>
		</g>
		<g>
			<path class="st31" d="M481.2,329.4l0,2.4c-0.1,0-0.2,0-0.2,0c-0.2-0.1-0.5-0.2-0.6-0.4c-0.4-0.5-0.3-1.1,0-1.4
				C480.6,329.7,480.9,329.5,481.2,329.4z"/>
		</g>
		<g>
			<path class="st31" d="M481,325.1l-0.1,2.2c-0.4,0.2-0.8,0.5-1.2,0.8l0,0c-0.2,0.2-0.4,0.2-0.7,0.2c-0.2,0-0.4-0.2-0.6-0.4
				c-0.3-0.5-0.3-1.1,0.1-1.4l0,0C479.3,325.8,480.1,325.4,481,325.1z"/>
		</g>
		<g>
			<path class="st31" d="M481.1,321.1l0,2.1c-1.4,0.2-2.7,0.9-3.8,1.9c-0.2,0.2-0.4,0.2-0.7,0.2c-0.2,0-0.4-0.2-0.6-0.4
				c-0.3-0.5-0.3-1.1,0.1-1.4C477.6,322.1,479.3,321.4,481.1,321.1z"/>
		</g>
		<g>
			<path class="st31" d="M492.1,334.1c1.4,1.2,3,2,4.6,2.4c0.5,0.1,1,0.2,1.5,0.2l-0.1,2c-0.5,0-1-0.1-1.5-0.2
				c-1.6-0.3-3.1-1-4.6-2.1L492.1,334.1z"/>
		</g>
		<g>
			<path class="st31" d="M491,312.9l9,7.9l-0.2,7l-0.1,2.1l-0.1,2.4l-0.1,2.2l-0.1,2.1l0,1l-0.3,9.1l0,0.4l0,1l0,0.2
				c-0.2,0.1-0.4,0.1-0.6,0.2c-0.2,0.1-0.5,0.2-0.7,0.2l0.3-10.1l0.1-2l0.1-2l0.1-2l0.1-2.1l0.1-2.2l0.2-7l-7-6.1l-1,33.7
				c-0.1,0-0.2,0-0.3-0.1c-3.1-0.7-6.1-2.2-8.7-4.4l0-0.3l0-1l0-0.4l0.4-11.3c0.4-0.1,0.6-0.3,1-0.5c0.3-0.1,0.6-0.2,1-0.2
				c0.3,0,0.5,0,0.8,0.1c0.4,0.1,0.9,0.3,1.2,0.5c0.3,0.2,0.7,0.5,0.9,0.9c0.9,1.1,1.9,2.1,2.9,2.9l0.1-2.3
				c-0.6-0.5-1.1-1.1-1.6-1.7c-1-1.2-2.2-2-3.5-2.3c-0.9-0.2-1.9-0.1-2.7,0.2l0.1-1.8c1-0.5,2.1-0.6,3.3-0.3
				c1.6,0.3,3.2,1.4,4.4,3.1c0.1,0.1,0.2,0.2,0.3,0.3l0.1-2.6c-1.4-1.5-3-2.4-4.7-2.8c-1.1-0.2-2.2-0.2-3.2,0.1l0.1-2.2
				c1-0.2,2.1-0.1,3.2,0.1c1.7,0.4,3.3,1.2,4.7,2.4l0.1-2.2c-1.5-1.1-3.1-1.8-4.7-2.2c-1.1-0.2-2.2-0.3-3.2-0.2l0.1-4L491,312.9z"/>
		</g>
		<g>
			<path class="st31" d="M492.5,329.4c1.2,1.7,2.7,2.7,4.3,3c0.5,0.1,1,0.1,1.5,0.1l-0.1,2c-0.5,0-1,0-1.5-0.2
				c-1.6-0.3-3.2-1.3-4.6-2.7l0.1-2.6C492.3,329.2,492.4,329.3,492.5,329.4z"/>
		</g>
		<g>
			<path class="st31" d="M495,327.1c0.5,0.7,1.2,1.2,2,1.4c0.5,0.1,1,0.1,1.5-0.2l-0.1,2.2c-0.5,0.1-1,0.1-1.5,0
				c-1.2-0.2-2.3-1-3.2-2.2c-0.4-0.6-0.9-1.2-1.4-1.7l0.1-2.3C493.3,325.1,494.2,326,495,327.1z"/>
		</g>
		<g>
			<path class="st31" d="M500.7,327.6c0.2,0.1,0.3,0.2,0.4,0.3c0.3,0.4,0.3,1.1-0.1,1.4l0,0c-0.1,0.1-0.2,0.2-0.4,0.3L500.7,327.6z"
				/>
		</g>
		<g>
			<path class="st31" d="M502.9,330.7c0.2,0,0.4,0.2,0.6,0.4c0.3,0.5,0.3,1.1-0.1,1.4l0,0c-0.9,0.8-1.8,1.3-2.8,1.5l0.1-2.1
				c0.6-0.2,1.1-0.5,1.6-1l0,0C502.4,330.7,502.6,330.7,502.9,330.7z"/>
		</g>
		<g>
			<path class="st31" d="M505.2,334.4c0.2,0,0.4,0.2,0.6,0.4c0.3,0.5,0.3,1.1-0.1,1.4l0,0c-1.6,1.4-3.4,2.2-5.3,2.3l0.1-2.1
				c1.5-0.2,2.9-0.8,4.1-1.9l0,0C504.7,334.4,505,334.4,505.2,334.4z"/>
		</g>
		<g>
			<path class="st31" d="M491.8,304.3c-9.9-2.1-18.3,5.9-18.7,17.8c-0.2,7.8,3,15.7,8.6,20.8l0,0.4c-5.8-5.1-9.2-13.2-8.9-21.3
				c0.4-12.1,8.9-20.2,19-18.1c1.4,0.3,2.8,0.8,4.1,1.4c8,4,13.8,14,13.5,24.4c-0.2,8.1-4.1,14.6-10.1,17.3l0-0.4
				c0.3-0.1,0.6-0.3,0.9-0.4c5.4-2.8,8.8-9,9-16.5C509.5,317.8,501.7,306.4,491.8,304.3z"/>
		</g>
		<g>
			<path class="st31" d="M491.8,302.7c10.7,2.3,19,14.5,18.6,27.3c-0.3,8.9-4.7,16-11.5,18.4l-0.3,0.1c0.2-0.1,0.4-0.2,0.6-0.3
				l0-0.2c6.4-2.6,10.6-9.6,10.9-18.1c0.4-12.6-7.8-24.7-18.3-26.9s-19.4,6.2-19.8,18.8c-0.3,8.4,3.5,17.1,9.6,22.4l0,0.3
				c-6.7-5.3-10.2-13.9-9.9-22.7C472.1,309,481.1,300.4,491.8,302.7z"/>
		</g>
		<g>
			<path class="st31" d="M491.7,303c10.5,2.2,18.7,14.3,18.3,26.9c-0.3,8.5-4.5,15.5-10.9,18.1l0-1c6-2.6,9.9-9.2,10.1-17.3
				c0.3-10.4-5.5-20.5-13.5-24.4c-1.3-0.6-2.7-1.1-4.1-1.4c-10.1-2.2-18.6,6-19,18.1c-0.2,8.1,3.2,16.2,8.9,21.3l0,1
				c-6.1-5.3-9.9-14-9.6-22.4C472.4,309.2,481.2,300.8,491.7,303z"/>
		</g>
	</g>
	<g>
		<g class="st18">
			<defs>
				<polygon id="SVGID_16_" class="st18" points="377.7,378.7 336.4,367.2 362.7,352 404,363.5 				"/>
			</defs>
			<clipPath id="SVGID_17_">
				<use xlink:href="#SVGID_16_"  style="overflow:visible;"/>
			</clipPath>
			<g class="st32">
				<path class="st33" d="M376.8,377l-36.2-10l23-13.3l36.2,10L376.8,377 M362.7,352l-26.3,15.2l41.4,11.5l26.3-15.2L362.7,352"/>
			</g>
		</g>
	</g>
	<g>
		<g class="st18">
			<defs>
				<polygon id="SVGID_18_" class="st18" points="378.4,367.5 343.7,357.9 365.8,345.1 400.4,354.8 				"/>
			</defs>
			<clipPath id="SVGID_19_">
				<use xlink:href="#SVGID_18_"  style="overflow:visible;"/>
			</clipPath>
			<g class="st34">
				<path class="st33" d="M377.6,366.1l-30.3-8.4l19.3-11.2l30.3,8.4L377.6,366.1 M365.8,345.1l-22,12.8l34.7,9.6l22-12.8
					L365.8,345.1"/>
			</g>
		</g>
	</g>
</g>
<g>
	<g>
		<g class="st18">
			<defs>
				<polygon id="SVGID_9_" class="st18" points="361,358.1 360.9,349.1 368.2,351.1 368.4,360.1 				"/>
			</defs>
			<clipPath id="SVGID_20_">
				<use xlink:href="#SVGID_9_"  style="overflow:visible;"/>
			</clipPath>
			<g class="st35">
				<g>
					<g>
						<g>
							<path class="st4" d="M364.7,357.2c-1.2-0.3-2.2-1.8-2.2-3.2c0-1.5,0.9-2.4,2.1-2c1.2,0.3,2.2,1.8,2.2,3.2
								C366.8,356.6,365.9,357.5,364.7,357.2 M364.6,350.1c-2-0.6-3.6,1-3.6,3.5c0,2.5,1.7,5,3.7,5.5c2,0.6,3.6-1,3.6-3.5
								C368.3,353.1,366.6,350.7,364.6,350.1"/>
						</g>
					</g>
				</g>
			</g>
		</g>
	</g>
</g>
<g>
	<g>
		<g class="st18">
			<defs>
				<polygon id="SVGID_11_" class="st18" points="477,419.8 476.9,410.8 484.2,412.9 484.4,421.9 				"/>
			</defs>
			<clipPath id="SVGID_21_">
				<use xlink:href="#SVGID_11_"  style="overflow:visible;"/>
			</clipPath>
			<g class="st36">
				<g>
					<g>
						<g>
							<path class="st4" d="M480.6,419c-1.2-0.3-2.2-1.8-2.2-3.2c0-1.5,0.9-2.4,2.1-2c1.2,0.3,2.2,1.8,2.2,3.2
								C482.8,418.4,481.8,419.3,480.6,419 M480.5,411.9c-2-0.6-3.6,1-3.6,3.5s1.7,5,3.7,5.5c2,0.6,3.6-1,3.6-3.5
								C484.2,414.9,482.6,412.4,480.5,411.9"/>
						</g>
					</g>
				</g>
			</g>
		</g>
	</g>
</g>
<g>
	
		<image style="overflow:visible;" width="172" height="100" xlink:href="B184C59A.png"  transform="matrix(1 0 0 1 -282.4443 498.7754)">
	</image>
</g>
<g>
	<g id="XMLID_18_">
		<g>
			<g>
				<path class="st26" d="M-181,524.3c6.9,2.8,11.1,11.8,9.3,20c-1.8,8.2-8.8,12.5-15.8,9.7l-34.4-14c-6.9-2.8-11.1-11.8-9.3-20
					c1.5-7,6.9-11.3,12.9-10.5c2.4-8.3,10-12.6,17.3-9.6c5.6,2.3,9.8,8.3,10.8,15.2c0.1,0,0.2,0.1,0.3,0.1c3.3,1.4,6,4.5,7.3,8.5
					L-181,524.3z"/>
			</g>
			<g>
				<path class="st26" d="M-191.7,498c5.6,2.3,9.8,8.3,10.7,15.2c0.1,0,0.2,0.1,0.3,0.1c3.3,1.4,6,4.5,7.3,8.5l1.7,0.7
					c6.9,2.8,11.1,11.8,9.3,20c-1,4.8-4,8.6-7.9,10c-0.3,0.1-0.5,0-0.8-0.1c-0.4-0.2-0.7-0.5-0.9-1.1c-0.3-0.8,0.1-1.7,0.7-2
					c3.1-1.1,5.5-4.1,6.3-8c1.4-6.5-1.9-13.7-7.5-16l-2.3-0.9c-0.4-0.2-0.8-0.6-0.9-1.2c-0.9-3.3-3-5.9-5.7-7
					c-0.3-0.1-0.6-0.2-0.9-0.3c-0.1,0-0.1,0-0.2-0.1c-0.5-0.2-0.9-0.8-1-1.5c-0.5-6.1-4.1-11.5-8.9-13.5c-1.7-0.7-3.4-0.9-5.2-0.7
					c-0.2,0-0.4,0-0.6-0.1c-0.5-0.2-0.9-0.7-1-1.3c-0.1-0.9,0.3-1.7,1-1.7C-195.9,496.9-193.8,497.1-191.7,498z"/>
			</g>
		</g>
	</g>
	<path class="st26" d="M-203.8,537.2c0.5-0.4,0.9-1.3,1.2-2.5c0.3-1.4,0.3-2.5,0.1-3.3c-0.2-0.7-0.6-1.1-1.2-1.4
		c-0.6-0.2-1.1-0.2-1.6,0.3c-0.5,0.4-0.9,1.3-1.2,2.6c-0.4,1.8-0.3,2.8-0.1,3.3c0.2,0.7,0.6,1.1,1.2,1.3
		C-204.8,537.7-204.3,537.6-203.8,537.2"/>
</g>
<g>
	<g>
		<g class="st18">
			<defs>
				<polygon id="SVGID_24_" class="st18" points="-214.5,544.6 -215.6,514.3 -187.3,519.7 -186.3,550 				"/>
			</defs>
			<clipPath id="SVGID_22_">
				<use xlink:href="#SVGID_24_"  style="overflow:visible;"/>
			</clipPath>
			<g class="st37">
				<g>
					<g>
						<g>
							<path class="st38" d="M-213.6,537.9l-0.7-21.4l2.1,0.9l0.7,21.4L-213.6,537.9 M-215.5,514.3l0.8,24.9l4.5,1.9l-0.8-24.9
								L-215.5,514.3"/>
							<path class="st38" d="M-202.8,539.1c-0.1,0-0.2-0.1-0.4-0.1c-0.6-0.2-1-0.7-1.3-1.5c-0.3-0.6-0.6-1.7-0.6-3.8
								c0-1.4,0.1-2.5,0.4-3c0.2-0.4,0.6-0.6,1-0.5c0.1,0,0.2,0.1,0.3,0.1c0.6,0.2,1,0.7,1.3,1.5c0.4,0.9,0.6,2.2,0.7,3.8
								c0,1.4-0.1,2.5-0.4,3C-202.1,539-202.4,539.1-202.8,539.1 M-203.9,528.3c-0.1,0-0.1,0-0.2,0c-0.7-0.1-1.2,0.3-1.5,0.9
								c-0.5,0.8-0.7,2.1-0.6,3.9c0.1,2.1,0.4,3.7,0.9,4.9c0.6,1.3,1.3,2.2,2.3,2.6c0.1,0,0.1,0,0.2,0.1c0.1,0,0.3,0.1,0.4,0.1
								c0,0,0,0,0,0c0.1,0,0.2,0,0.3,0c0.4,0,0.8-0.1,1.1-0.5c0.1-0.1,0.2-0.3,0.3-0.4c0.5-0.8,0.7-2.1,0.6-3.9
								c-0.1-2.1-0.4-3.6-0.9-4.9c-0.6-1.4-1.4-2.3-2.3-2.7C-203.6,528.4-203.8,528.3-203.9,528.3"/>
							<path class="st38" d="M-204.5,526.3L-204.5,526.3c0,0,0.1,0,0.1,0c0.2,0,0.3,0.1,0.5,0.1c0.1,0,0.3,0.1,0.4,0.1
								c1.1,0.4,1.9,1.1,2.7,2.1c0.8,1,1.4,2.1,1.8,3.4c0.5,1.4,0.7,2.8,0.8,4.4l0,0.2c0.1,2.5-0.3,4.3-1.2,5.3
								c-0.5,0.6-1.1,0.9-1.8,0.9c-0.2,0-0.5,0-0.8-0.1h0h0c-0.2,0-0.4-0.1-0.6-0.2c-0.1,0-0.2-0.1-0.4-0.1
								c-1.5-0.6-2.7-1.8-3.7-3.6c-1-1.9-1.5-3.9-1.5-6.3l0-1.1c0-2.1,0.5-3.7,1.3-4.6c0,0,0.1-0.1,0.1-0.1c0.4-0.4,0.8-0.6,1.3-0.6
								C-205.2,526.2-204.9,526.2-204.5,526.3L-204.5,526.3 M-204.8,524.5c-1.2-0.2-2.2,0.1-3,0.9c-1.1,1.1-1.6,3-1.7,5.6l0,1.2
								c0.1,2.8,0.7,5.4,1.9,7.6c1.2,2.3,2.7,3.8,4.6,4.6c0.4,0.2,0.8,0.3,1.1,0.3c1.3,0.3,2.4-0.1,3.3-1.1c1.1-1.3,1.5-3.4,1.5-6.3
								l0-0.2c-0.1-1.8-0.4-3.6-0.9-5.3c-0.5-1.6-1.3-3.1-2.3-4.4c-1-1.2-2.1-2.1-3.3-2.6C-204,524.7-204.4,524.5-204.8,524.5"/>
							<path class="st4" d="M-203.9,528.3L-203.9,528.3c0.2,0,0.3,0.1,0.5,0.2c1,0.4,1.8,1.3,2.3,2.7c0.5,1.3,0.8,2.9,0.9,4.9
								c0.1,1.8-0.1,3.1-0.6,3.9c-0.1,0.2-0.2,0.3-0.3,0.4c-0.3,0.3-0.7,0.5-1.1,0.5c-0.1,0-0.2,0-0.3,0h0c0,0,0,0,0,0
								c-0.1,0-0.3-0.1-0.4-0.1c-0.1,0-0.1,0-0.2-0.1c-1-0.4-1.8-1.3-2.3-2.6c-0.5-1.2-0.8-2.8-0.9-4.9c-0.1-1.8,0.1-3.1,0.6-3.9
								c0.4-0.6,0.9-1,1.5-0.9C-204.1,528.3-204,528.3-203.9,528.3 M-204.5,526.3c-0.4-0.1-0.7-0.1-1,0c-0.5,0.1-0.9,0.3-1.3,0.6
								c0,0-0.1,0.1-0.1,0.1c-0.9,0.9-1.3,2.4-1.3,4.6l0,1.1c0.1,2.4,0.6,4.4,1.5,6.3c0.9,1.8,2.2,3,3.7,3.6
								c0.1,0.1,0.2,0.1,0.4,0.1c0.2,0.1,0.4,0.1,0.6,0.2h0c0.3,0.1,0.5,0.1,0.8,0.1c0.7,0,1.3-0.4,1.8-0.9c0.9-1.1,1.2-2.8,1.2-5.3
								l0-0.2c-0.1-1.5-0.3-3-0.8-4.4c-0.4-1.3-1-2.5-1.8-3.4c-0.7-1-1.6-1.6-2.7-2.1c-0.1-0.1-0.3-0.1-0.4-0.1
								c-0.2-0.1-0.3-0.1-0.5-0.1C-204.4,526.3-204.5,526.3-204.5,526.3L-204.5,526.3"/>
							<path class="st38" d="M-199.9,524.6l-0.1-2.1l11.8,4.9l0.1,2.1l-4.9-2l0.6,19.3l-2.1-0.9l0,0l0,0l-0.6-19.3L-199.9,524.6
								 M-201.2,520.3l0.2,5.6l4.8,2l0.6,19.3l4.5,1.9l-0.6-19.3l4.9,2l-0.2-5.6L-201.2,520.3"/>
							<polyline class="st4" points="-214.3,516.5 -213.6,537.9 -211.5,538.8 -212.2,517.4 -214.3,516.5 							"/>
							<polyline class="st4" points="-200,522.5 -199.9,524.6 -195.2,526.6 -194.5,545.9 -194.5,545.9 -192.4,546.8 -193.1,527.5 
								-188.2,529.5 -188.3,527.4 -200,522.5 							"/>
						</g>
					</g>
				</g>
			</g>
		</g>
	</g>
</g>
</svg>
