<?xml version="1.0" encoding="utf-8"?>
<!-- Generator: Adobe Illustrator 19.0.0, SVG Export Plug-In . SVG Version: 6.00 Build 0)  -->
<svg version="1.1" id="Capa_1" xmlns="http://www.w3.org/2000/svg" xmlns:xlink="http://www.w3.org/1999/xlink" x="0px" y="0px"
	 viewBox="564 -88 1920 1400" style="enable-background:new 564 -88 1920 1400;" xml:space="preserve">
<style type="text/css">
	.st0{opacity:0.5;}
	.st1{opacity:0.15;fill:#FFFFFF;enable-background:new    ;}
</style>
<title>analítica y ciencia de datos</title>
<g class="st0">
	<path class="st1" d="M2334.3,31.5c0,13.7-11.1,24.7-24.7,24.7c-13.7,0-24.7-11.1-24.7-24.7c0-13.7,11.1-24.7,24.7-24.7
		C2323.2,6.8,2334.3,17.9,2334.3,31.5z M2289.9,31.5c0,10.8,8.9,19.7,19.7,19.7s19.7-8.9,19.7-19.7s-8.9-19.7-19.7-19.7
		S2289.9,20.6,2289.9,31.5z"/>
	<path class="st1" d="M2344.9,31.5c0,19.5-15.8,35.3-35.3,35.3s-35.3-15.8-35.3-35.3s15.8-35.3,35.3-35.3S2344.9,12,2344.9,31.5z
		 M2279.3,31.5c0,16.7,13.6,30.3,30.3,30.3s30.3-13.6,30.3-30.3s-13.6-30.3-30.3-30.3S2279.3,14.8,2279.3,31.5z"/>
	<circle class="st1" cx="2309.6" cy="31.5" r="10.4"/>
	<path class="st1" d="M1622.4-62.9c0,5.8,4.8,10.6,10.6,10.6h122.5l45.2,45.2v183.8l63.6,63.6h59.5l98.9,98.9v78.4
		c0,5.8,4.8,10.6,10.6,10.6c5.8,0,10.6-4.8,10.6-10.6v-87.2l-111.3-111.3h-59.5l-51.3-51.3V-15.9L1764-73.7h-131.2
		C1627-73.5,1622.2-68.7,1622.4-62.9z M2038.7,416.6c0,3.2-2.6,5.8-5.8,5.8s-5.8-2.6-5.8-5.8s2.6-5.8,5.8-5.8
		C2036.1,410.8,2038.7,413.4,2038.7,416.6z M1639.3-62.9c0,3.5-2.8,6.3-6.3,6.3s-6.3-2.8-6.3-6.3s2.8-6.3,6.3-6.3
		S1639.3-66.4,1639.3-62.9z"/>
	<path class="st1" d="M1830.7,227.5c0,0.6-0.2,1.3-0.6,1.7c-0.9,0.9-2.6,0.9-3.5,0l-42-42V-4.2l-38.1-37.9h-144
		c-1.3,0-2.4-1.1-2.4-2.4s1.1-2.4,2.4-2.4h146.1l40.7,40.7v191.4l40.7,40.7C1830.5,226.3,1830.7,226.9,1830.7,227.5z"/>
	<path class="st1" d="M1801.3,227.9c0,0.6-0.2,1.3-0.6,1.7c-0.9,0.9-2.6,0.9-3.5,0l-24.9-24.9V1.8l-33.6-33.6h-136.2
		c-1.3,0-2.4-1.1-2.4-2.4s1.1-2.4,2.4-2.4h138.3l36.4,36.5v202.9l23.4,23.4C1801,226.6,1801.3,227.3,1801.3,227.9z"/>
	<path class="st1" d="M1854.9,149.1c0,5.4-4.3,9.7-9.7,9.7s-9.7-4.3-9.7-9.7s4.3-9.7,9.7-9.7S1854.9,143.8,1854.9,149.1z
		 M1840.4,149.3c0,2.6,2.2,4.8,4.8,4.8s4.8-2.2,4.8-4.8s-2.2-4.8-4.8-4.8S1840.4,146.6,1840.4,149.3z"/>
	<path class="st1" d="M1965.5,67c0,5.4-4.3,9.7-9.7,9.7s-9.7-4.3-9.7-9.7c0-5.4,4.3-9.7,9.7-9.7S1965.5,61.6,1965.5,67z M1951,67
		c0,2.6,2.2,4.8,4.8,4.8s4.8-2.2,4.8-4.8c0-2.6-2.2-4.8-4.8-4.8S1951,64.4,1951,67z"/>
	<circle class="st1" cx="1950.8" cy="-5.5" r="9.3"/>
	<circle class="st1" cx="2013.6" cy="-45.4" r="9.3"/>
	<circle class="st1" cx="2034.2" cy="-31.7" r="9.3"/>
	<path class="st1" d="M2010.1,40.1c0,5.4-4.3,9.7-9.7,9.7s-9.7-4.3-9.7-9.7s4.3-9.7,9.7-9.7S2010.1,34.7,2010.1,40.1z M1995.8,40.2
		c0,2.6,2.2,4.8,4.8,4.8c2.6,0,4.8-2.2,4.8-4.8s-2.2-4.8-4.8-4.8C1998,35.4,1995.9,37.3,1995.8,40.2z"/>
	<path class="st1" d="M2043,72.2c0,5.4-4.3,9.7-9.7,9.7c-5.4,0-9.7-4.3-9.7-9.7c0-5.4,4.3-9.7,9.7-9.7
		C2038.7,62.7,2043.1,67,2043,72.2z M2028.5,72.2c0,2.6,2.2,4.8,4.8,4.8s4.8-2.2,4.8-4.8c0-2.6-2.2-4.8-4.8-4.8
		S2028.6,69.6,2028.5,72.2z"/>
	<path class="st1" d="M2070.1,40.8c0,5.4-4.3,9.7-9.7,9.7s-9.7-4.3-9.7-9.7s4.3-9.7,9.7-9.7S2070.1,35.4,2070.1,40.8z M2055.6,40.9
		c0,2.6,2.2,4.8,4.8,4.8s4.8-2.2,4.8-4.8s-2.2-4.8-4.8-4.8S2055.6,38,2055.6,40.9z"/>
	<path class="st1" d="M2099.8,40.8c0,5.4-4.3,9.7-9.7,9.7s-9.7-4.3-9.7-9.7s4.3-9.7,9.7-9.7C2095.5,31.1,2099.8,35.4,2099.8,40.8z
		 M2085.3,40.9c0,2.6,2.2,4.8,4.8,4.8s4.8-2.2,4.8-4.8s-2.2-4.8-4.8-4.8S2085.3,38,2085.3,40.9z"/>
	<path class="st1" d="M2173.1,33.8c0,5.4-4.3,9.7-9.7,9.7s-9.7-4.3-9.7-9.7s4.3-9.7,9.7-9.7C2168.9,24.1,2173.1,28.4,2173.1,33.8z
		 M2158.6,33.9c0,2.6,2.2,4.8,4.8,4.8s4.8-2.2,4.8-4.8s-2.2-4.8-4.8-4.8S2158.7,31.3,2158.6,33.9z"/>
	<path class="st1" d="M2256.1,33.8c0,5.4-4.3,9.7-9.7,9.7s-9.7-4.3-9.7-9.7s4.3-9.7,9.7-9.7S2256.1,28.4,2256.1,33.8z M2241.6,33.9
		c0,2.6,2.2,4.8,4.8,4.8s4.8-2.2,4.8-4.8s-2.2-4.8-4.8-4.8S2241.6,31.3,2241.6,33.9z"/>
	<path class="st1" d="M2369.3,173.6c0,5.4-4.3,9.7-9.7,9.7s-9.7-4.3-9.7-9.7s4.3-9.7,9.7-9.7S2369.3,168.3,2369.3,173.6z
		 M2354.8,173.8c0,2.6,2.2,4.8,4.8,4.8s4.8-2.2,4.8-4.8s-2.2-4.8-4.8-4.8C2357,168.8,2354.8,170.9,2354.8,173.8z"/>
	<path class="st1" d="M2416.1,173.6c0,5.4-4.3,9.7-9.7,9.7s-9.7-4.3-9.7-9.7s4.3-9.7,9.7-9.7
		C2411.8,163.9,2416.1,168.3,2416.1,173.6z M2401.6,173.8c0,2.6,2.2,4.8,4.8,4.8s4.8-2.2,4.8-4.8s-2.2-4.8-4.8-4.8
		C2403.8,168.8,2401.6,170.9,2401.6,173.8z"/>
	<path class="st1" d="M2454.4,173.6c0,5.4-4.3,9.7-9.7,9.7s-9.7-4.3-9.7-9.7s4.3-9.7,9.7-9.7S2454.4,168.3,2454.4,173.6z
		 M2440.1,173.8c0,2.6,2.2,4.8,4.8,4.8s4.8-2.2,4.8-4.8s-2.2-4.8-4.8-4.8C2442.3,168.8,2440.1,170.9,2440.1,173.8z"/>
	<path class="st1" d="M2454.4,131.5c0,5.4-4.3,9.7-9.7,9.7s-9.7-4.3-9.7-9.7s4.3-9.7,9.7-9.7
		C2450.1,121.8,2454.4,126.1,2454.4,131.5z M2440.1,131.6c0,2.6,2.2,4.8,4.8,4.8s4.8-2.2,4.8-4.8s-2.2-4.8-4.8-4.8
		C2442.3,126.8,2440.1,128.9,2440.1,131.6z"/>
	<path class="st1" d="M2476.5,88.6c0,5.4-4.3,9.7-9.7,9.7s-9.7-4.3-9.7-9.7s4.3-9.7,9.7-9.7C2472.2,79.1,2476.5,83.5,2476.5,88.6z
		 M2462,88.6c0,2.6,2.2,4.8,4.8,4.8s4.8-2.2,4.8-4.8s-2.2-4.8-4.8-4.8C2464.2,83.9,2462,86.1,2462,88.6z"/>
	<path class="st1" d="M2447.9-62.4c0,5.4-4.3,9.7-9.7,9.7s-9.7-4.3-9.7-9.7s4.3-9.7,9.7-9.7C2443.6-72.1,2447.9-67.7,2447.9-62.4z
		 M2433.4-62.2c0,2.6,2.2,4.8,4.8,4.8s4.8-2.2,4.8-4.8s-2.2-4.8-4.8-4.8C2435.6-67,2433.4-64.9,2433.4-62.2z"/>
	<path class="st1" d="M2418.6-62.4c0,5.4-4.3,9.7-9.7,9.7s-9.7-4.3-9.7-9.7s4.3-9.7,9.7-9.7C2414.4-72,2418.6-67.7,2418.6-62.4z
		 M2404.1-62.2c0,2.6,2.2,4.8,4.8,4.8s4.8-2.2,4.8-4.8s-2.2-4.8-4.8-4.8C2406.4-67,2404.2-64.9,2404.1-62.2z"/>
	<path class="st1" d="M2256.1-12.1c0,5.4-4.3,9.7-9.7,9.7s-9.7-4.3-9.7-9.7s4.3-9.7,9.7-9.7S2256.1-17.5,2256.1-12.1z M2241.6-12
		c0,2.6,2.2,4.8,4.8,4.8s4.8-2.2,4.8-4.8s-2.2-4.8-4.8-4.8S2241.6-14.6,2241.6-12z"/>
	<path class="st1" d="M2159.3-70.9c0,5.4-4.3,9.7-9.7,9.7s-9.7-4.3-9.7-9.7s4.3-9.7,9.7-9.7C2155-80.6,2159.3-76.3,2159.3-70.9z
		 M2144.8-70.9c0,2.6,2.2,4.8,4.8,4.8s4.8-2.2,4.8-4.8c0-2.6-2.2-4.8-4.8-4.8S2144.8-73.5,2144.8-70.9z"/>
	<path class="st1" d="M2309.3-39.3c0,5.4-4.3,9.7-9.7,9.7s-9.7-4.3-9.7-9.7s4.3-9.7,9.7-9.7C2305-48.8,2309.4-44.5,2309.3-39.3z
		 M2295-39.3c0,2.6,2.2,4.8,4.8,4.8s4.8-2.2,4.8-4.8s-2.2-4.8-4.8-4.8C2297-44.1,2295.1-41.9,2295-39.3z"/>
	<path class="st1" d="M1967,199c0,5.4-4.3,9.7-9.7,9.7s-9.7-4.3-9.7-9.7s4.3-9.7,9.7-9.7C1962.8,189.3,1967.1,193.6,1967,199z
		 M1952.5,199.1c0,2.6,2.2,4.8,4.8,4.8s4.8-2.2,4.8-4.8s-2.2-4.8-4.8-4.8S1952.6,196.3,1952.5,199.1z"/>
	<path class="st1" d="M1990.2,226.5c0,5.4-4.3,9.7-9.7,9.7c-5.4,0-9.7-4.3-9.7-9.7s4.3-9.7,9.7-9.7S1990.2,221.1,1990.2,226.5z
		 M1975.7,226.6c0,2.6,2.2,4.8,4.8,4.8c2.6,0,4.8-2.2,4.8-4.8s-2.2-4.8-4.8-4.8S1975.7,224,1975.7,226.6z"/>
	<path class="st1" d="M1895.2,164.4c0,5.4-4.3,9.7-9.7,9.7c-5.4,0-9.7-4.3-9.7-9.7s4.3-9.7,9.7-9.7
		C1890.7,154.6,1895.2,159,1895.2,164.4z M1880.7,164.5c0,2.6,2.2,4.8,4.8,4.8c2.6,0,4.8-2.2,4.8-4.8s-2.2-4.8-4.8-4.8
		S1880.7,161.9,1880.7,164.5z"/>
	<path class="st1" d="M1918.1,182.8c0,5.4-4.3,9.7-9.7,9.7s-9.7-4.3-9.7-9.7s4.3-9.7,9.7-9.7S1918.1,177.4,1918.1,182.8z
		 M1903.6,182.9c0,2.6,2.2,4.8,4.8,4.8s4.8-2.2,4.8-4.8s-2.2-4.8-4.8-4.8S1903.7,180.1,1903.6,182.9z"/>
	<path class="st1" d="M1939.8,163.6c0,5.4-4.3,9.7-9.7,9.7c-5.4,0-9.7-4.3-9.7-9.7s4.3-9.7,9.7-9.7
		C1935.5,153.9,1939.8,158.3,1939.8,163.6z M1925.3,163.8c0,2.6,2.2,4.8,4.8,4.8c2.6,0,4.8-2.2,4.8-4.8s-2.2-4.8-4.8-4.8
		C1927.5,159,1925.3,161.1,1925.3,163.8z"/>
	<path class="st1" d="M1814.5,237.9c0,5.7-4.5,10-10,10s-10-4.6-10-10c0-5.7,4.6-10,10-10C1809.9,227.9,1814.5,232.1,1814.5,237.9z
		 M1799.3,237.8c0,2.8,2.4,5.2,5.2,5.2c2.8,0,5.2-2.4,5.2-5.2s-2.4-5.2-5.2-5.2C1801.7,232.6,1799.3,235,1799.3,237.8z"/>
	<path class="st1" d="M1844.6,237.8c0,5.6-4.6,10.4-10.4,10.4c-5.6,0-10.4-4.6-10.4-10.4c0-5.6,4.6-10.4,10.4-10.4
		C1839.8,227.4,1844.5,232,1844.6,237.8z M1828.8,237.8c0,3,2.4,5.4,5.4,5.4s5.4-2.4,5.4-5.4s-2.4-5.4-5.4-5.4
		C1831.1,232.4,1828.8,234.8,1828.8,237.8z"/>
	<path class="st1" d="M2509.6,485.9c0,1.3-1.1,2.4-2.4,2.4h-144.8l-35.9-35.9V278.9l22.9-22.9h49.4c1.3,0,2.4,1.1,2.4,2.4
		s-1.1,2.4-2.4,2.4h-47.2l-19.9,19.9V450l32.9,32.9h142.9C2508.5,483.5,2509.6,484.6,2509.6,485.9z"/>
	<path class="st1" d="M2493.8,506.9c0,1.3-1.1,2.4-2.4,2.4h-146.1l-40.7-40.7V277.2l-40.8-40.7c-0.9-0.9-0.9-2.6,0-3.5
		s2.6-0.9,3.5,0l42,42v191.4l37.9,37.9h144.2C2492.7,504.2,2493.8,505.4,2493.8,506.9z"/>
	<path class="st1" d="M2493.8,496.2c0,1.3-1.1,2.4-2.4,2.4H2353l-36.6-36.6V259.1l-23.4-23.4c-0.9-0.9-0.9-2.6,0-3.5s2.6-0.9,3.5,0
		l24.9,24.9V460l33.8,33.8h136.2C2492.7,493.9,2493.8,495,2493.8,496.2z"/>
	<path class="st1" d="M2420,259.1c0,6-4.7,10.8-10.8,10.8c-6,0-10.8-4.7-10.8-10.8c0-6,4.7-10.8,10.8-10.8
		C2415.2,248.4,2420,253.1,2420,259.1z M2403.4,259.1c0,3.2,2.6,5.8,5.8,5.8s5.8-2.6,5.8-5.8c0-3.2-2.6-5.8-5.8-5.8
		C2405.9,253.4,2403.4,256,2403.4,259.1z"/>
	<path class="st1" d="M2368.5,281.6c0,5.7-4.6,10.2-10.2,10.2c-5.7,0-10.2-4.6-10.2-10.2c0-5.7,4.6-10.2,10.2-10.2
		C2363.9,271.4,2368.5,275.9,2368.5,281.6z M2353.1,281.6c0,2.8,2.4,5.2,5.2,5.2s5.2-2.4,5.2-5.2s-2.4-5.2-5.2-5.2
		C2355.3,276.4,2353.1,278.5,2353.1,281.6z"/>
	<path class="st1" d="M2393.6,281.6c0,5.6-4.5,10.4-10.4,10.4s-10.4-4.6-10.4-10.4c0-5.9,4.6-10.4,10.4-10.4
		S2393.6,275.7,2393.6,281.6z M2378,281.5c0,3,2.4,5.4,5.4,5.4s5.4-2.4,5.4-5.4s-2.4-5.4-5.4-5.4S2378,278.5,2378,281.5z"/>
	<path class="st1" d="M2414.5,406.2c0,5.4-4.3,9.7-9.7,9.7s-9.7-4.3-9.7-9.7s4.3-9.7,9.7-9.7
		C2410.2,396.7,2414.6,401.1,2414.5,406.2z M2400,406.3c0,2.6,2.2,4.8,4.8,4.8s4.8-2.2,4.8-4.8s-2.2-4.8-4.8-4.8
		C2402.2,401.5,2400,403.7,2400,406.3z"/>
	<path class="st1" d="M2360.8,95.1c0,5.4-4.3,9.7-9.7,9.7s-9.7-4.3-9.7-9.7s4.3-9.7,9.7-9.7C2356.6,85.4,2360.8,89.6,2360.8,95.1z
		 M2346.3,95.1c0,2.6,2.2,4.8,4.8,4.8s4.8-2.2,4.8-4.8s-2.2-4.8-4.8-4.8C2348.5,90.4,2346.3,92.6,2346.3,95.1z"/>
	<path class="st1" d="M2317.5,125.4c0,5.4-4.3,9.7-9.7,9.7s-9.7-4.3-9.7-9.7s4.3-9.7,9.7-9.7
		C2313.3,115.9,2317.6,120.3,2317.5,125.4z M2303.3,125.5c0,2.6,2.2,4.8,4.8,4.8s4.8-2.2,4.8-4.8s-2.2-4.8-4.8-4.8
		C2305.2,120.9,2303.3,122.9,2303.3,125.5z"/>
	<path class="st1" d="M2281.8,90.1c0,5.4-4.3,9.7-9.7,9.7s-9.7-4.3-9.7-9.7s4.3-9.7,9.7-9.7C2277.5,80.4,2281.8,84.6,2281.8,90.1z
		 M2267.3,90.1c0,2.6,2.2,4.8,4.8,4.8s4.8-2.2,4.8-4.8s-2.2-4.8-4.8-4.8C2269.5,85.1,2267.4,87.4,2267.3,90.1z"/>
	<path class="st1" d="M2414.5,384.1c0,5.4-4.3,9.7-9.7,9.7s-9.7-4.3-9.7-9.7s4.3-9.7,9.7-9.7
		C2410.2,374.4,2414.6,378.8,2414.5,384.1z M2400,384.2c0,2.6,2.2,4.8,4.8,4.8s4.8-2.2,4.8-4.8s-2.2-4.8-4.8-4.8
		S2400.1,381.6,2400,384.2z"/>
	<path class="st1" d="M2300.3,227.6c0,5.7-4.6,10-10,10c-5.7,0-10-4.6-10-10c0-5.7,4.6-10,10-10
		C2295.9,217.5,2300.3,222,2300.3,227.6z M2285.3,227.6c0,2.8,2.4,5.2,5.2,5.2s5.2-2.4,5.2-5.2s-2.4-5.2-5.2-5.2
		C2287.5,222.5,2285.3,224.8,2285.3,227.6z"/>
	<path class="st1" d="M2270.4,227c0,5.6-4.6,10.4-10.4,10.4c-5.6,0-10.4-4.6-10.4-10.4c0-5.6,4.6-10.4,10.4-10.4
		C2265.8,216.6,2270.4,221.1,2270.4,227z M2254.6,227c0,3,2.4,5.4,5.4,5.4s5.4-2.4,5.4-5.4s-2.4-5.4-5.4-5.4S2254.6,224,2254.6,227z
		"/>
	<rect x="2437.4" y="427.9" class="st1" width="42.6" height="37.2"/>
	<rect x="2438.9" y="376.8" class="st1" width="42.6" height="37.2"/>
	<rect x="2438.9" y="326.6" class="st1" width="42.6" height="37.2"/>
	<polygon class="st1" points="2438.8,453.9 2438.8,458.6 2375.4,458.6 2356.6,439.7 2356.6,290.6 2361.3,290.6 2361.3,437.9 
		2377.3,453.9 	"/>
	<polygon class="st1" points="2447.3,433.8 2447.3,438.5 2397,438.5 2382.3,423.8 2381.2,291.1 2386.2,291.1 2387.3,421.8 
		2399,433.8 	"/>
	<rect x="2412.2" y="381.6" class="st1" width="34.9" height="5"/>
	<rect x="2412.8" y="403.6" class="st1" width="34" height="5"/>
	<path class="st1" d="M2493.8,281.7c0,1.3-1.1,2.4-2.4,2.4h-71.7l-19.7,19.7v33.3l16.7,16.7h26c1.3,0,2.4,1.1,2.4,2.4
		s-1.1,2.4-2.4,2.4h-28.1l-19.7-19.6v-37.5l22.5-22.5h73.8C2492.7,279.4,2493.8,280.5,2493.8,281.7z"/>
	<path class="st1" d="M2493.8,294.7c0,1.3-1.1,2.4-2.4,2.4h-64.7l-13.2,13.2v20.8l9.5,9.5h18.6c1.3,0,2.4,1.1,2.4,2.4
		s-1.1,2.4-2.4,2.4h-20.5l-12.6-12.6v-24.9l16-16h66.7C2492.7,292.2,2493.8,293.5,2493.8,294.7z"/>
	<path class="st1" d="M2493.8,304.2c0,1.3-1.1,2.4-2.4,2.4h-59.8l-8.7,8.7v8.2l5,5h14.3c1.3,0,2.4,1.1,2.4,2.4s-1.1,2.4-2.4,2.4
		H2426l-7.8-7.8v-12.3l11.5-11.5h61.7C2492.7,301.7,2493.8,302.8,2493.8,304.2z"/>
	<path class="st1" d="M2493.8,221.1c0,1.3-1.1,2.4-2.4,2.4h-147.5l-38.5-38.3v-52.3c0-1.3,1.1-2.4,2.4-2.4c1.3,0,2.4,1.1,2.4,2.4
		v50.4l35.5,35.5h145.5C2492.7,218.8,2493.8,219.8,2493.8,221.1z"/>
	<path class="st1" d="M2493.9,235c0,1.3-1.1,2.4-2.4,2.4h-152l-48.1-48.1v-31.4l-19.1-19.1V97.9c0-1.3,1.1-2.4,2.4-2.4
		s2.4,1.1,2.4,2.4v39l19.1,19.1v31.4l45,45h150C2492.7,232.6,2493.8,233.6,2493.9,235z"/>
	<path class="st1" d="M2493.2,207c0,1.3-1.1,2.4-2.4,2.4h-139.7l-26-26v-22.7l23.8-21v-37.5c0-1.3,1.1-2.4,2.4-2.4
		c1.3,0,2.4,1.1,2.4,2.4v39.6l-23.8,21v18.6l23.2,22.9h137.5C2492.1,204.3,2493.2,205.3,2493.2,207z"/>
	<path class="st1" d="M1938.9-50.1c0,5.2-4.3,9.5-9.5,9.5h-95.9c-5.2,0-9.5-4.3-9.5-9.5s4.3-9.5,9.5-9.5h96.1
		C1934.8-59.6,1938.9-55.3,1938.9-50.1z"/>
	<rect x="1843" y="-92.8" class="st1" width="5" height="235.8"/>
	<polygon class="st1" points="1887.6,132.8 1887.6,159.5 1882.7,159.5 1882.7,134.8 1856.9,109.1 1856.9,-92.8 1861.9,-92.8 
		1861.9,107.1 	"/>
	<polygon class="st1" points="1909.3,133.5 1909.3,175.9 1904.3,175.9 1904.3,135.4 1870.7,101.9 1870.7,-92.8 1875.7,-92.8 
		1875.7,99.9 	"/>
	<polygon class="st1" points="1932.7,135.1 1932.7,157.5 1927.7,157.5 1927.7,137.1 1886.5,96 1886.5,-92.8 1891.5,-92.8 
		1891.5,94.1 	"/>
	<path class="st1" d="M1960.1,141.6v50.7c0,1.3-1.1,2.4-2.4,2.4s-2.4-1.1-2.4-2.4v-48.7L1901,89.3V-93c0-1.3,1.1-2.4,2.4-2.4
		s2.4,1.1,2.4,2.4V87.4L1960.1,141.6z"/>
	<path class="st1" d="M1982.2,144.6v74.7c0,1.3-1.1,2.4-2.4,2.4s-2.4-1.1-2.4-2.4v-72.7l-64.5-64.5V-93.1c0-1.3,1.1-2.4,2.4-2.4
		s2.4,1.1,2.4,2.4v173L1982.2,144.6z"/>
	<polygon class="st1" points="2064.9,322.3 2064.9,465.4 2060,465.4 2060,324.2 2001.5,265.8 2001.5,117 1958.2,73.6 1961.7,70.3 
		2006.5,114.9 2006.5,263.8 	"/>
	<polygon class="st1" points="2078.4,315.8 2078.4,501.5 2073.4,501.5 2073.4,317.7 2015.6,259.9 2015.6,114.4 1998.5,97.3 
		1998.5,45.6 2003.2,45.6 2003.2,95.4 2020.3,112.5 2020.3,257.6 	"/>
	<polygon class="st1" points="2089.6,307.8 2089.6,522.1 2084.6,522.1 2084.6,309.9 2030.3,255.6 2030.3,78.5 2035.3,78.5 
		2035.3,253.6 	"/>
	<polygon class="st1" points="2099.4,303.2 2099.4,528.6 2094.4,528.6 2094.4,305.2 2040.3,251 2040.3,111.8 2057.8,94.1 
		2057.8,46.2 2062.8,46.2 2062.8,96.1 2045,113.8 2045,248.9 	"/>
	<polygon class="st1" points="2110,298.7 2110,535.1 2105,535.1 2105,300.6 2051.3,247.1 2051.3,117.6 2087.7,81.3 2087.7,47.7 
		2092.6,47.7 2092.6,83.5 2056.3,119.6 2056.3,245 	"/>
	<path class="st1" d="M2240.5-11.5c0,1.3-1.1,2.4-2.4,2.4h-79.2l-49.1-49.1h-104.2l-49.1,49.1c-0.9,0.9-2.6,0.9-3.5,0
		s-0.9-2.6,0-3.5l50.7-50.7h108l49.1,49.1h77.3C2239.4-14.2,2240.5-13.1,2240.5-11.5z"/>
	<path class="st1" d="M2294.2-39.1c0,2.8-2.2,5-5,5h-111l-25.5-25.5c-1.9-1.9-1.9-5,0-6.9s5-1.9,6.9,0l22.7,22.7h106.9
		C2292-44.1,2294.2-41.7,2294.2-39.1z"/>
	<path class="st1" d="M2243.9,27.6c0,0.6-0.2,1.3-0.6,1.7c-0.9,0.9-2.6,0.9-3.5,0l-22.5-22.5h-60.6l-50.9-50.9h-97.6
		c-1.3,0-2.4-1.1-2.4-2.4s1.1-2.4,2.4-2.4h99.8L2158.9,2h60.6l23.8,23.8C2243.8,26.3,2244,27,2243.9,27.6z"/>
	<path class="st1" d="M2163,27.3c0,0.6-0.2,1.3-0.6,1.7c-0.9,0.9-2.6,0.9-3.5,0l-58-58h-66c-1.3,0-2.4-1.1-2.4-2.4s1.1-2.4,2.4-2.4
		h68.2l59.5,59.5C2162.8,25.9,2163,26.5,2163,27.3z"/>
	<polygon class="st1" points="2387.5,13.1 2387.5,148.6 2365.2,171.1 2361.8,167.6 2382.5,146.6 2382.5,15.1 2352,-15.5 2352,-92.8 
		2357,-92.8 2357,-17.4 	"/>
	<polygon class="st1" points="2408.7,9.1 2408.7,165.1 2403.8,165.1 2403.8,11.1 2368.5,-24.1 2368.5,-92.8 2373.4,-92.8 
		2373.4,-26.1 	"/>
	<polygon class="st1" points="2441.9,165.9 2438.4,169.4 2419.6,150.6 2419.6,6.6 2382.3,-30.6 2382.3,-92.8 2387.3,-92.8 
		2387.3,-32.6 2424.3,4.4 2424.3,148.6 	"/>
	<polygon class="st1" points="2448.1,-2.1 2448.1,125.1 2443.2,125.1 2443.2,-0.1 2407.6,-35.6 2407.6,-56 2412.6,-56 2412.6,-37.6 
			"/>
	<polygon class="st1" points="2469.8,-7.2 2469.8,83.1 2464.8,83.1 2464.8,-5.4 2435.4,-35 2435.4,-56.4 2440.1,-56.4 2440.1,-36.9 
			"/>
	<path class="st1" d="M2292.9,510.4c0,5.6-4.6,10.4-10.4,10.4c-5.6,0-10.4-4.6-10.4-10.4c0-5.6,4.6-10.4,10.4-10.4
		C2288.1,500,2292.9,504.5,2292.9,510.4z M2277.1,510.4c0,3,2.4,5.4,5.4,5.4s5.4-2.4,5.4-5.4c0-3-2.4-5.4-5.4-5.4
		S2277.1,507.4,2277.1,510.4z"/>
	<path class="st1" d="M2243.8,480.2c0,5.6-4.6,10.4-10.4,10.4c-5.6,0-10.4-4.6-10.4-10.4c0-5.6,4.6-10.4,10.4-10.4
		C2239.2,470.1,2243.8,474.7,2243.8,480.2z M2228,480.2c0,3,2.4,5.4,5.4,5.4s5.4-2.4,5.4-5.4s-2.4-5.4-5.4-5.4
		C2230.6,474.9,2228,477.5,2228,480.2z"/>
	<path class="st1" d="M2147.4,80.4c0,5.6-4.5,10.4-10.4,10.4s-10.4-4.6-10.4-10.4c0-5.6,4.6-10.4,10.4-10.4
		C2142.9,70,2147.4,74.6,2147.4,80.4z M2131.6,80.4c0,3,2.4,5.4,5.4,5.4s5.4-2.4,5.4-5.4S2140,75,2137,75S2131.6,77.4,2131.6,80.4z"
		/>
	<path class="st1" d="M2183.4,80.4c0,5.6-4.6,10.4-10.4,10.4c-5.6,0-10.4-4.6-10.4-10.4c0-5.6,4.6-10.4,10.4-10.4
		C2178.6,70,2183.4,74.6,2183.4,80.4z M2167.6,80.4c0,3,2.4,5.4,5.4,5.4s5.4-2.4,5.4-5.4S2176,75,2173,75
		C2169.9,75,2167.6,77.4,2167.6,80.4z"/>
	<path class="st1" d="M2215.2,116.6c0,5.6-4.6,10.4-10.4,10.4c-5.6,0-10.4-4.6-10.4-10.4c0-5.6,4.6-10.4,10.4-10.4
		C2210.6,106.1,2215.2,110.6,2215.2,116.6z M2199.4,116.6c0,3,2.4,5.4,5.4,5.4s5.4-2.4,5.4-5.4s-2.4-5.4-5.4-5.4
		S2199.4,113.6,2199.4,116.6z"/>
	<path class="st1" d="M2096.9,131.1v105.6l97.6,97.9v258.5c0,5.5,4.4,10,10,10c5.5,0,10-4.4,10-10V326.6l-97.6-97.6v-97.9
		c0-5.5-4.4-10-10-10S2097,125.6,2096.9,131.1z M2209.4,592.7c0,2.8-2.2,5-5,5s-5-2.2-5-5c0-2.8,2.2-5,5-5
		S2209.3,589.7,2209.4,592.7z M2111.5,131.5c0,2.8-2.2,5-5,5s-5-2.2-5-5s2.2-5,5-5C2109.1,126.5,2111.5,128.6,2111.5,131.5z"/>
	<polygon class="st1" points="2236.6,315.8 2236.6,474.7 2231.6,474.7 2231.6,317.7 2135.5,221.6 2135.5,86.6 2140.3,86.6 
		2140.3,219.4 	"/>
	<polygon class="st1" points="2250.5,309.7 2250.5,522.9 2245.5,522.9 2245.5,311.9 2149.8,216.1 2149.8,101.6 2166.5,84.8 
		2170.2,88.1 2154.6,103.6 2154.6,214 	"/>
	<polygon class="st1" points="2286,282.2 2286,506.2 2281,506.2 2281,284.2 2202.6,205.8 2202.6,123.3 2207.4,123.3 2207.4,203.6 	
		"/>
</g>
</svg>
