<?xml version="1.0" encoding="utf-8"?>
<!-- Generator: Adobe Illustrator 19.0.0, SVG Export Plug-In . SVG Version: 6.00 Build 0)  -->
<svg version="1.1" id="Capa_1" xmlns="http://www.w3.org/2000/svg" xmlns:xlink="http://www.w3.org/1999/xlink" x="0px" y="0px"
	 viewBox="-258.3 478.1 290.4 267.7" style="enable-background:new -258.3 478.1 290.4 267.7;" xml:space="preserve">
<style type="text/css">
	.st0{fill:#0F1C2A;}
	.st1{fill:#BEE3EE;}
	.st2{fill:url(#SVGID_1_);}
	.st3{fill:url(#SVGID_2_);}
	.st4{fill:url(#SVGID_3_);}
	.st5{fill:url(#SVGID_4_);}
	.st6{fill:#24126A;}
	.st7{opacity:0.51;}
	.st8{fill:#453C9E;}
	.st9{fill:url(#SVGID_5_);}
	.st10{fill:url(#SVGID_6_);}
	.st11{fill:#2842A2;}
	.st12{fill:#ADB1F2;}
	.st13{fill:#9198DB;}
	.st14{fill:url(#SVGID_8_);}
	.st15{opacity:0.11;}
	.st16{clip-path:url(#SVGID_9_);}
	.st17{fill:url(#SVGID_10_);}
	.st18{fill:url(#SVGID_11_);}
	.st19{fill:url(#SVGID_12_);}
	.st20{fill:url(#SVGID_13_);}
	.st21{fill:url(#SVGID_14_);}
	.st22{fill:url(#SVGID_15_);}
	.st23{fill:url(#SVGID_16_);}
	.st24{fill:url(#SVGID_17_);}
	.st25{fill:url(#SVGID_18_);}
	.st26{fill:url(#SVGID_19_);}
	.st27{opacity:0.5;fill:#FFFFFF;}
	.st28{fill:url(#SVGID_20_);}
	.st29{fill:#0F054C;}
	.st30{opacity:0.5;fill:url(#SVGID_21_);}
	.st31{opacity:0.5;fill:url(#SVGID_22_);}
	.st32{opacity:0.5;fill:url(#SVGID_23_);}
	.st33{opacity:0.5;fill:url(#SVGID_24_);}
	.st34{opacity:0.5;fill:url(#SVGID_25_);}
	.st35{opacity:0.5;fill:url(#SVGID_26_);}
	.st36{opacity:0.5;fill:url(#SVGID_27_);}
	.st37{opacity:0.5;fill:url(#SVGID_28_);}
</style>
<title>analítica y ciencia de datos</title>
<g>
	<g>
		<g>
			<g>
				<path class="st0" d="M-211.1,1037.9c-67.9,0-123.1,51.7-123.1,115.1c0,45.7,29.6,85.6,71,104.1l-0.9-7.2
					c-37.7-18.1-63.6-54.7-63.6-96.9c0-60,52.3-108.9,116.6-108.9s116.6,48.8,116.6,108.9c0,42.2-25.9,78.8-63.6,96.9v7
					c41.4-18.6,70.1-58.2,70.1-103.9C-88,1089.6-143.2,1037.9-211.1,1037.9z"/>
			</g>
		</g>
		<g>
			<g>
				<path class="st0" d="M-260,1259.4l-7.6-3.2c-43.4-19.5-67.5-58.1-67.5-102.4c0-64,55.6-116,124-116s124,52.1,124,116
					c0,44.4-26.8,84.1-69.7,103.4l-2.2,0.9v-7.9l0.5-0.2c38.9-18.6,63.1-55.5,63.1-96.1c0-59.5-51.9-108-115.7-108
					s-115.7,48.4-115.7,108c0,40.6,24.2,77.5,63.1,96.1l0.4,0.2L-260,1259.4z M-211.1,1039.6c-67.4,0-122.2,51.3-122.2,114.2
					c0,43.1,27,83.2,69,102.7l-0.7-5.2c-39.3-19-63.6-56.3-63.6-97.5c0-60.5,52.7-109.8,117.5-109.8s117.5,49.2,117.5,109.8
					c0,41.2-24.3,78.5-63.6,97.5v5c41.5-19.2,68.3-59.3,68.3-102.5C-88.9,1090.8-143.7,1039.6-211.1,1039.6z"/>
			</g>
		</g>
	</g>
	<g>
		<path class="st0" d="M-275.2,1140.5c-11.4,3-22.2,8.6-31.2,16.7l0,0l0,0l0,0l0,0c-2.2,2-2.2,5.2-0.1,7.1c2.1,1.9,5.7,1.9,7.9-0.1
			l0,0c7-6.3,15.2-10.8,24-13.5"/>
	</g>
	<g>
		<path class="st0" d="M-275,1160.5c-5.7,2.2-11,5.5-15.6,9.7l-0.1,0.2c-2.2,2-2.3,5.2-0.1,7.1c2.2,1.9,5.7,1.8,7.9-0.2l0.1-0.1
			c2.4-2.1,4.9-3.9,7.7-5.4"/>
	</g>
	<g>
		<path class="st0" d="M-273.2,1181.5c-1.9,1-3.7,2.2-5.3,3.5l0,0l0,0c-2.3,2-2.4,5.2,0,7c1.5,1.2,3.7,1.6,5.7,1.2"/>
	</g>
	<g>
		<path class="st1" d="M-154.6,1154.2c-1.8-0.4-3.9,0.1-5.4,1.4l0,0c-1,0.9-2.1,1.7-3.3,2.4"/>
	</g>
	<g>
		<path class="st0" d="M-149.2,1162.3c0.8-0.6,1.6-1.2,2.3-1.9l0.1-0.1c2.2-2,2.3-5.2,0.1-7.2c-0.7-0.6-1.6-1.1-2.5-1.3"/>
	</g>
	<g>
		<path class="st0" d="M-163.3,1158c-7,4-16.5,3.2-22.6-2.3l0,0c-5.1-4.6-10.8-8.4-16.9-11.4v11.6c3.2,2,6.2,4.2,9.1,6.8l0,0l0,0
			c8.2,7.4,20.1,9.5,30.4,6.3c3.1-1,6-2.4,8.7-4.4"/>
	</g>
	<g>
		<path class="st0" d="M-149.2,1184.5c6.5-2.3,12.6-5.8,17.8-10.5l0.2-0.2c2.2-2,2.3-5.2,0.2-7.2c-2.1-1.9-5.7-1.9-7.9,0.1l-0.2,0.2
			c-3,2.7-6.4,5-10,6.6"/>
	</g>
	<g>
		<path class="st0" d="M-154.6,1176.4c-15.1,7-34.1,4.8-46.7-6.6l0,0c-0.5-0.4-0.9-0.8-1.4-1.2v13.1c14.2,9.2,32.3,11,48.1,5.6"/>
	</g>
	<g>
		<path class="st0" d="M-149.2,1207c12.3-2.8,23.9-8.6,33.6-17.3l0.2-0.2c2.2-2,2.3-5.2,0.2-7.2c-2.1-1.9-5.7-1.9-7.9,0.1l-0.2,0.2
			c-7.4,6.7-16.2,11.4-25.5,14"/>
	</g>
	<g>
		<path class="st0" d="M-154.6,1197.7c-15.8,4.4-33.3,3-48.1-4.4v11.1c15.1,6.1,32,7.3,47.8,3.7"/>
	</g>
	<g>
		<path class="st0" d="M-214.1,1089.4l-53.5,28.3v20c16.7-4.3,34.8-3.3,50.8,3.2v11.1c-15.5-7.7-34.3-9-50.8-4v10.8
			c16.4-6.5,35.9-4.9,50.8,4.9v13.2c-0.5-0.4-1.1-0.9-1.6-1.4l0,0c-13.4-12-33.7-13.8-49.2-5.5v8.9c12.6-6.5,29.5-5.2,40.4,3.7
			c3.2,2.6,6.7,4.9,10.4,6.9v11.6c-6.9-3-13.3-6.8-19.1-11.5c-1.8-1.5-3.9-2.6-6.1-3.4c-4.2-1.5-8.9-1.8-13.3-0.9
			c-2.2,0.5-4.3,1.2-6.3,2.3s-3.9,2.5-6.1,3.4v-0.3v65.5c17,7.9,36.2,12.4,56.5,12.4c0.7,0,1.3,0,2,0v-168.1l45.8,22.8v136.6
			c2.9-1.1,5.8-2.3,8.7-3.6v-137.4L-214.1,1089.4z"/>
	</g>
</g>
<g>
	<linearGradient id="SVGID_1_" gradientUnits="userSpaceOnUse" x1="-149.6032" y1="581.0432" x2="-40.9727" y2="581.0432">
		<stop  offset="0" style="stop-color:#5761D7"/>
		<stop  offset="7.257640e-002" style="stop-color:#5472D8"/>
		<stop  offset="0.2791" style="stop-color:#4E9CDB"/>
		<stop  offset="0.4801" style="stop-color:#49BDDD"/>
		<stop  offset="0.6715" style="stop-color:#45D5DF"/>
		<stop  offset="0.8493" style="stop-color:#43E3E0"/>
		<stop  offset="1" style="stop-color:#42E8E0"/>
	</linearGradient>
	<path class="st2" d="M-149.1,612.7c-0.2,0-0.4-0.1-0.5-0.3c-0.1-0.3-0.1-0.6,0.2-0.7l107.6-62.3c0.3-0.2,0.6-0.1,0.7,0.2
		c0.1,0.3,0.1,0.6-0.2,0.7l-107.6,62.3C-148.9,612.7-149,612.7-149.1,612.7z"/>
	<g>
		<g>
			<g>
				<g>
					<linearGradient id="SVGID_2_" gradientUnits="userSpaceOnUse" x1="-229.2128" y1="684.3057" x2="-17.5211" y2="684.3057">
						<stop  offset="0" style="stop-color:#42E8E0"/>
						<stop  offset="0.1507" style="stop-color:#43E3E0"/>
						<stop  offset="0.3285" style="stop-color:#45D5DF"/>
						<stop  offset="0.5199" style="stop-color:#49BDDD"/>
						<stop  offset="0.7209" style="stop-color:#4E9CDB"/>
						<stop  offset="0.9274" style="stop-color:#5472D8"/>
						<stop  offset="1" style="stop-color:#5761D7"/>
					</linearGradient>
					<path class="st3" d="M-149.8,745.8c-1.9,0-3.9-0.5-5.6-1.5l-72.7-42c-0.7-0.4-1.1-1.1-1.1-1.9c0-0.8,0.4-1.5,1.1-1.9
						l131.2-75.7l0.3,0.1l78,45.1c0.7,0.4,1.1,1.1,1.1,1.9c0,0.8-0.4,1.5-1.1,1.9l-125.6,72.5C-145.9,745.3-147.9,745.8-149.8,745.8
						z M-96.9,624l-130.7,75.4c-0.4,0.2-0.6,0.6-0.6,1c0,0.4,0.2,0.8,0.6,1l72.7,42c3.1,1.8,7,1.8,10.2,0l125.6-72.5
						c0.4-0.2,0.6-0.6,0.6-1c0-0.4-0.2-0.8-0.6-1L-96.9,624z"/>
				</g>
				<g>
					<g>
						<linearGradient id="SVGID_3_" gradientUnits="userSpaceOnUse" x1="-258.2715" y1="581.9555" x2="-96.7298" y2="581.9555">
							<stop  offset="0" style="stop-color:#C0BFF6"/>
							<stop  offset="0.2938" style="stop-color:#C5C4F7"/>
							<stop  offset="0.6399" style="stop-color:#D3D2F9"/>
							<stop  offset="1" style="stop-color:#E9E9FD"/>
						</linearGradient>
						<path class="st4" d="M-96.8,592l-17.5-103.8l1.4-0.6l-2.1-1.2l0,0c-0.4-0.3-1-0.3-1.6,0.1l-139.8,80.7c-1.1,0.7-2,2.4-1.8,3.6
							l17.6,104.6c0.1,0.5,0.4,0.9,0.7,1.1l0,0l2.1,1.2l0.4-1.9l-0.1,0l139-80.2C-97.4,594.9-96.6,593.2-96.8,592z"/>
						<linearGradient id="SVGID_4_" gradientUnits="userSpaceOnUse" x1="-258.2705" y1="623.3837" x2="-230.5322" y2="623.3837">
							<stop  offset="0" style="stop-color:#5761D7"/>
							<stop  offset="0.1779" style="stop-color:#5C66D9"/>
							<stop  offset="0.3876" style="stop-color:#6A73DF"/>
							<stop  offset="0.6134" style="stop-color:#8289E8"/>
							<stop  offset="0.849" style="stop-color:#A3A7F5"/>
							<stop  offset="1" style="stop-color:#BCBEFF"/>
						</linearGradient>
						<path class="st5" d="M-255.6,570.1l-2.3-1c-0.3,0.6-0.4,1.2-0.3,1.7l17.6,104.6c0.1,0.5,0.4,0.9,0.7,1.1l0,0l2.1,1.2l0.4-1.9
							l-0.1,0l7-4.1L-255.6,570.1z"/>
						<path class="st6" d="M-96.4,596.8l-139.8,80.7c-1.1,0.6-2,0.3-2.2-0.9L-256,572.1c-0.2-1.2,0.7-2.9,1.8-3.6l139.8-80.7
							c1.1-0.6,2-0.3,2.2,0.9l17.6,104.6C-94.4,594.4-95.2,596.1-96.4,596.8z"/>
						<g class="st7">
							<polygon class="st8" points="-116.2,494.5 -251,572.3 -234.3,670.8 -99.6,593 							"/>
						</g>
					</g>
					<g>
						<linearGradient id="SVGID_5_" gradientUnits="userSpaceOnUse" x1="-236.6287" y1="669.9537" x2="-8.4789" y2="669.9537">
							<stop  offset="0" style="stop-color:#5761D7"/>
							<stop  offset="0.1779" style="stop-color:#5C66D9"/>
							<stop  offset="0.3876" style="stop-color:#6A73DF"/>
							<stop  offset="0.6134" style="stop-color:#8289E8"/>
							<stop  offset="0.849" style="stop-color:#A3A7F5"/>
							<stop  offset="1" style="stop-color:#BCBEFF"/>
						</linearGradient>
						<path class="st9" d="M-8.5,646.4l-7.6,4l-76.5-44.2c-1.3-0.7-3.5-0.6-5,0.2l-132,76.2c-1.3-0.7-7-3.5-7-3.5l2.8,7.3
							c0,0,0,0,0,0c0.1,0.3,0.4,0.6,0.8,0.9l80.6,46.5c1.3,0.7,3.5,0.6,5-0.2l135.1-78c0.6-0.4,1-0.8,1.1-1.2l0,0L-8.5,646.4z"/>
						<linearGradient id="SVGID_6_" gradientUnits="userSpaceOnUse" x1="-159.9696" y1="662.3464" x2="68.3018" y2="662.3464">
							<stop  offset="0" style="stop-color:#C0BFF6"/>
							<stop  offset="0.2938" style="stop-color:#C5C4F7"/>
							<stop  offset="0.6399" style="stop-color:#D3D2F9"/>
							<stop  offset="1" style="stop-color:#E9E9FD"/>
						</linearGradient>
						<path class="st10" d="M-9.7,647.6l-138.4,79.9c-1.5,0.9-3.8,1-5.1,0.2l-82.6-47.7c-1.3-0.8-1.1-2.1,0.4-3L-97,597.2
							c1.5-0.9,3.8-1,5.1-0.2l82.6,47.7C-8,645.4-8.1,646.7-9.7,647.6z"/>
						<path class="st11" d="M-189.8,710.2v-1.5c0-0.1,0.1-0.2,0.2-0.1l5.4,3.1c0.1,0.1,0.2,0.2,0.2,0.4v1.5c0,0.1-0.1,0.2-0.2,0.1
							l-5.4-3.1C-189.7,710.5-189.8,710.4-189.8,710.2z"/>
						<path class="st11" d="M-181.8,714.9v-1.5c0-0.1,0.1-0.2,0.2-0.1l5.4,3.1c0.1,0.1,0.2,0.2,0.2,0.4v1.5c0,0.1-0.1,0.2-0.2,0.1
							l-5.4-3.1C-181.7,715.2-181.8,715-181.8,714.9z"/>
						<path class="st12" d="M-214.3,675.6l115-66.4c0.8-0.4,1.7-0.4,2.5,0l41,23.7c0.6,0.3,0.6,1.2,0,1.5l-115,66.4
							c-0.8,0.4-1.7,0.4-2.5,0l-41-23.7C-214.8,676.8-214.8,675.9-214.3,675.6z"/>
						<path class="st13" d="M-214.3,677.1l0.4,0.2l114.6-66.2c0.8-0.4,1.7-0.4,2.5,0l40.5,23.5l0.4-0.2c0.6-0.3,0.6-1.2,0-1.5
							l-41-23.7c-0.8-0.4-1.7-0.4-2.5,0l-115,66.4C-214.8,675.9-214.8,676.8-214.3,677.1z"/>
						<g>
							<polygon class="st6" points="-93.7,615.2 -193.6,672.9 -198,670.3 -98.1,612.6 							"/>
							<polygon class="st6" points="-82.8,621.5 -176.5,675.6 -180.9,673 -87.2,618.9 							"/>
							<polygon class="st6" points="-75.7,625.6 -186,689.3 -190.5,686.7 -80.1,623 							"/>
							<polygon class="st6" points="-68.6,629.7 -178.9,693.4 -183.4,690.8 -73,627.1 							"/>
							<polygon class="st6" points="-61.5,633.7 -171.8,697.5 -176.3,694.9 -65.9,631.2 							"/>
							<polygon class="st6" points="-199.6,676.3 -204.1,678.9 -208.5,676.3 -204.1,673.8 							"/>
							<polygon class="st6" points="-183.9,679.9 -193.2,685.2 -197.6,682.6 -188.4,677.3 							"/>
						</g>
						<linearGradient id="SVGID_8_" gradientUnits="userSpaceOnUse" x1="-121.3121" y1="675.3049" x2="-62.881" y2="675.3049">
							<stop  offset="0" style="stop-color:#C0BFF6"/>
							<stop  offset="0.2938" style="stop-color:#C5C4F7"/>
							<stop  offset="0.6399" style="stop-color:#D3D2F9"/>
							<stop  offset="1" style="stop-color:#E9E9FD"/>
						</linearGradient>
						<path class="st14" d="M-94.8,691.6l31-17.9c1.2-0.7,1.2-1.8,0-2.5L-85,659c-1.2-0.7-3.2-0.7-4.4,0l-31,17.9
							c-1.2,0.7-1.2,1.8,0,2.5l21.2,12.2C-98,692.3-96,692.3-94.8,691.6z"/>
						<path class="st13" d="M-120.4,677.9l31-17.9c1.2-0.7,3.2-0.7,4.4,0l21.2,12.2c0.4,0.2,0.6,0.5,0.8,0.7
							c0.3-0.6,0.1-1.3-0.8-1.8L-85,659c-1.2-0.7-3.2-0.7-4.4,0l-31,17.9c-0.8,0.5-1.1,1.2-0.8,1.8
							C-121,678.4-120.8,678.1-120.4,677.9z"/>
					</g>
				</g>
				<g class="st15">
					<defs>
						<polygon id="SVGID_7_" class="st15" points="-116.2,494.5 -251,572.3 -234.3,670.8 -99.6,593 						"/>
					</defs>
					<clipPath id="SVGID_9_">
						<use xlink:href="#SVGID_7_"  style="overflow:visible;"/>
					</clipPath>
					<g class="st16">
						<linearGradient id="SVGID_10_" gradientUnits="userSpaceOnUse" x1="-247.1824" y1="611.7508" x2="-18.911" y2="611.7508">
							<stop  offset="0" style="stop-color:#C0BFF6"/>
							<stop  offset="0.2938" style="stop-color:#C5C4F7"/>
							<stop  offset="0.6399" style="stop-color:#D3D2F9"/>
							<stop  offset="1" style="stop-color:#E9E9FD"/>
						</linearGradient>
						<path class="st17" d="M-96.9,597l-138.4,79.9c-1.5,0.9-3.8,1-5.1,0.2l-82.6-47.7c-1.3-0.8-1.1-2.1,0.4-3l138.4-79.9
							c1.5-0.9,3.8-1,5.1-0.2l82.6,47.7C-95.2,594.8-95.4,596.1-96.9,597z"/>
						<linearGradient id="SVGID_11_" gradientUnits="userSpaceOnUse" x1="-262.2064" y1="594.994" x2="-203.7754" y2="594.994">
							<stop  offset="0" style="stop-color:#C0BFF6"/>
							<stop  offset="0.2938" style="stop-color:#C5C4F7"/>
							<stop  offset="0.6399" style="stop-color:#D3D2F9"/>
							<stop  offset="1" style="stop-color:#E9E9FD"/>
						</linearGradient>
						<path class="st18" d="M-235.7,611.3l31-17.9c1.2-0.7,1.2-1.8,0-2.5l-21.2-12.2c-1.2-0.7-3.2-0.7-4.4,0l-31,17.9
							c-1.2,0.7-1.2,1.8,0,2.5l21.2,12.2C-238.9,612-236.9,612-235.7,611.3z"/>
						<path class="st13" d="M-261.3,597.6l31-17.9c1.2-0.7,3.2-0.7,4.4,0l21.2,12.2c0.4,0.2,0.6,0.5,0.8,0.7
							c0.3-0.6,0.1-1.3-0.8-1.8l-21.2-12.2c-1.2-0.7-3.2-0.7-4.4,0l-31,17.9c-0.8,0.5-1.1,1.2-0.8,1.8
							C-261.9,598.1-261.7,597.8-261.3,597.6z"/>
						<g>
							<path class="st12" d="M-274.9,639.3l115-66.4c0.8-0.4,1.7-0.4,2.5,0l41,23.7c0.6,0.3,0.6,1.2,0,1.5l-115,66.4
								c-0.8,0.4-1.7,0.4-2.5,0l-41-23.7C-275.5,640.5-275.5,639.7-274.9,639.3z"/>
							<path class="st13" d="M-274.9,640.8l0.4,0.2l114.6-66.2c0.8-0.4,1.7-0.4,2.5,0l40.5,23.5l0.4-0.2c0.6-0.3,0.6-1.2,0-1.5
								l-41-23.7c-0.8-0.4-1.7-0.4-2.5,0l-115,66.4C-275.5,639.7-275.5,640.5-274.9,640.8z"/>
							<g>
								<polygon class="st6" points="-127.2,595 -227.4,652.8 -223.4,655.1 -123.2,597.3 								"/>
								<polygon class="st6" points="-137.7,588.9 -233,643.9 -229,646.2 -133.8,591.2 								"/>
								<polygon class="st6" points="-240.1,648 -249,653.1 -245,655.4 -236.1,650.3 								"/>
								<polygon class="st6" points="-232.2,655.6 -238.4,659.2 -234.5,661.5 -228.3,657.9 								"/>
								<polygon class="st6" points="-144.4,585.1 -255.6,649.3 -251.6,651.6 -140.4,587.4 								"/>
								<polygon class="st6" points="-151,581.3 -262.2,645.5 -258.3,647.8 -147,583.6 								"/>
								<polygon class="st6" points="-157.6,577.4 -268.8,641.7 -264.9,644 -153.6,579.7 								"/>
							</g>
						</g>
					</g>
				</g>
			</g>
		</g>
	</g>
	<linearGradient id="SVGID_12_" gradientUnits="userSpaceOnUse" x1="-249.2695" y1="733.2756" x2="-214.0146" y2="617.9619">
		<stop  offset="0.5" style="stop-color:#42E8E0"/>
		<stop  offset="0.5754" style="stop-color:#43E3E0"/>
		<stop  offset="0.6642" style="stop-color:#45D5DF"/>
		<stop  offset="0.7599" style="stop-color:#49BDDD"/>
		<stop  offset="0.8605" style="stop-color:#4E9CDB"/>
		<stop  offset="0.9637" style="stop-color:#5472D8"/>
		<stop  offset="1" style="stop-color:#5761D7"/>
	</linearGradient>
	<path class="st19" d="M-250.7,732.7c-0.5,0-1-0.1-1.4-0.4c-1-0.5-1.6-1.5-1.6-2.6v-72c0-2.6,1.4-5,3.6-6.3l50.5-28.9
		c0.2-0.1,0.6-0.1,0.7,0.2s0.1,0.6-0.2,0.7l-50.5,28.9c-1.9,1.1-3.1,3.2-3.1,5.4v72c0,0.7,0.4,1.4,1,1.7c0.6,0.4,1.4,0.3,2-0.1
		l34.7-22.3c0.2-0.2,0.6-0.1,0.7,0.2c0.2,0.2,0.1,0.6-0.2,0.7l-34.7,22.3C-249.6,732.5-250.1,732.7-250.7,732.7z"/>
	<g>
		<linearGradient id="SVGID_13_" gradientUnits="userSpaceOnUse" x1="-206.9238" y1="604.4673" x2="-127.4392" y2="604.4673">
			<stop  offset="0.129" style="stop-color:#5761D7"/>
			<stop  offset="0.1922" style="stop-color:#5472D8"/>
			<stop  offset="0.3721" style="stop-color:#4E9CDB"/>
			<stop  offset="0.5472" style="stop-color:#49BDDD"/>
			<stop  offset="0.7139" style="stop-color:#45D5DF"/>
			<stop  offset="0.8687" style="stop-color:#43E3E0"/>
			<stop  offset="1" style="stop-color:#42E8E0"/>
		</linearGradient>
		<path class="st20" d="M-191.4,627.6c-0.6,0-1.3-0.2-1.8-0.5l-12.8-7.4c-0.6-0.3-0.9-0.8-0.9-1.4c0-0.5,0.3-0.9,0.7-1.2l61.7-35.6
			c0.9-0.5,2.3-0.4,3.2,0.1l12.8,7.4c0.6,0.3,0.9,0.8,0.9,1.4c0,0.5-0.3,0.9-0.7,1.2l-61.7,35.6
			C-190.3,627.5-190.8,627.6-191.4,627.6z M-143,582.4c-0.3,0-0.6,0.1-0.9,0.2l-61.7,35.6c-0.1,0.1-0.2,0.1-0.2,0.2
			c0,0,0.1,0.2,0.4,0.4l12.8,7.4c0.6,0.4,1.6,0.4,2.1,0.1l61.7-35.6c0.1-0.1,0.2-0.1,0.2-0.2c0,0-0.1-0.2-0.4-0.4l-12.8-7.4
			C-142.1,582.5-142.6,582.4-143,582.4z"/>
		<g>
			
				<linearGradient id="SVGID_14_" gradientUnits="userSpaceOnUse" x1="-331.3261" y1="278.0094" x2="-257.3046" y2="278.0094" gradientTransform="matrix(0.866 -0.5 0 1.1547 79.8921 111.7709)">
				<stop  offset="0" style="stop-color:#5761D7"/>
				<stop  offset="0.1779" style="stop-color:#5C66D9"/>
				<stop  offset="0.3876" style="stop-color:#6A73DF"/>
				<stop  offset="0.6134" style="stop-color:#8289E8"/>
				<stop  offset="0.849" style="stop-color:#A3A7F5"/>
				<stop  offset="1" style="stop-color:#BCBEFF"/>
			</linearGradient>
			<path class="st21" d="M-153.3,561.1c-1.6,0.9-3.2,2.3-4.5,3.8c-1.9-6.1-7.7-8-14.5-4c-5.7,3.3-10.6,9.7-13.2,16.5
				c-0.9,0-1.8,0.3-2.8,0.9c-3.7,2.1-6.7,7.3-6.7,11.6c0,0.1,0,0.2,0,0.3c-1.1,0.1-2.2,0.4-3.4,1.2c-4.7,2.7-8.6,9.4-8.6,14.8
				c0,5.5,3.8,7.7,8.6,4.9l45.2-26.1c5.7-3.3,10.3-11.3,10.3-17.9C-142.9,560.5-147.6,557.8-153.3,561.1z"/>
			
				<radialGradient id="SVGID_15_" cx="-191.9714" cy="579.2099" r="30.5781" fx="-220.8078" fy="569.0374" gradientUnits="userSpaceOnUse">
				<stop  offset="0" style="stop-color:#2B237C"/>
				<stop  offset="1" style="stop-color:#180D5B"/>
			</radialGradient>
			<path class="st22" d="M-153.3,561.1c-0.9,0.5-1.9,1.2-2.7,2l-5.1-2.9l0,0c-2.8-2-6.8-1.9-11.3,0.7c-5.7,3.3-10.6,9.7-13.2,16.5
				c-0.9,0-1.8,0.3-2.8,0.9c-3.7,2.1-6.7,7.3-6.7,11.6c0,0.1,0,0.2,0,0.3c-1.1,0.1-2.2,0.4-3.4,1.2c-4.7,2.7-8.6,9.4-8.6,14.8
				c0,2.7,0.9,4.6,2.5,5.5l0,0l0,0c0,0,0,0,0,0l12.4,7.2l2.7-13l36.2-20.9c5.7-3.3,10.3-11.3,10.3-17.9
				C-142.9,560.5-147.6,557.8-153.3,561.1z"/>
			<linearGradient id="SVGID_16_" gradientUnits="userSpaceOnUse" x1="-207.0363" y1="588.8147" x2="-133.3536" y2="588.8147">
				<stop  offset="0" style="stop-color:#5761D7"/>
				<stop  offset="0.1779" style="stop-color:#5C66D9"/>
				<stop  offset="0.3876" style="stop-color:#6A73DF"/>
				<stop  offset="0.6134" style="stop-color:#8289E8"/>
				<stop  offset="0.849" style="stop-color:#A3A7F5"/>
				<stop  offset="1" style="stop-color:#BCBEFF"/>
			</linearGradient>
			<path class="st23" d="M-133.4,567.7l-12.5-7.3l0,0c-1.9-1.1-4.5-1-7.4,0.7c-0.9,0.5-1.9,1.2-2.7,2l-5.1-2.9l0,0
				c-2.8-2-6.8-1.9-11.3,0.7c-5.7,3.3-10.6,9.7-13.2,16.5c-0.9,0-1.8,0.3-2.8,0.9c-3.7,2.1-6.7,7.3-6.7,11.6c0,0.1,0,0.2,0,0.3
				c-1.1,0.1-2.2,0.4-3.4,1.2c-4.7,2.7-8.6,9.4-8.6,14.8c0,2.7,0.9,4.6,2.5,5.5l0,0l0,0c0,0,0,0,0,0l12.4,7.2l2.7-13l36.2-20.9
				c4.6-2.7,8.5-8.4,9.9-14L-133.4,567.7z"/>
			
				<linearGradient id="SVGID_17_" gradientUnits="userSpaceOnUse" x1="-316.9777" y1="290.4686" x2="-242.9562" y2="290.4686" gradientTransform="matrix(0.866 -0.5 0 1.1547 79.8921 111.7709)">
				<stop  offset="0" style="stop-color:#C0BFF6"/>
				<stop  offset="0.2938" style="stop-color:#C5C4F7"/>
				<stop  offset="0.6399" style="stop-color:#D3D2F9"/>
				<stop  offset="1" style="stop-color:#E9E9FD"/>
			</linearGradient>
			<path class="st24" d="M-140.8,568.3c-1.6,0.9-3.2,2.3-4.5,3.8c-1.9-6.1-7.7-8-14.5-4c-5.7,3.3-10.6,9.7-13.2,16.5
				c-0.9,0-1.8,0.3-2.8,0.9c-3.7,2.1-6.7,7.3-6.7,11.6c0,0.1,0,0.2,0,0.3c-1.1,0.1-2.2,0.4-3.4,1.2c-4.7,2.7-8.6,9.4-8.6,14.8
				c0,5.5,3.8,7.7,8.6,4.9l45.2-26.1c5.7-3.3,10.3-11.3,10.3-17.9S-135.1,565-140.8,568.3z"/>
		</g>
	</g>
	<g>
		<linearGradient id="SVGID_18_" gradientUnits="userSpaceOnUse" x1="-65.3873" y1="536.4015" x2="32.0903" y2="536.4015">
			<stop  offset="0" style="stop-color:#42E8E0"/>
			<stop  offset="0.1507" style="stop-color:#43E3E0"/>
			<stop  offset="0.3285" style="stop-color:#45D5DF"/>
			<stop  offset="0.5199" style="stop-color:#49BDDD"/>
			<stop  offset="0.7209" style="stop-color:#4E9CDB"/>
			<stop  offset="0.9274" style="stop-color:#5472D8"/>
			<stop  offset="1" style="stop-color:#5761D7"/>
		</linearGradient>
		<path class="st25" d="M-16.6,564.8c-0.1,0-0.2,0-0.3-0.1l-48.2-27.8c-0.2-0.1-0.3-0.3-0.3-0.5c0-0.2,0.1-0.4,0.3-0.5l48.2-27.8
			c0.2-0.1,0.4-0.1,0.5,0l48.2,27.8c0.2,0.1,0.3,0.3,0.3,0.5s-0.1,0.4-0.3,0.5l-48.2,27.8C-16.5,564.7-16.6,564.8-16.6,564.8z
			 M-63.8,536.4l47.1,27.2l47.1-27.2l-47.1-27.2L-63.8,536.4z"/>
		<linearGradient id="SVGID_19_" gradientUnits="userSpaceOnUse" x1="-61.8413" y1="534.3901" x2="2.5646" y2="534.3901">
			<stop  offset="0.2473" style="stop-color:#5761D7"/>
			<stop  offset="0.4363" style="stop-color:#6C74DF"/>
			<stop  offset="0.8245" style="stop-color:#A2A6F5"/>
			<stop  offset="1" style="stop-color:#BCBEFF"/>
		</linearGradient>
		<polygon class="st26" points="28.5,525.9 28.5,516.8 -16.6,541.7 -61.8,516.8 -61.8,525.9 -16.6,552 		"/>
		<polygon class="st27" points="-61.8,525.5 -61.8,525.9 -16.6,552 28.5,525.9 28.5,525.5 -16.6,551.5 		"/>
		<linearGradient id="SVGID_20_" gradientUnits="userSpaceOnUse" x1="-61.8413" y1="516.7841" x2="28.5439" y2="516.7841">
			<stop  offset="0" style="stop-color:#C0BFF6"/>
			<stop  offset="0.2938" style="stop-color:#C5C4F7"/>
			<stop  offset="0.6399" style="stop-color:#D3D2F9"/>
			<stop  offset="1" style="stop-color:#E9E9FD"/>
		</linearGradient>
		<polygon class="st28" points="-16.6,542.9 -61.8,516.8 -16.6,490.7 28.5,516.8 		"/>
		<polygon class="st27" points="-16.6,542.1 -61.2,516.4 -61.8,516.8 -16.6,542.9 28.5,516.8 27.9,516.4 		"/>
		<polygon class="st29" points="-16.6,532.9 -44.6,516.8 -16.6,500.7 11.3,516.8 		"/>
		<g>
			<linearGradient id="SVGID_21_" gradientUnits="userSpaceOnUse" x1="-44.5875" y1="516.7844" x2="11.29" y2="516.7844">
				<stop  offset="0" style="stop-color:#42E8E0"/>
				<stop  offset="0.1507" style="stop-color:#43E3E0"/>
				<stop  offset="0.3285" style="stop-color:#45D5DF"/>
				<stop  offset="0.5199" style="stop-color:#49BDDD"/>
				<stop  offset="0.7209" style="stop-color:#4E9CDB"/>
				<stop  offset="0.9274" style="stop-color:#5472D8"/>
				<stop  offset="1" style="stop-color:#5761D7"/>
			</linearGradient>
			<polygon class="st30" points="-16.6,532.9 -44.6,516.8 -16.6,500.7 11.3,516.8 			"/>
			<g>
				<linearGradient id="SVGID_22_" gradientUnits="userSpaceOnUse" x1="-16.6491" y1="497.4362" x2="11.29" y2="497.4362">
					<stop  offset="0" style="stop-color:#42E8E0"/>
					<stop  offset="0.1507" style="stop-color:#43E3E0"/>
					<stop  offset="0.3285" style="stop-color:#45D5DF"/>
					<stop  offset="0.5199" style="stop-color:#49BDDD"/>
					<stop  offset="0.7209" style="stop-color:#4E9CDB"/>
					<stop  offset="0.9274" style="stop-color:#5472D8"/>
					<stop  offset="1" style="stop-color:#5761D7"/>
				</linearGradient>
				<polygon class="st31" points="-16.6,478.1 11.3,494.2 11.3,516.8 -16.6,500.7 				"/>
				<linearGradient id="SVGID_23_" gradientUnits="userSpaceOnUse" x1="-44.5875" y1="497.4359" x2="-16.6483" y2="497.4359">
					<stop  offset="0" style="stop-color:#42E8E0"/>
					<stop  offset="0.1507" style="stop-color:#43E3E0"/>
					<stop  offset="0.3285" style="stop-color:#45D5DF"/>
					<stop  offset="0.5199" style="stop-color:#49BDDD"/>
					<stop  offset="0.7209" style="stop-color:#4E9CDB"/>
					<stop  offset="0.9274" style="stop-color:#5472D8"/>
					<stop  offset="1" style="stop-color:#5761D7"/>
				</linearGradient>
				<polygon class="st32" points="-16.6,500.7 -44.6,516.8 -44.6,494.2 -16.6,478.1 				"/>
				<linearGradient id="SVGID_24_" gradientUnits="userSpaceOnUse" x1="-44.5875" y1="494.2183" x2="11.29" y2="494.2183">
					<stop  offset="0" style="stop-color:#42E8E0"/>
					<stop  offset="0.1507" style="stop-color:#43E3E0"/>
					<stop  offset="0.3285" style="stop-color:#45D5DF"/>
					<stop  offset="0.5199" style="stop-color:#49BDDD"/>
					<stop  offset="0.7209" style="stop-color:#4E9CDB"/>
					<stop  offset="0.9274" style="stop-color:#5472D8"/>
					<stop  offset="1" style="stop-color:#5761D7"/>
				</linearGradient>
				<polygon class="st33" points="-16.6,510.3 -44.6,494.2 -16.6,478.1 11.3,494.2 				"/>
				<linearGradient id="SVGID_25_" gradientUnits="userSpaceOnUse" x1="-44.5875" y1="494.2183" x2="11.29" y2="494.2183">
					<stop  offset="0" style="stop-color:#42E8E0"/>
					<stop  offset="0.1507" style="stop-color:#43E3E0"/>
					<stop  offset="0.3285" style="stop-color:#45D5DF"/>
					<stop  offset="0.5199" style="stop-color:#49BDDD"/>
					<stop  offset="0.7209" style="stop-color:#4E9CDB"/>
					<stop  offset="0.9274" style="stop-color:#5472D8"/>
					<stop  offset="1" style="stop-color:#5761D7"/>
				</linearGradient>
				<polygon class="st34" points="-16.6,510.3 -44.6,494.2 -16.6,478.1 11.3,494.2 				"/>
				<linearGradient id="SVGID_26_" gradientUnits="userSpaceOnUse" x1="-16.6487" y1="498.5802" x2="-16.6487" y2="442.7027">
					<stop  offset="0" style="stop-color:#42E8E0"/>
					<stop  offset="0.1507" style="stop-color:#43E3E0"/>
					<stop  offset="0.3285" style="stop-color:#45D5DF"/>
					<stop  offset="0.5199" style="stop-color:#49BDDD"/>
					<stop  offset="0.7209" style="stop-color:#4E9CDB"/>
					<stop  offset="0.9274" style="stop-color:#5472D8"/>
					<stop  offset="1" style="stop-color:#5761D7"/>
				</linearGradient>
				<polygon class="st35" points="-16.6,509.8 -44.1,493.9 -44.6,494.2 -16.6,510.3 11.3,494.2 10.8,493.9 				"/>
				<linearGradient id="SVGID_27_" gradientUnits="userSpaceOnUse" x1="-79.4815" y1="513.5666" x2="35.1295" y2="513.5666">
					<stop  offset="0" style="stop-color:#42E8E0"/>
					<stop  offset="0.1507" style="stop-color:#43E3E0"/>
					<stop  offset="0.3285" style="stop-color:#45D5DF"/>
					<stop  offset="0.5199" style="stop-color:#49BDDD"/>
					<stop  offset="0.7209" style="stop-color:#4E9CDB"/>
					<stop  offset="0.9274" style="stop-color:#5472D8"/>
					<stop  offset="1" style="stop-color:#5761D7"/>
				</linearGradient>
				<polygon class="st36" points="-16.6,510.3 -16.6,532.9 11.3,516.8 11.3,494.2 				"/>
			</g>
			<linearGradient id="SVGID_28_" gradientUnits="userSpaceOnUse" x1="-54.9887" y1="501.2552" x2="2.0976" y2="530.0928">
				<stop  offset="0" style="stop-color:#42E8E0"/>
				<stop  offset="0.1507" style="stop-color:#43E3E0"/>
				<stop  offset="0.3285" style="stop-color:#45D5DF"/>
				<stop  offset="0.5199" style="stop-color:#49BDDD"/>
				<stop  offset="0.7209" style="stop-color:#4E9CDB"/>
				<stop  offset="0.9274" style="stop-color:#5472D8"/>
				<stop  offset="1" style="stop-color:#5761D7"/>
			</linearGradient>
			<polygon class="st37" points="-44.6,494.2 -44.6,516.8 -16.6,532.9 -16.6,510.3 			"/>
		</g>
	</g>
</g>
</svg>
