<?xml version="1.0" encoding="utf-8"?>
<!-- Generator: Adobe Illustrator 19.0.0, SVG Export Plug-In . SVG Version: 6.00 Build 0)  -->
<svg version="1.1" id="Capa_1" xmlns="http://www.w3.org/2000/svg" xmlns:xlink="http://www.w3.org/1999/xlink" x="0px" y="0px"
	 viewBox="539 -402.7 1920 1400" style="enable-background:new 539 -402.7 1920 1400;" xml:space="preserve">
<style type="text/css">
	.st0{opacity:0.1;fill:#4FA397;enable-background:new    ;}
	.st1{opacity:0.2;fill:#4FA397;enable-background:new    ;}
	.st2{opacity:0.15;fill:#AED2DB;enable-background:new    ;}
</style>
<title>analítica y ciencia de datos</title>
<polygon class="st0" points="-42.7,764.9 -42.7,2198.1 1177.8,2198.1 160.1,764.9 "/>
<polygon class="st1" points="-1598.7,1411.3 -1598.7,-200.1 -1129.1,-388.1 -313.7,1411.3 "/>
<g>
	<path class="st2" d="M3680.4-290.3c-13.6,0-24.7-11-24.7-24.7c0-13.6,11-24.7,24.7-24.7c13.6,0,24.7,11,24.7,24.7
		C3705.1-301.3,3694-290.3,3680.4-290.3z M3680.4-334.7c-10.8,0-19.7,8.9-19.7,19.7c0,10.8,8.9,19.7,19.7,19.7s19.7-8.9,19.7-19.7
		C3700.1-326,3691.2-334.7,3680.4-334.7z"/>
	<path class="st2" d="M3680.4-279.7c-19.5,0-35.3-15.8-35.3-35.3s15.8-35.3,35.3-35.3s35.3,15.8,35.3,35.3
		S3699.9-279.7,3680.4-279.7z M3680.4-345.3c-16.7,0-30.3,13.6-30.3,30.3c0,16.7,13.6,30.3,30.3,30.3s30.3-13.6,30.3-30.3
		C3710.7-331.8,3697.1-345.3,3680.4-345.3z"/>
	<circle class="st2" cx="3680.4" cy="-315" r="10.4"/>
	<path class="st2" d="M3946.9,140.3c-13.6,0-24.7-11-24.7-24.7s11-24.7,24.7-24.7c13.6,0,24.7,11,24.7,24.7
		S3960.5,140.3,3946.9,140.3z M3946.9,95.9c-10.8,0-19.7,8.9-19.7,19.7c0,10.8,8.9,19.7,19.7,19.7s19.7-8.9,19.7-19.7
		C3966.6,104.8,3957.7,95.9,3946.9,95.9z"/>
	<path class="st2" d="M3946.9,150.9c-19.5,0-35.3-15.8-35.3-35.3s15.8-35.3,35.3-35.3s35.3,15.8,35.3,35.3
		S3966.4,150.9,3946.9,150.9z M3946.9,85.3c-16.7,0-30.3,13.6-30.3,30.3s13.6,30.3,30.3,30.3c16.7,0,30.3-13.6,30.3-30.3
		C3977.2,99,3963.6,85.3,3946.9,85.3z"/>
	<circle class="st2" cx="3946.9" cy="115.6" r="10.4"/>
	<path class="st2" d="M4041.3-571.7c-5.8,0-10.6,4.8-10.6,10.6v122.5l-45.2,45.2h-183.8l-63.6,63.6v59.7l-98.9,98.9h-78.4
		c-5.8,0-10.6,4.8-10.6,10.6s4.8,10.6,10.6,10.6h87.2l111.2-111.3v-59.5l51.3-51.3h183.8l57.8-57.8v-131.2
		C4051.9-567,4047.1-571.7,4041.3-571.7z M3561.8-155.2c-3.2,0-5.8-2.6-5.8-5.8c0-3.2,2.6-5.8,5.8-5.8c3.2,0,5.8,2.6,5.8,5.8
		C3567.6-157.8,3565-155.2,3561.8-155.2z M4041.3-554.6c-3.5,0-6.3-2.8-6.3-6.3s2.8-6.3,6.3-6.3s6.3,2.8,6.3,6.3
		S4044.8-554.6,4041.3-554.6z"/>
	<path class="st2" d="M3968.5-426.7h-173.4l-22.9-22.9v-49.1c0-1.3,1.1-2.4,2.4-2.4c1.3,0,2.4,1.1,2.4,2.4v47.2l19.9,19.9h169.3
		l33.3-32.7v-142.9c0-1.3,1.1-2.4,2.4-2.4c1.3,0,2.4,1.1,2.4,2.4v144.8L3968.5-426.7z"/>
	<path class="st2" d="M3751-363.2c-0.6,0-1.3-0.2-1.7-0.6c-0.9-0.9-0.9-2.6,0-3.5l42-42h191.4l37.9-38.1v-144c0-1.3,1.1-2.4,2.4-2.4
		c1.3,0,2.4,1.1,2.4,2.4v146.1l-40.7,40.7h-191.5l-40.7,40.7C3752.1-363.5,3751.6-363.2,3751-363.2z"/>
	<path class="st2" d="M3750.5-392.7c-0.6,0-1.3-0.2-1.7-0.6c-0.9-0.9-0.9-2.6,0-3.5l24.9-24.9h202.9l33.6-33.6v-136.2
		c0-1.3,1.1-2.4,2.4-2.4s2.4,1.1,2.4,2.4v138.4l-36.6,36.4h-202.9l-23.4,23.4C3751.8-392.9,3751.2-392.7,3750.5-392.7z"/>
	<path class="st2" d="M3775.2-498.5c-6.1,0-10.8-4.8-10.8-10.8c0-6.1,4.8-10.8,10.8-10.8c6.1,0,10.8,4.8,10.8,10.8
		S3781.3-498.5,3775.2-498.5z M3775.2-515.2c-3.2,0-5.8,2.6-5.8,5.8c0,3.2,2.6,5.8,5.8,5.8s5.8-2.6,5.8-5.8
		C3781.1-512.6,3778.5-515.2,3775.2-515.2z"/>
	<path class="st2" d="M3797.5-448.1c-5.6,0-10.2-4.5-10.2-10.2c0-5.6,4.5-10.2,10.2-10.2c5.6,0,10.2,4.5,10.2,10.2
		C3807.7-452.7,3803.1-448.1,3797.5-448.1z M3797.5-463.5c-2.8,0-5.2,2.4-5.2,5.2c0,2.8,2.4,5.2,5.2,5.2c2.8,0,5.2-2.4,5.2-5.2
		C3802.7-461.3,3800.3-463.5,3797.5-463.5z"/>
	<path class="st2" d="M3797.5-473c-5.6,0-10.4-4.5-10.4-10.4c0-5.8,4.5-10.4,10.4-10.4c5.6,0,10.4,4.5,10.4,10.4
		S3803.1-473,3797.5-473z M3797.5-488.8c-3,0-5.4,2.4-5.4,5.4s2.4,5.4,5.4,5.4s5.4-2.4,5.4-5.4S3800.5-488.8,3797.5-488.8z"/>
	<path class="st2" d="M3922.2-495.3c-5.4,0-9.7-4.3-9.7-9.7s4.3-9.7,9.7-9.7s9.7,4.3,9.7,9.7S3927.6-495.3,3922.2-495.3z
		 M3922.2-509.8c-2.6,0-4.8,2.2-4.8,4.8s2.2,4.8,4.8,4.8c2.6,0,4.8-2.2,4.8-4.8S3925-509.8,3922.2-509.8z"/>
	<path class="st2" d="M3829.1-339c-5.4,0-9.7-4.3-9.7-9.7s4.3-9.7,9.7-9.7s9.7,4.3,9.7,9.7C3838.9-343.3,3834.5-339,3829.1-339z
		 M3829.1-353.5c-2.6,0-4.8,2.2-4.8,4.8s2.2,4.8,4.8,4.8c2.6,0,4.8-2.2,4.8-4.8S3831.7-353.5,3829.1-353.5z"/>
	<path class="st2" d="M3911.4-228.4c-5.4,0-9.7-4.3-9.7-9.7c0-5.4,4.3-9.7,9.7-9.7s9.7,4.3,9.7,9.7
		C3921.1-232.7,3916.8-228.4,3911.4-228.4z M3911.4-242.9c-2.6,0-4.8,2.2-4.8,4.8s2.2,4.8,4.8,4.8s4.8-2.2,4.8-4.8
		C3916.2-240.7,3914-242.9,3911.4-242.9z"/>
	<circle class="st2" cx="3983.9" cy="-243.1" r="9.3"/>
	<circle class="st2" cx="4023.8" cy="-180.3" r="9.3"/>
	<circle class="st2" cx="4010.1" cy="-159.7" r="9.3"/>
	<path class="st2" d="M3938.2-183.8c-5.4,0-9.7-4.3-9.7-9.7c0-5.4,4.3-9.7,9.7-9.7s9.7,4.3,9.7,9.7
		C3947.9-188.1,3943.6-183.8,3938.2-183.8z M3938.2-198.1c-2.6,0-4.8,2.2-4.8,4.8c0,2.6,2.2,4.8,4.8,4.8c2.6,0,4.8-2.2,4.8-4.8
		C3943-195.9,3941.1-198.1,3938.2-198.1z"/>
	<path class="st2" d="M3906.2-150.9c-5.4,0-9.7-4.3-9.7-9.7c0-5.4,4.3-9.7,9.7-9.7s9.7,4.3,9.7,9.7
		C3915.7-155.2,3911.4-150.9,3906.2-150.9z M3906.2-165.4c-2.6,0-4.8,2.2-4.8,4.8s2.2,4.8,4.8,4.8c2.6,0,4.8-2.2,4.8-4.8
		S3908.8-165.4,3906.2-165.4z"/>
	<path class="st2" d="M3937.6-123.8c-5.4,0-9.7-4.3-9.7-9.7c0-5.4,4.3-9.7,9.7-9.7s9.7,4.3,9.7,9.7
		C3947.3-128.1,3943-123.8,3937.6-123.8z M3937.6-138.3c-2.6,0-4.8,2.2-4.8,4.8c0,2.6,2.2,4.8,4.8,4.8c2.6,0,4.8-2.2,4.8-4.8
		C3942.3-136.1,3940.4-138.3,3937.6-138.3z"/>
	<path class="st2" d="M3937.6-94.1c-5.4,0-9.7-4.3-9.7-9.7s4.3-9.7,9.7-9.7s9.7,4.3,9.7,9.7S3943-94.1,3937.6-94.1z M3937.6-108.6
		c-2.6,0-4.8,2.2-4.8,4.8c0,2.6,2.2,4.8,4.8,4.8c2.6,0,4.8-2.2,4.8-4.8C3942.3-106.5,3940.4-108.6,3937.6-108.6z"/>
	<path class="st2" d="M3944.5-20.7c-5.4,0-9.7-4.3-9.7-9.7s4.3-9.7,9.7-9.7s9.7,4.3,9.7,9.7C3954.3-25.1,3949.9-20.7,3944.5-20.7z
		 M3944.5-35.3c-2.6,0-4.8,2.2-4.8,4.8s2.2,4.8,4.8,4.8s4.8-2.2,4.8-4.8C3949.3-33.1,3947.1-35.3,3944.5-35.3z"/>
	<path class="st2" d="M3944.5,62.2c-5.4,0-9.7-4.3-9.7-9.7s4.3-9.7,9.7-9.7s9.7,4.3,9.7,9.7C3954.3,57.8,3949.9,62.2,3944.5,62.2z
		 M3944.5,47.7c-2.6,0-4.8,2.2-4.8,4.8s2.2,4.8,4.8,4.8s4.8-2.2,4.8-4.8S3947.1,47.7,3944.5,47.7z"/>
	<path class="st2" d="M3804.7,175.4c-5.4,0-9.7-4.3-9.7-9.7s4.3-9.7,9.7-9.7s9.7,4.3,9.7,9.7S3810.1,175.4,3804.7,175.4z
		 M3804.7,160.9c-2.6,0-4.8,2.2-4.8,4.8s2.2,4.8,4.8,4.8c2.6,0,4.8-2.2,4.8-4.8C3809.6,163.1,3807.5,160.9,3804.7,160.9z"/>
	<path class="st2" d="M3804.7,222.2c-5.4,0-9.7-4.3-9.7-9.7s4.3-9.7,9.7-9.7s9.7,4.3,9.7,9.7S3810.1,222.2,3804.7,222.2z
		 M3804.7,207.7c-2.6,0-4.8,2.2-4.8,4.8s2.2,4.8,4.8,4.8c2.6,0,4.8-2.2,4.8-4.8C3809.6,209.8,3807.5,207.7,3804.7,207.7z"/>
	<path class="st2" d="M3804.7,260.5c-5.4,0-9.7-4.3-9.7-9.7c0-5.4,4.3-9.7,9.7-9.7s9.7,4.3,9.7,9.7
		C3814.4,256.1,3810.1,260.5,3804.7,260.5z M3804.7,246.2c-2.6,0-4.8,2.2-4.8,4.8s2.2,4.8,4.8,4.8c2.6,0,4.8-2.2,4.8-4.8
		C3809.6,248.4,3807.5,246.2,3804.7,246.2z"/>
	<path class="st2" d="M3846.9,260.5c-5.4,0-9.7-4.3-9.7-9.7c0-5.4,4.3-9.7,9.7-9.7s9.7,4.3,9.7,9.7
		C3856.6,256.1,3852.3,260.5,3846.9,260.5z M3846.9,246.2c-2.6,0-4.8,2.2-4.8,4.8s2.2,4.8,4.8,4.8s4.8-2.2,4.8-4.8
		S3849.5,246.2,3846.9,246.2z"/>
	<path class="st2" d="M3889.7,282.6c-5.4,0-9.7-4.3-9.7-9.7c0-5.4,4.3-9.7,9.7-9.7s9.7,4.3,9.7,9.7
		C3899.3,278.2,3894.9,282.6,3889.7,282.6z M3889.7,268.1c-2.6,0-4.8,2.2-4.8,4.8s2.2,4.8,4.8,4.8c2.6,0,4.8-2.2,4.8-4.8
		C3894.5,270.2,3892.3,268.1,3889.7,268.1z"/>
	<path class="st2" d="M4040.6,254c-5.4,0-9.7-4.3-9.7-9.7c0-5.4,4.3-9.7,9.7-9.7s9.7,4.3,9.7,9.7
		C4050.4,249.7,4046.1,254,4040.6,254z M4040.6,239.5c-2.6,0-4.8,2.2-4.8,4.8s2.2,4.8,4.8,4.8c2.6,0,4.8-2.2,4.8-4.8
		S4043.2,239.5,4040.6,239.5z"/>
	<path class="st2" d="M4040.6,224.8c-5.4,0-9.7-4.3-9.7-9.7c0-5.4,4.3-9.7,9.7-9.7s9.7,4.3,9.7,9.7
		C4050.4,220.4,4046.1,224.8,4040.6,224.8z M4040.6,210.3c-2.6,0-4.8,2.2-4.8,4.8s2.2,4.8,4.8,4.8c2.6,0,4.8-2.2,4.8-4.8
		S4043.2,210.3,4040.6,210.3z"/>
	<path class="st2" d="M3990.4,62.2c-5.4,0-9.7-4.3-9.7-9.7s4.3-9.7,9.7-9.7s9.7,4.3,9.7,9.7C4000.2,57.8,3995.8,62.2,3990.4,62.2z
		 M3990.4,47.7c-2.6,0-4.8,2.2-4.8,4.8s2.2,4.8,4.8,4.8s4.8-2.2,4.8-4.8C3995.2,49.8,3993,47.7,3990.4,47.7z"/>
	<path class="st2" d="M4049.3-34.6c-5.4,0-9.7-4.3-9.7-9.7c0-5.4,4.3-9.7,9.7-9.7s9.7,4.3,9.7,9.7S4054.7-34.6,4049.3-34.6z
		 M4049.3-49.1c-2.6,0-4.8,2.2-4.8,4.8s2.2,4.8,4.8,4.8s4.8-2.2,4.8-4.8S4051.9-49.1,4049.3-49.1z"/>
	<path class="st2" d="M4017.7,115.4c-5.4,0-9.7-4.3-9.7-9.7s4.3-9.7,9.7-9.7s9.7,4.3,9.7,9.7
		C4027.2,111.1,4022.9,115.4,4017.7,115.4z M4017.7,101.1c-2.6,0-4.8,2.2-4.8,4.8s2.2,4.8,4.8,4.8c2.6,0,4.8-2.2,4.8-4.8
		C4022.5,103.1,4020.3,101.1,4017.7,101.1z"/>
	<path class="st2" d="M3779.3-226.8c-5.4,0-9.7-4.3-9.7-9.7c0-5.4,4.3-9.7,9.7-9.7c5.4,0,9.7,4.3,9.7,9.7S3784.7-226.8,3779.3-226.8
		z M3779.3-241.4c-2.6,0-4.8,2.2-4.8,4.8c0,2.6,2.2,4.8,4.8,4.8s4.8-2.2,4.8-4.8S3782.1-241.4,3779.3-241.4z"/>
	<path class="st2" d="M3751.8-203.7c-5.4,0-9.7-4.3-9.7-9.7c0-5.4,4.3-9.7,9.7-9.7s9.7,4.3,9.7,9.7
		C3761.5-208,3757.2-203.7,3751.8-203.7z M3751.8-218.2c-2.6,0-4.8,2.2-4.8,4.8c0,2.6,2.2,4.8,4.8,4.8s4.8-2.2,4.8-4.8
		C3756.6-216,3754.4-218.2,3751.8-218.2z"/>
	<path class="st2" d="M3814-298.7c-5.4,0-9.7-4.3-9.7-9.7s4.3-9.7,9.7-9.7s9.7,4.3,9.7,9.7C3823.7-303.3,3819.4-298.7,3814-298.7z
		 M3814-313.2c-2.6,0-4.8,2.2-4.8,4.8s2.2,4.8,4.8,4.8s4.8-2.2,4.8-4.8S3816.6-313.2,3814-313.2z"/>
	<path class="st2" d="M3795.6-275.8c-5.4,0-9.7-4.3-9.7-9.7s4.3-9.7,9.7-9.7s9.7,4.3,9.7,9.7S3801-275.8,3795.6-275.8z
		 M3795.6-290.3c-2.6,0-4.8,2.2-4.8,4.8s2.2,4.8,4.8,4.8c2.6,0,4.8-2.2,4.8-4.8C3800.3-288.1,3798.2-290.3,3795.6-290.3z"/>
	<path class="st2" d="M3814.6-254.1c-5.4,0-9.7-4.3-9.7-9.7s4.3-9.7,9.7-9.7s9.7,4.3,9.7,9.7S3820-254.1,3814.6-254.1z
		 M3814.6-268.6c-2.6,0-4.8,2.2-4.8,4.8c0,2.6,2.2,4.8,4.8,4.8c2.6,0,4.8-2.2,4.8-4.8C3819.4-266.5,3817.2-268.6,3814.6-268.6z"/>
	<path class="st2" d="M3611.1-441.6c-5.4,0-9.7-4.3-9.7-9.7c0-5.4,4.3-9.7,9.7-9.7c5.4,0,9.7,4.3,9.7,9.7
		C3620.9-445.9,3616.5-441.6,3611.1-441.6z M3611.1-456.1c-2.6,0-4.8,2.2-4.8,4.8s2.2,4.8,4.8,4.8c2.6,0,4.8-2.2,4.8-4.8
		S3613.7-456.1,3611.1-456.1z"/>
	<path class="st2" d="M3642.5-396.4c-5.4,0-9.7-4.3-9.7-9.7s4.3-9.7,9.7-9.7c5.4,0,9.7,4.3,9.7,9.7S3647.9-396.4,3642.5-396.4z
		 M3642.5-410.9c-2.6,0-4.8,2.2-4.8,4.8s2.2,4.8,4.8,4.8c2.6,0,4.8-2.2,4.8-4.8S3645.1-410.9,3642.5-410.9z"/>
	<path class="st2" d="M3606.1-362.6c-5.4,0-9.7-4.3-9.7-9.7s4.3-9.7,9.7-9.7c5.4,0,9.7,4.3,9.7,9.7
		C3615.9-366.9,3611.3-362.6,3606.1-362.6z M3606.1-377.1c-2.6,0-4.8,2.2-4.8,4.8s2.2,4.8,4.8,4.8c2.6,0,4.8-2.2,4.8-4.8
		S3608.7-377.1,3606.1-377.1z"/>
	<path class="st2" d="M3900.1-495.3c-5.4,0-9.7-4.3-9.7-9.7s4.3-9.7,9.7-9.7s9.7,4.3,9.7,9.7S3905.5-495.3,3900.1-495.3z
		 M3900.1-509.8c-2.6,0-4.8,2.2-4.8,4.8s2.2,4.8,4.8,4.8c2.6,0,4.8-2.2,4.8-4.8S3902.7-509.8,3900.1-509.8z"/>
	<path class="st2" d="M3740.6-379.5c-5.6,0-10-4.5-10-10c0-5.4,4.5-10,10-10c5.6,0,10,4.5,10,10
		C3750.5-384,3746.2-379.5,3740.6-379.5z M3740.6-394.6c-2.8,0-5.2,2.4-5.2,5.2c0,2.8,2.4,5.2,5.2,5.2c2.8,0,5.2-2.4,5.2-5.2
		C3745.8-392.2,3743.4-394.6,3740.6-394.6z"/>
	<path class="st2" d="M3740.6-349.4c-5.6,0-10.4-4.5-10.4-10.4c0-5.6,4.5-10.4,10.4-10.4c5.6,0,10.4,4.5,10.4,10.4
		C3751-354.1,3746.4-349.4,3740.6-349.4z M3740.6-365.2c-3,0-5.4,2.4-5.4,5.4s2.4,5.4,5.4,5.4s5.4-2.4,5.4-5.4
		S3743.6-365.2,3740.6-365.2z"/>
	<rect x="3943.9" y="-580.2" class="st2" width="37.2" height="42.6"/>
	<rect x="3892.8" y="-581.7" class="st2" width="37.2" height="42.6"/>
	<rect x="3842.5" y="-581.7" class="st2" width="37.2" height="42.6"/>
	<polygon class="st2" points="3955.8,-456.5 3806.6,-456.5 3806.6,-461.5 3953.8,-461.5 3969.8,-477.5 3969.8,-539 3974.8,-539 
		3974.8,-475.6 	"/>
	<polygon class="st2" points="3807.3,-481.4 3807,-486.4 3937.8,-487.3 3949.7,-499.2 3949.7,-547.3 3954.5,-547.3 3954.5,-497 
		3940,-482.5 	"/>
	<rect x="3897.5" y="-547.3" class="st2" width="5" height="34.9"/>
	<rect x="3919.6" y="-546.8" class="st2" width="5" height="34"/>
	<path class="st2" d="M3855.3-495.3h-37.5l-22.5-22.5v-73.6c0-1.3,1.1-2.4,2.4-2.4s2.4,1.1,2.4,2.4v71.7l19.7,19.7h33.3l16.7-16.7
		v-26c0-1.3,1.1-2.4,2.4-2.4s2.4,1.1,2.4,2.4v28.1L3855.3-495.3z"/>
	<path class="st2" d="M3849.3-508.7h-24.9l-16-16v-66.7c0-1.3,1.1-2.4,2.4-2.4c1.3,0,2.4,1.1,2.4,2.4v64.7l13.2,13.2h20.8l9.5-9.5
		v-18.6c0-1.3,1.1-2.4,2.4-2.4c1.3,0,2.4,1.1,2.4,2.4v20.6L3849.3-508.7z"/>
	<path class="st2" d="M3841.7-518.3h-12.3l-11.5-11.5v-61.7c0-1.3,1.1-2.4,2.4-2.4c1.3,0,2.4,1.1,2.4,2.4v59.8l8.7,8.7h8.2l5-5
		v-14.3c0-1.3,1.1-2.4,2.4-2.4c1.3,0,2.4,1.1,2.4,2.4v16.2L3841.7-518.3z"/>
	<path class="st2" d="M3701.2-405.7h-52.4c-1.3,0-2.4-1.1-2.4-2.4s1.1-2.4,2.4-2.4h50.4l35.5-35.7v-145.3c0-1.3,1.1-2.4,2.4-2.4
		c1.3,0,2.4,1.1,2.4,2.4v147.4L3701.2-405.7z"/>
	<path class="st2" d="M3655.1-372.5h-40.9c-1.3,0-2.4-1.1-2.4-2.4s1.1-2.4,2.4-2.4h39l19.1-19.1h31.4l45-45v-150
		c0-1.3,1.1-2.4,2.4-2.4c1.3,0,2.4,1.1,2.4,2.4v152l-48.1,48.1h-31.2L3655.1-372.5z"/>
	<path class="st2" d="M3699.2-425.2h-22.7l-21-23.8H3618c-1.3,0-2.4-1.1-2.4-2.4s1.1-2.4,2.4-2.4h39.6l21,23.8h18.4l23.2-23.1
		v-135.1c0-1.3,1.1-2.4,2.4-2.4c1.3,0,2.4,1.1,2.4,2.4v136.8L3699.2-425.2z"/>
	<path class="st2" d="M3492.5,315.7c-1.3,0-2.4-1.1-2.4-2.4V168.5l35.9-35.9h173.4l22.9,22.9v49.4c0,1.3-1.1,2.4-2.4,2.4
		s-2.4-1.1-2.4-2.4v-47.2l-19.9-19.9h-169.2l-32.9,32.9v142.9C3494.9,314.6,3493.8,315.7,3492.5,315.7z"/>
	<path class="st2" d="M3471.5,299.9c-1.3,0-2.4-1.1-2.4-2.4V151.4l40.7-40.7h191.4l40.7-40.7c0.9-0.9,2.6-0.9,3.5,0s0.9,2.6,0,3.5
		l-42,42H3512l-37.9,37.9v144.2C3474.1,298.8,3473,299.9,3471.5,299.9z"/>
	<path class="st2" d="M3482.1,299.9c-1.3,0-2.4-1.1-2.4-2.4V159.2l36.6-36.6h202.9l23.4-23.4c0.9-0.9,2.6-0.9,3.5,0
		c0.9,0.9,0.9,2.6,0,3.5l-24.9,24.9h-203l-33.8,33.8v136.2C3484.5,298.8,3483.4,299.9,3482.1,299.9z"/>
	<path class="st2" d="M3719.1,226.1c-6.1,0-10.8-4.8-10.8-10.8s4.8-10.8,10.8-10.8c6.1,0,10.8,4.8,10.8,10.8
		C3730,221.3,3725.2,226.1,3719.1,226.1z M3719.1,209.4c-3.2,0-5.8,2.6-5.8,5.8c0,3.2,2.6,5.8,5.8,5.8c3.2,0,5.8-2.6,5.8-5.8
		C3725,212,3722.4,209.4,3719.1,209.4z"/>
	<path class="st2" d="M3696.8,174.5c-5.6,0-10.2-4.5-10.2-10.2s4.5-10.2,10.2-10.2c5.6,0,10.2,4.5,10.2,10.2
		S3702.5,174.5,3696.8,174.5z M3696.8,159.2c-2.8,0-5.2,2.4-5.2,5.2s2.4,5.2,5.2,5.2c2.8,0,5.2-2.4,5.2-5.2
		C3702,161.3,3699.9,159.2,3696.8,159.2z"/>
	<path class="st2" d="M3696.8,199.6c-5.6,0-10.4-4.5-10.4-10.4c0-5.8,4.5-10.4,10.4-10.4c5.8,0,10.4,4.5,10.4,10.4
		S3702.7,199.6,3696.8,199.6z M3696.8,184.1c-3,0-5.4,2.4-5.4,5.4s2.4,5.4,5.4,5.4s5.4-2.4,5.4-5.4S3699.9,184.1,3696.8,184.1z"/>
	<path class="st2" d="M3572.1,220.6c-5.4,0-9.7-4.3-9.7-9.7c0-5.4,4.3-9.7,9.7-9.7c5.4,0,9.7,4.3,9.7,9.7
		C3581.7,216.3,3577.3,220.6,3572.1,220.6z M3572.1,206.1c-2.6,0-4.8,2.2-4.8,4.8c0,2.6,2.2,4.8,4.8,4.8c2.6,0,4.8-2.2,4.8-4.8
		C3576.9,208.3,3574.7,206.1,3572.1,206.1z"/>
	<path class="st2" d="M3883.2,167c-5.4,0-9.7-4.3-9.7-9.7s4.3-9.7,9.7-9.7s9.7,4.3,9.7,9.7S3888.7,167,3883.2,167z M3883.2,152.4
		c-2.6,0-4.8,2.2-4.8,4.8s2.2,4.8,4.8,4.8c2.6,0,4.8-2.2,4.8-4.8S3885.8,152.4,3883.2,152.4z"/>
	<path class="st2" d="M3852.9,123.7c-5.4,0-9.7-4.3-9.7-9.7s4.3-9.7,9.7-9.7s9.7,4.3,9.7,9.7
		C3862.5,119.3,3858.1,123.7,3852.9,123.7z M3852.9,109.4c-2.6,0-4.8,2.2-4.8,4.8c0,2.6,2.2,4.8,4.8,4.8s4.8-2.2,4.8-4.8
		C3857.5,111.3,3855.5,109.4,3852.9,109.4z"/>
	<path class="st2" d="M3888.2,87.9c-5.4,0-9.7-4.3-9.7-9.7s4.3-9.7,9.7-9.7s9.7,4.3,9.7,9.7C3897.9,83.6,3893.6,87.9,3888.2,87.9z
		 M3888.2,73.4c-2.6,0-4.8,2.2-4.8,4.8s2.2,4.8,4.8,4.8c2.6,0,4.8-2.2,4.8-4.8C3893.2,75.6,3891,73.4,3888.2,73.4z"/>
	<path class="st2" d="M3594.2,220.6c-5.4,0-9.7-4.3-9.7-9.7c0-5.4,4.3-9.7,9.7-9.7s9.7,4.3,9.7,9.7
		C3604,216.3,3599.6,220.6,3594.2,220.6z M3594.2,206.1c-2.6,0-4.8,2.2-4.8,4.8c0,2.6,2.2,4.8,4.8,4.8s4.8-2.2,4.8-4.8
		C3599,208.3,3596.8,206.1,3594.2,206.1z"/>
	<path class="st2" d="M3750.8,106.3c-5.6,0-10-4.5-10-10c0-5.6,4.5-10,10-10c5.6,0,10,4.5,10,10
		C3760.9,102,3756.4,106.3,3750.8,106.3z M3750.8,91.4c-2.8,0-5.2,2.4-5.2,5.2c0,2.8,2.4,5.2,5.2,5.2c2.8,0,5.2-2.4,5.2-5.2
		C3755.9,93.6,3753.6,91.4,3750.8,91.4z"/>
	<path class="st2" d="M3751.4,76.5c-5.6,0-10.4-4.5-10.4-10.4c0-5.6,4.5-10.4,10.4-10.4c5.6,0,10.4,4.5,10.4,10.4
		C3761.8,71.9,3757.2,76.5,3751.4,76.5z M3751.4,60.7c-3,0-5.4,2.4-5.4,5.4s2.4,5.4,5.4,5.4s5.4-2.4,5.4-5.4
		C3756.8,63,3754.4,60.7,3751.4,60.7z"/>
	<rect x="3513.3" y="243.4" class="st2" width="37.2" height="42.6"/>
	<rect x="3564.4" y="244.9" class="st2" width="37.2" height="42.6"/>
	<rect x="3614.6" y="244.9" class="st2" width="37.2" height="42.6"/>
	<polygon class="st2" points="3524.5,244.9 3519.8,244.9 3519.8,181.5 3538.6,162.6 3687.8,162.6 3687.8,167.4 3540.5,167.4 
		3524.5,183.4 	"/>
	<polygon class="st2" points="3544.6,253.3 3539.9,253.3 3539.9,203.1 3554.6,188.4 3687.3,187.3 3687.3,192.3 3556.6,193.4 
		3544.6,205.1 	"/>
	<rect x="3591.8" y="218.3" class="st2" width="5" height="34.9"/>
	<rect x="3569.8" y="218.9" class="st2" width="5" height="34"/>
	<path class="st2" d="M3696.6,299.9c-1.3,0-2.4-1.1-2.4-2.4v-71.7l-19.7-19.7h-33.3l-16.7,16.7v26c0,1.3-1.1,2.4-2.4,2.4
		s-2.4-1.1-2.4-2.4v-28.1l19.7-19.7h37.5l22.5,22.5v73.8C3699,298.8,3697.9,299.9,3696.6,299.9z"/>
	<path class="st2" d="M3683.6,299.9c-1.3,0-2.4-1.1-2.4-2.4v-64.7l-13.2-13.2h-20.8l-9.5,9.5v18.6c0,1.3-1.1,2.4-2.4,2.4
		s-2.4-1.1-2.4-2.4v-20.6l12.6-12.6h24.9l16,16v66.7C3686.2,298.8,3684.9,299.9,3683.6,299.9z"/>
	<path class="st2" d="M3674.1,299.9c-1.3,0-2.4-1.1-2.4-2.4v-59.8l-8.7-8.7h-8.2l-5,5v14.3c0,1.3-1.1,2.4-2.4,2.4
		c-1.3,0-2.4-1.1-2.4-2.4v-16.2l7.8-7.8h12.3l11.5,11.5v61.7C3676.7,298.8,3675.6,299.9,3674.1,299.9z"/>
	<path class="st2" d="M3757.2,299.9c-1.3,0-2.4-1.1-2.4-2.4V150.1l38.3-38.5h52.4c1.3,0,2.4,1.1,2.4,2.4s-1.1,2.4-2.4,2.4h-50.4
		l-35.5,35.5v145.5C3759.6,298.8,3758.5,299.9,3757.2,299.9z"/>
	<path class="st2" d="M3743.4,299.9c-1.3,0-2.4-1.1-2.4-2.4v-152l48.1-48.1h31.4l19.1-19.1h40.9c1.3,0,2.4,1.1,2.4,2.4
		s-1.1,2.4-2.4,2.4h-39l-19.1,19.1H3791l-45,45v150C3745.8,298.8,3744.7,299.9,3743.4,299.9z"/>
	<path class="st2" d="M3771.5,299.2c-1.3,0-2.4-1.1-2.4-2.4V157.2l26-26h22.7l21,23.8h37.5c1.3,0,2.4,1.1,2.4,2.4s-1.1,2.4-2.4,2.4
		h-39.6l-21-23.8h-18.6l-22.9,23.2v137.5C3774.1,298.1,3773.1,299.2,3771.5,299.2z"/>
	<path class="st2" d="M4028.5-255c-5.2,0-9.5-4.3-9.5-9.5v-95.9c0-5.2,4.3-9.5,9.5-9.5s9.5,4.3,9.5,9.5v96.1
		C4038-259.1,4033.7-255,4028.5-255z"/>
	<rect x="3835.4" y="-350.9" class="st2" width="235.8" height="5"/>
	<polygon class="st2" points="3845.6,-306.3 3818.9,-306.3 3818.9,-311.3 3843.6,-311.3 3869.2,-337 4071.2,-337 4071.2,-332.1 
		3871.3,-332.1 	"/>
	<polygon class="st2" points="3844.9,-284.7 3802.5,-284.7 3802.5,-289.6 3843,-289.6 3876.5,-323.2 4071.2,-323.2 4071.2,-318.2 
		3878.5,-318.2 	"/>
	<polygon class="st2" points="3843.2,-261.3 3820.9,-261.3 3820.9,-266.3 3841.2,-266.3 3882.4,-307.4 4071.2,-307.4 4071.2,-302.4 
		3884.3,-302.4 	"/>
	<path class="st2" d="M3836.7-233.8H3786c-1.3,0-2.4-1.1-2.4-2.4s1.1-2.4,2.4-2.4h48.7l54.3-54.3h182.3c1.3,0,2.4,1.1,2.4,2.4
		c0,1.3-1.1,2.4-2.4,2.4H3891L3836.7-233.8z"/>
	<path class="st2" d="M3833.7-211.7H3759c-1.3,0-2.4-1.1-2.4-2.4s1.1-2.4,2.4-2.4h72.7l64.5-64.5h175.1c1.3,0,2.4,1.1,2.4,2.4
		c0,1.3-1.1,2.4-2.4,2.4h-173L3833.7-211.7z"/>
	<polygon class="st2" points="3656.1,-129 3513,-129 3513,-134 3654.2,-134 3712.6,-192.4 3861.4,-192.4 3904.7,-235.7 
		3908.1,-232.3 3863.5,-187.4 3714.6,-187.4 	"/>
	<polygon class="st2" points="3662.6,-115.6 3476.9,-115.6 3476.9,-120.6 3660.7,-120.6 3718.5,-178.4 3864,-178.4 3881.1,-195.5 
		3932.8,-195.5 3932.8,-190.7 3883,-190.7 3865.9,-173.6 3720.7,-173.6 	"/>
	<polygon class="st2" points="3670.6,-104.3 3456.3,-104.3 3456.3,-109.3 3668.5,-109.3 3722.8,-163.6 3899.9,-163.6 3899.9,-158.7 
		3724.8,-158.7 	"/>
	<polygon class="st2" points="3675.2,-94.6 3449.8,-94.6 3449.8,-99.6 3673.2,-99.6 3727.4,-153.7 3866.6,-153.7 3884.3,-136.1 
		3932.2,-136.1 3932.2,-131.2 3882.2,-131.2 3864.6,-148.9 3729.5,-148.9 	"/>
	<polygon class="st2" points="3679.7,-84 3443.3,-84 3443.3,-88.9 3677.8,-88.9 3731.3,-142.6 3860.7,-142.6 3897.1,-106.3 
		3930.7,-106.3 3930.7,-101.3 3894.9,-101.3 3858.8,-137.7 3733.4,-137.7 	"/>
	<path class="st2" d="M3990,46.6c-1.3,0-2.4-1.1-2.4-2.4V-35l49.1-49.1v-104.2l-49.1-49.1c-0.9-0.9-0.9-2.6,0-3.5
		c0.9-0.9,2.6-0.9,3.5,0l50.7,50.7v108l-49.1,49.1v77.3C3992.6,45.5,3991.5,46.6,3990,46.6z"/>
	<path class="st2" d="M4017.5,100.3c-2.8,0-5-2.2-5-5V-15.8l25.5-25.5c1.9-1.9,5-1.9,6.9,0c1.9,1.9,1.9,5,0,6.9l-22.7,22.7V95.2
		C4022.5,98.1,4020.1,100.3,4017.5,100.3z"/>
	<path class="st2" d="M3950.8,50c-0.6,0-1.3-0.2-1.7-0.6c-0.9-0.9-0.9-2.6,0-3.5l22.5-22.5v-60.6l50.9-50.9v-97.6
		c0-1.3,1.1-2.4,2.4-2.4c1.3,0,2.4,1.1,2.4,2.4v99.8L3976.4-35v60.6l-23.8,23.8C3952.1,49.8,3951.4,50,3950.8,50z"/>
	<path class="st2" d="M3951.2-30.9c-0.6,0-1.3-0.2-1.7-0.6c-0.9-0.9-0.9-2.6,0-3.5l58-58v-66.1c0-1.3,1.1-2.4,2.4-2.4
		c1.3,0,2.4,1.1,2.4,2.4v68.2l-59.5,59.5C3952.5-31.1,3951.9-30.9,3951.2-30.9z"/>
	<polygon class="st2" points="3965.3,193.6 3829.8,193.6 3807.3,171.3 3810.7,167.8 3831.7,188.6 3963.3,188.6 3993.9,158.1 
		4071.2,158.1 4071.2,163.1 3995.8,163.1 	"/>
	<polygon class="st2" points="3969.2,214.8 3813.3,214.8 3813.3,209.8 3967.2,209.8 4002.5,174.5 4071.2,174.5 4071.2,179.5 
		4004.5,179.5 	"/>
	<polygon class="st2" points="3812.5,247.9 3809,244.5 3827.8,225.6 3971.8,225.6 4009,188.4 4071.2,188.4 4071.2,193.4 4011,193.4 
		3974,230.4 3829.8,230.4 	"/>
	<polygon class="st2" points="3980.5,254.2 3853.2,254.2 3853.2,249.2 3978.5,249.2 4014,213.7 4034.4,213.7 4034.4,218.7 
		4016,218.7 	"/>
	<polygon class="st2" points="3985.6,275.9 3895.2,275.9 3895.2,270.9 3983.7,270.9 4013.4,241.4 4034.8,241.4 4034.8,246.2 
		4015.3,246.2 	"/>
	<polygon class="st2" points="3670.9,-487.1 3644.9,-513.1 3478,-513.1 3448.5,-542.5 3448.5,-591.4 3453.5,-591.4 3453.5,-544.7 
		3480.1,-517.8 3646.8,-517.8 3674.3,-490.5 	"/>
	<polygon class="st2" points="3687.3,-529.7 3489,-529.7 3466.3,-552.5 3466.3,-591.4 3471.3,-591.4 3471.3,-554.4 3491,-534.7 
		3687.3,-534.7 	"/>
	<polygon class="st2" points="3649.4,-550.1 3507.6,-550.1 3489.7,-568 3489.7,-591.4 3494.6,-591.4 3494.6,-570 3509.8,-554.8 
		3647.3,-554.8 3666.8,-574.3 3670.2,-570.9 	"/>
	<path class="st2" d="M3696.6-521.5c-5.6,0-10.4-4.5-10.4-10.4c0-5.8,4.5-10.4,10.4-10.4c5.6,0,10.4,4.5,10.4,10.4
		C3707-526,3702.3-521.5,3696.6-521.5z M3696.6-537.3c-3,0-5.4,2.4-5.4,5.4s2.4,5.4,5.4,5.4s5.4-2.4,5.4-5.4
		S3699.4-537.3,3696.6-537.3z"/>
	<path class="st2" d="M3676.7-475.4c-5.6,0-10.4-4.5-10.4-10.4c0-5.6,4.5-10.4,10.4-10.4s10.4,4.5,10.4,10.4
		C3687.1-480.1,3682.6-475.4,3676.7-475.4z M3676.7-491.2c-3,0-5.4,2.4-5.4,5.4s2.4,5.4,5.4,5.4s5.4-2.4,5.4-5.4
		S3679.7-491.2,3676.7-491.2z"/>
	<path class="st2" d="M3562.8-475.4c-5.6,0-10.4-4.5-10.4-10.4c0-5.6,4.5-10.4,10.4-10.4c5.9,0,10.4,4.5,10.4,10.4
		C3573.2-480.1,3568.5-475.4,3562.8-475.4z M3562.8-491.2c-3,0-5.4,2.4-5.4,5.4s2.4,5.4,5.4,5.4s5.4-2.4,5.4-5.4
		S3565.9-491.2,3562.8-491.2z"/>
	<path class="st2" d="M3468,99c-5.6,0-10.4-4.5-10.4-10.4c0-5.6,4.5-10.4,10.4-10.4c5.6,0,10.4,4.5,10.4,10.4
		C3478.4,94.2,3473.9,99,3468,99z M3468,83.2c-3,0-5.4,2.4-5.4,5.4s2.4,5.4,5.4,5.4s5.4-2.4,5.4-5.4
		C3473.4,85.6,3471,83.2,3468,83.2z"/>
	<path class="st2" d="M3498.1,49.8c-5.6,0-10.4-4.5-10.4-10.4c0-5.6,4.5-10.4,10.4-10.4c5.6,0,10.4,4.5,10.4,10.4
		C3508.3,45.3,3503.7,49.8,3498.1,49.8z M3498.1,34c-3,0-5.4,2.4-5.4,5.4s2.4,5.4,5.4,5.4s5.4-2.4,5.4-5.4
		C3503.5,36.6,3500.9,34,3498.1,34z"/>
	<path class="st2" d="M3898-46.5c-5.6,0-10.4-4.5-10.4-10.4s4.5-10.4,10.4-10.4c5.6,0,10.4,4.5,10.4,10.4S3903.8-46.5,3898-46.5z
		 M3898-62.3c-3,0-5.4,2.4-5.4,5.4s2.4,5.4,5.4,5.4s5.4-2.4,5.4-5.4S3901-62.3,3898-62.3z"/>
	<path class="st2" d="M3898-10.6c-5.6,0-10.4-4.5-10.4-10.4c0-5.6,4.5-10.4,10.4-10.4c5.6,0,10.4,4.5,10.4,10.4
		C3908.4-15.3,3903.8-10.6,3898-10.6z M3898-26.4c-3,0-5.4,2.4-5.4,5.4s2.4,5.4,5.4,5.4s5.4-2.4,5.4-5.4
		C3903.4-24,3901-26.4,3898-26.4z"/>
	<path class="st2" d="M3861.8,21.3c-5.6,0-10.4-4.5-10.4-10.4c0-5.6,4.5-10.4,10.4-10.4c5.6,0,10.4,4.5,10.4,10.4
		C3872.2,16.7,3867.7,21.3,3861.8,21.3z M3861.8,5.4c-3,0-5.4,2.4-5.4,5.4s2.4,5.4,5.4,5.4s5.4-2.4,5.4-5.4S3864.8,5.4,3861.8,5.4z"
		/>
	<path class="st2" d="M3676.7-565.7c-5.6,0-10.4-4.5-10.4-10.4c0-5.6,4.5-10.4,10.4-10.4s10.4,4.5,10.4,10.4
		C3687.1-570.2,3682.6-565.7,3676.7-565.7z M3676.7-581.5c-3,0-5.4,2.4-5.4,5.4s2.4,5.4,5.4,5.4s5.4-2.4,5.4-5.4
		C3682.1-578.9,3679.7-581.5,3676.7-581.5z"/>
	<polygon class="st2" points="3556.1,-482.7 3472.1,-482.7 3422.5,-532.3 3422.5,-591.4 3427.5,-591.4 3427.5,-534.5 3474.1,-487.7 
		3556.1,-487.7 	"/>
	<path class="st2" d="M3847.3-97h-105.6l-97.9,97.6h-258.5c-5.4,0-10,4.3-10,10c0,5.4,4.3,10,10,10h266.5l97.6-97.6h97.9
		c5.4,0,10-4.3,10-10S3852.7-97,3847.3-97z M3385.7,15.4c-2.8,0-5-2.2-5-5s2.2-5,5-5s5,2.2,5,5S3388.6,15.4,3385.7,15.4z
		 M3846.9-82.4c-2.8,0-5-2.2-5-5s2.2-5,5-5s5,2.2,5,5C3851.9-84.8,3849.7-82.4,3846.9-82.4z"/>
	<polygon class="st2" points="3662.6,42.7 3503.7,42.7 3503.7,37.7 3660.7,37.7 3756.8,-58.4 3891.7,-58.4 3891.7,-53.7 3759,-53.7 
			"/>
	<polygon class="st2" points="3668.7,56.5 3455.5,56.5 3455.5,51.6 3666.5,51.6 3762.2,-44.1 3876.8,-44.1 3893.6,-27.5 
		3890.2,-23.8 3874.8,-39.4 3764.4,-39.4 	"/>
	<polygon class="st2" points="3696.2,92 3472.1,92 3472.1,87.1 3694.2,87.1 3772.6,8.7 3855.1,8.7 3855.1,13.5 3774.8,13.5 	"/>
</g>
<g>
	<path class="st2" d="M3366.9,468.1c0,13.6-11,24.7-24.7,24.7c-13.6,0-24.7-11-24.7-24.7c0-13.6,11-24.7,24.7-24.7
		C3355.8,443.4,3366.9,454.5,3366.9,468.1z M3361.9,468.1c0-10.8-8.9-19.7-19.7-19.7c-10.8,0-19.7,8.9-19.7,19.7s8.9,19.7,19.7,19.7
		C3353,487.8,3361.9,478.9,3361.9,468.1z"/>
	<path class="st2" d="M3377.5,468.1c0,19.5-15.8,35.3-35.3,35.3s-35.3-15.8-35.3-35.3s15.8-35.3,35.3-35.3
		S3377.5,448.6,3377.5,468.1z M3372.5,468.1c0-16.7-13.6-30.3-30.3-30.3c-16.7,0-30.3,13.6-30.3,30.3s13.6,30.3,30.3,30.3
		C3358.9,498.4,3372.5,484.8,3372.5,468.1z"/>
	<circle class="st2" cx="3342.2" cy="468.1" r="10.4"/>
	<path class="st2" d="M3447.4,1144.9v-131.2l-57.8-57.8h-183.8l-51.3-51.3v-59.5l-111.3-111.3H2956c-5.8,0-10.6,4.8-10.6,10.6
		s4.8,10.6,10.6,10.6h78.4l98.9,98.9v59.5l63.6,63.6h183.8l45.2,45.2v122.5c0,5.8,4.8,10.6,10.6,10.6
		C3442.4,1155.5,3447.2,1150.7,3447.4,1144.9z M2962.9,744.8c0,3.2-2.6,5.8-5.8,5.8s-5.8-2.6-5.8-5.8s2.6-5.8,5.8-5.8
		S2962.9,741.6,2962.9,744.8z M3442.9,1144.7c0,3.5-2.8,6.3-6.3,6.3s-6.3-2.8-6.3-6.3s2.8-6.3,6.3-6.3
		C3440.1,1138.4,3442.9,1141.2,3442.9,1144.7z"/>
	<path class="st2" d="M3147.8,947.7l40.7,40.7h191.4l40.7,40.7v146.1c0,1.3-1.1,2.4-2.4,2.4s-2.4-1.1-2.4-2.4v-144l-37.9-38.1
		h-191.4l-42-42c-0.9-0.9-0.9-2.6,0-3.5c0.4-0.4,1.1-0.6,1.7-0.6C3146.8,947,3147.4,947.2,3147.8,947.7z"/>
	<path class="st2" d="M3147.4,977.1l23.4,23.4h202.9l36.6,36.4v138.3c0,1.3-1.1,2.4-2.4,2.4s-2.4-1.1-2.4-2.4V1039l-33.6-33.6H3169
		l-24.9-24.9c-0.9-0.9-0.9-2.6,0-3.5c0.4-0.4,1.1-0.6,1.7-0.6C3146.4,976.4,3147.1,976.7,3147.4,977.1z"/>
	<path class="st2" d="M3234.2,932.5c0,5.4-4.3,9.7-9.7,9.7s-9.7-4.3-9.7-9.7s4.3-9.7,9.7-9.7S3234.2,927.1,3234.2,932.5z
		 M3229.2,932.5c0-2.6-2.2-4.8-4.8-4.8c-2.6,0-4.8,2.2-4.8,4.8s2.2,4.8,4.8,4.8C3227,937.3,3229.2,935.1,3229.2,932.5z"/>
	<path class="st2" d="M3316.4,821.9c0,5.4-4.3,9.7-9.7,9.7s-9.7-4.3-9.7-9.7s4.3-9.7,9.7-9.7S3316.4,816.5,3316.4,821.9z
		 M3311.5,821.9c0-2.6-2.2-4.8-4.8-4.8c-2.6,0-4.8,2.2-4.8,4.8s2.2,4.8,4.8,4.8S3311.5,824.5,3311.5,821.9z"/>
	<circle class="st2" cx="3379.2" cy="826.9" r="9.3"/>
	<circle class="st2" cx="3419.1" cy="764.1" r="9.3"/>
	<circle class="st2" cx="3405.4" cy="743.5" r="9.3"/>
	<path class="st2" d="M3343.3,777.3c0,5.4-4.3,9.7-9.7,9.7s-9.7-4.3-9.7-9.7s4.3-9.7,9.7-9.7S3343.3,771.9,3343.3,777.3z
		 M3338.3,777.1c0-2.6-2.2-4.8-4.8-4.8c-2.6,0-4.8,2.2-4.8,4.8s2.2,4.8,4.8,4.8C3336.4,781.8,3338.3,779.7,3338.3,777.1z"/>
	<path class="st2" d="M3311.2,744.4c0,5.4-4.3,9.7-9.7,9.7s-9.7-4.3-9.7-9.7s4.3-9.7,9.7-9.7C3306.7,734.6,3311,739,3311.2,744.4z
		 M3306.3,744.4c0-2.6-2.2-4.8-4.8-4.8c-2.6,0-4.8,2.2-4.8,4.8s2.2,4.8,4.8,4.8C3304.1,749.1,3306.3,747,3306.3,744.4z"/>
	<path class="st2" d="M3342.6,717.3c0,5.4-4.3,9.7-9.7,9.7c-5.4,0-9.7-4.3-9.7-9.7s4.3-9.7,9.7-9.7S3342.6,711.9,3342.6,717.3z
		 M3337.6,717.3c0-2.6-2.2-4.8-4.8-4.8s-4.8,2.2-4.8,4.8s2.2,4.8,4.8,4.8C3335.7,722.1,3337.6,719.9,3337.6,717.3z"/>
	<path class="st2" d="M3342.6,687.6c0,5.4-4.3,9.7-9.7,9.7c-5.4,0-9.7-4.3-9.7-9.7s4.3-9.7,9.7-9.7S3342.6,682.2,3342.6,687.6z
		 M3337.6,687.6c0-2.6-2.2-4.8-4.8-4.8s-4.8,2.2-4.8,4.8s2.2,4.8,4.8,4.8C3335.7,692.4,3337.6,690.2,3337.6,687.6z"/>
	<path class="st2" d="M3349.6,614.3c0,5.4-4.3,9.7-9.7,9.7s-9.7-4.3-9.7-9.7s4.3-9.7,9.7-9.7S3349.6,608.8,3349.6,614.3z
		 M3344.6,614.3c0-2.6-2.2-4.8-4.8-4.8s-4.8,2.2-4.8,4.8s2.2,4.8,4.8,4.8C3342.4,619,3344.6,616.9,3344.6,614.3z"/>
	<path class="st2" d="M3349.6,531.3c0,5.4-4.3,9.7-9.7,9.7s-9.7-4.3-9.7-9.7s4.3-9.7,9.7-9.7S3349.6,525.9,3349.6,531.3z
		 M3344.6,531.3c0-2.6-2.2-4.8-4.8-4.8s-4.8,2.2-4.8,4.8s2.2,4.8,4.8,4.8S3344.6,533.9,3344.6,531.3z"/>
	<path class="st2" d="M3209.7,418.1c0,5.4-4.3,9.7-9.7,9.7s-9.7-4.3-9.7-9.7s4.3-9.7,9.7-9.7S3209.7,412.7,3209.7,418.1z
		 M3204.7,418.1c0-2.6-2.2-4.8-4.8-4.8c-2.6,0-4.8,2.2-4.8,4.8s2.2,4.8,4.8,4.8C3202.8,422.9,3204.9,420.7,3204.7,418.1z"/>
	<path class="st2" d="M3209.7,371.3c0,5.4-4.3,9.7-9.7,9.7s-9.7-4.3-9.7-9.7s4.3-9.7,9.7-9.7S3209.7,365.9,3209.7,371.3z
		 M3204.7,371.3c0-2.6-2.2-4.8-4.8-4.8c-2.6,0-4.8,2.2-4.8,4.8s2.2,4.8,4.8,4.8C3202.8,376.1,3204.9,373.9,3204.7,371.3z"/>
	<path class="st2" d="M3209.7,333c0,5.4-4.3,9.7-9.7,9.7s-9.7-4.3-9.7-9.7s4.3-9.7,9.7-9.7S3209.7,327.6,3209.7,333z M3204.7,332.8
		c0-2.6-2.2-4.8-4.8-4.8c-2.6,0-4.8,2.2-4.8,4.8s2.2,4.8,4.8,4.8C3202.8,337.6,3204.9,335.4,3204.7,332.8z"/>
	<path class="st2" d="M3251.9,333c0,5.4-4.3,9.7-9.7,9.7s-9.7-4.3-9.7-9.7s4.3-9.7,9.7-9.7S3251.9,327.6,3251.9,333z M3246.9,332.8
		c0-2.6-2.2-4.8-4.8-4.8s-4.8,2.2-4.8,4.8s2.2,4.8,4.8,4.8C3244.8,337.6,3246.9,335.4,3246.9,332.8z"/>
	<path class="st2" d="M3294.8,310.9c0,5.4-4.3,9.7-9.7,9.7s-9.7-4.3-9.7-9.7s4.3-9.7,9.7-9.7
		C3290.2,301.2,3294.6,305.5,3294.8,310.9z M3289.8,310.9c0-2.6-2.2-4.8-4.8-4.8c-2.6,0-4.8,2.2-4.8,4.8s2.2,4.8,4.8,4.8
		C3287.6,315.7,3289.8,313.5,3289.8,310.9z"/>
	<path class="st2" d="M3445.7,339.5c0,5.4-4.3,9.7-9.7,9.7s-9.7-4.3-9.7-9.7s4.3-9.7,9.7-9.7S3445.7,334.1,3445.7,339.5z
		 M3440.7,339.5c0-2.6-2.2-4.8-4.8-4.8c-2.6,0-4.8,2.2-4.8,4.8s2.2,4.8,4.8,4.8S3440.7,342.1,3440.7,339.5z"/>
	<path class="st2" d="M3445.7,368.8c0,5.4-4.3,9.7-9.7,9.7s-9.7-4.3-9.7-9.7s4.3-9.7,9.7-9.7S3445.7,363.3,3445.7,368.8z
		 M3440.7,368.8c0-2.6-2.2-4.8-4.8-4.8c-2.6,0-4.8,2.2-4.8,4.8s2.2,4.8,4.8,4.8C3438.5,373.5,3440.7,371.3,3440.7,368.8z"/>
	<path class="st2" d="M3395.5,531.3c0,5.4-4.3,9.7-9.7,9.7s-9.7-4.3-9.7-9.7s4.3-9.7,9.7-9.7S3395.5,525.9,3395.5,531.3z
		 M3390.5,531.3c0-2.6-2.2-4.8-4.8-4.8c-2.6,0-4.8,2.2-4.8,4.8s2.2,4.8,4.8,4.8S3390.5,533.9,3390.5,531.3z"/>
	<path class="st2" d="M3454.3,628.1c0,5.4-4.3,9.7-9.7,9.7s-9.7-4.3-9.7-9.7s4.3-9.7,9.7-9.7S3454.3,622.7,3454.3,628.1z
		 M3449.4,628.1c0-2.6-2.2-4.8-4.8-4.8s-4.8,2.2-4.8,4.8s2.2,4.8,4.8,4.8C3447.2,632.9,3449.4,630.7,3449.4,628.1z"/>
	<path class="st2" d="M3422.7,478.1c0,5.4-4.3,9.7-9.7,9.7s-9.7-4.3-9.7-9.7s4.3-9.7,9.7-9.7
		C3418.2,468.3,3422.5,472.7,3422.7,478.1z M3417.8,477.9c0-2.6-2.2-4.8-4.8-4.8c-2.6,0-4.8,2.2-4.8,4.8s2.2,4.8,4.8,4.8
		C3415.6,482.6,3417.8,480.7,3417.8,477.9z"/>
	<path class="st2" d="M3184.4,820.4c0,5.4-4.3,9.7-9.7,9.7c-5.4,0-9.7-4.3-9.7-9.7s4.3-9.7,9.7-9.7
		C3180,810.6,3184.4,814.9,3184.4,820.4z M3179.4,820.4c0-2.6-2.2-4.8-4.8-4.8s-4.8,2.2-4.8,4.8s2.2,4.8,4.8,4.8
		C3177.4,825.1,3179.4,823,3179.4,820.4z"/>
	<path class="st2" d="M3156.9,797.2c0,5.4-4.3,9.7-9.7,9.7s-9.7-4.3-9.7-9.7s4.3-9.7,9.7-9.7S3156.9,791.8,3156.9,797.2z
		 M3151.9,797.2c0-2.6-2.2-4.8-4.8-4.8s-4.8,2.2-4.8,4.8s2.2,4.8,4.8,4.8C3149.7,802,3151.9,799.8,3151.9,797.2z"/>
	<path class="st2" d="M3219,892.2c0,5.4-4.3,9.7-9.7,9.7s-9.7-4.3-9.7-9.7s4.3-9.7,9.7-9.7S3219,887,3219,892.2z M3214,892.2
		c0-2.6-2.2-4.8-4.8-4.8c-2.6,0-4.8,2.2-4.8,4.8s2.2,4.8,4.8,4.8S3214,894.8,3214,892.2z"/>
	<path class="st2" d="M3200.6,869.3c0,5.4-4.3,9.7-9.7,9.7s-9.7-4.3-9.7-9.7c0-5.4,4.3-9.7,9.7-9.7S3200.6,863.9,3200.6,869.3z
		 M3195.6,869.3c0-2.6-2.2-4.8-4.8-4.8s-4.8,2.2-4.8,4.8s2.2,4.8,4.8,4.8C3193.5,874,3195.6,871.9,3195.6,869.3z"/>
	<path class="st2" d="M3219.7,847.6c0,5.4-4.3,9.7-9.7,9.7s-9.7-4.3-9.7-9.7s4.3-9.7,9.7-9.7S3219.7,842.2,3219.7,847.6z
		 M3214.7,847.6c0-2.6-2.2-4.8-4.8-4.8c-2.6,0-4.8,2.2-4.8,4.8c0,2.6,2.2,4.8,4.8,4.8S3214.7,850.2,3214.7,847.6z"/>
	<path class="st2" d="M3145.8,973.2c0,5.4-4.3,10-10,10c-5.4,0-10-4.5-10-10s4.3-10,10-10S3145.8,967.8,3145.8,973.2z M3141.1,973.2
		c0-2.8-2.4-5.2-5.2-5.2c-2.8,0-5.2,2.4-5.2,5.2c0,2.8,2.4,5.2,5.2,5.2C3138.7,978.4,3141.1,976,3141.1,973.2z"/>
	<path class="st2" d="M3146.3,943.5c0,5.8-4.8,10.4-10.4,10.4c-5.8,0-10.4-4.8-10.4-10.4c0-5.8,4.8-10.4,10.4-10.4
		C3141.7,933.2,3146.3,937.9,3146.3,943.5z M3141.3,943.5c0-3-2.4-5.4-5.4-5.4s-5.4,2.4-5.4,5.4s2.4,5.4,5.4,5.4
		S3141.3,946.6,3141.3,943.5z"/>
	<path class="st2" d="M2890.8,270.2v142.9l32.9,32.9H3093l19.9-19.9v-47.2c0-1.3,1.1-2.4,2.4-2.4s2.4,1.1,2.4,2.4v49.4l-22.9,22.9
		h-173.5l-35.9-35.9V270.5c0-1.3,1.1-2.4,2.4-2.4S2890.2,269.2,2890.8,270.2z"/>
	<path class="st2" d="M2869.4,286.3v144.2l37.9,37.9h191.4l42,42c0.9,0.9,0.9,2.6,0,3.5c-0.9,0.9-2.6,0.9-3.5,0l-40.7-40.8h-191.4
		l-40.7-40.7V286.3c0-1.3,1.1-2.4,2.4-2.4C2868.3,283.9,2869.4,285,2869.4,286.3z"/>
	<path class="st2" d="M2879.8,286.3v136.2l33.8,33.8h202.9l24.9,24.9c0.9,0.9,0.9,2.6,0,3.5c-0.9,0.9-2.6,0.9-3.5,0l-23.4-23.4
		h-202.9l-36.6-36.6V286.3c0-1.3,1.1-2.4,2.4-2.4S2879.8,285,2879.8,286.3z"/>
	<path class="st2" d="M3125.3,368.5c0,6.1-4.8,10.8-10.8,10.8c-6.1,0-10.8-4.8-10.8-10.8c0-6.1,4.8-10.8,10.8-10.8
		S3125.3,362.5,3125.3,368.5z M3120.3,368.5c0-3.2-2.6-5.8-5.8-5.8c-3.2,0-5.8,2.6-5.8,5.8s2.6,5.8,5.8,5.8
		C3117.7,374.3,3120.3,371.8,3120.3,368.5z"/>
	<path class="st2" d="M3102.3,419.4c0,5.6-4.5,10.2-10.2,10.2c-5.6,0-10.2-4.5-10.2-10.2c0-5.6,4.5-10.2,10.2-10.2
		S3102.3,413.8,3102.3,419.4z M3097.3,419.4c0-2.8-2.4-5.2-5.2-5.2s-5.2,2.4-5.2,5.2s2.4,5.2,5.2,5.2
		C3095.2,424.6,3097.3,422.4,3097.3,419.4z"/>
	<path class="st2" d="M3102.5,394.5c0,5.8-4.5,10.4-10.4,10.4c-5.8,0-10.4-4.5-10.4-10.4s4.8-10.4,10.4-10.4
		C3098,384.1,3102.5,388.7,3102.5,394.5z M3097.6,394.3c0-3-2.4-5.4-5.4-5.4s-5.4,2.4-5.4,5.4s2.4,5.4,5.4,5.4
		C3095.2,399.7,3097.6,397.3,3097.6,394.3z"/>
	<path class="st2" d="M2977.2,372.9c0,5.4-4.3,9.7-9.7,9.7c-5.4,0-9.7-4.3-9.7-9.7s4.3-9.7,9.7-9.7
		C2972.6,363.1,2977,367.5,2977.2,372.9z M2972.2,372.9c0-2.6-2.2-4.8-4.8-4.8c-2.6,0-4.8,2.2-4.8,4.8s2.2,4.8,4.8,4.8
		C2970,377.7,2972.2,375.5,2972.2,372.9z"/>
	<path class="st2" d="M3288.3,426.6c0,5.4-4.3,9.7-9.7,9.7s-9.7-4.3-9.7-9.7s4.3-9.7,9.7-9.7S3288.3,421.1,3288.3,426.6z
		 M3283.3,426.6c0-2.6-2.2-4.8-4.8-4.8c-2.6,0-4.8,2.2-4.8,4.8s2.2,4.8,4.8,4.8S3283.3,429.2,3283.3,426.6z"/>
	<path class="st2" d="M3258,469.9c0,5.4-4.3,9.7-9.7,9.7s-9.7-4.3-9.7-9.7s4.3-9.7,9.7-9.7C3253.4,460.1,3257.8,464.4,3258,469.9z
		 M3253,469.6c0-2.6-2.2-4.8-4.8-4.8c-2.6,0-4.8,2.2-4.8,4.8s2.2,4.8,4.8,4.8S3252.8,472.5,3253,469.6z"/>
	<path class="st2" d="M3293.3,505.6c0,5.4-4.3,9.7-9.7,9.7s-9.7-4.3-9.7-9.7s4.3-9.7,9.7-9.7S3293.3,500.2,3293.3,505.6z
		 M3288.3,505.6c0-2.6-2.2-4.8-4.8-4.8c-2.6,0-4.8,2.2-4.8,4.8s2.2,4.8,4.8,4.8C3286.3,510.3,3288.5,508.2,3288.3,505.6z"/>
	<path class="st2" d="M2999.3,372.9c0,5.4-4.3,9.7-9.7,9.7c-5.4,0-9.7-4.3-9.7-9.7s4.3-9.7,9.7-9.7
		C2994.9,363.1,2999.3,367.5,2999.3,372.9z M2994.3,372.9c0-2.6-2.2-4.8-4.8-4.8c-2.6,0-4.8,2.2-4.8,4.8s2.2,4.8,4.8,4.8
		C2992.1,377.6,2994.3,375.5,2994.3,372.9z"/>
	<path class="st2" d="M3156,487.4c0,5.4-4.3,10-10,10c-5.4,0-10-4.3-10-10c0-5.4,4.3-10,10-10S3156.2,481.8,3156,487.4z
		 M3151.2,487.2c0-2.8-2.4-5.2-5.2-5.2s-5.2,2.4-5.2,5.2s2.4,5.2,5.2,5.2C3148.9,492.4,3151.2,490.2,3151.2,487.2z"/>
	<path class="st2" d="M3157.1,517.7c0,5.8-4.8,10.4-10.4,10.4c-5.8,0-10.4-4.8-10.4-10.4c0-5.8,4.8-10.4,10.4-10.4
		C3152.5,507.3,3157.1,511.9,3157.1,517.7z M3152.1,517.7c0-3-2.4-5.4-5.4-5.4s-5.4,2.4-5.4,5.4s2.4,5.4,5.4,5.4
		S3152.1,520.7,3152.1,517.7z"/>
	<rect x="2908.6" y="297.7" class="st2" width="37.2" height="42.6"/>
	<rect x="2959.7" y="296.2" class="st2" width="37.2" height="42.6"/>
	<rect x="3009.9" y="296.2" class="st2" width="37.2" height="42.6"/>
	<polygon class="st2" points="2919.8,400.4 2935.8,416.4 3083.1,416.4 3083.1,421.1 2933.9,421.1 2915.1,402.3 2915.1,338.9 
		2919.8,338.9 	"/>
	<polygon class="st2" points="2939.9,378.7 2951.9,390.4 3082.6,391.5 3082.6,396.5 2949.9,395.4 2935.2,380.7 2935.2,330.4 
		2939.9,330.4 	"/>
	<rect x="2987.1" y="330.6" class="st2" width="5" height="34.9"/>
	<rect x="2965.1" y="330.9" class="st2" width="5" height="34"/>
	<path class="st2" d="M3094.7,286.5v73.8l-22.5,22.5h-37.5l-19.6-19.7V335c0-1.3,1.1-2.4,2.4-2.4s2.4,1.1,2.4,2.4v26l16.7,16.7h33.3
		l19.7-19.7v-71.7c0-1.3,1.1-2.4,2.4-2.4C3093.2,283.9,3094.3,285,3094.7,286.5z"/>
	<path class="st2" d="M3081.8,286.5v66.7l-16,16h-24.9l-12.6-12.6v-20.5c0-1.3,1.1-2.4,2.4-2.4c1.3,0,2.4,1.1,2.4,2.4v18.6l9.5,9.5
		h20.8l13.2-13.2v-64.7c0-1.3,1.1-2.4,2.4-2.4C3080.2,283.9,3081.5,285,3081.8,286.5z"/>
	<path class="st2" d="M3072,286.3V348l-11.5,11.5h-12.3l-7.8-7.8v-16.2c0-1.3,1.1-2.4,2.4-2.4s2.4,1.1,2.4,2.4v14.3l5,5h8.2l8.7-8.7
		v-59.8c0-1.3,1.1-2.4,2.4-2.4C3070.9,283.9,3072,285,3072,286.3z"/>
	<path class="st2" d="M3154.9,286.5V432l35.5,35.5h50.4c1.3,0,2.4,1.1,2.4,2.4c0,1.3-1.1,2.4-2.4,2.4h-52.3l-38.3-38.5V286.3
		c0-1.3,1.1-2.4,2.4-2.4S3154.9,285,3154.9,286.5z"/>
	<path class="st2" d="M3141.3,286.5v150l45,45h31.4l19.1,19.1h39c1.3,0,2.4,1.1,2.4,2.4c0,1.3-1.1,2.4-2.4,2.4h-40.9l-19.1-19.1
		h-31.4l-48.1-48.1v-152c0-1.3,1.1-2.4,2.4-2.4C3140,283.9,3141.1,285,3141.3,286.5z"/>
	<path class="st2" d="M3169.4,287.1v137.5l22.9,23.2h18.6l21-23.8h39.6c1.3,0,2.4,1.1,2.4,2.4c0,1.3-1.1,2.4-2.4,2.4H3234l-21,23.8
		h-22.7l-26-26V286.9c0-1.3,1.1-2.4,2.4-2.4C3168.4,284.5,3169.4,285.6,3169.4,287.1z"/>
	<path class="st2" d="M3433.3,848.1v96.1c0,5.2-4.3,9.5-9.5,9.5s-9.5-4.3-9.5-9.5v-95.9c0-5.2,4.3-9.5,9.5-9.5
		S3433.3,842.9,3433.3,848.1z"/>
	<rect x="3230.7" y="929.7" class="st2" width="235.8" height="5"/>
	<polygon class="st2" points="3266.6,915.8 3466.5,915.8 3466.5,920.8 3264.5,920.8 3238.9,895 3214.2,895 3214.2,890.1 
		3240.9,890.1 	"/>
	<polygon class="st2" points="3273.8,902 3466.5,902 3466.5,907 3271.8,907 3238.3,873.4 3197.8,873.4 3197.8,868.4 3240.2,868.4 	
		"/>
	<polygon class="st2" points="3279.6,886.2 3466.5,886.2 3466.5,891.2 3277.7,891.2 3236.5,850 3216.2,850 3216.2,845 3238.5,845 	
		"/>
	<path class="st2" d="M3286.3,871.9h180.3c1.3,0,2.4,1.1,2.4,2.4s-1.1,2.4-2.4,2.4h-182.3l-54.3-54.3h-48.7c-1.3,0-2.4-1.1-2.4-2.4
		c0-1.3,1.1-2.4,2.4-2.4h50.7L3286.3,871.9z"/>
	<path class="st2" d="M3293.7,860h173c1.3,0,2.4,1.1,2.4,2.4s-1.1,2.4-2.4,2.4h-175.2l-64.5-64.5h-72.7c-1.3,0-2.4-1.1-2.4-2.4
		c0-1.3,1.1-2.4,2.4-2.4h74.7L3293.7,860z"/>
	<polygon class="st2" points="3109.9,771.2 3258.8,771.2 3303.4,816 3300,819.5 3256.7,776.2 3107.9,776.2 3049.5,717.7 
		2908.3,717.7 2908.3,712.8 3051.4,712.8 	"/>
	<polygon class="st2" points="3116,757.4 3261.2,757.4 3278.3,774.5 3328.1,774.5 3328.1,779.2 3276.4,779.2 3259.3,762.1 
		3113.8,762.1 3056,704.3 2872.2,704.3 2872.2,699.3 3057.9,699.3 	"/>
	<polygon class="st2" points="3120.1,742.4 3295.2,742.4 3295.2,747.4 3118.1,747.4 3063.8,693.1 2851.6,693.1 2851.6,688.1 
		3065.9,688.1 	"/>
	<polygon class="st2" points="3124.8,732.7 3259.9,732.7 3277.5,714.9 3327.5,714.9 3327.5,719.9 3279.6,719.9 3261.9,737.4 
		3122.7,737.4 3068.5,683.3 2845.1,683.3 2845.1,678.3 3070.5,678.3 	"/>
	<polygon class="st2" points="3128.7,721.4 3254.1,721.4 3290.2,685.1 3326,685.1 3326,690 3292.4,690 3256,726.4 3126.6,726.4 
		3073.1,672.7 2838.6,672.7 2838.6,667.7 3075,667.7 	"/>
	<path class="st2" d="M3387.9,539.6v77.3L3437,666v108l-50.7,50.7c-0.9,0.9-2.6,0.9-3.5,0c-0.9-0.9-0.9-2.6,0-3.5l49.1-49.1V667.9
		l-49.1-49.1v-79.2c0-1.3,1.1-2.4,2.4-2.4C3386.8,537.2,3387.9,538.3,3387.9,539.6z"/>
	<path class="st2" d="M3417.5,488.5v106.9l22.7,22.7c1.9,1.9,1.9,5,0,6.9c-1.9,1.9-5,1.9-6.9,0l-25.5-25.5v-111c0-2.8,2.2-5,5-5
		C3415.4,483.5,3417.8,485.7,3417.5,488.5z"/>
	<path class="st2" d="M3347.8,534.4l23.8,23.8v60.6l50.9,50.9v99.8c0,1.3-1.1,2.4-2.4,2.4s-2.4-1.1-2.4-2.4v-97.6l-50.9-50.9v-60.6
		l-22.5-22.5c-0.9-0.9-0.9-2.6,0-3.5c0.4-0.4,1.1-0.6,1.7-0.6C3346.7,533.7,3347.4,533.9,3347.8,534.4z"/>
	<path class="st2" d="M3348,615.1l59.5,59.5v68.2c0,1.3-1.1,2.4-2.4,2.4s-2.4-1.1-2.4-2.4v-66l-58-58c-0.9-0.9-0.9-2.6,0-3.5
		c0.4-0.4,1.1-0.6,1.7-0.6C3347.2,614.7,3347.8,614.9,3348,615.1z"/>
	<polygon class="st2" points="3391.1,420.7 3466.5,420.7 3466.5,425.7 3389.2,425.7 3358.6,395.2 3227,395.2 3206,415.9 
		3202.6,412.5 3225.1,390.2 3360.6,390.2 	"/>
	<polygon class="st2" points="3399.8,404.3 3466.5,404.3 3466.5,409.2 3397.8,409.2 3362.5,373.9 3208.6,373.9 3208.6,369 
		3364.5,369 	"/>
	<polygon class="st2" points="3225.1,353.4 3369.3,353.4 3406.3,390.4 3466.5,390.4 3466.5,395.4 3404.3,395.4 3367.1,358.1 
		3223.1,358.1 3204.3,339.3 3207.8,335.8 	"/>
	<polygon class="st2" points="3411.3,365.1 3429.7,365.1 3429.7,370.1 3409.3,370.1 3373.8,334.5 3248.5,334.5 3248.5,329.6 
		3375.8,329.6 	"/>
	<polygon class="st2" points="3410.6,337.6 3430.1,337.6 3430.1,342.3 3408.7,342.3 3379,312.9 3290.5,312.9 3290.5,307.9 
		3380.9,307.9 	"/>
	<path class="st2" d="M2873.7,495.2c0,5.8-4.8,10.4-10.4,10.4c-5.8,0-10.4-4.8-10.4-10.4c0-5.8,4.8-10.4,10.4-10.4
		C2869.2,484.8,2873.7,489.6,2873.7,495.2z M2868.7,495.2c0-3-2.4-5.4-5.4-5.4s-5.4,2.4-5.4,5.4s2.4,5.4,5.4,5.4
		S2868.7,498.2,2868.7,495.2z"/>
	<path class="st2" d="M2903.8,544.3c0,5.8-4.8,10.4-10.4,10.4c-5.8,0-10.4-4.8-10.4-10.4c0-5.8,4.8-10.4,10.4-10.4
		C2899,533.9,2903.6,538.5,2903.8,544.3z M2898.8,544.3c0-3-2.4-5.4-5.4-5.4s-5.4,2.4-5.4,5.4s2.4,5.4,5.4,5.4
		C2896.2,549.7,2898.8,547.1,2898.8,544.3z"/>
	<path class="st2" d="M3303.7,640.7c0,5.8-4.8,10.4-10.4,10.4c-5.8,0-10.4-4.5-10.4-10.4s4.8-10.4,10.4-10.4
		C3299.1,630.3,3303.7,634.8,3303.7,640.7z M3298.7,640.7c0-3-2.4-5.4-5.4-5.4s-5.4,2.4-5.4,5.4s2.4,5.4,5.4,5.4
		S3298.7,643.7,3298.7,640.7z"/>
	<path class="st2" d="M3303.7,604.7c0,5.8-4.8,10.4-10.4,10.4c-5.8,0-10.4-4.8-10.4-10.4c0-5.8,4.8-10.4,10.4-10.4
		C3299.1,594.3,3303.7,599.1,3303.7,604.7z M3298.7,604.7c0-3-2.4-5.4-5.4-5.4s-5.4,2.4-5.4,5.4s2.4,5.4,5.4,5.4
		S3298.7,607.8,3298.7,604.7z"/>
	<path class="st2" d="M3267.5,572.9c0,5.8-4.8,10.4-10.4,10.4c-5.8,0-10.4-4.8-10.4-10.4c0-5.8,4.8-10.4,10.4-10.4
		C3263,562.5,3267.5,567.1,3267.5,572.9z M3262.5,572.9c0-3-2.4-5.4-5.4-5.4s-5.4,2.4-5.4,5.4s2.4,5.4,5.4,5.4
		S3262.5,575.9,3262.5,572.9z"/>
	<path class="st2" d="M3252.6,670.8c0-5.6-4.5-10-10-10h-97.9l-97.6-97.6h-266.5c-5.6,0-10,4.5-10,10c0,5.6,4.5,10,10,10h258.5
		l97.9,97.6h105.6C3248,680.7,3252.6,676.4,3252.6,670.8z M2786,573.3c0,2.8-2.2,5-5,5s-5-2.2-5-5s2.2-5,5-5
		C2783.9,568.4,2786,570.5,2786,573.3z M3247.2,671.2c0,2.8-2.2,5-5,5s-5-2.2-5-5s2.2-5,5-5S3247.2,668.6,3247.2,671.2z"/>
	<polygon class="st2" points="3154.3,637.4 3287,637.4 3287,642.2 3152.1,642.2 3056,546.1 2899,546.1 2899,541.1 3057.9,541.1 	"/>
	<polygon class="st2" points="3159.7,623.1 3270.1,623.1 3285.5,607.5 3288.9,611.2 3272.1,627.9 3157.5,627.9 3061.8,532.2 
		2850.8,532.2 2850.8,527.2 3064,527.2 	"/>
	<polygon class="st2" points="3170.1,570.3 3250.4,570.3 3250.4,575.1 3167.9,575.1 3089.5,496.7 2867.4,496.7 2867.4,491.7 
		3091.5,491.7 	"/>
</g>
<g>
	<path class="st2" d="M615.9-327.5c13.7,0,24.7,11.1,24.7,24.7c0,13.7-11.1,24.7-24.7,24.7c-13.7,0-24.7-11.1-24.7-24.7
		S602.3-327.5,615.9-327.5z M615.9-283.1c10.8,0,19.7-8.9,19.7-19.7s-8.9-19.7-19.7-19.7s-19.7,8.9-19.7,19.7
		S605.1-283.1,615.9-283.1z"/>
	<path class="st2" d="M615.9-338.1c19.5,0,35.3,15.8,35.3,35.3s-15.8,35.3-35.3,35.3s-35.3-15.8-35.3-35.3S596.4-338.1,615.9-338.1z
		 M615.9-272.5c16.7,0,30.3-13.6,30.3-30.3s-13.6-30.3-30.3-30.3c-16.7,0-30.3,13.6-30.3,30.3S599.2-272.5,615.9-272.5z"/>
	<circle class="st2" cx="615.9" cy="-302.8" r="10.4"/>
	<path class="st2" d="M521.6,384.4c5.8,0,10.6-4.8,10.6-10.6V251.3l45.2-45.2h183.8l63.6-63.6V83l98.9-98.9h78.4
		c5.8,0,10.6-4.8,10.6-10.6s-4.8-10.6-10.6-10.6h-87.2L803.6,74.2v59.5L752.3,185H568.5l-57.8,57.8V374
		C510.9,379.8,515.7,384.6,521.6,384.4z M1001-31.9c3.2,0,5.8,2.6,5.8,5.8s-2.6,5.8-5.8,5.8s-5.8-2.6-5.8-5.8S997.8-31.9,1001-31.9z
		 M521.5,367.5c3.5,0,6.3,2.8,6.3,6.3s-2.8,6.3-6.3,6.3s-6.3-2.8-6.3-6.3S518,367.5,521.5,367.5z"/>
	<path class="st2" d="M811.9,176.1c0.6,0,1.3,0.2,1.7,0.6c0.9,0.9,0.9,2.6,0,3.5l-42,42H580.2l-37.9,38.1v144c0,1.3-1.1,2.4-2.4,2.4
		s-2.4-1.1-2.4-2.4V258.2l40.7-40.7h191.4l40.7-40.7C810.7,176.3,811.3,176.1,811.9,176.1z"/>
	<path class="st2" d="M812.3,205.5c0.6,0,1.3,0.2,1.7,0.6c0.9,0.9,0.9,2.6,0,3.5l-24.9,24.9H586.2l-33.6,33.6v136.2
		c0,1.3-1.1,2.4-2.4,2.4s-2.4-1.1-2.4-2.4V266l36.6-36.4h202.9l23.4-23.4C811,205.8,811.7,205.5,812.3,205.5z"/>
	<path class="st2" d="M733.6,151.9c5.4,0,9.7,4.3,9.7,9.7s-4.3,9.7-9.7,9.7s-9.7-4.3-9.7-9.7S728.2,151.9,733.6,151.9z M733.7,166.4
		c2.6,0,4.8-2.2,4.8-4.8s-2.2-4.8-4.8-4.8c-2.6,0-4.8,2.2-4.8,4.8S731.1,166.4,733.7,166.4z"/>
	<path class="st2" d="M651.4,41.3c5.4,0,9.7,4.3,9.7,9.7s-4.3,9.7-9.7,9.7s-9.7-4.3-9.7-9.7C641.7,45.6,646,41.3,651.4,41.3z
		 M651.4,55.8c2.6,0,4.8-2.2,4.8-4.8s-2.2-4.8-4.8-4.8c-2.6,0-4.8,2.2-4.8,4.8C646.6,53.6,648.8,55.8,651.4,55.8z"/>
	<circle class="st2" cx="578.9" cy="56" r="9.3"/>
	<circle class="st2" cx="539" cy="-6.8" r="9.3"/>
	<circle class="st2" cx="552.7" cy="-27.4" r="9.3"/>
	<path class="st2" d="M624.5-3.3c5.4,0,9.7,4.3,9.7,9.7s-4.3,9.7-9.7,9.7s-9.7-4.3-9.7-9.7S619.1-3.3,624.5-3.3z M624.6,11
		c2.6,0,4.8-2.2,4.8-4.8s-2.2-4.8-4.8-4.8c-2.6,0-4.8,2.2-4.8,4.8S621.7,10.9,624.6,11z"/>
	<path class="st2" d="M656.6-36.2c5.4,0,9.7,4.3,9.7,9.7s-4.3,9.7-9.7,9.7s-9.7-4.3-9.7-9.7C647.1-31.9,651.4-36.3,656.6-36.2z
		 M656.6-21.7c2.6,0,4.8-2.2,4.8-4.8s-2.2-4.8-4.8-4.8c-2.6,0-4.8,2.2-4.8,4.8C651.8-23.9,654-21.8,656.6-21.7z"/>
	<path class="st2" d="M625.2-63.3c5.4,0,9.7,4.3,9.7,9.7s-4.3,9.7-9.7,9.7c-5.4,0-9.7-4.3-9.7-9.7S619.8-63.3,625.2-63.3z
		 M625.3-48.8c2.6,0,4.8-2.2,4.8-4.8s-2.2-4.8-4.8-4.8c-2.6,0-4.8,2.2-4.8,4.8S622.4-48.8,625.3-48.8z"/>
	<path class="st2" d="M625.2-93c5.4,0,9.7,4.3,9.7,9.7s-4.3,9.7-9.7,9.7c-5.4,0-9.7-4.3-9.7-9.7S619.8-93,625.2-93z M625.3-78.5
		c2.6,0,4.8-2.2,4.8-4.8s-2.2-4.8-4.8-4.8c-2.6,0-4.8,2.2-4.8,4.8S622.4-78.5,625.3-78.5z"/>
	<path class="st2" d="M618.2-166.3c5.4,0,9.7,4.3,9.7,9.7s-4.3,9.7-9.7,9.7s-9.7-4.3-9.7-9.7C608.5-162.1,612.8-166.3,618.2-166.3z
		 M618.3-151.8c2.6,0,4.8-2.2,4.8-4.8s-2.2-4.8-4.8-4.8c-2.6,0-4.8,2.2-4.8,4.8S615.7-151.9,618.3-151.8z"/>
	<path class="st2" d="M618.2-249.3c5.4,0,9.7,4.3,9.7,9.7s-4.3,9.7-9.7,9.7s-9.7-4.3-9.7-9.7S612.8-249.3,618.2-249.3z M618.3-234.8
		c2.6,0,4.8-2.2,4.8-4.8s-2.2-4.8-4.8-4.8c-2.6,0-4.8,2.2-4.8,4.8S615.7-234.8,618.3-234.8z"/>
	<path class="st2" d="M758.1-362.5c5.4,0,9.7,4.3,9.7,9.7s-4.3,9.7-9.7,9.7s-9.7-4.3-9.7-9.7S752.7-362.5,758.1-362.5z M758.2-348
		c2.6,0,4.8-2.2,4.8-4.8s-2.2-4.8-4.8-4.8c-2.6,0-4.8,2.2-4.8,4.8C753.2-350.2,755.3-348,758.2-348z"/>
	<path class="st2" d="M758.1-409.3c5.4,0,9.7,4.3,9.7,9.7s-4.3,9.7-9.7,9.7s-9.7-4.3-9.7-9.7S752.7-409.3,758.1-409.3z M758.2-394.8
		c2.6,0,4.8-2.2,4.8-4.8s-2.2-4.8-4.8-4.8c-2.6,0-4.8,2.2-4.8,4.8C753.2-397,755.3-394.8,758.2-394.8z"/>
	<path class="st2" d="M758.1-447.6c5.4,0,9.7,4.3,9.7,9.7s-4.3,9.7-9.7,9.7s-9.7-4.3-9.7-9.7S752.7-447.6,758.1-447.6z M758.2-433.3
		c2.6,0,4.8-2.2,4.8-4.8s-2.2-4.8-4.8-4.8c-2.6,0-4.8,2.2-4.8,4.8C753.2-435.5,755.3-433.3,758.2-433.3z"/>
	<path class="st2" d="M715.9-447.6c5.4,0,9.7,4.3,9.7,9.7s-4.3,9.7-9.7,9.7s-9.7-4.3-9.7-9.7S710.5-447.6,715.9-447.6z M716-433.3
		c2.6,0,4.8-2.2,4.8-4.8s-2.2-4.8-4.8-4.8c-2.6,0-4.8,2.2-4.8,4.8S713.3-433.3,716-433.3z"/>
	<path class="st2" d="M673-469.7c5.4,0,9.7,4.3,9.7,9.7s-4.3,9.7-9.7,9.7s-9.7-4.3-9.7-9.7C663.5-465.4,667.9-469.7,673-469.7z
		 M673.1-455.2c2.6,0,4.8-2.2,4.8-4.8s-2.2-4.8-4.8-4.8c-2.6,0-4.8,2.2-4.8,4.8S670.5-455.2,673.1-455.2z"/>
	<path class="st2" d="M522.1-441.1c5.4,0,9.7,4.3,9.7,9.7s-4.3,9.7-9.7,9.7s-9.7-4.3-9.7-9.7S516.7-441.1,522.1-441.1z M522.2-426.6
		c2.6,0,4.8-2.2,4.8-4.8s-2.2-4.8-4.8-4.8c-2.6,0-4.8,2.2-4.8,4.8S519.6-426.6,522.2-426.6z"/>
	<path class="st2" d="M522.1-411.8c5.4,0,9.7,4.3,9.7,9.7s-4.3,9.7-9.7,9.7s-9.7-4.3-9.7-9.7C512.4-407.6,516.7-411.8,522.1-411.8z
		 M522.2-397.3c2.6,0,4.8-2.2,4.8-4.8s-2.2-4.8-4.8-4.8c-2.6,0-4.8,2.2-4.8,4.8C517.4-399.6,519.6-397.4,522.2-397.3z"/>
	<path class="st2" d="M572.3-249.3c5.4,0,9.7,4.3,9.7,9.7s-4.3,9.7-9.7,9.7s-9.7-4.3-9.7-9.7S566.9-249.3,572.3-249.3z M572.4-234.8
		c2.6,0,4.8-2.2,4.8-4.8s-2.2-4.8-4.8-4.8c-2.6,0-4.8,2.2-4.8,4.8S569.8-234.8,572.4-234.8z"/>
	<path class="st2" d="M513.5-152.5c5.4,0,9.7,4.3,9.7,9.7s-4.3,9.7-9.7,9.7s-9.7-4.3-9.7-9.7S508.1-152.5,513.5-152.5z M513.5-138
		c2.6,0,4.8-2.2,4.8-4.8s-2.2-4.8-4.8-4.8c-2.6,0-4.8,2.2-4.8,4.8S510.9-138,513.5-138z"/>
	<path class="st2" d="M545.1-302.5c5.4,0,9.7,4.3,9.7,9.7s-4.3,9.7-9.7,9.7s-9.7-4.3-9.7-9.7C535.6-298.2,539.9-302.6,545.1-302.5z
		 M545.1-288.2c2.6,0,4.8-2.2,4.8-4.8s-2.2-4.8-4.8-4.8c-2.6,0-4.8,2.2-4.8,4.8C540.3-290.2,542.5-288.3,545.1-288.2z"/>
	<path class="st2" d="M783.4,39.8c5.4,0,9.7,4.3,9.7,9.7s-4.3,9.7-9.7,9.7c-5.4,0-9.7-4.3-9.7-9.7C773.7,44,778.1,39.7,783.4,39.8z
		 M783.5,54.3c2.6,0,4.8-2.2,4.8-4.8s-2.2-4.8-4.8-4.8c-2.6,0-4.8,2.2-4.8,4.8C778.7,52.1,780.7,54.2,783.5,54.3z"/>
	<path class="st2" d="M810.9,16.6c5.4,0,9.7,4.3,9.7,9.7s-4.3,9.7-9.7,9.7s-9.7-4.3-9.7-9.7C801.2,20.9,805.5,16.6,810.9,16.6z
		 M811,31.1c2.6,0,4.8-2.2,4.8-4.8s-2.2-4.8-4.8-4.8c-2.6,0-4.8,2.2-4.8,4.8C806.2,28.9,808.4,31.1,811,31.1z"/>
	<path class="st2" d="M748.8,111.6c5.4,0,9.7,4.3,9.7,9.7s-4.3,9.7-9.7,9.7s-9.7-4.3-9.7-9.7C739.1,116.1,743.4,111.6,748.8,111.6z
		 M748.9,126.1c2.6,0,4.8-2.2,4.8-4.8s-2.2-4.8-4.8-4.8c-2.6,0-4.8,2.2-4.8,4.8S746.3,126.1,748.9,126.1z"/>
	<path class="st2" d="M767.2,88.7c5.4,0,9.7,4.3,9.7,9.7c0,5.4-4.3,9.7-9.7,9.7s-9.7-4.3-9.7-9.7C757.5,93,761.8,88.7,767.2,88.7z
		 M767.3,103.2c2.6,0,4.8-2.2,4.8-4.8s-2.2-4.8-4.8-4.8c-2.6,0-4.8,2.2-4.8,4.8C762.5,101,764.6,103.1,767.3,103.2z"/>
	<path class="st2" d="M748.1,67c5.4,0,9.7,4.3,9.7,9.7s-4.3,9.7-9.7,9.7s-9.7-4.3-9.7-9.7S742.7,67,748.1,67z M748.2,81.5
		c2.6,0,4.8-2.2,4.8-4.8c0-2.6-2.2-4.8-4.8-4.8c-2.6,0-4.8,2.2-4.8,4.8S745.6,81.5,748.2,81.5z"/>
	<path class="st2" d="M822.3,192.3c5.7,0,10,4.5,10,10s-4.6,10-10,10c-5.7,0-10-4.6-10-10S816.6,192.3,822.3,192.3z M822.2,207.5
		c2.8,0,5.2-2.4,5.2-5.2c0-2.8-2.4-5.2-5.2-5.2s-5.2,2.4-5.2,5.2S819.4,207.5,822.2,207.5z"/>
	<path class="st2" d="M822.2,162.2c5.6,0,10.4,4.6,10.4,10.4c0,5.6-4.6,10.4-10.4,10.4c-5.6,0-10.4-4.6-10.4-10.4
		C811.8,167,816.4,162.3,822.2,162.2z M822.2,178c3,0,5.4-2.4,5.4-5.4s-2.4-5.4-5.4-5.4s-5.4,2.4-5.4,5.4
		C816.8,175.7,819.2,178,822.2,178z"/>
	<path class="st2" d="M1070.3-502.8c1.3,0,2.4,1.1,2.4,2.4v144.8l-35.9,35.9H863.3l-22.9-22.9V-392c0-1.3,1.1-2.4,2.4-2.4
		s2.4,1.1,2.4,2.4v47.2l19.9,19.9h169.3l32.9-32.9v-142.9C1067.9-501.7,1069-502.8,1070.3-502.8z"/>
	<path class="st2" d="M1091.3-487c1.3,0,2.4,1.1,2.4,2.4v146.1l-40.7,40.7H861.6L820.9-257c-0.9,0.9-2.6,0.9-3.5,0s-0.9-2.6,0-3.5
		l42-42h191.4l37.9-37.9v-144.2C1088.7-485.9,1089.8-487,1091.3-487z"/>
	<path class="st2" d="M1080.7-487c1.3,0,2.4,1.1,2.4,2.4v138.4l-36.6,36.6H843.6l-23.4,23.4c-0.9,0.9-2.6,0.9-3.5,0s-0.9-2.6,0-3.5
		l24.9-24.9h202.9l33.8-33.8v-136.2C1078.3-485.9,1079.4-487,1080.7-487z"/>
	<path class="st2" d="M843.6-413.2c6,0,10.8,4.7,10.8,10.8c0,6-4.7,10.8-10.8,10.8c-6,0-10.8-4.7-10.8-10.8
		C832.8-408.4,837.6-413.2,843.6-413.2z M843.6-396.6c3.2,0,5.8-2.6,5.8-5.8s-2.6-5.8-5.8-5.8s-5.8,2.6-5.8,5.8
		C837.8-399.1,840.4-396.6,843.6-396.6z"/>
	<path class="st2" d="M866-361.7c5.7,0,10.2,4.6,10.2,10.2c0,5.7-4.6,10.2-10.2,10.2c-5.7,0-10.2-4.6-10.2-10.2
		S860.3-361.7,866-361.7z M866-346.3c2.8,0,5.2-2.4,5.2-5.2s-2.4-5.2-5.2-5.2c-2.8,0-5.2,2.4-5.2,5.2
		C860.8-348.5,862.9-346.3,866-346.3z"/>
	<path class="st2" d="M866-386.8c5.6,0,10.4,4.5,10.4,10.4S871.8-366,866-366c-5.9,0-10.4-4.6-10.4-10.4
		C855.6-382.2,860.1-386.8,866-386.8z M865.9-371.2c3,0,5.4-2.4,5.4-5.4s-2.4-5.4-5.4-5.4s-5.4,2.4-5.4,5.4S862.9-371.2,865.9-371.2
		z"/>
	<path class="st2" d="M990.6-407.7c5.4,0,9.7,4.3,9.7,9.7s-4.3,9.7-9.7,9.7s-9.7-4.3-9.7-9.7C981.1-403.4,985.5-407.8,990.6-407.7z
		 M990.7-393.2c2.6,0,4.8-2.2,4.8-4.8s-2.2-4.8-4.8-4.8s-4.8,2.2-4.8,4.8C985.9-395.4,988.1-393.2,990.7-393.2z"/>
	<path class="st2" d="M679.5-354c5.4,0,9.7,4.3,9.7,9.7s-4.3,9.7-9.7,9.7s-9.7-4.3-9.7-9.7C669.8-349.8,674.1-354,679.5-354z
		 M679.6-339.5c2.6,0,4.8-2.2,4.8-4.8s-2.2-4.8-4.8-4.8c-2.6,0-4.8,2.2-4.8,4.8S677-339.5,679.6-339.5z"/>
	<path class="st2" d="M709.8-310.7c5.4,0,9.7,4.3,9.7,9.7s-4.3,9.7-9.7,9.7s-9.7-4.3-9.7-9.7C700.3-306.5,704.7-310.8,709.8-310.7z
		 M709.9-296.5c2.6,0,4.8-2.2,4.8-4.8s-2.2-4.8-4.8-4.8c-2.6,0-4.8,2.2-4.8,4.8C705.3-298.4,707.3-296.5,709.9-296.5z"/>
	<path class="st2" d="M674.5-275c5.4,0,9.7,4.3,9.7,9.7s-4.3,9.7-9.7,9.7s-9.7-4.3-9.7-9.7S669.1-275,674.5-275z M674.6-260.5
		c2.6,0,4.8-2.2,4.8-4.8s-2.2-4.8-4.8-4.8c-2.6,0-4.8,2.2-4.8,4.8C669.6-262.7,671.8-260.6,674.6-260.5z"/>
	<path class="st2" d="M968.5-407.7c5.4,0,9.7,4.3,9.7,9.7s-4.3,9.7-9.7,9.7s-9.7-4.3-9.7-9.7C958.8-403.4,963.2-407.8,968.5-407.7z
		 M968.6-393.2c2.6,0,4.8-2.2,4.8-4.8s-2.2-4.8-4.8-4.8s-4.8,2.2-4.8,4.8C963.8-395.4,966-393.3,968.6-393.2z"/>
	<path class="st2" d="M812.1-293.5c5.7,0,10,4.6,10,10c0,5.7-4.6,10-10,10c-5.7,0-10-4.6-10-10C801.9-289.1,806.4-293.5,812.1-293.5
		z M812.1-278.5c2.8,0,5.2-2.4,5.2-5.2s-2.4-5.2-5.2-5.2c-2.8,0-5.2,2.4-5.2,5.2C806.9-280.7,809.2-278.5,812.1-278.5z"/>
	<path class="st2" d="M811.4-263.6c5.6,0,10.4,4.6,10.4,10.4c0,5.6-4.6,10.4-10.4,10.4c-5.6,0-10.4-4.6-10.4-10.4
		S805.6-263.6,811.4-263.6z M811.4-247.8c3,0,5.4-2.4,5.4-5.4s-2.4-5.4-5.4-5.4s-5.4,2.4-5.4,5.4S808.4-247.8,811.4-247.8z"/>
	<rect x="1012.3" y="-473.2" class="st2" width="37.2" height="42.6"/>
	<rect x="961.2" y="-474.7" class="st2" width="37.2" height="42.6"/>
	<rect x="911" y="-474.7" class="st2" width="37.2" height="42.6"/>
	<polygon class="st2" points="1038.3,-432 1043,-432 1043,-368.6 1024.2,-349.8 875,-349.8 875,-354.5 1022.3,-354.5 1038.3,-370.5 
			"/>
	<polygon class="st2" points="1018.2,-440.5 1022.9,-440.5 1022.9,-390.2 1008.2,-375.5 875.5,-374.4 875.5,-379.4 1006.2,-380.5 
		1018.2,-392.2 	"/>
	<rect x="966" y="-440.3" class="st2" width="5" height="34.9"/>
	<rect x="988" y="-440" class="st2" width="5" height="34"/>
	<path class="st2" d="M866.1-487c1.3,0,2.4,1.1,2.4,2.4v71.7l19.7,19.7h33.3l16.7-16.7v-26c0-1.3,1.1-2.4,2.4-2.4
		c1.3,0,2.4,1.1,2.4,2.4v28.1l-19.6,19.7h-37.5l-22.5-22.5v-73.8C863.8-485.9,864.9-487,866.1-487z"/>
	<path class="st2" d="M879.1-487c1.3,0,2.4,1.1,2.4,2.4v64.7l13.2,13.2h20.8l9.5-9.5v-18.6c0-1.3,1.1-2.4,2.4-2.4
		c1.3,0,2.4,1.1,2.4,2.4v20.5l-12.6,12.6h-24.9l-16-16v-66.7C876.6-485.9,877.9-487,879.1-487z"/>
	<path class="st2" d="M888.6-487c1.3,0,2.4,1.1,2.4,2.4v59.8l8.7,8.7h8.2l5-5v-14.3c0-1.3,1.1-2.4,2.4-2.4c1.3,0,2.4,1.1,2.4,2.4
		v16.2l-7.8,7.8h-12.3l-11.5-11.5v-61.7C886.1-485.9,887.2-487,888.6-487z"/>
	<path class="st2" d="M805.5-487c1.3,0,2.4,1.1,2.4,2.4v147.5l-38.3,38.5h-52.3c-1.3,0-2.4-1.1-2.4-2.4c0-1.3,1.1-2.4,2.4-2.4h50.4
		l35.5-35.5v-145.5C803.2-485.9,804.2-487,805.5-487z"/>
	<path class="st2" d="M819.4-487.1c1.3,0,2.4,1.1,2.4,2.4v152l-48.1,48.1h-31.4l-19.1,19.1h-40.9c-1.3,0-2.4-1.1-2.4-2.4
		c0-1.3,1.1-2.4,2.4-2.4h39l19.1-19.1h31.4l45-45v-150C817-485.9,818.1-487,819.4-487.1z"/>
	<path class="st2" d="M791.4-486.4c1.3,0,2.4,1.1,2.4,2.4v139.7l-26,26h-22.7l-21-23.8h-37.5c-1.3,0-2.4-1.1-2.4-2.4
		c0-1.3,1.1-2.4,2.4-2.4h39.6l21,23.8h18.6l22.9-23.2v-137.5C788.7-485.3,789.7-486.4,791.4-486.4z"/>
	<path class="st2" d="M534.3,67.9c5.2,0,9.5,4.3,9.5,9.5v95.9c0,5.2-4.3,9.5-9.5,9.5s-9.5-4.3-9.5-9.5V77.2
		C524.8,72,529.1,67.9,534.3,67.9z"/>
	<rect x="491.6" y="158.8" class="st2" width="235.8" height="5"/>
	<polygon class="st2" points="717.2,119.2 743.9,119.2 743.9,124.1 719.2,124.1 693.6,149.9 491.6,149.9 491.6,144.9 691.5,144.9 	
		"/>
	<polygon class="st2" points="717.9,97.5 760.3,97.5 760.3,102.5 719.8,102.5 686.3,136.1 491.6,136.1 491.6,131.1 684.3,131.1 	"/>
	<polygon class="st2" points="719.6,74.1 741.9,74.1 741.9,79.1 721.6,79.1 680.4,120.3 491.6,120.3 491.6,115.3 678.5,115.3 	"/>
	<path class="st2" d="M726.1,46.7h50.7c1.3,0,2.4,1.1,2.4,2.4c0,1.3-1.1,2.4-2.4,2.4h-48.7l-54.3,54.3H491.5c-1.3,0-2.4-1.1-2.4-2.4
		s1.1-2.4,2.4-2.4h180.3L726.1,46.7z"/>
	<path class="st2" d="M729.1,24.6h74.7c1.3,0,2.4,1.1,2.4,2.4c0,1.3-1.1,2.4-2.4,2.4h-72.7l-64.5,64.5H491.4c-1.3,0-2.4-1.1-2.4-2.4
		s1.1-2.4,2.4-2.4h173L729.1,24.6z"/>
	<polygon class="st2" points="906.7,-58.1 1049.8,-58.1 1049.8,-53.2 908.6,-53.2 850.2,5.3 701.4,5.3 658.1,48.6 654.7,45.1 
		699.3,0.3 848.2,0.3 	"/>
	<polygon class="st2" points="900.2,-71.6 1085.9,-71.6 1085.9,-66.6 902.1,-66.6 844.3,-8.8 698.8,-8.8 681.7,8.3 630,8.3 630,3.6 
		679.8,3.6 696.9,-13.5 842.1,-13.5 	"/>
	<polygon class="st2" points="892.2,-82.8 1106.5,-82.8 1106.5,-77.8 894.3,-77.8 840,-23.5 662.9,-23.5 662.9,-28.5 838,-28.5 	"/>
	<polygon class="st2" points="887.6,-92.6 1113,-92.6 1113,-87.6 889.6,-87.6 835.4,-33.5 696.2,-33.5 678.5,-51 630.6,-51 
		630.6,-56 680.6,-56 698.2,-38.2 833.3,-38.2 	"/>
	<polygon class="st2" points="883.1,-103.2 1119.5,-103.2 1119.5,-98.2 885,-98.2 831.5,-44.5 702.1,-44.5 665.7,-80.9 632.1,-80.9 
		632.1,-85.8 667.9,-85.8 704,-49.5 829.4,-49.5 	"/>
	<path class="st2" d="M572.9-233.7c1.3,0,2.4,1.1,2.4,2.4v79.2L526.2-103V1.2l49.1,49.1c0.9,0.9,0.9,2.6,0,3.5s-2.6,0.9-3.5,0
		L521.1,3.1v-108l49.1-49.1v-77.3C570.2-232.6,571.3-233.7,572.9-233.7z"/>
	<path class="st2" d="M545.3-287.4c2.8,0,5,2.2,5,5v111l-25.5,25.5c-1.9,1.9-5,1.9-6.9,0s-1.9-5,0-6.9l22.7-22.7v-106.9
		C540.3-285.2,542.7-287.4,545.3-287.4z"/>
	<path class="st2" d="M612.1-237.1c0.6,0,1.3,0.2,1.7,0.6c0.9,0.9,0.9,2.6,0,3.5l-22.5,22.5v60.6L540.4-99v97.6
		c0,1.3-1.1,2.4-2.4,2.4s-2.4-1.1-2.4-2.4v-99.8l50.9-50.9v-60.6l23.8-23.8C610.7-237,611.4-237.2,612.1-237.1z"/>
	<path class="st2" d="M611.7-156.2c0.6,0,1.3,0.2,1.7,0.6c0.9,0.9,0.9,2.6,0,3.5l-58,58v66c0,1.3-1.1,2.4-2.4,2.4s-2.4-1.1-2.4-2.4
		v-68.2l59.5-59.5C610.3-156,610.9-156.2,611.7-156.2z"/>
	<polygon class="st2" points="597.5,-380.7 733,-380.7 755.5,-358.4 752.1,-355 731.1,-375.7 599.5,-375.7 568.9,-345.2 
		491.6,-345.2 491.6,-350.2 567,-350.2 	"/>
	<polygon class="st2" points="593.6,-401.9 749.5,-401.9 749.5,-397 595.6,-397 560.3,-361.7 491.6,-361.7 491.6,-366.6 
		558.3,-366.6 	"/>
	<polygon class="st2" points="750.3,-435.1 753.8,-431.6 735,-412.8 591,-412.8 553.8,-375.5 491.6,-375.5 491.6,-380.5 
		551.8,-380.5 588.8,-417.5 733,-417.5 	"/>
	<polygon class="st2" points="582.3,-441.3 709.6,-441.3 709.6,-436.4 584.3,-436.4 548.8,-400.8 528.4,-400.8 528.4,-405.8 
		546.8,-405.8 	"/>
	<polygon class="st2" points="577.2,-463 667.6,-463 667.6,-458 579.1,-458 549.4,-428.6 528,-428.6 528,-433.3 547.5,-433.3 	"/>
	<path class="st2" d="M1094.8-286.1c5.6,0,10.4,4.6,10.4,10.4c0,5.6-4.6,10.4-10.4,10.4c-5.6,0-10.4-4.6-10.4-10.4
		C1084.4-281.3,1088.9-286.1,1094.8-286.1z M1094.8-270.3c3,0,5.4-2.4,5.4-5.4s-2.4-5.4-5.4-5.4s-5.4,2.4-5.4,5.4
		S1091.8-270.3,1094.8-270.3z"/>
	<path class="st2" d="M1064.7-237c5.6,0,10.4,4.6,10.4,10.4c0,5.6-4.6,10.4-10.4,10.4c-5.6,0-10.4-4.6-10.4-10.4
		C1054.5-232.4,1059.1-237,1064.7-237z M1064.7-221.2c3,0,5.4-2.4,5.4-5.4s-2.4-5.4-5.4-5.4s-5.4,2.4-5.4,5.4
		C1059.3-223.8,1061.9-221.2,1064.7-221.2z"/>
	<path class="st2" d="M664.8-140.6c5.6,0,10.4,4.5,10.4,10.4s-4.6,10.4-10.4,10.4c-5.6,0-10.4-4.6-10.4-10.4
		C654.4-136.1,659-140.6,664.8-140.6z M664.8-124.8c3,0,5.4-2.4,5.4-5.4s-2.4-5.4-5.4-5.4s-5.4,2.4-5.4,5.4S661.8-124.8,664.8-124.8
		z"/>
	<path class="st2" d="M664.8-176.6c5.6,0,10.4,4.6,10.4,10.4c0,5.6-4.6,10.4-10.4,10.4c-5.6,0-10.4-4.6-10.4-10.4
		C654.4-171.8,659-176.6,664.8-176.6z M664.8-160.8c3,0,5.4-2.4,5.4-5.4s-2.4-5.4-5.4-5.4s-5.4,2.4-5.4,5.4
		C659.4-163.1,661.8-160.8,664.8-160.8z"/>
	<path class="st2" d="M701-208.4c5.6,0,10.4,4.6,10.4,10.4c0,5.6-4.6,10.4-10.4,10.4c-5.6,0-10.4-4.6-10.4-10.4
		S695.1-208.4,701-208.4z M701-192.6c3,0,5.4-2.4,5.4-5.4s-2.4-5.4-5.4-5.4s-5.4,2.4-5.4,5.4S698-192.6,701-192.6z"/>
	<path class="st2" d="M715.5-90.1h105.6l97.9-97.6h258.5c5.5,0,10-4.4,10-10c0-5.5-4.4-10-10-10H911l-97.6,97.6h-97.9
		c-5.5,0-10,4.4-10,10S710.1-90.2,715.5-90.1z M1177.1-202.6c2.8,0,5,2.2,5,5s-2.2,5-5,5c-2.8,0-5-2.2-5-5
		S1174.2-202.5,1177.1-202.6z M715.9-104.7c2.8,0,5,2.2,5,5s-2.2,5-5,5s-5-2.2-5-5C710.9-102.3,713.1-104.7,715.9-104.7z"/>
	<polygon class="st2" points="900.2,-229.8 1059.1,-229.8 1059.1,-224.8 902.1,-224.8 806,-128.7 671.1,-128.7 671.1,-133.5 
		803.8,-133.5 	"/>
	<polygon class="st2" points="894.1,-243.7 1107.3,-243.7 1107.3,-238.7 896.3,-238.7 800.6,-143 686,-143 669.2,-159.7 
		672.6,-163.4 688,-147.8 798.4,-147.8 	"/>
	<polygon class="st2" points="866.6,-279.2 1090.7,-279.2 1090.7,-274.2 868.6,-274.2 790.2,-195.8 707.7,-195.8 707.7,-200.6 
		788,-200.6 	"/>
</g>
<image style="overflow:visible;enable-background:new    ;" width="1140" height="570" xlink:href="../../../UX-Design-for-IoT-Projects-–-Zerynth-Continuous-Learning-Webinar.jpg"  transform="matrix(1 0 0 1 2620.8 -655.2528)">
</image>
</svg>
