<?xml version="1.0" encoding="utf-8"?>
<!-- Generator: Adobe Illustrator 19.0.0, SVG Export Plug-In . SVG Version: 6.00 Build 0)  -->
<svg version="1.1" id="Capa_1" xmlns="http://www.w3.org/2000/svg" xmlns:xlink="http://www.w3.org/1999/xlink" x="0px" y="0px"
	 viewBox="564 -88 1920 1400" style="enable-background:new 564 -88 1920 1400;" xml:space="preserve">
<style type="text/css">
	.st0{opacity:0.1;}
	.st1{fill:#FFFFFF;}
</style>
<title>analítica y ciencia de datos</title>
<g id="XMLID_4_" class="st0">
	<g id="XMLID_28_">
		<g id="XMLID_34_">
			<g id="XMLID_35_">
				<path id="XMLID_36_" class="st1" d="M2311.4,242.8c-217.4,0-394.1,165.5-394.1,368.5c0,146.3,94.8,274.1,227.3,333.3l-2.9-23.1
					c-120.7-58-203.6-175.1-203.6-310.3c0-192.1,167.5-348.7,373.3-348.7s373.3,156.2,373.3,348.7c0,135.1-82.9,252.3-203.6,310.3
					V944c132.6-59.6,224.4-186.3,224.4-332.7C2705.6,408.4,2528.8,242.8,2311.4,242.8z"/>
			</g>
		</g>
		<g id="XMLID_29_">
			<g id="XMLID_30_">
				<path id="XMLID_31_" class="st1" d="M2154.9,952l-24.3-10.2c-139-62.4-216.1-186-216.1-327.9c0-204.9,178-371.4,397-371.4
					s397,166.8,397,371.4c0,142.2-85.8,269.3-223.2,331.1l-7,2.9v-25.3l1.6-0.6c124.5-59.6,202-177.7,202-307.7
					c0-190.5-166.2-345.8-370.4-345.8S1941,423.4,1941,614.2c0,130,77.5,248.1,202,307.7l1.3,0.6L2154.9,952z M2311.4,248.3
					c-215.8,0-391.3,164.3-391.3,365.6c0,138,86.4,266.4,220.9,328.8l-2.2-16.6c-125.8-60.8-203.6-180.3-203.6-312.2
					c0-193.7,168.7-351.6,376.2-351.6s376.2,157.5,376.2,351.6c0,131.9-77.8,251.3-203.6,312.2v16
					c132.9-61.5,218.7-189.9,218.7-328.2C2702.7,412.2,2527.2,248.3,2311.4,248.3z"/>
			</g>
		</g>
	</g>
	<g id="XMLID_26_">
		<path id="XMLID_27_" class="st1" d="M2106.2,571.3c-36.5,9.6-71.1,27.5-99.9,53.5l0,0l0,0l0,0l0,0c-7,6.4-7,16.6-0.3,22.7
			c6.7,6.1,18.3,6.1,25.3-0.3l0,0c22.4-20.2,48.7-34.6,76.8-43.2"/>
	</g>
	<g id="XMLID_24_">
		<path id="XMLID_25_" class="st1" d="M2106.9,635.4c-18.3,7-35.2,17.6-49.9,31.1l-0.3,0.6c-7,6.4-7.4,16.6-0.3,22.7
			s18.3,5.8,25.3-0.6l0.3-0.3c7.7-6.7,15.7-12.5,24.7-17.3"/>
	</g>
	<g id="XMLID_22_">
		<path id="XMLID_23_" class="st1" d="M2112.6,702.6c-6.1,3.2-11.8,7-17,11.2l0,0l0,0c-7.4,6.4-7.7,16.6,0,22.4
			c4.8,3.8,11.8,5.1,18.3,3.8"/>
	</g>
	<g id="XMLID_20_">
		<path id="XMLID_21_" class="st1" d="M2492.3,615.2c-5.8-1.3-12.5,0.3-17.3,4.5l0,0c-3.2,2.9-6.7,5.4-10.6,7.7"/>
	</g>
	<g id="XMLID_18_">
		<path id="XMLID_19_" class="st1" d="M2509.6,641.1c2.6-1.9,5.1-3.8,7.4-6.1l0.3-0.3c7-6.4,7.4-16.6,0.3-23.1
			c-2.2-1.9-5.1-3.5-8-4.2"/>
	</g>
	<g id="XMLID_16_">
		<path id="XMLID_17_" class="st1" d="M2464.5,627.4c-22.4,12.8-52.8,10.2-72.4-7.4l0,0c-16.3-14.7-34.6-26.9-54.1-36.5v37.1
			c10.2,6.4,19.9,13.4,29.1,21.8l0,0l0,0c26.3,23.7,64.4,30.4,97.3,20.2c9.9-3.2,19.2-7.7,27.9-14.1"/>
	</g>
	<g id="XMLID_14_">
		<path id="XMLID_15_" class="st1" d="M2509.6,712.2c20.8-7.4,40.3-18.6,57-33.6l0.6-0.6c7-6.4,7.4-16.6,0.6-23.1
			c-6.7-6.1-18.3-6.1-25.3,0.3l-0.6,0.6c-9.6,8.6-20.5,16-32,21.1"/>
	</g>
	<g id="XMLID_12_">
		<path id="XMLID_13_" class="st1" d="M2492.3,686.3c-48.3,22.4-109.2,15.4-149.5-21.1l0,0c-1.6-1.3-2.9-2.6-4.5-3.8v41.9
			c45.5,29.5,103.4,35.2,154,17.9"/>
	</g>
	<g id="XMLID_10_">
		<path id="XMLID_11_" class="st1" d="M2509.6,784.3c39.4-9,76.5-27.5,107.6-55.4l0.6-0.6c7-6.4,7.4-16.6,0.6-23.1
			c-6.7-6.1-18.3-6.1-25.3,0.3l-0.6,0.6c-23.7,21.5-51.9,36.5-81.6,44.8"/>
	</g>
	<g id="XMLID_7_">
		<path id="XMLID_8_" class="st1" d="M2492.3,754.5c-50.6,14.1-106.6,9.6-154-14.1v35.5c48.3,19.5,102.5,23.4,153,11.8"/>
	</g>
	<g id="XMLID_5_">
		<path id="XMLID_6_" class="st1" d="M2301.8,407.7l-171.3,90.6v64c53.5-13.8,111.4-10.6,162.7,10.2v35.5
			c-49.6-24.7-109.8-28.8-162.7-12.8v34.6c52.5-20.8,114.9-15.7,162.7,15.7v42.3c-1.6-1.3-3.5-2.9-5.1-4.5l0,0
			c-42.9-38.4-107.9-44.2-157.5-17.6v28.5c40.3-20.8,94.5-16.6,129.4,11.8c10.2,8.3,21.5,15.7,33.3,22.1v37.1
			c-22.1-9.6-42.6-21.8-61.2-36.8c-5.8-4.8-12.5-8.3-19.5-10.9c-13.4-4.8-28.5-5.8-42.6-2.9c-7,1.6-13.8,3.8-20.2,7.4
			c-6.4,3.5-12.5,8-19.5,10.9v-1v209.7c54.4,25.3,115.9,39.7,180.9,39.7c2.2,0,4.2,0,6.4,0V443.3l146.6,73v437.4
			c9.3-3.5,18.6-7.4,27.9-11.5V502.2L2301.8,407.7z"/>
	</g>
</g>
</svg>
